G04 #@! TF.FileFunction,Legend,Top*
%FSLAX46Y46*%
G04 Gerber Fmt 4.6, Leading zero omitted, Abs format (unit mm)*
G04 Created by KiCad (PCBNEW 4.0.5) date Sun Jan  1 21:38:31 2017*
%MOMM*%
%LPD*%
G01*
G04 APERTURE LIST*
%ADD10C,0.100000*%
%ADD11C,0.125000*%
%ADD12C,0.075000*%
%ADD13C,0.250000*%
%ADD14C,0.150000*%
%ADD15C,0.120000*%
%ADD16C,0.152400*%
%ADD17C,0.010000*%
G04 APERTURE END LIST*
D10*
D11*
X141028571Y-113092857D02*
X141485714Y-113092857D01*
X141257143Y-113321429D02*
X141257143Y-112864286D01*
X141714285Y-112721429D02*
X142085714Y-112721429D01*
X141885714Y-112950000D01*
X141971428Y-112950000D01*
X142028571Y-112978571D01*
X142057142Y-113007143D01*
X142085714Y-113064286D01*
X142085714Y-113207143D01*
X142057142Y-113264286D01*
X142028571Y-113292857D01*
X141971428Y-113321429D01*
X141800000Y-113321429D01*
X141742857Y-113292857D01*
X141714285Y-113264286D01*
X142257143Y-112721429D02*
X142457143Y-113321429D01*
X142657143Y-112721429D01*
X138635715Y-113292857D02*
X138721429Y-113321429D01*
X138864286Y-113321429D01*
X138921429Y-113292857D01*
X138950000Y-113264286D01*
X138978572Y-113207143D01*
X138978572Y-113150000D01*
X138950000Y-113092857D01*
X138921429Y-113064286D01*
X138864286Y-113035714D01*
X138750000Y-113007143D01*
X138692858Y-112978571D01*
X138664286Y-112950000D01*
X138635715Y-112892857D01*
X138635715Y-112835714D01*
X138664286Y-112778571D01*
X138692858Y-112750000D01*
X138750000Y-112721429D01*
X138892858Y-112721429D01*
X138978572Y-112750000D01*
X139578572Y-113264286D02*
X139550001Y-113292857D01*
X139464287Y-113321429D01*
X139407144Y-113321429D01*
X139321429Y-113292857D01*
X139264287Y-113235714D01*
X139235715Y-113178571D01*
X139207144Y-113064286D01*
X139207144Y-112978571D01*
X139235715Y-112864286D01*
X139264287Y-112807143D01*
X139321429Y-112750000D01*
X139407144Y-112721429D01*
X139464287Y-112721429D01*
X139550001Y-112750000D01*
X139578572Y-112778571D01*
X140121429Y-113321429D02*
X139835715Y-113321429D01*
X139835715Y-112721429D01*
X136021429Y-113292857D02*
X136107143Y-113321429D01*
X136250000Y-113321429D01*
X136307143Y-113292857D01*
X136335714Y-113264286D01*
X136364286Y-113207143D01*
X136364286Y-113150000D01*
X136335714Y-113092857D01*
X136307143Y-113064286D01*
X136250000Y-113035714D01*
X136135714Y-113007143D01*
X136078572Y-112978571D01*
X136050000Y-112950000D01*
X136021429Y-112892857D01*
X136021429Y-112835714D01*
X136050000Y-112778571D01*
X136078572Y-112750000D01*
X136135714Y-112721429D01*
X136278572Y-112721429D01*
X136364286Y-112750000D01*
X136621429Y-113321429D02*
X136621429Y-112721429D01*
X136764286Y-112721429D01*
X136850001Y-112750000D01*
X136907143Y-112807143D01*
X136935715Y-112864286D01*
X136964286Y-112978571D01*
X136964286Y-113064286D01*
X136935715Y-113178571D01*
X136907143Y-113235714D01*
X136850001Y-113292857D01*
X136764286Y-113321429D01*
X136621429Y-113321429D01*
X137192858Y-113150000D02*
X137478572Y-113150000D01*
X137135715Y-113321429D02*
X137335715Y-112721429D01*
X137535715Y-113321429D01*
X133692858Y-112450000D02*
X133635715Y-112421429D01*
X133550001Y-112421429D01*
X133464286Y-112450000D01*
X133407144Y-112507143D01*
X133378572Y-112564286D01*
X133350001Y-112678571D01*
X133350001Y-112764286D01*
X133378572Y-112878571D01*
X133407144Y-112935714D01*
X133464286Y-112992857D01*
X133550001Y-113021429D01*
X133607144Y-113021429D01*
X133692858Y-112992857D01*
X133721429Y-112964286D01*
X133721429Y-112764286D01*
X133607144Y-112764286D01*
X133978572Y-113021429D02*
X133978572Y-112421429D01*
X134321429Y-113021429D01*
X134321429Y-112421429D01*
X134607143Y-113021429D02*
X134607143Y-112421429D01*
X134750000Y-112421429D01*
X134835715Y-112450000D01*
X134892857Y-112507143D01*
X134921429Y-112564286D01*
X134950000Y-112678571D01*
X134950000Y-112764286D01*
X134921429Y-112878571D01*
X134892857Y-112935714D01*
X134835715Y-112992857D01*
X134750000Y-113021429D01*
X134607143Y-113021429D01*
X173200000Y-87400000D02*
X175100000Y-87400000D01*
X173633333Y-86550000D02*
X173566667Y-86516667D01*
X173466667Y-86516667D01*
X173366667Y-86550000D01*
X173300000Y-86616667D01*
X173266667Y-86683333D01*
X173233333Y-86816667D01*
X173233333Y-86916667D01*
X173266667Y-87050000D01*
X173300000Y-87116667D01*
X173366667Y-87183333D01*
X173466667Y-87216667D01*
X173533333Y-87216667D01*
X173633333Y-87183333D01*
X173666667Y-87150000D01*
X173666667Y-86916667D01*
X173533333Y-86916667D01*
X173966667Y-87216667D02*
X173966667Y-86516667D01*
X174366667Y-87216667D01*
X174366667Y-86516667D01*
X174700000Y-87216667D02*
X174700000Y-86516667D01*
X174866666Y-86516667D01*
X174966666Y-86550000D01*
X175033333Y-86616667D01*
X175066666Y-86683333D01*
X175100000Y-86816667D01*
X175100000Y-86916667D01*
X175066666Y-87050000D01*
X175033333Y-87116667D01*
X174966666Y-87183333D01*
X174866666Y-87216667D01*
X174700000Y-87216667D01*
X173666667Y-84716667D02*
X173433333Y-84383333D01*
X173266667Y-84716667D02*
X173266667Y-84016667D01*
X173533333Y-84016667D01*
X173600000Y-84050000D01*
X173633333Y-84083333D01*
X173666667Y-84150000D01*
X173666667Y-84250000D01*
X173633333Y-84316667D01*
X173600000Y-84350000D01*
X173533333Y-84383333D01*
X173266667Y-84383333D01*
X173900000Y-84016667D02*
X174366667Y-84716667D01*
X174366667Y-84016667D02*
X173900000Y-84716667D01*
X173166667Y-81516667D02*
X173566667Y-81516667D01*
X173366667Y-82216667D02*
X173366667Y-81516667D01*
X173733333Y-81516667D02*
X174200000Y-82216667D01*
X174200000Y-81516667D02*
X173733333Y-82216667D01*
X173266667Y-79350000D02*
X173800000Y-79350000D01*
X173533333Y-79616667D02*
X173533333Y-79083333D01*
X174466667Y-78916667D02*
X174133334Y-78916667D01*
X174100000Y-79250000D01*
X174133334Y-79216667D01*
X174200000Y-79183333D01*
X174366667Y-79183333D01*
X174433334Y-79216667D01*
X174466667Y-79250000D01*
X174500000Y-79316667D01*
X174500000Y-79483333D01*
X174466667Y-79550000D01*
X174433334Y-79583333D01*
X174366667Y-79616667D01*
X174200000Y-79616667D01*
X174133334Y-79583333D01*
X174100000Y-79550000D01*
X174700001Y-78916667D02*
X174933334Y-79616667D01*
X175166667Y-78916667D01*
X168750000Y-111500000D02*
X167750000Y-110500000D01*
X136000000Y-92050000D02*
X134350000Y-92050000D01*
X136000000Y-97200000D02*
X136000000Y-92050000D01*
X136000000Y-97200000D02*
X134350000Y-97200000D01*
X136000000Y-102150000D02*
X136000000Y-97200000D01*
X134350000Y-102150000D02*
X136000000Y-102150000D01*
X134950000Y-86200000D02*
X136900000Y-86200000D01*
X134983333Y-80833333D02*
X135083333Y-80866667D01*
X135250000Y-80866667D01*
X135316667Y-80833333D01*
X135350000Y-80800000D01*
X135383333Y-80733333D01*
X135383333Y-80666667D01*
X135350000Y-80600000D01*
X135316667Y-80566667D01*
X135250000Y-80533333D01*
X135116667Y-80500000D01*
X135050000Y-80466667D01*
X135016667Y-80433333D01*
X134983333Y-80366667D01*
X134983333Y-80300000D01*
X135016667Y-80233333D01*
X135050000Y-80200000D01*
X135116667Y-80166667D01*
X135283333Y-80166667D01*
X135383333Y-80200000D01*
X136083334Y-80800000D02*
X136050000Y-80833333D01*
X135950000Y-80866667D01*
X135883334Y-80866667D01*
X135783334Y-80833333D01*
X135716667Y-80766667D01*
X135683334Y-80700000D01*
X135650000Y-80566667D01*
X135650000Y-80466667D01*
X135683334Y-80333333D01*
X135716667Y-80266667D01*
X135783334Y-80200000D01*
X135883334Y-80166667D01*
X135950000Y-80166667D01*
X136050000Y-80200000D01*
X136083334Y-80233333D01*
X136716667Y-80866667D02*
X136383334Y-80866667D01*
X136383334Y-80166667D01*
X134983333Y-83383333D02*
X135083333Y-83416667D01*
X135250000Y-83416667D01*
X135316667Y-83383333D01*
X135350000Y-83350000D01*
X135383333Y-83283333D01*
X135383333Y-83216667D01*
X135350000Y-83150000D01*
X135316667Y-83116667D01*
X135250000Y-83083333D01*
X135116667Y-83050000D01*
X135050000Y-83016667D01*
X135016667Y-82983333D01*
X134983333Y-82916667D01*
X134983333Y-82850000D01*
X135016667Y-82783333D01*
X135050000Y-82750000D01*
X135116667Y-82716667D01*
X135283333Y-82716667D01*
X135383333Y-82750000D01*
X135683334Y-83416667D02*
X135683334Y-82716667D01*
X135850000Y-82716667D01*
X135950000Y-82750000D01*
X136016667Y-82816667D01*
X136050000Y-82883333D01*
X136083334Y-83016667D01*
X136083334Y-83116667D01*
X136050000Y-83250000D01*
X136016667Y-83316667D01*
X135950000Y-83383333D01*
X135850000Y-83416667D01*
X135683334Y-83416667D01*
X136350000Y-83216667D02*
X136683334Y-83216667D01*
X136283334Y-83416667D02*
X136516667Y-82716667D01*
X136750000Y-83416667D01*
X135383333Y-85300000D02*
X135316667Y-85266667D01*
X135216667Y-85266667D01*
X135116667Y-85300000D01*
X135050000Y-85366667D01*
X135016667Y-85433333D01*
X134983333Y-85566667D01*
X134983333Y-85666667D01*
X135016667Y-85800000D01*
X135050000Y-85866667D01*
X135116667Y-85933333D01*
X135216667Y-85966667D01*
X135283333Y-85966667D01*
X135383333Y-85933333D01*
X135416667Y-85900000D01*
X135416667Y-85666667D01*
X135283333Y-85666667D01*
X135716667Y-85966667D02*
X135716667Y-85266667D01*
X136116667Y-85966667D01*
X136116667Y-85266667D01*
X136450000Y-85966667D02*
X136450000Y-85266667D01*
X136616666Y-85266667D01*
X136716666Y-85300000D01*
X136783333Y-85366667D01*
X136816666Y-85433333D01*
X136850000Y-85566667D01*
X136850000Y-85666667D01*
X136816666Y-85800000D01*
X136783333Y-85866667D01*
X136716666Y-85933333D01*
X136616666Y-85966667D01*
X136450000Y-85966667D01*
X134983333Y-88483333D02*
X135083333Y-88516667D01*
X135250000Y-88516667D01*
X135316667Y-88483333D01*
X135350000Y-88450000D01*
X135383333Y-88383333D01*
X135383333Y-88316667D01*
X135350000Y-88250000D01*
X135316667Y-88216667D01*
X135250000Y-88183333D01*
X135116667Y-88150000D01*
X135050000Y-88116667D01*
X135016667Y-88083333D01*
X134983333Y-88016667D01*
X134983333Y-87950000D01*
X135016667Y-87883333D01*
X135050000Y-87850000D01*
X135116667Y-87816667D01*
X135283333Y-87816667D01*
X135383333Y-87850000D01*
X136016667Y-88516667D02*
X135683334Y-88516667D01*
X135683334Y-87816667D01*
X136250001Y-88516667D02*
X136250001Y-87816667D01*
X136516667Y-87816667D01*
X136583334Y-87850000D01*
X136616667Y-87883333D01*
X136650001Y-87950000D01*
X136650001Y-88050000D01*
X136616667Y-88116667D01*
X136583334Y-88150000D01*
X136516667Y-88183333D01*
X136250001Y-88183333D01*
X135016667Y-90800000D02*
X135550000Y-90800000D01*
X135283333Y-91066667D02*
X135283333Y-90533333D01*
X136216667Y-90366667D02*
X135883334Y-90366667D01*
X135850000Y-90700000D01*
X135883334Y-90666667D01*
X135950000Y-90633333D01*
X136116667Y-90633333D01*
X136183334Y-90666667D01*
X136216667Y-90700000D01*
X136250000Y-90766667D01*
X136250000Y-90933333D01*
X136216667Y-91000000D01*
X136183334Y-91033333D01*
X136116667Y-91066667D01*
X135950000Y-91066667D01*
X135883334Y-91033333D01*
X135850000Y-91000000D01*
X136450001Y-90366667D02*
X136683334Y-91066667D01*
X136916667Y-90366667D01*
X135516667Y-95800000D02*
X134816667Y-95800000D01*
X134816667Y-95533334D01*
X134850000Y-95466667D01*
X134883333Y-95433334D01*
X134950000Y-95400000D01*
X135050000Y-95400000D01*
X135116667Y-95433334D01*
X135150000Y-95466667D01*
X135183333Y-95533334D01*
X135183333Y-95800000D01*
X135250000Y-95100000D02*
X135250000Y-94566667D01*
X135516667Y-94833334D02*
X134983333Y-94833334D01*
X134816667Y-94300000D02*
X134816667Y-93866667D01*
X135083333Y-94100000D01*
X135083333Y-94000000D01*
X135116667Y-93933333D01*
X135150000Y-93900000D01*
X135216667Y-93866667D01*
X135383333Y-93866667D01*
X135450000Y-93900000D01*
X135483333Y-93933333D01*
X135516667Y-94000000D01*
X135516667Y-94200000D01*
X135483333Y-94266667D01*
X135450000Y-94300000D01*
X134816667Y-93666666D02*
X135516667Y-93433333D01*
X134816667Y-93200000D01*
X135300000Y-100550000D02*
X135300000Y-100016667D01*
X135566667Y-100283334D02*
X135033333Y-100283334D01*
X134866667Y-99750000D02*
X134866667Y-99316667D01*
X135133333Y-99550000D01*
X135133333Y-99450000D01*
X135166667Y-99383333D01*
X135200000Y-99350000D01*
X135266667Y-99316667D01*
X135433333Y-99316667D01*
X135500000Y-99350000D01*
X135533333Y-99383333D01*
X135566667Y-99450000D01*
X135566667Y-99650000D01*
X135533333Y-99716667D01*
X135500000Y-99750000D01*
X134866667Y-99116666D02*
X135566667Y-98883333D01*
X134866667Y-98650000D01*
X127650000Y-100516667D02*
X127783333Y-100516667D01*
X127850000Y-100550000D01*
X127916667Y-100616667D01*
X127950000Y-100750000D01*
X127950000Y-100983333D01*
X127916667Y-101116667D01*
X127850000Y-101183333D01*
X127783333Y-101216667D01*
X127650000Y-101216667D01*
X127583333Y-101183333D01*
X127516667Y-101116667D01*
X127483333Y-100983333D01*
X127483333Y-100750000D01*
X127516667Y-100616667D01*
X127583333Y-100550000D01*
X127650000Y-100516667D01*
X128616666Y-101216667D02*
X128216666Y-101216667D01*
X128416666Y-101216667D02*
X128416666Y-100516667D01*
X128350000Y-100616667D01*
X128283333Y-100683333D01*
X128216666Y-100716667D01*
X127183334Y-98666667D02*
X127183334Y-97966667D01*
X127650000Y-97966667D02*
X127783333Y-97966667D01*
X127850000Y-98000000D01*
X127916667Y-98066667D01*
X127950000Y-98200000D01*
X127950000Y-98433333D01*
X127916667Y-98566667D01*
X127850000Y-98633333D01*
X127783333Y-98666667D01*
X127650000Y-98666667D01*
X127583333Y-98633333D01*
X127516667Y-98566667D01*
X127483333Y-98433333D01*
X127483333Y-98200000D01*
X127516667Y-98066667D01*
X127583333Y-98000000D01*
X127650000Y-97966667D01*
X128216666Y-98033333D02*
X128250000Y-98000000D01*
X128316666Y-97966667D01*
X128483333Y-97966667D01*
X128550000Y-98000000D01*
X128583333Y-98033333D01*
X128616666Y-98100000D01*
X128616666Y-98166667D01*
X128583333Y-98266667D01*
X128183333Y-98666667D01*
X128616666Y-98666667D01*
X127183334Y-96116667D02*
X127183334Y-95416667D01*
X127650000Y-95416667D02*
X127783333Y-95416667D01*
X127850000Y-95450000D01*
X127916667Y-95516667D01*
X127950000Y-95650000D01*
X127950000Y-95883333D01*
X127916667Y-96016667D01*
X127850000Y-96083333D01*
X127783333Y-96116667D01*
X127650000Y-96116667D01*
X127583333Y-96083333D01*
X127516667Y-96016667D01*
X127483333Y-95883333D01*
X127483333Y-95650000D01*
X127516667Y-95516667D01*
X127583333Y-95450000D01*
X127650000Y-95416667D01*
X128183333Y-95416667D02*
X128616666Y-95416667D01*
X128383333Y-95683333D01*
X128483333Y-95683333D01*
X128550000Y-95716667D01*
X128583333Y-95750000D01*
X128616666Y-95816667D01*
X128616666Y-95983333D01*
X128583333Y-96050000D01*
X128550000Y-96083333D01*
X128483333Y-96116667D01*
X128283333Y-96116667D01*
X128216666Y-96083333D01*
X128183333Y-96050000D01*
X127183334Y-93566667D02*
X127183334Y-92866667D01*
X127650000Y-92866667D02*
X127783333Y-92866667D01*
X127850000Y-92900000D01*
X127916667Y-92966667D01*
X127950000Y-93100000D01*
X127950000Y-93333333D01*
X127916667Y-93466667D01*
X127850000Y-93533333D01*
X127783333Y-93566667D01*
X127650000Y-93566667D01*
X127583333Y-93533333D01*
X127516667Y-93466667D01*
X127483333Y-93333333D01*
X127483333Y-93100000D01*
X127516667Y-92966667D01*
X127583333Y-92900000D01*
X127650000Y-92866667D01*
X128550000Y-93100000D02*
X128550000Y-93566667D01*
X128383333Y-92833333D02*
X128216666Y-93333333D01*
X128650000Y-93333333D01*
X127183334Y-91066667D02*
X127183334Y-90366667D01*
X127650000Y-90366667D02*
X127783333Y-90366667D01*
X127850000Y-90400000D01*
X127916667Y-90466667D01*
X127950000Y-90600000D01*
X127950000Y-90833333D01*
X127916667Y-90966667D01*
X127850000Y-91033333D01*
X127783333Y-91066667D01*
X127650000Y-91066667D01*
X127583333Y-91033333D01*
X127516667Y-90966667D01*
X127483333Y-90833333D01*
X127483333Y-90600000D01*
X127516667Y-90466667D01*
X127583333Y-90400000D01*
X127650000Y-90366667D01*
X128583333Y-90366667D02*
X128250000Y-90366667D01*
X128216666Y-90700000D01*
X128250000Y-90666667D01*
X128316666Y-90633333D01*
X128483333Y-90633333D01*
X128550000Y-90666667D01*
X128583333Y-90700000D01*
X128616666Y-90766667D01*
X128616666Y-90933333D01*
X128583333Y-91000000D01*
X128550000Y-91033333D01*
X128483333Y-91066667D01*
X128316666Y-91066667D01*
X128250000Y-91033333D01*
X128216666Y-91000000D01*
X127183334Y-88516667D02*
X127183334Y-87816667D01*
X127650000Y-87816667D02*
X127783333Y-87816667D01*
X127850000Y-87850000D01*
X127916667Y-87916667D01*
X127950000Y-88050000D01*
X127950000Y-88283333D01*
X127916667Y-88416667D01*
X127850000Y-88483333D01*
X127783333Y-88516667D01*
X127650000Y-88516667D01*
X127583333Y-88483333D01*
X127516667Y-88416667D01*
X127483333Y-88283333D01*
X127483333Y-88050000D01*
X127516667Y-87916667D01*
X127583333Y-87850000D01*
X127650000Y-87816667D01*
X128550000Y-87816667D02*
X128416666Y-87816667D01*
X128350000Y-87850000D01*
X128316666Y-87883333D01*
X128250000Y-87983333D01*
X128216666Y-88116667D01*
X128216666Y-88383333D01*
X128250000Y-88450000D01*
X128283333Y-88483333D01*
X128350000Y-88516667D01*
X128483333Y-88516667D01*
X128550000Y-88483333D01*
X128583333Y-88450000D01*
X128616666Y-88383333D01*
X128616666Y-88216667D01*
X128583333Y-88150000D01*
X128550000Y-88116667D01*
X128483333Y-88083333D01*
X128350000Y-88083333D01*
X128283333Y-88116667D01*
X128250000Y-88150000D01*
X128216666Y-88216667D01*
X127183334Y-85966667D02*
X127183334Y-85266667D01*
X127650000Y-85266667D02*
X127783333Y-85266667D01*
X127850000Y-85300000D01*
X127916667Y-85366667D01*
X127950000Y-85500000D01*
X127950000Y-85733333D01*
X127916667Y-85866667D01*
X127850000Y-85933333D01*
X127783333Y-85966667D01*
X127650000Y-85966667D01*
X127583333Y-85933333D01*
X127516667Y-85866667D01*
X127483333Y-85733333D01*
X127483333Y-85500000D01*
X127516667Y-85366667D01*
X127583333Y-85300000D01*
X127650000Y-85266667D01*
X128183333Y-85266667D02*
X128650000Y-85266667D01*
X128350000Y-85966667D01*
X127416667Y-83416667D02*
X127183333Y-83083333D01*
X127016667Y-83416667D02*
X127016667Y-82716667D01*
X127283333Y-82716667D01*
X127350000Y-82750000D01*
X127383333Y-82783333D01*
X127416667Y-82850000D01*
X127416667Y-82950000D01*
X127383333Y-83016667D01*
X127350000Y-83050000D01*
X127283333Y-83083333D01*
X127016667Y-83083333D01*
X127683333Y-83383333D02*
X127783333Y-83416667D01*
X127950000Y-83416667D01*
X128016667Y-83383333D01*
X128050000Y-83350000D01*
X128083333Y-83283333D01*
X128083333Y-83216667D01*
X128050000Y-83150000D01*
X128016667Y-83116667D01*
X127950000Y-83083333D01*
X127816667Y-83050000D01*
X127750000Y-83016667D01*
X127716667Y-82983333D01*
X127683333Y-82916667D01*
X127683333Y-82850000D01*
X127716667Y-82783333D01*
X127750000Y-82750000D01*
X127816667Y-82716667D01*
X127983333Y-82716667D01*
X128083333Y-82750000D01*
X128283334Y-82716667D02*
X128683334Y-82716667D01*
X128483334Y-83416667D02*
X128483334Y-82716667D01*
X128650000Y-81150000D02*
X126700000Y-81150000D01*
X127150000Y-80250000D02*
X127083334Y-80216667D01*
X126983334Y-80216667D01*
X126883334Y-80250000D01*
X126816667Y-80316667D01*
X126783334Y-80383333D01*
X126750000Y-80516667D01*
X126750000Y-80616667D01*
X126783334Y-80750000D01*
X126816667Y-80816667D01*
X126883334Y-80883333D01*
X126983334Y-80916667D01*
X127050000Y-80916667D01*
X127150000Y-80883333D01*
X127183334Y-80850000D01*
X127183334Y-80616667D01*
X127050000Y-80616667D01*
X127483334Y-80916667D02*
X127483334Y-80216667D01*
X127883334Y-80916667D01*
X127883334Y-80216667D01*
X128216667Y-80916667D02*
X128216667Y-80216667D01*
X128383333Y-80216667D01*
X128483333Y-80250000D01*
X128550000Y-80316667D01*
X128583333Y-80383333D01*
X128616667Y-80516667D01*
X128616667Y-80616667D01*
X128583333Y-80750000D01*
X128550000Y-80816667D01*
X128483333Y-80883333D01*
X128383333Y-80916667D01*
X128216667Y-80916667D01*
D12*
X163214286Y-115976190D02*
X163261905Y-115976190D01*
X163309524Y-116000000D01*
X163333333Y-116023810D01*
X163357143Y-116071429D01*
X163380952Y-116166667D01*
X163380952Y-116285714D01*
X163357143Y-116380952D01*
X163333333Y-116428571D01*
X163309524Y-116452381D01*
X163261905Y-116476190D01*
X163214286Y-116476190D01*
X163166667Y-116452381D01*
X163142857Y-116428571D01*
X163119048Y-116380952D01*
X163095238Y-116285714D01*
X163095238Y-116166667D01*
X163119048Y-116071429D01*
X163142857Y-116023810D01*
X163166667Y-116000000D01*
X163214286Y-115976190D01*
X163857142Y-116476190D02*
X163571428Y-116476190D01*
X163714285Y-116476190D02*
X163714285Y-115976190D01*
X163666666Y-116047619D01*
X163619047Y-116095238D01*
X163571428Y-116119048D01*
X164428570Y-115952381D02*
X163999999Y-116595238D01*
X164571428Y-116023810D02*
X164595238Y-116000000D01*
X164642857Y-115976190D01*
X164761904Y-115976190D01*
X164809523Y-116000000D01*
X164833333Y-116023810D01*
X164857142Y-116071429D01*
X164857142Y-116119048D01*
X164833333Y-116190476D01*
X164547619Y-116476190D01*
X164857142Y-116476190D01*
X165166666Y-115976190D02*
X165214285Y-115976190D01*
X165261904Y-116000000D01*
X165285713Y-116023810D01*
X165309523Y-116071429D01*
X165333332Y-116166667D01*
X165333332Y-116285714D01*
X165309523Y-116380952D01*
X165285713Y-116428571D01*
X165261904Y-116452381D01*
X165214285Y-116476190D01*
X165166666Y-116476190D01*
X165119047Y-116452381D01*
X165095237Y-116428571D01*
X165071428Y-116380952D01*
X165047618Y-116285714D01*
X165047618Y-116166667D01*
X165071428Y-116071429D01*
X165095237Y-116023810D01*
X165119047Y-116000000D01*
X165166666Y-115976190D01*
X165809522Y-116476190D02*
X165523808Y-116476190D01*
X165666665Y-116476190D02*
X165666665Y-115976190D01*
X165619046Y-116047619D01*
X165571427Y-116095238D01*
X165523808Y-116119048D01*
X165976189Y-115976190D02*
X166309522Y-115976190D01*
X166095236Y-116476190D01*
D10*
X163614286Y-115452381D02*
X163280952Y-114976190D01*
X163042857Y-115452381D02*
X163042857Y-114452381D01*
X163423810Y-114452381D01*
X163519048Y-114500000D01*
X163566667Y-114547619D01*
X163614286Y-114642857D01*
X163614286Y-114785714D01*
X163566667Y-114880952D01*
X163519048Y-114928571D01*
X163423810Y-114976190D01*
X163042857Y-114976190D01*
X164423810Y-115404762D02*
X164328572Y-115452381D01*
X164138095Y-115452381D01*
X164042857Y-115404762D01*
X163995238Y-115309524D01*
X163995238Y-114928571D01*
X164042857Y-114833333D01*
X164138095Y-114785714D01*
X164328572Y-114785714D01*
X164423810Y-114833333D01*
X164471429Y-114928571D01*
X164471429Y-115023810D01*
X163995238Y-115119048D01*
X164804762Y-114785714D02*
X165042857Y-115452381D01*
X165280953Y-114785714D01*
X166376191Y-115166667D02*
X166852382Y-115166667D01*
X166280953Y-115452381D02*
X166614286Y-114452381D01*
X166947620Y-115452381D01*
X167233334Y-114547619D02*
X167280953Y-114500000D01*
X167376191Y-114452381D01*
X167614287Y-114452381D01*
X167709525Y-114500000D01*
X167757144Y-114547619D01*
X167804763Y-114642857D01*
X167804763Y-114738095D01*
X167757144Y-114880952D01*
X167185715Y-115452381D01*
X167804763Y-115452381D01*
D11*
X148750000Y-112750000D02*
X148750000Y-110500000D01*
X149750000Y-113750000D02*
X148750000Y-112750000D01*
X162000000Y-113750000D02*
X149750000Y-113750000D01*
X162500000Y-114250000D02*
X162000000Y-113750000D01*
X162500000Y-115250000D02*
X162500000Y-114250000D01*
X163000000Y-115750000D02*
X162500000Y-115250000D01*
X168250000Y-115750000D02*
X163000000Y-115750000D01*
X168750000Y-115250000D02*
X168250000Y-115750000D01*
X168750000Y-111500000D02*
X168750000Y-115250000D01*
X148750000Y-110500000D02*
X167750000Y-110500000D01*
D13*
X150041668Y-111041667D02*
X150375001Y-111041667D01*
X150541668Y-111125000D01*
X150708335Y-111291667D01*
X150791668Y-111625000D01*
X150791668Y-112208333D01*
X150708335Y-112541667D01*
X150541668Y-112708333D01*
X150375001Y-112791667D01*
X150041668Y-112791667D01*
X149875001Y-112708333D01*
X149708335Y-112541667D01*
X149625001Y-112208333D01*
X149625001Y-111625000D01*
X149708335Y-111291667D01*
X149875001Y-111125000D01*
X150041668Y-111041667D01*
X151541668Y-111625000D02*
X151541668Y-113375000D01*
X151541668Y-111708333D02*
X151708334Y-111625000D01*
X152041668Y-111625000D01*
X152208334Y-111708333D01*
X152291668Y-111791667D01*
X152375001Y-111958333D01*
X152375001Y-112458333D01*
X152291668Y-112625000D01*
X152208334Y-112708333D01*
X152041668Y-112791667D01*
X151708334Y-112791667D01*
X151541668Y-112708333D01*
X153791667Y-112708333D02*
X153625001Y-112791667D01*
X153291667Y-112791667D01*
X153125001Y-112708333D01*
X153041667Y-112541667D01*
X153041667Y-111875000D01*
X153125001Y-111708333D01*
X153291667Y-111625000D01*
X153625001Y-111625000D01*
X153791667Y-111708333D01*
X153875001Y-111875000D01*
X153875001Y-112041667D01*
X153041667Y-112208333D01*
X154625001Y-111625000D02*
X154625001Y-112791667D01*
X154625001Y-111791667D02*
X154708334Y-111708333D01*
X154875001Y-111625000D01*
X155125001Y-111625000D01*
X155291667Y-111708333D01*
X155375001Y-111875000D01*
X155375001Y-112791667D01*
X157541667Y-112791667D02*
X157541667Y-111041667D01*
X158208333Y-111041667D01*
X158375000Y-111125000D01*
X158458333Y-111208333D01*
X158541667Y-111375000D01*
X158541667Y-111625000D01*
X158458333Y-111791667D01*
X158375000Y-111875000D01*
X158208333Y-111958333D01*
X157541667Y-111958333D01*
X159541667Y-112791667D02*
X159375000Y-112708333D01*
X159291667Y-112541667D01*
X159291667Y-111041667D01*
X160958334Y-112791667D02*
X160958334Y-111875000D01*
X160875000Y-111708333D01*
X160708334Y-111625000D01*
X160375000Y-111625000D01*
X160208334Y-111708333D01*
X160958334Y-112708333D02*
X160791667Y-112791667D01*
X160375000Y-112791667D01*
X160208334Y-112708333D01*
X160125000Y-112541667D01*
X160125000Y-112375000D01*
X160208334Y-112208333D01*
X160375000Y-112125000D01*
X160791667Y-112125000D01*
X160958334Y-112041667D01*
X161791667Y-111625000D02*
X161791667Y-112791667D01*
X161791667Y-111791667D02*
X161875000Y-111708333D01*
X162041667Y-111625000D01*
X162291667Y-111625000D01*
X162458333Y-111708333D01*
X162541667Y-111875000D01*
X162541667Y-112791667D01*
X163125000Y-111625000D02*
X163791666Y-111625000D01*
X163375000Y-111041667D02*
X163375000Y-112541667D01*
X163458333Y-112708333D01*
X163625000Y-112791667D01*
X163791666Y-112791667D01*
X164375000Y-112791667D02*
X164375000Y-111041667D01*
X164375000Y-111708333D02*
X164541666Y-111625000D01*
X164875000Y-111625000D01*
X165041666Y-111708333D01*
X165125000Y-111791667D01*
X165208333Y-111958333D01*
X165208333Y-112458333D01*
X165125000Y-112625000D01*
X165041666Y-112708333D01*
X164875000Y-112791667D01*
X164541666Y-112791667D01*
X164375000Y-112708333D01*
X166291666Y-111041667D02*
X166458333Y-111041667D01*
X166624999Y-111125000D01*
X166708333Y-111208333D01*
X166791666Y-111375000D01*
X166874999Y-111708333D01*
X166874999Y-112125000D01*
X166791666Y-112458333D01*
X166708333Y-112625000D01*
X166624999Y-112708333D01*
X166458333Y-112791667D01*
X166291666Y-112791667D01*
X166124999Y-112708333D01*
X166041666Y-112625000D01*
X165958333Y-112458333D01*
X165874999Y-112125000D01*
X165874999Y-111708333D01*
X165958333Y-111375000D01*
X166041666Y-111208333D01*
X166124999Y-111125000D01*
X166291666Y-111041667D01*
X167375000Y-111625000D02*
X168041666Y-111625000D01*
X167625000Y-111041667D02*
X167625000Y-112541667D01*
X167708333Y-112708333D01*
X167875000Y-112791667D01*
X168041666Y-112791667D01*
D11*
X159200000Y-107600000D02*
X158000000Y-108200000D01*
X159200000Y-106800000D02*
X158600000Y-106600000D01*
X159200000Y-106000000D02*
X158800000Y-105400000D01*
D14*
X160875000Y-101950000D02*
X160875000Y-106350000D01*
X166400000Y-100375000D02*
X166400000Y-106350000D01*
X148365000Y-108560000D02*
X152765000Y-108560000D01*
X146790000Y-103035000D02*
X152765000Y-103035000D01*
X142639000Y-100348700D02*
X142639000Y-99180300D01*
X142639000Y-95776700D02*
X142639000Y-96945100D01*
X147211000Y-96538700D02*
X147211000Y-96945100D01*
X147211000Y-99586700D02*
X147211000Y-99180300D01*
X143095476Y-99179127D02*
G75*
G03X146753800Y-99180300I1829524J1129127D01*
G01*
X146753374Y-96944396D02*
G75*
G03X143096200Y-96945100I-1828374J-1105604D01*
G01*
X146449000Y-100348700D02*
X142639000Y-100348700D01*
X146449000Y-100348700D02*
X147211000Y-99586700D01*
X146449000Y-95776700D02*
X142639000Y-95776700D01*
X146449000Y-95776700D02*
X147211000Y-96538700D01*
X170125000Y-90825000D02*
X171125000Y-90825000D01*
X171125000Y-89125000D02*
X170125000Y-89125000D01*
X170126300Y-96489000D02*
X171294700Y-96489000D01*
X174698300Y-96489000D02*
X173529900Y-96489000D01*
X173936300Y-101061000D02*
X173529900Y-101061000D01*
X170888300Y-101061000D02*
X171294700Y-101061000D01*
X171295873Y-96945476D02*
G75*
G03X171294700Y-100603800I1129127J-1829524D01*
G01*
X173530604Y-100603374D02*
G75*
G03X173529900Y-96946200I-1105604J1828374D01*
G01*
X170126300Y-100299000D02*
X170126300Y-96489000D01*
X170126300Y-100299000D02*
X170888300Y-101061000D01*
X174698300Y-100299000D02*
X174698300Y-96489000D01*
X174698300Y-100299000D02*
X173936300Y-101061000D01*
X157095000Y-105645000D02*
X156095000Y-105645000D01*
X156095000Y-107345000D02*
X157095000Y-107345000D01*
X162835000Y-98235000D02*
X161835000Y-98235000D01*
X161835000Y-99935000D02*
X162835000Y-99935000D01*
X172075000Y-104600000D02*
X171075000Y-104600000D01*
X171075000Y-106300000D02*
X172075000Y-106300000D01*
X172075000Y-106700000D02*
X171075000Y-106700000D01*
X171075000Y-108400000D02*
X172075000Y-108400000D01*
X153395000Y-100865000D02*
X152395000Y-100865000D01*
X152395000Y-102565000D02*
X153395000Y-102565000D01*
X172075000Y-102500000D02*
X171075000Y-102500000D01*
X171075000Y-104200000D02*
X172075000Y-104200000D01*
X131485000Y-103575000D02*
X130485000Y-103575000D01*
X130485000Y-105275000D02*
X131485000Y-105275000D01*
X130400000Y-110650000D02*
X131400000Y-110650000D01*
X131400000Y-108950000D02*
X130400000Y-108950000D01*
X136475000Y-92975000D02*
X140675000Y-92975000D01*
X140675000Y-92975000D02*
X140675000Y-94775000D01*
X140675000Y-94775000D02*
X136475000Y-94775000D01*
X136475000Y-94775000D02*
X136475000Y-92975000D01*
X138975000Y-93275000D02*
X138975000Y-94475000D01*
X138175000Y-93375000D02*
X138175000Y-94375000D01*
X138175000Y-94375000D02*
X138975000Y-93875000D01*
X138975000Y-93875000D02*
X138175000Y-93375000D01*
X169295000Y-77645000D02*
X169295000Y-81845000D01*
X169295000Y-81845000D02*
X167495000Y-81845000D01*
X167495000Y-81845000D02*
X167495000Y-77645000D01*
X167495000Y-77645000D02*
X169295000Y-77645000D01*
X168995000Y-80145000D02*
X167795000Y-80145000D01*
X168895000Y-79345000D02*
X167895000Y-79345000D01*
X167895000Y-79345000D02*
X168395000Y-80145000D01*
X168395000Y-80145000D02*
X168895000Y-79345000D01*
X139845000Y-79895000D02*
X139845000Y-84095000D01*
X139845000Y-84095000D02*
X138045000Y-84095000D01*
X138045000Y-84095000D02*
X138045000Y-79895000D01*
X138045000Y-79895000D02*
X139845000Y-79895000D01*
X139545000Y-82395000D02*
X138345000Y-82395000D01*
X139445000Y-81595000D02*
X138445000Y-81595000D01*
X138445000Y-81595000D02*
X138945000Y-82395000D01*
X138945000Y-82395000D02*
X139445000Y-81595000D01*
X134335000Y-79305000D02*
X134335000Y-102165000D01*
X129255000Y-99625000D02*
X129255000Y-79305000D01*
X134335000Y-79305000D02*
X129255000Y-79305000D01*
X134335000Y-102165000D02*
X131795000Y-102165000D01*
X128975000Y-100895000D02*
X128975000Y-102445000D01*
X131795000Y-102165000D02*
X131795000Y-99625000D01*
X131795000Y-99625000D02*
X129255000Y-99625000D01*
X128975000Y-102445000D02*
X130525000Y-102445000D01*
D15*
X131811000Y-116575000D02*
G75*
G03X131811000Y-116575000I-2286000J0D01*
G01*
X173811000Y-74575000D02*
G75*
G03X173811000Y-74575000I-2286000J0D01*
G01*
X173811000Y-116575000D02*
G75*
G03X173811000Y-116575000I-2286000J0D01*
G01*
X131811000Y-74575000D02*
G75*
G03X131811000Y-74575000I-2286000J0D01*
G01*
D14*
X170048333Y-85685000D02*
X170048333Y-78065000D01*
X172588333Y-85685000D02*
X172588333Y-78065000D01*
X172868333Y-88505000D02*
X172868333Y-86955000D01*
X170048333Y-78065000D02*
X172588333Y-78065000D01*
X172588333Y-85685000D02*
X170048333Y-85685000D01*
X169768333Y-86955000D02*
X169768333Y-88505000D01*
X169768333Y-88505000D02*
X172868333Y-88505000D01*
X158248598Y-119942069D02*
X158248598Y-118392069D01*
X157968598Y-114582069D02*
X157968598Y-117122069D01*
X157968598Y-117122069D02*
X155428598Y-117122069D01*
X155148598Y-118392069D02*
X155148598Y-119942069D01*
X155148598Y-119942069D02*
X158248598Y-119942069D01*
X155428598Y-117122069D02*
X155428598Y-114582069D01*
X155428598Y-114582069D02*
X157968598Y-114582069D01*
X150750000Y-119890000D02*
X150750000Y-118340000D01*
X150470000Y-114530000D02*
X150470000Y-117070000D01*
X150470000Y-117070000D02*
X147930000Y-117070000D01*
X147650000Y-118340000D02*
X147650000Y-119890000D01*
X147650000Y-119890000D02*
X150750000Y-119890000D01*
X147930000Y-117070000D02*
X147930000Y-114530000D01*
X147930000Y-114530000D02*
X150470000Y-114530000D01*
X154450000Y-119915000D02*
X154450000Y-118365000D01*
X154170000Y-114555000D02*
X154170000Y-117095000D01*
X154170000Y-117095000D02*
X151630000Y-117095000D01*
X151350000Y-118365000D02*
X151350000Y-119915000D01*
X151350000Y-119915000D02*
X154450000Y-119915000D01*
X151630000Y-117095000D02*
X151630000Y-114555000D01*
X151630000Y-114555000D02*
X154170000Y-114555000D01*
X161875000Y-119940000D02*
X161875000Y-118390000D01*
X161595000Y-114580000D02*
X161595000Y-117120000D01*
X161595000Y-117120000D02*
X159055000Y-117120000D01*
X158775000Y-118390000D02*
X158775000Y-119940000D01*
X158775000Y-119940000D02*
X161875000Y-119940000D01*
X159055000Y-117120000D02*
X159055000Y-114580000D01*
X159055000Y-114580000D02*
X161595000Y-114580000D01*
X135442576Y-117133680D02*
X143062576Y-117133680D01*
X135442576Y-119673680D02*
X143062576Y-119673680D01*
X132622576Y-119953680D02*
X134172576Y-119953680D01*
X143062576Y-117133680D02*
X143062576Y-119673680D01*
X135442576Y-119673680D02*
X135442576Y-117133680D01*
X134172576Y-116853680D02*
X132622576Y-116853680D01*
X132622576Y-116853680D02*
X132622576Y-119953680D01*
X135450000Y-113480000D02*
X143070000Y-113480000D01*
X135450000Y-116020000D02*
X143070000Y-116020000D01*
X132630000Y-116300000D02*
X134180000Y-116300000D01*
X143070000Y-113480000D02*
X143070000Y-116020000D01*
X135450000Y-116020000D02*
X135450000Y-113480000D01*
X134180000Y-113200000D02*
X132630000Y-113200000D01*
X132630000Y-113200000D02*
X132630000Y-116300000D01*
D15*
X166165000Y-95495000D02*
X166165000Y-96425000D01*
X166165000Y-98655000D02*
X166165000Y-97725000D01*
X166165000Y-98655000D02*
X169325000Y-98655000D01*
X166165000Y-95495000D02*
X167625000Y-95495000D01*
X137895000Y-98935000D02*
X138825000Y-98935000D01*
X141055000Y-98935000D02*
X140125000Y-98935000D01*
X141055000Y-98935000D02*
X141055000Y-95775000D01*
X137895000Y-98935000D02*
X137895000Y-97475000D01*
D14*
X164100000Y-75900000D02*
X164100000Y-76900000D01*
X162750000Y-76900000D02*
X162750000Y-75900000D01*
X165875000Y-75900000D02*
X165875000Y-76900000D01*
X164525000Y-76900000D02*
X164525000Y-75900000D01*
X163650000Y-85575000D02*
X163650000Y-84575000D01*
X165000000Y-84575000D02*
X165000000Y-85575000D01*
X139075000Y-92375000D02*
X138075000Y-92375000D01*
X138075000Y-91025000D02*
X139075000Y-91025000D01*
X165475000Y-85600000D02*
X165475000Y-84600000D01*
X166825000Y-84600000D02*
X166825000Y-85600000D01*
X165605000Y-81650000D02*
X164605000Y-81650000D01*
X164605000Y-80300000D02*
X165605000Y-80300000D01*
X139300000Y-86025000D02*
X138300000Y-86025000D01*
X138300000Y-84675000D02*
X139300000Y-84675000D01*
X164750000Y-93625000D02*
X165750000Y-93625000D01*
X165750000Y-94975000D02*
X164750000Y-94975000D01*
X157625000Y-100925000D02*
X158625000Y-100925000D01*
X158625000Y-102275000D02*
X157625000Y-102275000D01*
X165235000Y-109760000D02*
X164235000Y-109760000D01*
X164235000Y-108410000D02*
X165235000Y-108410000D01*
X172360000Y-110595000D02*
X172360000Y-109595000D01*
X173710000Y-109595000D02*
X173710000Y-110595000D01*
X155025000Y-101775000D02*
X155025000Y-100775000D01*
X156375000Y-100775000D02*
X156375000Y-101775000D01*
D16*
X143509000Y-94434000D02*
X143509000Y-95196000D01*
X143509000Y-95196000D02*
X159511000Y-95196000D01*
X159511000Y-95196000D02*
X159511000Y-94434000D01*
D14*
X166400000Y-88837500D02*
X164000000Y-88837500D01*
X165700000Y-92637500D02*
X165700000Y-92737500D01*
X164700000Y-92637500D02*
X164700000Y-92737500D01*
X164700000Y-92037500D02*
X164700000Y-91937500D01*
X165700000Y-92037500D02*
X165700000Y-91937500D01*
X165100000Y-92037500D02*
X164300000Y-92037500D01*
X166100000Y-92037500D02*
X165300000Y-92037500D01*
X164700000Y-92037500D02*
X164300000Y-92637500D01*
X165100000Y-92637500D02*
X164700000Y-92037500D01*
X166100000Y-92637500D02*
X165700000Y-92037500D01*
X165700000Y-92037500D02*
X165300000Y-92637500D01*
X164000000Y-92637500D02*
X164000000Y-88837500D01*
X166400000Y-92637500D02*
X164000000Y-92637500D01*
X166400000Y-88837500D02*
X166400000Y-92637500D01*
D15*
X169065000Y-92275000D02*
X169065000Y-94075000D01*
X172285000Y-94075000D02*
X172285000Y-91625000D01*
D14*
X157925000Y-105175000D02*
X156825000Y-105175000D01*
X157875000Y-102875000D02*
X155875000Y-102875000D01*
X155396340Y-102704200D02*
X154827380Y-102704200D01*
X154827380Y-102704200D02*
X154827380Y-103115680D01*
D15*
X143065000Y-102050000D02*
X143065000Y-103850000D01*
X146285000Y-103850000D02*
X146285000Y-101400000D01*
X171185000Y-108885000D02*
X169285000Y-108885000D01*
X169785000Y-111205000D02*
X171185000Y-111205000D01*
D14*
X132425000Y-105520000D02*
X129425000Y-105520000D01*
X132425000Y-108520000D02*
X132425000Y-105520000D01*
X129425000Y-108520000D02*
X132425000Y-108520000D01*
X129425000Y-105520000D02*
X129425000Y-108520000D01*
X157525000Y-108052500D02*
X157525000Y-110052500D01*
X155725000Y-108052500D02*
X157525000Y-108052500D01*
X155725000Y-110252500D02*
X155725000Y-108052500D01*
X157325000Y-110252500D02*
X155725000Y-110252500D01*
X157525000Y-110052500D02*
X157325000Y-110252500D01*
X169387500Y-106500000D02*
X167387500Y-106500000D01*
X169387500Y-104700000D02*
X169387500Y-106500000D01*
X167187500Y-104700000D02*
X169387500Y-104700000D01*
X167187500Y-106300000D02*
X167187500Y-104700000D01*
X167387500Y-106500000D02*
X167187500Y-106300000D01*
D17*
G36*
X138582697Y-102981986D02*
X138727097Y-102983480D01*
X138861287Y-102986355D01*
X138978699Y-102990609D01*
X139072769Y-102996239D01*
X139136933Y-103003246D01*
X139163502Y-103010590D01*
X139188777Y-103049346D01*
X139212137Y-103127950D01*
X139229900Y-103221472D01*
X139248493Y-103330643D01*
X139271589Y-103458203D01*
X139294985Y-103581109D01*
X139301259Y-103612756D01*
X139322855Y-103721867D01*
X139348529Y-103853760D01*
X139374631Y-103989598D01*
X139392037Y-104081367D01*
X139441262Y-104342818D01*
X139547228Y-104396515D01*
X139617008Y-104430041D01*
X139679687Y-104457109D01*
X139706305Y-104466865D01*
X139744578Y-104480824D01*
X139813208Y-104507719D01*
X139903528Y-104544088D01*
X140006869Y-104586463D01*
X140043155Y-104601509D01*
X140147019Y-104643687D01*
X140239110Y-104679199D01*
X140311380Y-104705080D01*
X140355781Y-104718368D01*
X140363572Y-104719500D01*
X140399390Y-104708079D01*
X140456216Y-104678323D01*
X140513750Y-104641965D01*
X140600791Y-104582301D01*
X140710522Y-104506785D01*
X140830882Y-104423740D01*
X140949809Y-104341488D01*
X141055242Y-104268353D01*
X141061167Y-104264234D01*
X141213808Y-104158917D01*
X141333360Y-104078280D01*
X141420709Y-104021748D01*
X141476741Y-103988747D01*
X141501705Y-103978667D01*
X141521698Y-103993122D01*
X141566753Y-104033542D01*
X141632455Y-104095509D01*
X141714388Y-104174604D01*
X141808138Y-104266408D01*
X141909288Y-104366503D01*
X142013423Y-104470470D01*
X142116128Y-104573889D01*
X142212988Y-104672344D01*
X142299586Y-104761414D01*
X142371508Y-104836682D01*
X142424337Y-104893729D01*
X142453659Y-104928136D01*
X142458167Y-104935822D01*
X142450648Y-104955801D01*
X142427116Y-104997186D01*
X142386108Y-105062200D01*
X142326157Y-105153068D01*
X142245802Y-105272012D01*
X142143577Y-105421258D01*
X142036219Y-105576750D01*
X141939388Y-105717179D01*
X141864593Y-105827562D01*
X141809403Y-105912401D01*
X141771385Y-105976194D01*
X141748109Y-106023444D01*
X141737143Y-106058651D01*
X141736055Y-106086316D01*
X141742415Y-106110939D01*
X141744615Y-106116500D01*
X141808693Y-106270815D01*
X141869210Y-106414273D01*
X141934072Y-106565509D01*
X141982571Y-106677417D01*
X142025032Y-106775688D01*
X142061932Y-106862192D01*
X142089633Y-106928319D01*
X142104496Y-106965462D01*
X142105335Y-106967827D01*
X142134148Y-107000437D01*
X142166219Y-107013811D01*
X142204425Y-107021167D01*
X142274924Y-107034578D01*
X142368401Y-107052278D01*
X142475544Y-107072501D01*
X142500500Y-107077203D01*
X142636608Y-107102856D01*
X142794495Y-107132643D01*
X142954344Y-107162822D01*
X143093167Y-107189056D01*
X143217043Y-107214281D01*
X143317590Y-107238386D01*
X143388856Y-107259774D01*
X143424887Y-107276846D01*
X143426542Y-107278507D01*
X143433787Y-107307801D01*
X143439979Y-107372916D01*
X143445092Y-107467351D01*
X143449100Y-107584605D01*
X143451976Y-107718178D01*
X143453694Y-107861569D01*
X143454228Y-108008278D01*
X143453551Y-108151804D01*
X143451636Y-108285647D01*
X143448459Y-108403306D01*
X143443992Y-108498281D01*
X143438209Y-108564071D01*
X143431865Y-108592941D01*
X143399951Y-108620710D01*
X143333318Y-108645380D01*
X143257240Y-108663039D01*
X143149017Y-108684245D01*
X143017233Y-108709492D01*
X142872630Y-108736781D01*
X142725954Y-108764109D01*
X142587946Y-108789476D01*
X142469351Y-108810882D01*
X142380913Y-108826325D01*
X142376743Y-108827028D01*
X142277086Y-108845260D01*
X142209541Y-108864584D01*
X142164292Y-108891931D01*
X142131522Y-108934234D01*
X142101414Y-108998424D01*
X142088357Y-109030677D01*
X142057101Y-109109034D01*
X142015776Y-109212647D01*
X141969990Y-109327449D01*
X141929460Y-109429083D01*
X141887717Y-109533199D01*
X141848376Y-109630328D01*
X141815791Y-109709779D01*
X141794318Y-109760860D01*
X141793919Y-109761778D01*
X141771921Y-109819421D01*
X141760240Y-109863874D01*
X141759667Y-109870694D01*
X141764266Y-109886356D01*
X141779266Y-109915567D01*
X141806471Y-109961068D01*
X141847685Y-110025601D01*
X141904713Y-110111905D01*
X141979358Y-110222723D01*
X142073425Y-110360794D01*
X142188719Y-110528861D01*
X142283542Y-110666580D01*
X142345660Y-110758414D01*
X142398038Y-110839114D01*
X142436358Y-110901771D01*
X142456302Y-110939478D01*
X142458167Y-110945985D01*
X142443549Y-110969016D01*
X142402691Y-111016700D01*
X142340089Y-111084577D01*
X142260236Y-111168189D01*
X142167628Y-111263077D01*
X142066759Y-111364781D01*
X141962124Y-111468841D01*
X141858218Y-111570800D01*
X141759535Y-111666197D01*
X141670570Y-111750574D01*
X141595818Y-111819471D01*
X141539773Y-111868429D01*
X141506931Y-111892989D01*
X141501593Y-111895000D01*
X141471409Y-111885110D01*
X141415521Y-111854680D01*
X141332139Y-111802572D01*
X141219473Y-111727646D01*
X141075735Y-111628763D01*
X140997667Y-111574202D01*
X140870973Y-111486189D01*
X140752287Y-111405404D01*
X140646564Y-111335077D01*
X140558754Y-111278439D01*
X140493810Y-111238722D01*
X140456685Y-111219156D01*
X140451168Y-111217667D01*
X140423138Y-111227254D01*
X140367276Y-111252915D01*
X140292658Y-111289996D01*
X140208366Y-111333842D01*
X140123476Y-111379800D01*
X140047068Y-111423217D01*
X140027556Y-111434810D01*
X139978502Y-111460598D01*
X139948839Y-111462748D01*
X139928707Y-111448008D01*
X139913477Y-111422159D01*
X139886721Y-111367185D01*
X139851930Y-111291208D01*
X139812593Y-111202347D01*
X139772199Y-111108722D01*
X139734238Y-111018456D01*
X139702198Y-110939667D01*
X139679570Y-110880477D01*
X139669843Y-110849007D01*
X139670062Y-110846086D01*
X139689668Y-110835704D01*
X139739065Y-110810327D01*
X139810256Y-110774047D01*
X139875834Y-110740780D01*
X140171466Y-110570366D01*
X140445579Y-110370725D01*
X140650537Y-110187117D01*
X140888215Y-109927905D01*
X141088581Y-109655369D01*
X141254129Y-109364946D01*
X141387355Y-109052076D01*
X141490753Y-108712197D01*
X141516485Y-108603583D01*
X141535726Y-108514776D01*
X141549820Y-108440192D01*
X141559373Y-108370885D01*
X141564993Y-108297907D01*
X141567288Y-108212312D01*
X141566863Y-108105153D01*
X141564328Y-107967483D01*
X141563173Y-107915667D01*
X141559041Y-107759606D01*
X141554046Y-107637069D01*
X141547308Y-107539241D01*
X141537951Y-107457314D01*
X141525097Y-107382475D01*
X141507867Y-107305912D01*
X141498847Y-107270083D01*
X141400278Y-106944518D01*
X141278393Y-106649284D01*
X141128962Y-106376927D01*
X140947755Y-106119991D01*
X140730542Y-105871021D01*
X140669710Y-105808741D01*
X140473958Y-105624505D01*
X140282053Y-105470494D01*
X140081746Y-105337775D01*
X139860792Y-105217419D01*
X139854667Y-105214377D01*
X139538154Y-105080687D01*
X139207067Y-104984525D01*
X138866195Y-104925885D01*
X138520331Y-104904761D01*
X138174264Y-104921149D01*
X137832784Y-104975043D01*
X137500683Y-105066436D01*
X137182750Y-105195325D01*
X137137362Y-105217500D01*
X136926882Y-105331945D01*
X136736159Y-105456824D01*
X136553297Y-105600851D01*
X136366397Y-105772740D01*
X136329574Y-105809141D01*
X136103199Y-106055599D01*
X135913796Y-106308107D01*
X135757599Y-106573555D01*
X135630839Y-106858832D01*
X135529752Y-107170829D01*
X135483718Y-107356375D01*
X135464662Y-107443359D01*
X135450627Y-107516450D01*
X135441032Y-107584333D01*
X135435295Y-107655696D01*
X135432837Y-107739225D01*
X135433075Y-107843607D01*
X135435428Y-107977529D01*
X135437102Y-108053250D01*
X135440979Y-108206469D01*
X135445374Y-108326014D01*
X135451220Y-108420542D01*
X135459454Y-108498709D01*
X135471009Y-108569173D01*
X135486822Y-108640591D01*
X135507825Y-108721619D01*
X135510247Y-108730583D01*
X135542047Y-108842718D01*
X135576866Y-108957016D01*
X135609610Y-109057104D01*
X135627079Y-109106023D01*
X135756882Y-109393988D01*
X135923859Y-109673444D01*
X136122961Y-109938944D01*
X136349140Y-110185041D01*
X136597347Y-110406287D01*
X136862532Y-110597236D01*
X137139648Y-110752441D01*
X137163656Y-110763842D01*
X137238858Y-110801797D01*
X137295299Y-110835596D01*
X137324933Y-110860149D01*
X137327208Y-110867317D01*
X137315833Y-110894251D01*
X137291657Y-110952387D01*
X137257974Y-111033774D01*
X137218081Y-111130461D01*
X137208316Y-111154167D01*
X137166055Y-111254113D01*
X137127192Y-111341155D01*
X137095549Y-111407065D01*
X137074948Y-111443616D01*
X137072365Y-111446810D01*
X137053736Y-111456530D01*
X137023331Y-111452629D01*
X136974057Y-111432617D01*
X136898816Y-111394005D01*
X136857226Y-111371347D01*
X136745059Y-111309330D01*
X136662004Y-111265858D01*
X136599205Y-111240748D01*
X136547808Y-111233818D01*
X136498960Y-111244885D01*
X136443805Y-111273766D01*
X136373490Y-111320280D01*
X136315051Y-111360160D01*
X136220381Y-111424440D01*
X136128513Y-111487162D01*
X136050638Y-111540663D01*
X136002334Y-111574202D01*
X135843510Y-111684633D01*
X135716592Y-111770577D01*
X135619792Y-111833173D01*
X135551319Y-111873559D01*
X135509384Y-111892876D01*
X135498408Y-111895000D01*
X135474725Y-111880481D01*
X135425385Y-111839371D01*
X135354337Y-111775336D01*
X135265531Y-111692045D01*
X135162914Y-111593165D01*
X135050436Y-111482364D01*
X135001572Y-111433524D01*
X134887452Y-111318135D01*
X134783655Y-111211571D01*
X134693820Y-111117699D01*
X134621590Y-111040385D01*
X134570603Y-110983493D01*
X134544501Y-110950891D01*
X134541834Y-110945337D01*
X134553317Y-110918887D01*
X134584780Y-110865107D01*
X134631743Y-110791220D01*
X134689729Y-110704449D01*
X134705239Y-110681854D01*
X134833821Y-110495380D01*
X134940272Y-110340543D01*
X135026630Y-110214223D01*
X135094934Y-110113301D01*
X135147224Y-110034660D01*
X135185539Y-109975181D01*
X135211918Y-109931745D01*
X135228399Y-109901233D01*
X135237023Y-109880527D01*
X135239827Y-109866508D01*
X135239869Y-109864181D01*
X135231180Y-109826339D01*
X135209664Y-109767746D01*
X135195918Y-109736000D01*
X135168408Y-109672451D01*
X135132304Y-109584580D01*
X135093856Y-109487708D01*
X135079365Y-109450250D01*
X135042050Y-109354110D01*
X135005118Y-109260890D01*
X134974656Y-109185885D01*
X134965684Y-109164500D01*
X134930879Y-109082538D01*
X134893640Y-108994368D01*
X134883646Y-108970603D01*
X134842224Y-108871957D01*
X134686737Y-108840577D01*
X134608092Y-108825151D01*
X134500430Y-108804646D01*
X134376405Y-108781443D01*
X134248669Y-108757924D01*
X134213750Y-108751567D01*
X134035663Y-108719063D01*
X133894719Y-108692749D01*
X133786365Y-108671504D01*
X133706046Y-108654212D01*
X133649209Y-108639751D01*
X133611299Y-108627004D01*
X133587761Y-108614852D01*
X133574043Y-108602176D01*
X133568135Y-108592941D01*
X133561146Y-108558927D01*
X133555497Y-108489878D01*
X133551162Y-108392293D01*
X133548113Y-108272677D01*
X133546326Y-108137530D01*
X133545774Y-107993356D01*
X133546429Y-107846656D01*
X133548267Y-107703933D01*
X133551260Y-107571689D01*
X133555383Y-107456427D01*
X133560608Y-107364648D01*
X133566911Y-107302854D01*
X133573459Y-107278279D01*
X133605383Y-107261539D01*
X133674206Y-107240415D01*
X133774882Y-107216237D01*
X133902365Y-107190339D01*
X133917417Y-107187515D01*
X134055999Y-107161596D01*
X134212802Y-107132084D01*
X134376676Y-107101093D01*
X134536471Y-107070738D01*
X134681040Y-107043134D01*
X134799232Y-107020395D01*
X134833782Y-107013689D01*
X134877088Y-106991926D01*
X134894666Y-106967827D01*
X134907474Y-106935353D01*
X134933623Y-106872708D01*
X134969472Y-106788501D01*
X135011383Y-106691339D01*
X135017429Y-106677417D01*
X135089400Y-106511036D01*
X135151861Y-106364606D01*
X135212717Y-106219494D01*
X135255385Y-106116500D01*
X135263081Y-106091941D01*
X135263874Y-106065350D01*
X135255334Y-106032226D01*
X135235029Y-105988067D01*
X135200528Y-105928374D01*
X135149400Y-105848645D01*
X135079212Y-105744381D01*
X134987533Y-105611079D01*
X134963782Y-105576750D01*
X134843205Y-105402056D01*
X134745524Y-105259285D01*
X134669062Y-105145884D01*
X134612146Y-105059302D01*
X134573103Y-104996986D01*
X134550257Y-104956385D01*
X134541936Y-104934945D01*
X134541834Y-104933465D01*
X134556309Y-104913216D01*
X134596783Y-104867952D01*
X134658827Y-104802092D01*
X134738012Y-104720055D01*
X134829910Y-104626260D01*
X134930093Y-104525125D01*
X135034132Y-104421070D01*
X135137598Y-104318512D01*
X135236063Y-104221871D01*
X135325099Y-104135565D01*
X135400277Y-104064014D01*
X135457168Y-104011635D01*
X135491344Y-103982848D01*
X135498744Y-103978667D01*
X135526302Y-103990254D01*
X135585074Y-104025323D01*
X135675766Y-104084330D01*
X135799084Y-104167734D01*
X135938834Y-104264234D01*
X136043010Y-104336514D01*
X136161442Y-104418437D01*
X136282068Y-104501678D01*
X136392827Y-104577915D01*
X136481657Y-104638826D01*
X136486250Y-104641965D01*
X136550760Y-104682343D01*
X136605890Y-104710387D01*
X136636429Y-104719500D01*
X136668386Y-104711663D01*
X136731211Y-104690128D01*
X136816857Y-104657858D01*
X136917274Y-104617818D01*
X136956845Y-104601509D01*
X137062623Y-104557888D01*
X137158306Y-104519106D01*
X137235225Y-104488626D01*
X137284711Y-104469914D01*
X137293695Y-104466865D01*
X137342857Y-104447790D01*
X137410568Y-104417195D01*
X137452772Y-104396515D01*
X137558738Y-104342818D01*
X137608085Y-104081367D01*
X137657533Y-103818954D01*
X137699296Y-103596414D01*
X137733297Y-103414159D01*
X137759459Y-103272604D01*
X137777704Y-103172162D01*
X137779205Y-103163750D01*
X137797850Y-103087514D01*
X137821354Y-103030793D01*
X137837452Y-103010291D01*
X137869506Y-103002084D01*
X137937306Y-102995266D01*
X138034285Y-102989838D01*
X138153879Y-102985797D01*
X138289522Y-102983143D01*
X138434650Y-102981873D01*
X138582697Y-102981986D01*
X138582697Y-102981986D01*
G37*
X138582697Y-102981986D02*
X138727097Y-102983480D01*
X138861287Y-102986355D01*
X138978699Y-102990609D01*
X139072769Y-102996239D01*
X139136933Y-103003246D01*
X139163502Y-103010590D01*
X139188777Y-103049346D01*
X139212137Y-103127950D01*
X139229900Y-103221472D01*
X139248493Y-103330643D01*
X139271589Y-103458203D01*
X139294985Y-103581109D01*
X139301259Y-103612756D01*
X139322855Y-103721867D01*
X139348529Y-103853760D01*
X139374631Y-103989598D01*
X139392037Y-104081367D01*
X139441262Y-104342818D01*
X139547228Y-104396515D01*
X139617008Y-104430041D01*
X139679687Y-104457109D01*
X139706305Y-104466865D01*
X139744578Y-104480824D01*
X139813208Y-104507719D01*
X139903528Y-104544088D01*
X140006869Y-104586463D01*
X140043155Y-104601509D01*
X140147019Y-104643687D01*
X140239110Y-104679199D01*
X140311380Y-104705080D01*
X140355781Y-104718368D01*
X140363572Y-104719500D01*
X140399390Y-104708079D01*
X140456216Y-104678323D01*
X140513750Y-104641965D01*
X140600791Y-104582301D01*
X140710522Y-104506785D01*
X140830882Y-104423740D01*
X140949809Y-104341488D01*
X141055242Y-104268353D01*
X141061167Y-104264234D01*
X141213808Y-104158917D01*
X141333360Y-104078280D01*
X141420709Y-104021748D01*
X141476741Y-103988747D01*
X141501705Y-103978667D01*
X141521698Y-103993122D01*
X141566753Y-104033542D01*
X141632455Y-104095509D01*
X141714388Y-104174604D01*
X141808138Y-104266408D01*
X141909288Y-104366503D01*
X142013423Y-104470470D01*
X142116128Y-104573889D01*
X142212988Y-104672344D01*
X142299586Y-104761414D01*
X142371508Y-104836682D01*
X142424337Y-104893729D01*
X142453659Y-104928136D01*
X142458167Y-104935822D01*
X142450648Y-104955801D01*
X142427116Y-104997186D01*
X142386108Y-105062200D01*
X142326157Y-105153068D01*
X142245802Y-105272012D01*
X142143577Y-105421258D01*
X142036219Y-105576750D01*
X141939388Y-105717179D01*
X141864593Y-105827562D01*
X141809403Y-105912401D01*
X141771385Y-105976194D01*
X141748109Y-106023444D01*
X141737143Y-106058651D01*
X141736055Y-106086316D01*
X141742415Y-106110939D01*
X141744615Y-106116500D01*
X141808693Y-106270815D01*
X141869210Y-106414273D01*
X141934072Y-106565509D01*
X141982571Y-106677417D01*
X142025032Y-106775688D01*
X142061932Y-106862192D01*
X142089633Y-106928319D01*
X142104496Y-106965462D01*
X142105335Y-106967827D01*
X142134148Y-107000437D01*
X142166219Y-107013811D01*
X142204425Y-107021167D01*
X142274924Y-107034578D01*
X142368401Y-107052278D01*
X142475544Y-107072501D01*
X142500500Y-107077203D01*
X142636608Y-107102856D01*
X142794495Y-107132643D01*
X142954344Y-107162822D01*
X143093167Y-107189056D01*
X143217043Y-107214281D01*
X143317590Y-107238386D01*
X143388856Y-107259774D01*
X143424887Y-107276846D01*
X143426542Y-107278507D01*
X143433787Y-107307801D01*
X143439979Y-107372916D01*
X143445092Y-107467351D01*
X143449100Y-107584605D01*
X143451976Y-107718178D01*
X143453694Y-107861569D01*
X143454228Y-108008278D01*
X143453551Y-108151804D01*
X143451636Y-108285647D01*
X143448459Y-108403306D01*
X143443992Y-108498281D01*
X143438209Y-108564071D01*
X143431865Y-108592941D01*
X143399951Y-108620710D01*
X143333318Y-108645380D01*
X143257240Y-108663039D01*
X143149017Y-108684245D01*
X143017233Y-108709492D01*
X142872630Y-108736781D01*
X142725954Y-108764109D01*
X142587946Y-108789476D01*
X142469351Y-108810882D01*
X142380913Y-108826325D01*
X142376743Y-108827028D01*
X142277086Y-108845260D01*
X142209541Y-108864584D01*
X142164292Y-108891931D01*
X142131522Y-108934234D01*
X142101414Y-108998424D01*
X142088357Y-109030677D01*
X142057101Y-109109034D01*
X142015776Y-109212647D01*
X141969990Y-109327449D01*
X141929460Y-109429083D01*
X141887717Y-109533199D01*
X141848376Y-109630328D01*
X141815791Y-109709779D01*
X141794318Y-109760860D01*
X141793919Y-109761778D01*
X141771921Y-109819421D01*
X141760240Y-109863874D01*
X141759667Y-109870694D01*
X141764266Y-109886356D01*
X141779266Y-109915567D01*
X141806471Y-109961068D01*
X141847685Y-110025601D01*
X141904713Y-110111905D01*
X141979358Y-110222723D01*
X142073425Y-110360794D01*
X142188719Y-110528861D01*
X142283542Y-110666580D01*
X142345660Y-110758414D01*
X142398038Y-110839114D01*
X142436358Y-110901771D01*
X142456302Y-110939478D01*
X142458167Y-110945985D01*
X142443549Y-110969016D01*
X142402691Y-111016700D01*
X142340089Y-111084577D01*
X142260236Y-111168189D01*
X142167628Y-111263077D01*
X142066759Y-111364781D01*
X141962124Y-111468841D01*
X141858218Y-111570800D01*
X141759535Y-111666197D01*
X141670570Y-111750574D01*
X141595818Y-111819471D01*
X141539773Y-111868429D01*
X141506931Y-111892989D01*
X141501593Y-111895000D01*
X141471409Y-111885110D01*
X141415521Y-111854680D01*
X141332139Y-111802572D01*
X141219473Y-111727646D01*
X141075735Y-111628763D01*
X140997667Y-111574202D01*
X140870973Y-111486189D01*
X140752287Y-111405404D01*
X140646564Y-111335077D01*
X140558754Y-111278439D01*
X140493810Y-111238722D01*
X140456685Y-111219156D01*
X140451168Y-111217667D01*
X140423138Y-111227254D01*
X140367276Y-111252915D01*
X140292658Y-111289996D01*
X140208366Y-111333842D01*
X140123476Y-111379800D01*
X140047068Y-111423217D01*
X140027556Y-111434810D01*
X139978502Y-111460598D01*
X139948839Y-111462748D01*
X139928707Y-111448008D01*
X139913477Y-111422159D01*
X139886721Y-111367185D01*
X139851930Y-111291208D01*
X139812593Y-111202347D01*
X139772199Y-111108722D01*
X139734238Y-111018456D01*
X139702198Y-110939667D01*
X139679570Y-110880477D01*
X139669843Y-110849007D01*
X139670062Y-110846086D01*
X139689668Y-110835704D01*
X139739065Y-110810327D01*
X139810256Y-110774047D01*
X139875834Y-110740780D01*
X140171466Y-110570366D01*
X140445579Y-110370725D01*
X140650537Y-110187117D01*
X140888215Y-109927905D01*
X141088581Y-109655369D01*
X141254129Y-109364946D01*
X141387355Y-109052076D01*
X141490753Y-108712197D01*
X141516485Y-108603583D01*
X141535726Y-108514776D01*
X141549820Y-108440192D01*
X141559373Y-108370885D01*
X141564993Y-108297907D01*
X141567288Y-108212312D01*
X141566863Y-108105153D01*
X141564328Y-107967483D01*
X141563173Y-107915667D01*
X141559041Y-107759606D01*
X141554046Y-107637069D01*
X141547308Y-107539241D01*
X141537951Y-107457314D01*
X141525097Y-107382475D01*
X141507867Y-107305912D01*
X141498847Y-107270083D01*
X141400278Y-106944518D01*
X141278393Y-106649284D01*
X141128962Y-106376927D01*
X140947755Y-106119991D01*
X140730542Y-105871021D01*
X140669710Y-105808741D01*
X140473958Y-105624505D01*
X140282053Y-105470494D01*
X140081746Y-105337775D01*
X139860792Y-105217419D01*
X139854667Y-105214377D01*
X139538154Y-105080687D01*
X139207067Y-104984525D01*
X138866195Y-104925885D01*
X138520331Y-104904761D01*
X138174264Y-104921149D01*
X137832784Y-104975043D01*
X137500683Y-105066436D01*
X137182750Y-105195325D01*
X137137362Y-105217500D01*
X136926882Y-105331945D01*
X136736159Y-105456824D01*
X136553297Y-105600851D01*
X136366397Y-105772740D01*
X136329574Y-105809141D01*
X136103199Y-106055599D01*
X135913796Y-106308107D01*
X135757599Y-106573555D01*
X135630839Y-106858832D01*
X135529752Y-107170829D01*
X135483718Y-107356375D01*
X135464662Y-107443359D01*
X135450627Y-107516450D01*
X135441032Y-107584333D01*
X135435295Y-107655696D01*
X135432837Y-107739225D01*
X135433075Y-107843607D01*
X135435428Y-107977529D01*
X135437102Y-108053250D01*
X135440979Y-108206469D01*
X135445374Y-108326014D01*
X135451220Y-108420542D01*
X135459454Y-108498709D01*
X135471009Y-108569173D01*
X135486822Y-108640591D01*
X135507825Y-108721619D01*
X135510247Y-108730583D01*
X135542047Y-108842718D01*
X135576866Y-108957016D01*
X135609610Y-109057104D01*
X135627079Y-109106023D01*
X135756882Y-109393988D01*
X135923859Y-109673444D01*
X136122961Y-109938944D01*
X136349140Y-110185041D01*
X136597347Y-110406287D01*
X136862532Y-110597236D01*
X137139648Y-110752441D01*
X137163656Y-110763842D01*
X137238858Y-110801797D01*
X137295299Y-110835596D01*
X137324933Y-110860149D01*
X137327208Y-110867317D01*
X137315833Y-110894251D01*
X137291657Y-110952387D01*
X137257974Y-111033774D01*
X137218081Y-111130461D01*
X137208316Y-111154167D01*
X137166055Y-111254113D01*
X137127192Y-111341155D01*
X137095549Y-111407065D01*
X137074948Y-111443616D01*
X137072365Y-111446810D01*
X137053736Y-111456530D01*
X137023331Y-111452629D01*
X136974057Y-111432617D01*
X136898816Y-111394005D01*
X136857226Y-111371347D01*
X136745059Y-111309330D01*
X136662004Y-111265858D01*
X136599205Y-111240748D01*
X136547808Y-111233818D01*
X136498960Y-111244885D01*
X136443805Y-111273766D01*
X136373490Y-111320280D01*
X136315051Y-111360160D01*
X136220381Y-111424440D01*
X136128513Y-111487162D01*
X136050638Y-111540663D01*
X136002334Y-111574202D01*
X135843510Y-111684633D01*
X135716592Y-111770577D01*
X135619792Y-111833173D01*
X135551319Y-111873559D01*
X135509384Y-111892876D01*
X135498408Y-111895000D01*
X135474725Y-111880481D01*
X135425385Y-111839371D01*
X135354337Y-111775336D01*
X135265531Y-111692045D01*
X135162914Y-111593165D01*
X135050436Y-111482364D01*
X135001572Y-111433524D01*
X134887452Y-111318135D01*
X134783655Y-111211571D01*
X134693820Y-111117699D01*
X134621590Y-111040385D01*
X134570603Y-110983493D01*
X134544501Y-110950891D01*
X134541834Y-110945337D01*
X134553317Y-110918887D01*
X134584780Y-110865107D01*
X134631743Y-110791220D01*
X134689729Y-110704449D01*
X134705239Y-110681854D01*
X134833821Y-110495380D01*
X134940272Y-110340543D01*
X135026630Y-110214223D01*
X135094934Y-110113301D01*
X135147224Y-110034660D01*
X135185539Y-109975181D01*
X135211918Y-109931745D01*
X135228399Y-109901233D01*
X135237023Y-109880527D01*
X135239827Y-109866508D01*
X135239869Y-109864181D01*
X135231180Y-109826339D01*
X135209664Y-109767746D01*
X135195918Y-109736000D01*
X135168408Y-109672451D01*
X135132304Y-109584580D01*
X135093856Y-109487708D01*
X135079365Y-109450250D01*
X135042050Y-109354110D01*
X135005118Y-109260890D01*
X134974656Y-109185885D01*
X134965684Y-109164500D01*
X134930879Y-109082538D01*
X134893640Y-108994368D01*
X134883646Y-108970603D01*
X134842224Y-108871957D01*
X134686737Y-108840577D01*
X134608092Y-108825151D01*
X134500430Y-108804646D01*
X134376405Y-108781443D01*
X134248669Y-108757924D01*
X134213750Y-108751567D01*
X134035663Y-108719063D01*
X133894719Y-108692749D01*
X133786365Y-108671504D01*
X133706046Y-108654212D01*
X133649209Y-108639751D01*
X133611299Y-108627004D01*
X133587761Y-108614852D01*
X133574043Y-108602176D01*
X133568135Y-108592941D01*
X133561146Y-108558927D01*
X133555497Y-108489878D01*
X133551162Y-108392293D01*
X133548113Y-108272677D01*
X133546326Y-108137530D01*
X133545774Y-107993356D01*
X133546429Y-107846656D01*
X133548267Y-107703933D01*
X133551260Y-107571689D01*
X133555383Y-107456427D01*
X133560608Y-107364648D01*
X133566911Y-107302854D01*
X133573459Y-107278279D01*
X133605383Y-107261539D01*
X133674206Y-107240415D01*
X133774882Y-107216237D01*
X133902365Y-107190339D01*
X133917417Y-107187515D01*
X134055999Y-107161596D01*
X134212802Y-107132084D01*
X134376676Y-107101093D01*
X134536471Y-107070738D01*
X134681040Y-107043134D01*
X134799232Y-107020395D01*
X134833782Y-107013689D01*
X134877088Y-106991926D01*
X134894666Y-106967827D01*
X134907474Y-106935353D01*
X134933623Y-106872708D01*
X134969472Y-106788501D01*
X135011383Y-106691339D01*
X135017429Y-106677417D01*
X135089400Y-106511036D01*
X135151861Y-106364606D01*
X135212717Y-106219494D01*
X135255385Y-106116500D01*
X135263081Y-106091941D01*
X135263874Y-106065350D01*
X135255334Y-106032226D01*
X135235029Y-105988067D01*
X135200528Y-105928374D01*
X135149400Y-105848645D01*
X135079212Y-105744381D01*
X134987533Y-105611079D01*
X134963782Y-105576750D01*
X134843205Y-105402056D01*
X134745524Y-105259285D01*
X134669062Y-105145884D01*
X134612146Y-105059302D01*
X134573103Y-104996986D01*
X134550257Y-104956385D01*
X134541936Y-104934945D01*
X134541834Y-104933465D01*
X134556309Y-104913216D01*
X134596783Y-104867952D01*
X134658827Y-104802092D01*
X134738012Y-104720055D01*
X134829910Y-104626260D01*
X134930093Y-104525125D01*
X135034132Y-104421070D01*
X135137598Y-104318512D01*
X135236063Y-104221871D01*
X135325099Y-104135565D01*
X135400277Y-104064014D01*
X135457168Y-104011635D01*
X135491344Y-103982848D01*
X135498744Y-103978667D01*
X135526302Y-103990254D01*
X135585074Y-104025323D01*
X135675766Y-104084330D01*
X135799084Y-104167734D01*
X135938834Y-104264234D01*
X136043010Y-104336514D01*
X136161442Y-104418437D01*
X136282068Y-104501678D01*
X136392827Y-104577915D01*
X136481657Y-104638826D01*
X136486250Y-104641965D01*
X136550760Y-104682343D01*
X136605890Y-104710387D01*
X136636429Y-104719500D01*
X136668386Y-104711663D01*
X136731211Y-104690128D01*
X136816857Y-104657858D01*
X136917274Y-104617818D01*
X136956845Y-104601509D01*
X137062623Y-104557888D01*
X137158306Y-104519106D01*
X137235225Y-104488626D01*
X137284711Y-104469914D01*
X137293695Y-104466865D01*
X137342857Y-104447790D01*
X137410568Y-104417195D01*
X137452772Y-104396515D01*
X137558738Y-104342818D01*
X137608085Y-104081367D01*
X137657533Y-103818954D01*
X137699296Y-103596414D01*
X137733297Y-103414159D01*
X137759459Y-103272604D01*
X137777704Y-103172162D01*
X137779205Y-103163750D01*
X137797850Y-103087514D01*
X137821354Y-103030793D01*
X137837452Y-103010291D01*
X137869506Y-103002084D01*
X137937306Y-102995266D01*
X138034285Y-102989838D01*
X138153879Y-102985797D01*
X138289522Y-102983143D01*
X138434650Y-102981873D01*
X138582697Y-102981986D01*
G36*
X138605927Y-108845779D02*
X138607363Y-108902617D01*
X138611374Y-108994916D01*
X138617590Y-109115909D01*
X138625642Y-109258825D01*
X138635161Y-109416896D01*
X138645777Y-109583352D01*
X138648167Y-109619583D01*
X138658745Y-109779420D01*
X138668356Y-109925551D01*
X138676656Y-110052644D01*
X138683298Y-110155371D01*
X138687936Y-110228401D01*
X138690224Y-110266404D01*
X138690406Y-110270458D01*
X138670861Y-110277449D01*
X138618426Y-110282869D01*
X138542541Y-110285931D01*
X138500000Y-110286333D01*
X138309500Y-110286333D01*
X138309594Y-110143458D01*
X138311032Y-110085520D01*
X138315048Y-109992171D01*
X138321273Y-109870231D01*
X138329335Y-109726521D01*
X138338865Y-109567859D01*
X138349493Y-109401067D01*
X138351834Y-109365583D01*
X138362404Y-109205986D01*
X138372010Y-109060311D01*
X138380306Y-108933844D01*
X138386948Y-108831869D01*
X138391590Y-108759672D01*
X138393887Y-108722539D01*
X138394073Y-108718779D01*
X138413179Y-108712042D01*
X138461923Y-108707769D01*
X138500000Y-108706974D01*
X138605834Y-108706974D01*
X138605927Y-108845779D01*
X138605927Y-108845779D01*
G37*
X138605927Y-108845779D02*
X138607363Y-108902617D01*
X138611374Y-108994916D01*
X138617590Y-109115909D01*
X138625642Y-109258825D01*
X138635161Y-109416896D01*
X138645777Y-109583352D01*
X138648167Y-109619583D01*
X138658745Y-109779420D01*
X138668356Y-109925551D01*
X138676656Y-110052644D01*
X138683298Y-110155371D01*
X138687936Y-110228401D01*
X138690224Y-110266404D01*
X138690406Y-110270458D01*
X138670861Y-110277449D01*
X138618426Y-110282869D01*
X138542541Y-110285931D01*
X138500000Y-110286333D01*
X138309500Y-110286333D01*
X138309594Y-110143458D01*
X138311032Y-110085520D01*
X138315048Y-109992171D01*
X138321273Y-109870231D01*
X138329335Y-109726521D01*
X138338865Y-109567859D01*
X138349493Y-109401067D01*
X138351834Y-109365583D01*
X138362404Y-109205986D01*
X138372010Y-109060311D01*
X138380306Y-108933844D01*
X138386948Y-108831869D01*
X138391590Y-108759672D01*
X138393887Y-108722539D01*
X138394073Y-108718779D01*
X138413179Y-108712042D01*
X138461923Y-108707769D01*
X138500000Y-108706974D01*
X138605834Y-108706974D01*
X138605927Y-108845779D01*
G36*
X136833125Y-108572213D02*
X136974303Y-108582014D01*
X137137042Y-108607847D01*
X137308558Y-108646444D01*
X137476066Y-108694535D01*
X137626783Y-108748855D01*
X137747696Y-108806005D01*
X137884716Y-108900697D01*
X137993977Y-109012139D01*
X138071408Y-109134569D01*
X138112936Y-109262226D01*
X138119000Y-109331430D01*
X138112061Y-109391852D01*
X138094085Y-109473850D01*
X138069331Y-109562531D01*
X138042059Y-109643002D01*
X138016529Y-109700370D01*
X138010889Y-109709398D01*
X137997832Y-109725272D01*
X137982878Y-109731158D01*
X137960891Y-109723654D01*
X137926733Y-109699357D01*
X137875267Y-109654864D01*
X137801357Y-109586775D01*
X137742388Y-109531574D01*
X137661028Y-109456197D01*
X137591698Y-109393736D01*
X137539616Y-109348751D01*
X137509998Y-109325798D01*
X137505167Y-109324324D01*
X137517754Y-109345470D01*
X137552301Y-109393015D01*
X137603989Y-109460575D01*
X137667996Y-109541763D01*
X137690375Y-109569681D01*
X137757520Y-109654908D01*
X137813806Y-109729781D01*
X137854368Y-109787561D01*
X137874336Y-109821509D01*
X137875584Y-109826111D01*
X137856315Y-109848183D01*
X137805159Y-109873347D01*
X137732085Y-109898387D01*
X137647068Y-109920086D01*
X137560078Y-109935226D01*
X137526334Y-109938777D01*
X137389769Y-109933391D01*
X137314667Y-109914047D01*
X137184110Y-109848082D01*
X137071795Y-109749257D01*
X136975558Y-109615067D01*
X136893237Y-109443008D01*
X136881475Y-109412497D01*
X136845414Y-109294801D01*
X136813156Y-109149888D01*
X136787216Y-108992854D01*
X136770110Y-108838796D01*
X136764334Y-108709556D01*
X136764334Y-108571833D01*
X136833125Y-108572213D01*
X136833125Y-108572213D01*
G37*
X136833125Y-108572213D02*
X136974303Y-108582014D01*
X137137042Y-108607847D01*
X137308558Y-108646444D01*
X137476066Y-108694535D01*
X137626783Y-108748855D01*
X137747696Y-108806005D01*
X137884716Y-108900697D01*
X137993977Y-109012139D01*
X138071408Y-109134569D01*
X138112936Y-109262226D01*
X138119000Y-109331430D01*
X138112061Y-109391852D01*
X138094085Y-109473850D01*
X138069331Y-109562531D01*
X138042059Y-109643002D01*
X138016529Y-109700370D01*
X138010889Y-109709398D01*
X137997832Y-109725272D01*
X137982878Y-109731158D01*
X137960891Y-109723654D01*
X137926733Y-109699357D01*
X137875267Y-109654864D01*
X137801357Y-109586775D01*
X137742388Y-109531574D01*
X137661028Y-109456197D01*
X137591698Y-109393736D01*
X137539616Y-109348751D01*
X137509998Y-109325798D01*
X137505167Y-109324324D01*
X137517754Y-109345470D01*
X137552301Y-109393015D01*
X137603989Y-109460575D01*
X137667996Y-109541763D01*
X137690375Y-109569681D01*
X137757520Y-109654908D01*
X137813806Y-109729781D01*
X137854368Y-109787561D01*
X137874336Y-109821509D01*
X137875584Y-109826111D01*
X137856315Y-109848183D01*
X137805159Y-109873347D01*
X137732085Y-109898387D01*
X137647068Y-109920086D01*
X137560078Y-109935226D01*
X137526334Y-109938777D01*
X137389769Y-109933391D01*
X137314667Y-109914047D01*
X137184110Y-109848082D01*
X137071795Y-109749257D01*
X136975558Y-109615067D01*
X136893237Y-109443008D01*
X136881475Y-109412497D01*
X136845414Y-109294801D01*
X136813156Y-109149888D01*
X136787216Y-108992854D01*
X136770110Y-108838796D01*
X136764334Y-108709556D01*
X136764334Y-108571833D01*
X136833125Y-108572213D01*
G36*
X140235279Y-108704125D02*
X140228815Y-108841194D01*
X140211740Y-108994504D01*
X140186434Y-109149546D01*
X140155280Y-109291809D01*
X140120659Y-109406784D01*
X140119377Y-109410235D01*
X140040158Y-109587148D01*
X139948541Y-109725734D01*
X139842059Y-109828817D01*
X139718241Y-109899221D01*
X139679302Y-109913740D01*
X139576030Y-109939313D01*
X139474087Y-109942930D01*
X139358968Y-109924247D01*
X139284880Y-109904370D01*
X139212515Y-109881031D01*
X139156102Y-109859160D01*
X139128972Y-109844272D01*
X139121141Y-109834700D01*
X139119757Y-109822525D01*
X139128168Y-109802737D01*
X139149719Y-109770329D01*
X139187757Y-109720291D01*
X139245628Y-109647614D01*
X139326679Y-109547291D01*
X139330792Y-109542210D01*
X139393656Y-109463387D01*
X139445383Y-109396300D01*
X139480814Y-109347801D01*
X139494790Y-109324742D01*
X139494834Y-109324334D01*
X139480373Y-109332673D01*
X139440464Y-109365650D01*
X139380320Y-109418711D01*
X139305152Y-109487303D01*
X139257109Y-109532046D01*
X139019384Y-109755003D01*
X138982938Y-109697440D01*
X138954063Y-109636494D01*
X138924791Y-109550614D01*
X138899885Y-109456884D01*
X138884108Y-109372386D01*
X138881000Y-109331817D01*
X138901420Y-109203439D01*
X138959982Y-109077281D01*
X139052641Y-108959070D01*
X139175353Y-108854534D01*
X139252305Y-108806005D01*
X139373525Y-108748729D01*
X139524293Y-108694420D01*
X139691824Y-108646346D01*
X139863335Y-108607774D01*
X140026040Y-108581973D01*
X140166875Y-108572213D01*
X140235667Y-108571833D01*
X140235279Y-108704125D01*
X140235279Y-108704125D01*
G37*
X140235279Y-108704125D02*
X140228815Y-108841194D01*
X140211740Y-108994504D01*
X140186434Y-109149546D01*
X140155280Y-109291809D01*
X140120659Y-109406784D01*
X140119377Y-109410235D01*
X140040158Y-109587148D01*
X139948541Y-109725734D01*
X139842059Y-109828817D01*
X139718241Y-109899221D01*
X139679302Y-109913740D01*
X139576030Y-109939313D01*
X139474087Y-109942930D01*
X139358968Y-109924247D01*
X139284880Y-109904370D01*
X139212515Y-109881031D01*
X139156102Y-109859160D01*
X139128972Y-109844272D01*
X139121141Y-109834700D01*
X139119757Y-109822525D01*
X139128168Y-109802737D01*
X139149719Y-109770329D01*
X139187757Y-109720291D01*
X139245628Y-109647614D01*
X139326679Y-109547291D01*
X139330792Y-109542210D01*
X139393656Y-109463387D01*
X139445383Y-109396300D01*
X139480814Y-109347801D01*
X139494790Y-109324742D01*
X139494834Y-109324334D01*
X139480373Y-109332673D01*
X139440464Y-109365650D01*
X139380320Y-109418711D01*
X139305152Y-109487303D01*
X139257109Y-109532046D01*
X139019384Y-109755003D01*
X138982938Y-109697440D01*
X138954063Y-109636494D01*
X138924791Y-109550614D01*
X138899885Y-109456884D01*
X138884108Y-109372386D01*
X138881000Y-109331817D01*
X138901420Y-109203439D01*
X138959982Y-109077281D01*
X139052641Y-108959070D01*
X139175353Y-108854534D01*
X139252305Y-108806005D01*
X139373525Y-108748729D01*
X139524293Y-108694420D01*
X139691824Y-108646346D01*
X139863335Y-108607774D01*
X140026040Y-108581973D01*
X140166875Y-108572213D01*
X140235667Y-108571833D01*
X140235279Y-108704125D01*
G36*
X137348408Y-107783375D02*
X137381583Y-107832798D01*
X137425503Y-107902195D01*
X137462694Y-107963292D01*
X137506062Y-108030949D01*
X137539927Y-108068305D01*
X137572847Y-108083345D01*
X137593125Y-108085000D01*
X137648410Y-108098715D01*
X137705594Y-108132131D01*
X137710362Y-108136084D01*
X137757066Y-108201808D01*
X137773391Y-108283354D01*
X137758955Y-108366675D01*
X137718436Y-108432545D01*
X137652809Y-108475639D01*
X137574063Y-108489700D01*
X137497394Y-108474338D01*
X137446766Y-108439542D01*
X137390470Y-108361727D01*
X137377173Y-108302248D01*
X137491556Y-108302248D01*
X137511537Y-108350466D01*
X137553348Y-108377013D01*
X137607859Y-108373178D01*
X137629521Y-108362250D01*
X137651265Y-108329016D01*
X137658625Y-108286083D01*
X137643582Y-108230147D01*
X137606845Y-108197393D01*
X137560998Y-108191452D01*
X137518629Y-108215952D01*
X137502535Y-108241072D01*
X137491556Y-108302248D01*
X137377173Y-108302248D01*
X137373820Y-108287252D01*
X137395378Y-108209260D01*
X137397535Y-108204944D01*
X137435521Y-108130438D01*
X137341650Y-107980719D01*
X137247780Y-107831000D01*
X135960000Y-107831000D01*
X135960000Y-107725167D01*
X137306706Y-107725167D01*
X137348408Y-107783375D01*
X137348408Y-107783375D01*
G37*
X137348408Y-107783375D02*
X137381583Y-107832798D01*
X137425503Y-107902195D01*
X137462694Y-107963292D01*
X137506062Y-108030949D01*
X137539927Y-108068305D01*
X137572847Y-108083345D01*
X137593125Y-108085000D01*
X137648410Y-108098715D01*
X137705594Y-108132131D01*
X137710362Y-108136084D01*
X137757066Y-108201808D01*
X137773391Y-108283354D01*
X137758955Y-108366675D01*
X137718436Y-108432545D01*
X137652809Y-108475639D01*
X137574063Y-108489700D01*
X137497394Y-108474338D01*
X137446766Y-108439542D01*
X137390470Y-108361727D01*
X137377173Y-108302248D01*
X137491556Y-108302248D01*
X137511537Y-108350466D01*
X137553348Y-108377013D01*
X137607859Y-108373178D01*
X137629521Y-108362250D01*
X137651265Y-108329016D01*
X137658625Y-108286083D01*
X137643582Y-108230147D01*
X137606845Y-108197393D01*
X137560998Y-108191452D01*
X137518629Y-108215952D01*
X137502535Y-108241072D01*
X137491556Y-108302248D01*
X137377173Y-108302248D01*
X137373820Y-108287252D01*
X137395378Y-108209260D01*
X137397535Y-108204944D01*
X137435521Y-108130438D01*
X137341650Y-107980719D01*
X137247780Y-107831000D01*
X135960000Y-107831000D01*
X135960000Y-107725167D01*
X137306706Y-107725167D01*
X137348408Y-107783375D01*
G36*
X138557746Y-106102562D02*
X138603139Y-106147576D01*
X138662879Y-106214499D01*
X138731819Y-106297072D01*
X138804814Y-106389037D01*
X138876717Y-106484136D01*
X138942381Y-106576110D01*
X138974891Y-106624500D01*
X139105280Y-106837318D01*
X139204234Y-107029856D01*
X139273846Y-107207673D01*
X139316214Y-107376325D01*
X139333433Y-107541373D01*
X139334052Y-107577000D01*
X139332256Y-107674104D01*
X139323912Y-107746347D01*
X139305479Y-107811095D01*
X139273411Y-107885712D01*
X139269264Y-107894500D01*
X139173852Y-108049834D01*
X139045639Y-108181052D01*
X138882556Y-108290141D01*
X138828084Y-108318096D01*
X138739764Y-108361825D01*
X138674078Y-108392835D01*
X138627326Y-108407210D01*
X138595812Y-108401032D01*
X138575838Y-108370383D01*
X138563705Y-108311346D01*
X138555717Y-108220003D01*
X138548176Y-108092437D01*
X138543598Y-108016698D01*
X138534626Y-107887078D01*
X138525065Y-107769945D01*
X138515632Y-107672661D01*
X138507043Y-107602589D01*
X138500017Y-107567090D01*
X138499746Y-107566417D01*
X138485652Y-107536160D01*
X138480986Y-107544846D01*
X138479832Y-107566417D01*
X138477448Y-107600925D01*
X138472028Y-107669659D01*
X138464224Y-107764670D01*
X138454685Y-107878012D01*
X138446929Y-107968583D01*
X138436603Y-108090835D01*
X138427698Y-108201091D01*
X138420835Y-108291260D01*
X138416637Y-108353250D01*
X138415613Y-108376042D01*
X138413586Y-108405517D01*
X138402501Y-108418768D01*
X138374187Y-108415703D01*
X138320474Y-108396227D01*
X138267167Y-108374349D01*
X138080120Y-108278969D01*
X137930112Y-108164090D01*
X137817115Y-108030655D01*
X137741097Y-107879608D01*
X137702029Y-107711893D01*
X137699880Y-107528453D01*
X137734621Y-107330232D01*
X137806221Y-107118175D01*
X137914651Y-106893225D01*
X138059880Y-106656325D01*
X138241878Y-106408421D01*
X138333331Y-106296417D01*
X138401191Y-106217566D01*
X138460392Y-106152199D01*
X138505222Y-106106378D01*
X138529971Y-106086165D01*
X138531845Y-106085714D01*
X138557746Y-106102562D01*
X138557746Y-106102562D01*
G37*
X138557746Y-106102562D02*
X138603139Y-106147576D01*
X138662879Y-106214499D01*
X138731819Y-106297072D01*
X138804814Y-106389037D01*
X138876717Y-106484136D01*
X138942381Y-106576110D01*
X138974891Y-106624500D01*
X139105280Y-106837318D01*
X139204234Y-107029856D01*
X139273846Y-107207673D01*
X139316214Y-107376325D01*
X139333433Y-107541373D01*
X139334052Y-107577000D01*
X139332256Y-107674104D01*
X139323912Y-107746347D01*
X139305479Y-107811095D01*
X139273411Y-107885712D01*
X139269264Y-107894500D01*
X139173852Y-108049834D01*
X139045639Y-108181052D01*
X138882556Y-108290141D01*
X138828084Y-108318096D01*
X138739764Y-108361825D01*
X138674078Y-108392835D01*
X138627326Y-108407210D01*
X138595812Y-108401032D01*
X138575838Y-108370383D01*
X138563705Y-108311346D01*
X138555717Y-108220003D01*
X138548176Y-108092437D01*
X138543598Y-108016698D01*
X138534626Y-107887078D01*
X138525065Y-107769945D01*
X138515632Y-107672661D01*
X138507043Y-107602589D01*
X138500017Y-107567090D01*
X138499746Y-107566417D01*
X138485652Y-107536160D01*
X138480986Y-107544846D01*
X138479832Y-107566417D01*
X138477448Y-107600925D01*
X138472028Y-107669659D01*
X138464224Y-107764670D01*
X138454685Y-107878012D01*
X138446929Y-107968583D01*
X138436603Y-108090835D01*
X138427698Y-108201091D01*
X138420835Y-108291260D01*
X138416637Y-108353250D01*
X138415613Y-108376042D01*
X138413586Y-108405517D01*
X138402501Y-108418768D01*
X138374187Y-108415703D01*
X138320474Y-108396227D01*
X138267167Y-108374349D01*
X138080120Y-108278969D01*
X137930112Y-108164090D01*
X137817115Y-108030655D01*
X137741097Y-107879608D01*
X137702029Y-107711893D01*
X137699880Y-107528453D01*
X137734621Y-107330232D01*
X137806221Y-107118175D01*
X137914651Y-106893225D01*
X138059880Y-106656325D01*
X138241878Y-106408421D01*
X138333331Y-106296417D01*
X138401191Y-106217566D01*
X138460392Y-106152199D01*
X138505222Y-106106378D01*
X138529971Y-106086165D01*
X138531845Y-106085714D01*
X138557746Y-106102562D01*
G36*
X140007008Y-106634529D02*
X140070412Y-106683106D01*
X140113354Y-106751400D01*
X140130226Y-106829045D01*
X140115423Y-106905677D01*
X140100077Y-106932730D01*
X140087581Y-106956833D01*
X140087883Y-106984149D01*
X140104045Y-107023753D01*
X140139126Y-107084721D01*
X140165899Y-107127940D01*
X140261477Y-107280667D01*
X141442167Y-107280667D01*
X141442167Y-107386500D01*
X140196216Y-107386500D01*
X140155967Y-107328292D01*
X140123640Y-107278039D01*
X140081497Y-107208030D01*
X140048686Y-107151079D01*
X140008593Y-107084634D01*
X139975456Y-107046648D01*
X139938138Y-107027307D01*
X139898526Y-107018782D01*
X139813962Y-106987448D01*
X139756836Y-106930495D01*
X139730072Y-106856821D01*
X139732572Y-106825583D01*
X139849375Y-106825583D01*
X139864402Y-106883104D01*
X139902158Y-106915411D01*
X139951658Y-106915459D01*
X139972627Y-106904634D01*
X140004174Y-106863949D01*
X140011764Y-106812300D01*
X139997804Y-106764240D01*
X139964697Y-106734322D01*
X139943880Y-106730657D01*
X139883745Y-106747237D01*
X139852976Y-106793967D01*
X139849375Y-106825583D01*
X139732572Y-106825583D01*
X139736596Y-106775322D01*
X139779333Y-106694894D01*
X139788485Y-106684100D01*
X139840835Y-106636732D01*
X139895420Y-106617857D01*
X139928750Y-106616033D01*
X140007008Y-106634529D01*
X140007008Y-106634529D01*
G37*
X140007008Y-106634529D02*
X140070412Y-106683106D01*
X140113354Y-106751400D01*
X140130226Y-106829045D01*
X140115423Y-106905677D01*
X140100077Y-106932730D01*
X140087581Y-106956833D01*
X140087883Y-106984149D01*
X140104045Y-107023753D01*
X140139126Y-107084721D01*
X140165899Y-107127940D01*
X140261477Y-107280667D01*
X141442167Y-107280667D01*
X141442167Y-107386500D01*
X140196216Y-107386500D01*
X140155967Y-107328292D01*
X140123640Y-107278039D01*
X140081497Y-107208030D01*
X140048686Y-107151079D01*
X140008593Y-107084634D01*
X139975456Y-107046648D01*
X139938138Y-107027307D01*
X139898526Y-107018782D01*
X139813962Y-106987448D01*
X139756836Y-106930495D01*
X139730072Y-106856821D01*
X139732572Y-106825583D01*
X139849375Y-106825583D01*
X139864402Y-106883104D01*
X139902158Y-106915411D01*
X139951658Y-106915459D01*
X139972627Y-106904634D01*
X140004174Y-106863949D01*
X140011764Y-106812300D01*
X139997804Y-106764240D01*
X139964697Y-106734322D01*
X139943880Y-106730657D01*
X139883745Y-106747237D01*
X139852976Y-106793967D01*
X139849375Y-106825583D01*
X139732572Y-106825583D01*
X139736596Y-106775322D01*
X139779333Y-106694894D01*
X139788485Y-106684100D01*
X139840835Y-106636732D01*
X139895420Y-106617857D01*
X139928750Y-106616033D01*
X140007008Y-106634529D01*
G36*
X140934167Y-106370500D02*
X139758573Y-106370500D01*
X139667468Y-106518140D01*
X139623018Y-106591745D01*
X139598587Y-106639402D01*
X139591314Y-106670779D01*
X139598337Y-106695546D01*
X139609681Y-106713350D01*
X139638297Y-106785670D01*
X139632003Y-106859734D01*
X139597073Y-106927472D01*
X139539776Y-106980812D01*
X139466385Y-107011683D01*
X139383171Y-107012014D01*
X139378417Y-107010982D01*
X139305008Y-106974223D01*
X139256701Y-106908730D01*
X139240834Y-106831085D01*
X139242008Y-106817275D01*
X139344988Y-106817275D01*
X139351942Y-106862006D01*
X139388502Y-106895454D01*
X139394292Y-106897847D01*
X139456735Y-106905552D01*
X139498297Y-106878394D01*
X139512696Y-106821154D01*
X139511945Y-106808302D01*
X139499117Y-106757654D01*
X139468033Y-106736189D01*
X139456627Y-106734000D01*
X139401842Y-106741412D01*
X139363125Y-106773124D01*
X139344988Y-106817275D01*
X139242008Y-106817275D01*
X139246360Y-106766093D01*
X139259931Y-106713665D01*
X139262628Y-106707994D01*
X139303119Y-106664355D01*
X139365691Y-106626227D01*
X139430475Y-106604821D01*
X139448085Y-106603333D01*
X139485960Y-106583397D01*
X139531869Y-106525634D01*
X139549678Y-106496385D01*
X139592684Y-106421799D01*
X139634627Y-106349234D01*
X139653584Y-106316526D01*
X139695917Y-106243614D01*
X140934167Y-106243500D01*
X140934167Y-106370500D01*
X140934167Y-106370500D01*
G37*
X140934167Y-106370500D02*
X139758573Y-106370500D01*
X139667468Y-106518140D01*
X139623018Y-106591745D01*
X139598587Y-106639402D01*
X139591314Y-106670779D01*
X139598337Y-106695546D01*
X139609681Y-106713350D01*
X139638297Y-106785670D01*
X139632003Y-106859734D01*
X139597073Y-106927472D01*
X139539776Y-106980812D01*
X139466385Y-107011683D01*
X139383171Y-107012014D01*
X139378417Y-107010982D01*
X139305008Y-106974223D01*
X139256701Y-106908730D01*
X139240834Y-106831085D01*
X139242008Y-106817275D01*
X139344988Y-106817275D01*
X139351942Y-106862006D01*
X139388502Y-106895454D01*
X139394292Y-106897847D01*
X139456735Y-106905552D01*
X139498297Y-106878394D01*
X139512696Y-106821154D01*
X139511945Y-106808302D01*
X139499117Y-106757654D01*
X139468033Y-106736189D01*
X139456627Y-106734000D01*
X139401842Y-106741412D01*
X139363125Y-106773124D01*
X139344988Y-106817275D01*
X139242008Y-106817275D01*
X139246360Y-106766093D01*
X139259931Y-106713665D01*
X139262628Y-106707994D01*
X139303119Y-106664355D01*
X139365691Y-106626227D01*
X139430475Y-106604821D01*
X139448085Y-106603333D01*
X139485960Y-106583397D01*
X139531869Y-106525634D01*
X139549678Y-106496385D01*
X139592684Y-106421799D01*
X139634627Y-106349234D01*
X139653584Y-106316526D01*
X139695917Y-106243614D01*
X140934167Y-106243500D01*
X140934167Y-106370500D01*
D14*
X134200000Y-71200000D02*
X134200000Y-70900000D01*
X138600000Y-71200000D02*
X134200000Y-71200000D01*
X138600000Y-70900000D02*
X138600000Y-71200000D01*
X139400000Y-70900000D02*
X138600000Y-70900000D01*
X133400000Y-70900000D02*
X134200000Y-70900000D01*
X133400000Y-73450000D02*
X139400000Y-73450000D01*
X133400000Y-70900000D02*
X133400000Y-73450000D01*
X139400000Y-73450000D02*
X139400000Y-70900000D01*
D11*
X166721429Y-101257143D02*
X167207143Y-101257143D01*
X167264286Y-101228571D01*
X167292857Y-101200000D01*
X167321429Y-101142857D01*
X167321429Y-101028571D01*
X167292857Y-100971429D01*
X167264286Y-100942857D01*
X167207143Y-100914286D01*
X166721429Y-100914286D01*
X166721429Y-100342858D02*
X166721429Y-100628572D01*
X167007143Y-100657143D01*
X166978571Y-100628572D01*
X166950000Y-100571429D01*
X166950000Y-100428572D01*
X166978571Y-100371429D01*
X167007143Y-100342858D01*
X167064286Y-100314286D01*
X167207143Y-100314286D01*
X167264286Y-100342858D01*
X167292857Y-100371429D01*
X167321429Y-100428572D01*
X167321429Y-100571429D01*
X167292857Y-100628572D01*
X167264286Y-100657143D01*
X147057143Y-102071429D02*
X147057143Y-102557143D01*
X147085715Y-102614286D01*
X147114286Y-102642857D01*
X147171429Y-102671429D01*
X147285715Y-102671429D01*
X147342857Y-102642857D01*
X147371429Y-102614286D01*
X147400000Y-102557143D01*
X147400000Y-102071429D01*
X148000000Y-102671429D02*
X147657143Y-102671429D01*
X147828571Y-102671429D02*
X147828571Y-102071429D01*
X147771428Y-102157143D01*
X147714286Y-102214286D01*
X147657143Y-102242857D01*
X148571429Y-102671429D02*
X148228572Y-102671429D01*
X148400000Y-102671429D02*
X148400000Y-102071429D01*
X148342857Y-102157143D01*
X148285715Y-102214286D01*
X148228572Y-102242857D01*
X147500000Y-100414286D02*
X147471429Y-100442857D01*
X147385715Y-100471429D01*
X147328572Y-100471429D01*
X147242857Y-100442857D01*
X147185715Y-100385714D01*
X147157143Y-100328571D01*
X147128572Y-100214286D01*
X147128572Y-100128571D01*
X147157143Y-100014286D01*
X147185715Y-99957143D01*
X147242857Y-99900000D01*
X147328572Y-99871429D01*
X147385715Y-99871429D01*
X147471429Y-99900000D01*
X147500000Y-99928571D01*
X148071429Y-100471429D02*
X147728572Y-100471429D01*
X147900000Y-100471429D02*
X147900000Y-99871429D01*
X147842857Y-99957143D01*
X147785715Y-100014286D01*
X147728572Y-100042857D01*
D14*
X147325348Y-96127529D02*
X148087253Y-96127529D01*
X147706301Y-96508481D02*
X147706301Y-95746576D01*
D11*
X168614286Y-90100000D02*
X168642857Y-90128571D01*
X168671429Y-90214285D01*
X168671429Y-90271428D01*
X168642857Y-90357143D01*
X168585714Y-90414285D01*
X168528571Y-90442857D01*
X168414286Y-90471428D01*
X168328571Y-90471428D01*
X168214286Y-90442857D01*
X168157143Y-90414285D01*
X168100000Y-90357143D01*
X168071429Y-90271428D01*
X168071429Y-90214285D01*
X168100000Y-90128571D01*
X168128571Y-90100000D01*
X168128571Y-89871428D02*
X168100000Y-89842857D01*
X168071429Y-89785714D01*
X168071429Y-89642857D01*
X168100000Y-89585714D01*
X168128571Y-89557143D01*
X168185714Y-89528571D01*
X168242857Y-89528571D01*
X168328571Y-89557143D01*
X168671429Y-89900000D01*
X168671429Y-89528571D01*
X170600000Y-101814286D02*
X170571429Y-101842857D01*
X170485715Y-101871429D01*
X170428572Y-101871429D01*
X170342857Y-101842857D01*
X170285715Y-101785714D01*
X170257143Y-101728571D01*
X170228572Y-101614286D01*
X170228572Y-101528571D01*
X170257143Y-101414286D01*
X170285715Y-101357143D01*
X170342857Y-101300000D01*
X170428572Y-101271429D01*
X170485715Y-101271429D01*
X170571429Y-101300000D01*
X170600000Y-101328571D01*
X170800000Y-101271429D02*
X171171429Y-101271429D01*
X170971429Y-101500000D01*
X171057143Y-101500000D01*
X171114286Y-101528571D01*
X171142857Y-101557143D01*
X171171429Y-101614286D01*
X171171429Y-101757143D01*
X171142857Y-101814286D01*
X171114286Y-101842857D01*
X171057143Y-101871429D01*
X170885715Y-101871429D01*
X170828572Y-101842857D01*
X170800000Y-101814286D01*
D14*
X174490329Y-101937252D02*
X174490329Y-101175347D01*
X174871281Y-101556299D02*
X174109376Y-101556299D01*
D11*
X159800000Y-107114286D02*
X159771429Y-107142857D01*
X159685715Y-107171429D01*
X159628572Y-107171429D01*
X159542857Y-107142857D01*
X159485715Y-107085714D01*
X159457143Y-107028571D01*
X159428572Y-106914286D01*
X159428572Y-106828571D01*
X159457143Y-106714286D01*
X159485715Y-106657143D01*
X159542857Y-106600000D01*
X159628572Y-106571429D01*
X159685715Y-106571429D01*
X159771429Y-106600000D01*
X159800000Y-106628571D01*
X160314286Y-106771429D02*
X160314286Y-107171429D01*
X160171429Y-106542857D02*
X160028572Y-106971429D01*
X160400000Y-106971429D01*
X160414286Y-99200000D02*
X160442857Y-99228571D01*
X160471429Y-99314285D01*
X160471429Y-99371428D01*
X160442857Y-99457143D01*
X160385714Y-99514285D01*
X160328571Y-99542857D01*
X160214286Y-99571428D01*
X160128571Y-99571428D01*
X160014286Y-99542857D01*
X159957143Y-99514285D01*
X159900000Y-99457143D01*
X159871429Y-99371428D01*
X159871429Y-99314285D01*
X159900000Y-99228571D01*
X159928571Y-99200000D01*
X159871429Y-98657143D02*
X159871429Y-98942857D01*
X160157143Y-98971428D01*
X160128571Y-98942857D01*
X160100000Y-98885714D01*
X160100000Y-98742857D01*
X160128571Y-98685714D01*
X160157143Y-98657143D01*
X160214286Y-98628571D01*
X160357143Y-98628571D01*
X160414286Y-98657143D01*
X160442857Y-98685714D01*
X160471429Y-98742857D01*
X160471429Y-98885714D01*
X160442857Y-98942857D01*
X160414286Y-98971428D01*
X174014286Y-105550000D02*
X174042857Y-105578571D01*
X174071429Y-105664285D01*
X174071429Y-105721428D01*
X174042857Y-105807143D01*
X173985714Y-105864285D01*
X173928571Y-105892857D01*
X173814286Y-105921428D01*
X173728571Y-105921428D01*
X173614286Y-105892857D01*
X173557143Y-105864285D01*
X173500000Y-105807143D01*
X173471429Y-105721428D01*
X173471429Y-105664285D01*
X173500000Y-105578571D01*
X173528571Y-105550000D01*
X173471429Y-105035714D02*
X173471429Y-105150000D01*
X173500000Y-105207143D01*
X173528571Y-105235714D01*
X173614286Y-105292857D01*
X173728571Y-105321428D01*
X173957143Y-105321428D01*
X174014286Y-105292857D01*
X174042857Y-105264285D01*
X174071429Y-105207143D01*
X174071429Y-105092857D01*
X174042857Y-105035714D01*
X174014286Y-105007143D01*
X173957143Y-104978571D01*
X173814286Y-104978571D01*
X173757143Y-105007143D01*
X173728571Y-105035714D01*
X173700000Y-105092857D01*
X173700000Y-105207143D01*
X173728571Y-105264285D01*
X173757143Y-105292857D01*
X173814286Y-105321428D01*
X174014286Y-107600000D02*
X174042857Y-107628571D01*
X174071429Y-107714285D01*
X174071429Y-107771428D01*
X174042857Y-107857143D01*
X173985714Y-107914285D01*
X173928571Y-107942857D01*
X173814286Y-107971428D01*
X173728571Y-107971428D01*
X173614286Y-107942857D01*
X173557143Y-107914285D01*
X173500000Y-107857143D01*
X173471429Y-107771428D01*
X173471429Y-107714285D01*
X173500000Y-107628571D01*
X173528571Y-107600000D01*
X173471429Y-107400000D02*
X173471429Y-107000000D01*
X174071429Y-107257143D01*
X151014286Y-101900000D02*
X151042857Y-101928571D01*
X151071429Y-102014285D01*
X151071429Y-102071428D01*
X151042857Y-102157143D01*
X150985714Y-102214285D01*
X150928571Y-102242857D01*
X150814286Y-102271428D01*
X150728571Y-102271428D01*
X150614286Y-102242857D01*
X150557143Y-102214285D01*
X150500000Y-102157143D01*
X150471429Y-102071428D01*
X150471429Y-102014285D01*
X150500000Y-101928571D01*
X150528571Y-101900000D01*
X150728571Y-101557143D02*
X150700000Y-101614285D01*
X150671429Y-101642857D01*
X150614286Y-101671428D01*
X150585714Y-101671428D01*
X150528571Y-101642857D01*
X150500000Y-101614285D01*
X150471429Y-101557143D01*
X150471429Y-101442857D01*
X150500000Y-101385714D01*
X150528571Y-101357143D01*
X150585714Y-101328571D01*
X150614286Y-101328571D01*
X150671429Y-101357143D01*
X150700000Y-101385714D01*
X150728571Y-101442857D01*
X150728571Y-101557143D01*
X150757143Y-101614285D01*
X150785714Y-101642857D01*
X150842857Y-101671428D01*
X150957143Y-101671428D01*
X151014286Y-101642857D01*
X151042857Y-101614285D01*
X151071429Y-101557143D01*
X151071429Y-101442857D01*
X151042857Y-101385714D01*
X151014286Y-101357143D01*
X150957143Y-101328571D01*
X150842857Y-101328571D01*
X150785714Y-101357143D01*
X150757143Y-101385714D01*
X150728571Y-101442857D01*
X174014286Y-103500000D02*
X174042857Y-103528571D01*
X174071429Y-103614285D01*
X174071429Y-103671428D01*
X174042857Y-103757143D01*
X173985714Y-103814285D01*
X173928571Y-103842857D01*
X173814286Y-103871428D01*
X173728571Y-103871428D01*
X173614286Y-103842857D01*
X173557143Y-103814285D01*
X173500000Y-103757143D01*
X173471429Y-103671428D01*
X173471429Y-103614285D01*
X173500000Y-103528571D01*
X173528571Y-103500000D01*
X174071429Y-103214285D02*
X174071429Y-103100000D01*
X174042857Y-103042857D01*
X174014286Y-103014285D01*
X173928571Y-102957143D01*
X173814286Y-102928571D01*
X173585714Y-102928571D01*
X173528571Y-102957143D01*
X173500000Y-102985714D01*
X173471429Y-103042857D01*
X173471429Y-103157143D01*
X173500000Y-103214285D01*
X173528571Y-103242857D01*
X173585714Y-103271428D01*
X173728571Y-103271428D01*
X173785714Y-103242857D01*
X173814286Y-103214285D01*
X173842857Y-103157143D01*
X173842857Y-103042857D01*
X173814286Y-102985714D01*
X173785714Y-102957143D01*
X173728571Y-102928571D01*
X129014286Y-104785715D02*
X129042857Y-104814286D01*
X129071429Y-104900000D01*
X129071429Y-104957143D01*
X129042857Y-105042858D01*
X128985714Y-105100000D01*
X128928571Y-105128572D01*
X128814286Y-105157143D01*
X128728571Y-105157143D01*
X128614286Y-105128572D01*
X128557143Y-105100000D01*
X128500000Y-105042858D01*
X128471429Y-104957143D01*
X128471429Y-104900000D01*
X128500000Y-104814286D01*
X128528571Y-104785715D01*
X129071429Y-104214286D02*
X129071429Y-104557143D01*
X129071429Y-104385715D02*
X128471429Y-104385715D01*
X128557143Y-104442858D01*
X128614286Y-104500000D01*
X128642857Y-104557143D01*
X128471429Y-103842857D02*
X128471429Y-103785714D01*
X128500000Y-103728571D01*
X128528571Y-103700000D01*
X128585714Y-103671429D01*
X128700000Y-103642857D01*
X128842857Y-103642857D01*
X128957143Y-103671429D01*
X129014286Y-103700000D01*
X129042857Y-103728571D01*
X129071429Y-103785714D01*
X129071429Y-103842857D01*
X129042857Y-103900000D01*
X129014286Y-103928571D01*
X128957143Y-103957143D01*
X128842857Y-103985714D01*
X128700000Y-103985714D01*
X128585714Y-103957143D01*
X128528571Y-103928571D01*
X128500000Y-103900000D01*
X128471429Y-103842857D01*
X128814286Y-110185715D02*
X128842857Y-110214286D01*
X128871429Y-110300000D01*
X128871429Y-110357143D01*
X128842857Y-110442858D01*
X128785714Y-110500000D01*
X128728571Y-110528572D01*
X128614286Y-110557143D01*
X128528571Y-110557143D01*
X128414286Y-110528572D01*
X128357143Y-110500000D01*
X128300000Y-110442858D01*
X128271429Y-110357143D01*
X128271429Y-110300000D01*
X128300000Y-110214286D01*
X128328571Y-110185715D01*
X128871429Y-109614286D02*
X128871429Y-109957143D01*
X128871429Y-109785715D02*
X128271429Y-109785715D01*
X128357143Y-109842858D01*
X128414286Y-109900000D01*
X128442857Y-109957143D01*
X128871429Y-109042857D02*
X128871429Y-109385714D01*
X128871429Y-109214286D02*
X128271429Y-109214286D01*
X128357143Y-109271429D01*
X128414286Y-109328571D01*
X128442857Y-109385714D01*
X141521429Y-94342857D02*
X140921429Y-94342857D01*
X140921429Y-94200000D01*
X140950000Y-94114285D01*
X141007143Y-94057143D01*
X141064286Y-94028571D01*
X141178571Y-94000000D01*
X141264286Y-94000000D01*
X141378571Y-94028571D01*
X141435714Y-94057143D01*
X141492857Y-94114285D01*
X141521429Y-94200000D01*
X141521429Y-94342857D01*
X141521429Y-93428571D02*
X141521429Y-93771428D01*
X141521429Y-93600000D02*
X140921429Y-93600000D01*
X141007143Y-93657143D01*
X141064286Y-93714285D01*
X141092857Y-93771428D01*
X167982143Y-77371429D02*
X167982143Y-76771429D01*
X168125000Y-76771429D01*
X168210715Y-76800000D01*
X168267857Y-76857143D01*
X168296429Y-76914286D01*
X168325000Y-77028571D01*
X168325000Y-77114286D01*
X168296429Y-77228571D01*
X168267857Y-77285714D01*
X168210715Y-77342857D01*
X168125000Y-77371429D01*
X167982143Y-77371429D01*
X168553572Y-76828571D02*
X168582143Y-76800000D01*
X168639286Y-76771429D01*
X168782143Y-76771429D01*
X168839286Y-76800000D01*
X168867857Y-76828571D01*
X168896429Y-76885714D01*
X168896429Y-76942857D01*
X168867857Y-77028571D01*
X168525000Y-77371429D01*
X168896429Y-77371429D01*
X138457143Y-79671429D02*
X138457143Y-79071429D01*
X138600000Y-79071429D01*
X138685715Y-79100000D01*
X138742857Y-79157143D01*
X138771429Y-79214286D01*
X138800000Y-79328571D01*
X138800000Y-79414286D01*
X138771429Y-79528571D01*
X138742857Y-79585714D01*
X138685715Y-79642857D01*
X138600000Y-79671429D01*
X138457143Y-79671429D01*
X139000000Y-79071429D02*
X139371429Y-79071429D01*
X139171429Y-79300000D01*
X139257143Y-79300000D01*
X139314286Y-79328571D01*
X139342857Y-79357143D01*
X139371429Y-79414286D01*
X139371429Y-79557143D01*
X139342857Y-79614286D01*
X139314286Y-79642857D01*
X139257143Y-79671429D01*
X139085715Y-79671429D01*
X139028572Y-79642857D01*
X139000000Y-79614286D01*
X165342857Y-96328571D02*
X165285714Y-96300000D01*
X165228571Y-96242857D01*
X165142857Y-96157143D01*
X165085714Y-96128571D01*
X165028571Y-96128571D01*
X165057143Y-96271429D02*
X165000000Y-96242857D01*
X164942857Y-96185714D01*
X164914286Y-96071429D01*
X164914286Y-95871429D01*
X164942857Y-95757143D01*
X165000000Y-95700000D01*
X165057143Y-95671429D01*
X165171429Y-95671429D01*
X165228571Y-95700000D01*
X165285714Y-95757143D01*
X165314286Y-95871429D01*
X165314286Y-96071429D01*
X165285714Y-96185714D01*
X165228571Y-96242857D01*
X165171429Y-96271429D01*
X165057143Y-96271429D01*
X165885714Y-96271429D02*
X165542857Y-96271429D01*
X165714285Y-96271429D02*
X165714285Y-95671429D01*
X165657142Y-95757143D01*
X165600000Y-95814286D01*
X165542857Y-95842857D01*
X140642857Y-99828571D02*
X140585714Y-99800000D01*
X140528571Y-99742857D01*
X140442857Y-99657143D01*
X140385714Y-99628571D01*
X140328571Y-99628571D01*
X140357143Y-99771429D02*
X140300000Y-99742857D01*
X140242857Y-99685714D01*
X140214286Y-99571429D01*
X140214286Y-99371429D01*
X140242857Y-99257143D01*
X140300000Y-99200000D01*
X140357143Y-99171429D01*
X140471429Y-99171429D01*
X140528571Y-99200000D01*
X140585714Y-99257143D01*
X140614286Y-99371429D01*
X140614286Y-99571429D01*
X140585714Y-99685714D01*
X140528571Y-99742857D01*
X140471429Y-99771429D01*
X140357143Y-99771429D01*
X140842857Y-99228571D02*
X140871428Y-99200000D01*
X140928571Y-99171429D01*
X141071428Y-99171429D01*
X141128571Y-99200000D01*
X141157142Y-99228571D01*
X141185714Y-99285714D01*
X141185714Y-99342857D01*
X141157142Y-99428571D01*
X140814285Y-99771429D01*
X141185714Y-99771429D01*
X163300000Y-74971429D02*
X163100000Y-74685714D01*
X162957143Y-74971429D02*
X162957143Y-74371429D01*
X163185715Y-74371429D01*
X163242857Y-74400000D01*
X163271429Y-74428571D01*
X163300000Y-74485714D01*
X163300000Y-74571429D01*
X163271429Y-74628571D01*
X163242857Y-74657143D01*
X163185715Y-74685714D01*
X162957143Y-74685714D01*
X163871429Y-74971429D02*
X163528572Y-74971429D01*
X163700000Y-74971429D02*
X163700000Y-74371429D01*
X163642857Y-74457143D01*
X163585715Y-74514286D01*
X163528572Y-74542857D01*
X165100000Y-74971429D02*
X164900000Y-74685714D01*
X164757143Y-74971429D02*
X164757143Y-74371429D01*
X164985715Y-74371429D01*
X165042857Y-74400000D01*
X165071429Y-74428571D01*
X165100000Y-74485714D01*
X165100000Y-74571429D01*
X165071429Y-74628571D01*
X165042857Y-74657143D01*
X164985715Y-74685714D01*
X164757143Y-74685714D01*
X165328572Y-74428571D02*
X165357143Y-74400000D01*
X165414286Y-74371429D01*
X165557143Y-74371429D01*
X165614286Y-74400000D01*
X165642857Y-74428571D01*
X165671429Y-74485714D01*
X165671429Y-74542857D01*
X165642857Y-74628571D01*
X165300000Y-74971429D01*
X165671429Y-74971429D01*
X164200000Y-83671429D02*
X164000000Y-83385714D01*
X163857143Y-83671429D02*
X163857143Y-83071429D01*
X164085715Y-83071429D01*
X164142857Y-83100000D01*
X164171429Y-83128571D01*
X164200000Y-83185714D01*
X164200000Y-83271429D01*
X164171429Y-83328571D01*
X164142857Y-83357143D01*
X164085715Y-83385714D01*
X163857143Y-83385714D01*
X164400000Y-83071429D02*
X164771429Y-83071429D01*
X164571429Y-83300000D01*
X164657143Y-83300000D01*
X164714286Y-83328571D01*
X164742857Y-83357143D01*
X164771429Y-83414286D01*
X164771429Y-83557143D01*
X164742857Y-83614286D01*
X164714286Y-83642857D01*
X164657143Y-83671429D01*
X164485715Y-83671429D01*
X164428572Y-83642857D01*
X164400000Y-83614286D01*
X140521429Y-91800000D02*
X140235714Y-92000000D01*
X140521429Y-92142857D02*
X139921429Y-92142857D01*
X139921429Y-91914285D01*
X139950000Y-91857143D01*
X139978571Y-91828571D01*
X140035714Y-91800000D01*
X140121429Y-91800000D01*
X140178571Y-91828571D01*
X140207143Y-91857143D01*
X140235714Y-91914285D01*
X140235714Y-92142857D01*
X140121429Y-91285714D02*
X140521429Y-91285714D01*
X139892857Y-91428571D02*
X140321429Y-91571428D01*
X140321429Y-91200000D01*
X166050000Y-83671429D02*
X165850000Y-83385714D01*
X165707143Y-83671429D02*
X165707143Y-83071429D01*
X165935715Y-83071429D01*
X165992857Y-83100000D01*
X166021429Y-83128571D01*
X166050000Y-83185714D01*
X166050000Y-83271429D01*
X166021429Y-83328571D01*
X165992857Y-83357143D01*
X165935715Y-83385714D01*
X165707143Y-83385714D01*
X166592857Y-83071429D02*
X166307143Y-83071429D01*
X166278572Y-83357143D01*
X166307143Y-83328571D01*
X166364286Y-83300000D01*
X166507143Y-83300000D01*
X166564286Y-83328571D01*
X166592857Y-83357143D01*
X166621429Y-83414286D01*
X166621429Y-83557143D01*
X166592857Y-83614286D01*
X166564286Y-83642857D01*
X166507143Y-83671429D01*
X166364286Y-83671429D01*
X166307143Y-83642857D01*
X166278572Y-83614286D01*
X163671429Y-81100000D02*
X163385714Y-81300000D01*
X163671429Y-81442857D02*
X163071429Y-81442857D01*
X163071429Y-81214285D01*
X163100000Y-81157143D01*
X163128571Y-81128571D01*
X163185714Y-81100000D01*
X163271429Y-81100000D01*
X163328571Y-81128571D01*
X163357143Y-81157143D01*
X163385714Y-81214285D01*
X163385714Y-81442857D01*
X163071429Y-80585714D02*
X163071429Y-80700000D01*
X163100000Y-80757143D01*
X163128571Y-80785714D01*
X163214286Y-80842857D01*
X163328571Y-80871428D01*
X163557143Y-80871428D01*
X163614286Y-80842857D01*
X163642857Y-80814285D01*
X163671429Y-80757143D01*
X163671429Y-80642857D01*
X163642857Y-80585714D01*
X163614286Y-80557143D01*
X163557143Y-80528571D01*
X163414286Y-80528571D01*
X163357143Y-80557143D01*
X163328571Y-80585714D01*
X163300000Y-80642857D01*
X163300000Y-80757143D01*
X163328571Y-80814285D01*
X163357143Y-80842857D01*
X163414286Y-80871428D01*
X140776429Y-85435000D02*
X140490714Y-85635000D01*
X140776429Y-85777857D02*
X140176429Y-85777857D01*
X140176429Y-85549285D01*
X140205000Y-85492143D01*
X140233571Y-85463571D01*
X140290714Y-85435000D01*
X140376429Y-85435000D01*
X140433571Y-85463571D01*
X140462143Y-85492143D01*
X140490714Y-85549285D01*
X140490714Y-85777857D01*
X140176429Y-85235000D02*
X140176429Y-84835000D01*
X140776429Y-85092143D01*
X167271429Y-94400000D02*
X166985714Y-94600000D01*
X167271429Y-94742857D02*
X166671429Y-94742857D01*
X166671429Y-94514285D01*
X166700000Y-94457143D01*
X166728571Y-94428571D01*
X166785714Y-94400000D01*
X166871429Y-94400000D01*
X166928571Y-94428571D01*
X166957143Y-94457143D01*
X166985714Y-94514285D01*
X166985714Y-94742857D01*
X166928571Y-94057143D02*
X166900000Y-94114285D01*
X166871429Y-94142857D01*
X166814286Y-94171428D01*
X166785714Y-94171428D01*
X166728571Y-94142857D01*
X166700000Y-94114285D01*
X166671429Y-94057143D01*
X166671429Y-93942857D01*
X166700000Y-93885714D01*
X166728571Y-93857143D01*
X166785714Y-93828571D01*
X166814286Y-93828571D01*
X166871429Y-93857143D01*
X166900000Y-93885714D01*
X166928571Y-93942857D01*
X166928571Y-94057143D01*
X166957143Y-94114285D01*
X166985714Y-94142857D01*
X167042857Y-94171428D01*
X167157143Y-94171428D01*
X167214286Y-94142857D01*
X167242857Y-94114285D01*
X167271429Y-94057143D01*
X167271429Y-93942857D01*
X167242857Y-93885714D01*
X167214286Y-93857143D01*
X167157143Y-93828571D01*
X167042857Y-93828571D01*
X166985714Y-93857143D01*
X166957143Y-93885714D01*
X166928571Y-93942857D01*
X158000000Y-100771429D02*
X157800000Y-100485714D01*
X157657143Y-100771429D02*
X157657143Y-100171429D01*
X157885715Y-100171429D01*
X157942857Y-100200000D01*
X157971429Y-100228571D01*
X158000000Y-100285714D01*
X158000000Y-100371429D01*
X157971429Y-100428571D01*
X157942857Y-100457143D01*
X157885715Y-100485714D01*
X157657143Y-100485714D01*
X158285715Y-100771429D02*
X158400000Y-100771429D01*
X158457143Y-100742857D01*
X158485715Y-100714286D01*
X158542857Y-100628571D01*
X158571429Y-100514286D01*
X158571429Y-100285714D01*
X158542857Y-100228571D01*
X158514286Y-100200000D01*
X158457143Y-100171429D01*
X158342857Y-100171429D01*
X158285715Y-100200000D01*
X158257143Y-100228571D01*
X158228572Y-100285714D01*
X158228572Y-100428571D01*
X158257143Y-100485714D01*
X158285715Y-100514286D01*
X158342857Y-100542857D01*
X158457143Y-100542857D01*
X158514286Y-100514286D01*
X158542857Y-100485714D01*
X158571429Y-100428571D01*
X163371429Y-109485715D02*
X163085714Y-109685715D01*
X163371429Y-109828572D02*
X162771429Y-109828572D01*
X162771429Y-109600000D01*
X162800000Y-109542858D01*
X162828571Y-109514286D01*
X162885714Y-109485715D01*
X162971429Y-109485715D01*
X163028571Y-109514286D01*
X163057143Y-109542858D01*
X163085714Y-109600000D01*
X163085714Y-109828572D01*
X163371429Y-108914286D02*
X163371429Y-109257143D01*
X163371429Y-109085715D02*
X162771429Y-109085715D01*
X162857143Y-109142858D01*
X162914286Y-109200000D01*
X162942857Y-109257143D01*
X162771429Y-108542857D02*
X162771429Y-108485714D01*
X162800000Y-108428571D01*
X162828571Y-108400000D01*
X162885714Y-108371429D01*
X163000000Y-108342857D01*
X163142857Y-108342857D01*
X163257143Y-108371429D01*
X163314286Y-108400000D01*
X163342857Y-108428571D01*
X163371429Y-108485714D01*
X163371429Y-108542857D01*
X163342857Y-108600000D01*
X163314286Y-108628571D01*
X163257143Y-108657143D01*
X163142857Y-108685714D01*
X163000000Y-108685714D01*
X162885714Y-108657143D01*
X162828571Y-108628571D01*
X162800000Y-108600000D01*
X162771429Y-108542857D01*
X172714285Y-112071429D02*
X172514285Y-111785714D01*
X172371428Y-112071429D02*
X172371428Y-111471429D01*
X172600000Y-111471429D01*
X172657142Y-111500000D01*
X172685714Y-111528571D01*
X172714285Y-111585714D01*
X172714285Y-111671429D01*
X172685714Y-111728571D01*
X172657142Y-111757143D01*
X172600000Y-111785714D01*
X172371428Y-111785714D01*
X173285714Y-112071429D02*
X172942857Y-112071429D01*
X173114285Y-112071429D02*
X173114285Y-111471429D01*
X173057142Y-111557143D01*
X173000000Y-111614286D01*
X172942857Y-111642857D01*
X173857143Y-112071429D02*
X173514286Y-112071429D01*
X173685714Y-112071429D02*
X173685714Y-111471429D01*
X173628571Y-111557143D01*
X173571429Y-111614286D01*
X173514286Y-111642857D01*
X155282142Y-99894048D02*
X155065476Y-99584524D01*
X154910714Y-99894048D02*
X154910714Y-99244048D01*
X155158333Y-99244048D01*
X155220238Y-99275000D01*
X155251190Y-99305952D01*
X155282142Y-99367857D01*
X155282142Y-99460714D01*
X155251190Y-99522619D01*
X155220238Y-99553571D01*
X155158333Y-99584524D01*
X154910714Y-99584524D01*
X155901190Y-99894048D02*
X155529762Y-99894048D01*
X155715476Y-99894048D02*
X155715476Y-99244048D01*
X155653571Y-99336905D01*
X155591666Y-99398810D01*
X155529762Y-99429762D01*
X156148810Y-99305952D02*
X156179762Y-99275000D01*
X156241667Y-99244048D01*
X156396429Y-99244048D01*
X156458333Y-99275000D01*
X156489286Y-99305952D01*
X156520238Y-99367857D01*
X156520238Y-99429762D01*
X156489286Y-99522619D01*
X156117857Y-99894048D01*
X156520238Y-99894048D01*
X159742857Y-94471429D02*
X159742857Y-94957143D01*
X159771429Y-95014286D01*
X159800000Y-95042857D01*
X159857143Y-95071429D01*
X159971429Y-95071429D01*
X160028571Y-95042857D01*
X160057143Y-95014286D01*
X160085714Y-94957143D01*
X160085714Y-94471429D01*
X160685714Y-95071429D02*
X160342857Y-95071429D01*
X160514285Y-95071429D02*
X160514285Y-94471429D01*
X160457142Y-94557143D01*
X160400000Y-94614286D01*
X160342857Y-94642857D01*
X166671429Y-92657143D02*
X167157143Y-92657143D01*
X167214286Y-92628571D01*
X167242857Y-92600000D01*
X167271429Y-92542857D01*
X167271429Y-92428571D01*
X167242857Y-92371429D01*
X167214286Y-92342857D01*
X167157143Y-92314286D01*
X166671429Y-92314286D01*
X166728571Y-92057143D02*
X166700000Y-92028572D01*
X166671429Y-91971429D01*
X166671429Y-91828572D01*
X166700000Y-91771429D01*
X166728571Y-91742858D01*
X166785714Y-91714286D01*
X166842857Y-91714286D01*
X166928571Y-91742858D01*
X167271429Y-92085715D01*
X167271429Y-91714286D01*
X168271429Y-93657143D02*
X168757143Y-93657143D01*
X168814286Y-93628571D01*
X168842857Y-93600000D01*
X168871429Y-93542857D01*
X168871429Y-93428571D01*
X168842857Y-93371429D01*
X168814286Y-93342857D01*
X168757143Y-93314286D01*
X168271429Y-93314286D01*
X168271429Y-93085715D02*
X168271429Y-92714286D01*
X168500000Y-92914286D01*
X168500000Y-92828572D01*
X168528571Y-92771429D01*
X168557143Y-92742858D01*
X168614286Y-92714286D01*
X168757143Y-92714286D01*
X168814286Y-92742858D01*
X168842857Y-92771429D01*
X168871429Y-92828572D01*
X168871429Y-93000000D01*
X168842857Y-93057143D01*
X168814286Y-93085715D01*
X159442857Y-105721429D02*
X159442857Y-106207143D01*
X159471429Y-106264286D01*
X159500000Y-106292857D01*
X159557143Y-106321429D01*
X159671429Y-106321429D01*
X159728571Y-106292857D01*
X159757143Y-106264286D01*
X159785714Y-106207143D01*
X159785714Y-105721429D01*
X160328571Y-105921429D02*
X160328571Y-106321429D01*
X160185714Y-105692857D02*
X160042857Y-106121429D01*
X160414285Y-106121429D01*
X142271429Y-103457143D02*
X142757143Y-103457143D01*
X142814286Y-103428571D01*
X142842857Y-103400000D01*
X142871429Y-103342857D01*
X142871429Y-103228571D01*
X142842857Y-103171429D01*
X142814286Y-103142857D01*
X142757143Y-103114286D01*
X142271429Y-103114286D01*
X142528571Y-102742858D02*
X142500000Y-102800000D01*
X142471429Y-102828572D01*
X142414286Y-102857143D01*
X142385714Y-102857143D01*
X142328571Y-102828572D01*
X142300000Y-102800000D01*
X142271429Y-102742858D01*
X142271429Y-102628572D01*
X142300000Y-102571429D01*
X142328571Y-102542858D01*
X142385714Y-102514286D01*
X142414286Y-102514286D01*
X142471429Y-102542858D01*
X142500000Y-102571429D01*
X142528571Y-102628572D01*
X142528571Y-102742858D01*
X142557143Y-102800000D01*
X142585714Y-102828572D01*
X142642857Y-102857143D01*
X142757143Y-102857143D01*
X142814286Y-102828572D01*
X142842857Y-102800000D01*
X142871429Y-102742858D01*
X142871429Y-102628572D01*
X142842857Y-102571429D01*
X142814286Y-102542858D01*
X142757143Y-102514286D01*
X142642857Y-102514286D01*
X142585714Y-102542858D01*
X142557143Y-102571429D01*
X142528571Y-102628572D01*
X170042857Y-111471429D02*
X170042857Y-111957143D01*
X170071429Y-112014286D01*
X170100000Y-112042857D01*
X170157143Y-112071429D01*
X170271429Y-112071429D01*
X170328571Y-112042857D01*
X170357143Y-112014286D01*
X170385714Y-111957143D01*
X170385714Y-111471429D01*
X170700000Y-112071429D02*
X170814285Y-112071429D01*
X170871428Y-112042857D01*
X170900000Y-112014286D01*
X170957142Y-111928571D01*
X170985714Y-111814286D01*
X170985714Y-111585714D01*
X170957142Y-111528571D01*
X170928571Y-111500000D01*
X170871428Y-111471429D01*
X170757142Y-111471429D01*
X170700000Y-111500000D01*
X170671428Y-111528571D01*
X170642857Y-111585714D01*
X170642857Y-111728571D01*
X170671428Y-111785714D01*
X170700000Y-111814286D01*
X170757142Y-111842857D01*
X170871428Y-111842857D01*
X170928571Y-111814286D01*
X170957142Y-111785714D01*
X170985714Y-111728571D01*
X128671429Y-107942857D02*
X129157143Y-107942857D01*
X129214286Y-107914285D01*
X129242857Y-107885714D01*
X129271429Y-107828571D01*
X129271429Y-107714285D01*
X129242857Y-107657143D01*
X129214286Y-107628571D01*
X129157143Y-107600000D01*
X128671429Y-107600000D01*
X129271429Y-107000000D02*
X129271429Y-107342857D01*
X129271429Y-107171429D02*
X128671429Y-107171429D01*
X128757143Y-107228572D01*
X128814286Y-107285714D01*
X128842857Y-107342857D01*
X128671429Y-106628571D02*
X128671429Y-106571428D01*
X128700000Y-106514285D01*
X128728571Y-106485714D01*
X128785714Y-106457143D01*
X128900000Y-106428571D01*
X129042857Y-106428571D01*
X129157143Y-106457143D01*
X129214286Y-106485714D01*
X129242857Y-106514285D01*
X129271429Y-106571428D01*
X129271429Y-106628571D01*
X129242857Y-106685714D01*
X129214286Y-106714285D01*
X129157143Y-106742857D01*
X129042857Y-106771428D01*
X128900000Y-106771428D01*
X128785714Y-106742857D01*
X128728571Y-106714285D01*
X128700000Y-106685714D01*
X128671429Y-106628571D01*
X159442857Y-107371429D02*
X159442857Y-107857143D01*
X159471429Y-107914286D01*
X159500000Y-107942857D01*
X159557143Y-107971429D01*
X159671429Y-107971429D01*
X159728571Y-107942857D01*
X159757143Y-107914286D01*
X159785714Y-107857143D01*
X159785714Y-107371429D01*
X160328571Y-107371429D02*
X160214285Y-107371429D01*
X160157142Y-107400000D01*
X160128571Y-107428571D01*
X160071428Y-107514286D01*
X160042857Y-107628571D01*
X160042857Y-107857143D01*
X160071428Y-107914286D01*
X160100000Y-107942857D01*
X160157142Y-107971429D01*
X160271428Y-107971429D01*
X160328571Y-107942857D01*
X160357142Y-107914286D01*
X160385714Y-107857143D01*
X160385714Y-107714286D01*
X160357142Y-107657143D01*
X160328571Y-107628571D01*
X160271428Y-107600000D01*
X160157142Y-107600000D01*
X160100000Y-107628571D01*
X160071428Y-107657143D01*
X160042857Y-107714286D01*
X167842857Y-107071429D02*
X167842857Y-107557143D01*
X167871429Y-107614286D01*
X167900000Y-107642857D01*
X167957143Y-107671429D01*
X168071429Y-107671429D01*
X168128571Y-107642857D01*
X168157143Y-107614286D01*
X168185714Y-107557143D01*
X168185714Y-107071429D01*
X168414285Y-107071429D02*
X168814285Y-107071429D01*
X168557142Y-107671429D01*
X135600000Y-74642857D02*
X135685714Y-74671429D01*
X135828571Y-74671429D01*
X135885714Y-74642857D01*
X135914285Y-74614286D01*
X135942857Y-74557143D01*
X135942857Y-74500000D01*
X135914285Y-74442857D01*
X135885714Y-74414286D01*
X135828571Y-74385714D01*
X135714285Y-74357143D01*
X135657143Y-74328571D01*
X135628571Y-74300000D01*
X135600000Y-74242857D01*
X135600000Y-74185714D01*
X135628571Y-74128571D01*
X135657143Y-74100000D01*
X135714285Y-74071429D01*
X135857143Y-74071429D01*
X135942857Y-74100000D01*
X136142857Y-74071429D02*
X136285714Y-74671429D01*
X136400000Y-74242857D01*
X136514286Y-74671429D01*
X136657143Y-74071429D01*
X137200000Y-74671429D02*
X136857143Y-74671429D01*
X137028571Y-74671429D02*
X137028571Y-74071429D01*
X136971428Y-74157143D01*
X136914286Y-74214286D01*
X136857143Y-74242857D01*
M02*
