M48
;DRILL file {KiCad 4.0.5} date Sun Jan  1 21:38:41 2017
;FORMAT={-:-/ absolute / metric / decimal}
FMAT,2
METRIC,TZ
T1C0.400
T2C0.650
T3C1.016
T4C3.048
%
G90
G05
M71
T1
X126.125Y-95.05
X128.7Y-107.2
X133.5Y-109.2
X133.6Y-111.3
X134.65Y-99.65
X135.575Y-95.9
X136.775Y-79.05
X137.2Y-96.375
X141.Y-101.6
X142.425Y-101.825
X142.7Y-96.125
X145.5Y-106.
X147.5Y-87.5
X149.275Y-101.175
X149.875Y-111.425
X150.05Y-110.425
X150.525Y-107.7
X150.7Y-106.725
X151.Y-110.4
X151.7Y-106.5
X152.Y-113.525
X152.35Y-109.4
X152.45Y-100.175
X152.65Y-96.975
X154.825Y-109.975
X156.55Y-107.
X158.007Y-98.7
X158.375Y-100.4
X159.22Y-107.06
X159.25Y-97.925
X160.692Y-108.667
X161.646Y-102.791
X162.408Y-103.033
X162.45Y-108.75
X162.5Y-95.225
X163.525Y-103.2
X163.525Y-104.675
X164.15Y-95.925
X164.5Y-103.075
X164.687Y-108.421
X165.35Y-111.2
X166.612Y-95.372
X167.075Y-108.75
X167.625Y-103.5
X168.275Y-88.525
X168.415Y-103.627
X169.25Y-111.85
X174.Y-106.3
T2
X144.525Y-79.575
X144.525Y-81.575
X144.525Y-83.575
X144.525Y-85.575
X144.525Y-87.575
X144.525Y-89.575
X144.525Y-91.575
X144.525Y-93.575
X158.525Y-79.575
X158.525Y-81.575
X158.525Y-83.575
X158.525Y-85.575
X158.525Y-87.575
X158.525Y-89.575
X158.525Y-91.575
X158.525Y-93.575
T3
X130.525Y-80.575
X130.525Y-83.115
X130.525Y-85.655
X130.525Y-88.195
X130.525Y-90.735
X130.525Y-93.275
X130.525Y-95.815
X130.525Y-98.355
X130.525Y-100.895
X133.065Y-80.575
X133.065Y-83.115
X133.065Y-85.655
X133.065Y-88.195
X133.065Y-90.735
X133.065Y-93.275
X133.065Y-95.815
X133.065Y-98.355
X133.065Y-100.895
X134.173Y-118.404
X134.18Y-114.75
X136.713Y-118.404
X136.72Y-114.75
X139.253Y-118.404
X139.26Y-114.75
X141.793Y-118.404
X141.8Y-114.75
X149.2Y-115.8
X149.2Y-118.34
X152.9Y-115.825
X152.9Y-118.365
X156.699Y-115.852
X156.699Y-118.392
X160.325Y-115.85
X160.325Y-118.39
X171.318Y-79.335
X171.318Y-81.875
X171.318Y-84.415
X171.318Y-86.955
T4
X129.525Y-74.575
X129.525Y-116.575
X171.525Y-74.575
X171.525Y-116.575
T0
M30
