G04 #@! TF.FileFunction,Soldermask,Bot*
%FSLAX46Y46*%
G04 Gerber Fmt 4.6, Leading zero omitted, Abs format (unit mm)*
G04 Created by KiCad (PCBNEW 4.0.2-1.fc23-product) date Tue 29 Mar 2016 21:37:23 CEST*
%MOMM*%
G01*
G04 APERTURE LIST*
%ADD10C,0.100000*%
%ADD11C,2.800000*%
%ADD12R,2.432000X2.432000*%
%ADD13O,2.432000X2.432000*%
%ADD14R,2.127200X2.432000*%
%ADD15O,2.127200X2.432000*%
%ADD16O,1.350000X1.650000*%
%ADD17O,1.950000X1.400000*%
%ADD18C,1.900000*%
%ADD19R,2.900000X1.500000*%
%ADD20O,2.900000X1.500000*%
%ADD21R,2.432000X2.127200*%
%ADD22O,2.432000X2.127200*%
G04 APERTURE END LIST*
D10*
D11*
X153000000Y-90250000D03*
X197000000Y-90250000D03*
D12*
X153000000Y-95000000D03*
D13*
X153000000Y-97540000D03*
D12*
X197000000Y-95000000D03*
D13*
X197000000Y-97540000D03*
D14*
X181710000Y-93250000D03*
D15*
X184250000Y-93250000D03*
X186790000Y-93250000D03*
D14*
X158680000Y-78450000D03*
D15*
X156140000Y-78450000D03*
X153600000Y-78450000D03*
D16*
X196247460Y-63940900D03*
X196247460Y-58940900D03*
D17*
X198947460Y-64940900D03*
X198947460Y-57940900D03*
D18*
X172970000Y-81460000D03*
X166470000Y-81460000D03*
X166470000Y-76960000D03*
X172970000Y-76960000D03*
D12*
X194500000Y-77290000D03*
D13*
X194500000Y-74750000D03*
D12*
X194500000Y-71750000D03*
D13*
X194500000Y-69210000D03*
D19*
X156490000Y-59700000D03*
D20*
X156490000Y-61700000D03*
X156490000Y-63700000D03*
X156490000Y-65700000D03*
X156490000Y-67700000D03*
X156490000Y-69700000D03*
X156490000Y-71700000D03*
X156490000Y-73700000D03*
X171890000Y-73700000D03*
X171790000Y-71700000D03*
X171890000Y-69700000D03*
X171890000Y-67700000D03*
X171890000Y-65700000D03*
X171890000Y-63700000D03*
X171890000Y-61700000D03*
X171890000Y-59700000D03*
D21*
X152075000Y-62425000D03*
D22*
X152075000Y-64965000D03*
X152075000Y-67505000D03*
X152075000Y-70045000D03*
X152075000Y-72585000D03*
D11*
X198000000Y-52000000D03*
M02*
