G04 #@! TF.FileFunction,Legend,Top*
%FSLAX46Y46*%
G04 Gerber Fmt 4.6, Leading zero omitted, Abs format (unit mm)*
G04 Created by KiCad (PCBNEW 4.0.2-1.fc23-product) date Tue 29 Mar 2016 21:37:23 CEST*
%MOMM*%
G01*
G04 APERTURE LIST*
%ADD10C,0.100000*%
%ADD11C,0.150000*%
%ADD12C,0.200000*%
%ADD13C,0.125000*%
%ADD14C,0.400000*%
%ADD15C,1.000000*%
%ADD16C,0.010000*%
%ADD17C,0.152400*%
%ADD18C,0.050000*%
G04 APERTURE END LIST*
D10*
D11*
X192628571Y-78947618D02*
X192628571Y-79138095D01*
X191485714Y-79138095D01*
X191485714Y-78947618D01*
X192361905Y-78033333D02*
X191561905Y-78033333D01*
X191561905Y-77842857D01*
X191600000Y-77728571D01*
X191676190Y-77652380D01*
X191752381Y-77614285D01*
X191904762Y-77576190D01*
X192019048Y-77576190D01*
X192171429Y-77614285D01*
X192247619Y-77652380D01*
X192323810Y-77728571D01*
X192361905Y-77842857D01*
X192361905Y-78033333D01*
X191561905Y-77080952D02*
X191561905Y-76928571D01*
X191600000Y-76852380D01*
X191676190Y-76776190D01*
X191828571Y-76738095D01*
X192095238Y-76738095D01*
X192247619Y-76776190D01*
X192323810Y-76852380D01*
X192361905Y-76928571D01*
X192361905Y-77080952D01*
X192323810Y-77157142D01*
X192247619Y-77233333D01*
X192095238Y-77271428D01*
X191828571Y-77271428D01*
X191676190Y-77233333D01*
X191600000Y-77157142D01*
X191561905Y-77080952D01*
X192361905Y-75785714D02*
X191561905Y-75785714D01*
X192361905Y-75328571D01*
X191561905Y-75328571D01*
X191561905Y-74795238D02*
X191561905Y-74642857D01*
X191600000Y-74566666D01*
X191676190Y-74490476D01*
X191828571Y-74452381D01*
X192095238Y-74452381D01*
X192247619Y-74490476D01*
X192323810Y-74566666D01*
X192361905Y-74642857D01*
X192361905Y-74795238D01*
X192323810Y-74871428D01*
X192247619Y-74947619D01*
X192095238Y-74985714D01*
X191828571Y-74985714D01*
X191676190Y-74947619D01*
X191600000Y-74871428D01*
X191561905Y-74795238D01*
X191561905Y-74223810D02*
X191561905Y-73766667D01*
X192361905Y-73995238D02*
X191561905Y-73995238D01*
X191942857Y-72623809D02*
X191980952Y-72509523D01*
X192019048Y-72471428D01*
X192095238Y-72433333D01*
X192209524Y-72433333D01*
X192285714Y-72471428D01*
X192323810Y-72509523D01*
X192361905Y-72585714D01*
X192361905Y-72890476D01*
X191561905Y-72890476D01*
X191561905Y-72623809D01*
X191600000Y-72547619D01*
X191638095Y-72509523D01*
X191714286Y-72471428D01*
X191790476Y-72471428D01*
X191866667Y-72509523D01*
X191904762Y-72547619D01*
X191942857Y-72623809D01*
X191942857Y-72890476D01*
X192361905Y-71633333D02*
X191980952Y-71900000D01*
X192361905Y-72090476D02*
X191561905Y-72090476D01*
X191561905Y-71785714D01*
X191600000Y-71709523D01*
X191638095Y-71671428D01*
X191714286Y-71633333D01*
X191828571Y-71633333D01*
X191904762Y-71671428D01*
X191942857Y-71709523D01*
X191980952Y-71785714D01*
X191980952Y-72090476D01*
X192361905Y-71290476D02*
X191561905Y-71290476D01*
X192361905Y-70909524D02*
X191561905Y-70909524D01*
X191561905Y-70719048D01*
X191600000Y-70604762D01*
X191676190Y-70528571D01*
X191752381Y-70490476D01*
X191904762Y-70452381D01*
X192019048Y-70452381D01*
X192171429Y-70490476D01*
X192247619Y-70528571D01*
X192323810Y-70604762D01*
X192361905Y-70719048D01*
X192361905Y-70909524D01*
X191600000Y-69690476D02*
X191561905Y-69766667D01*
X191561905Y-69880952D01*
X191600000Y-69995238D01*
X191676190Y-70071429D01*
X191752381Y-70109524D01*
X191904762Y-70147619D01*
X192019048Y-70147619D01*
X192171429Y-70109524D01*
X192247619Y-70071429D01*
X192323810Y-69995238D01*
X192361905Y-69880952D01*
X192361905Y-69804762D01*
X192323810Y-69690476D01*
X192285714Y-69652381D01*
X192019048Y-69652381D01*
X192019048Y-69804762D01*
X191942857Y-69309524D02*
X191942857Y-69042857D01*
X192361905Y-68928571D02*
X192361905Y-69309524D01*
X191561905Y-69309524D01*
X191561905Y-68928571D01*
X192628571Y-68052380D02*
X192628571Y-67861904D01*
X191485714Y-67861904D01*
X191485714Y-68052380D01*
X174928571Y-80339286D02*
X174928571Y-79589286D01*
X175214286Y-79589286D01*
X175285714Y-79625000D01*
X175321429Y-79660714D01*
X175357143Y-79732143D01*
X175357143Y-79839286D01*
X175321429Y-79910714D01*
X175285714Y-79946429D01*
X175214286Y-79982143D01*
X174928571Y-79982143D01*
X175785714Y-80339286D02*
X175714286Y-80303571D01*
X175678571Y-80267857D01*
X175642857Y-80196429D01*
X175642857Y-79982143D01*
X175678571Y-79910714D01*
X175714286Y-79875000D01*
X175785714Y-79839286D01*
X175892857Y-79839286D01*
X175964286Y-79875000D01*
X176000000Y-79910714D01*
X176035714Y-79982143D01*
X176035714Y-80196429D01*
X176000000Y-80267857D01*
X175964286Y-80303571D01*
X175892857Y-80339286D01*
X175785714Y-80339286D01*
X176285714Y-79839286D02*
X176428571Y-80339286D01*
X176571428Y-79982143D01*
X176714285Y-80339286D01*
X176857142Y-79839286D01*
X177428571Y-80303571D02*
X177357142Y-80339286D01*
X177214285Y-80339286D01*
X177142856Y-80303571D01*
X177107142Y-80232143D01*
X177107142Y-79946429D01*
X177142856Y-79875000D01*
X177214285Y-79839286D01*
X177357142Y-79839286D01*
X177428571Y-79875000D01*
X177464285Y-79946429D01*
X177464285Y-80017857D01*
X177107142Y-80089286D01*
X177785713Y-80339286D02*
X177785713Y-79839286D01*
X177785713Y-79982143D02*
X177821428Y-79910714D01*
X177857142Y-79875000D01*
X177928571Y-79839286D01*
X177999999Y-79839286D01*
X178821428Y-80339286D02*
X178821428Y-79589286D01*
X179071428Y-80125000D01*
X179321428Y-79589286D01*
X179321428Y-80339286D01*
X180000000Y-80339286D02*
X180000000Y-79946429D01*
X179964286Y-79875000D01*
X179892857Y-79839286D01*
X179750000Y-79839286D01*
X179678571Y-79875000D01*
X180000000Y-80303571D02*
X179928571Y-80339286D01*
X179750000Y-80339286D01*
X179678571Y-80303571D01*
X179642857Y-80232143D01*
X179642857Y-80160714D01*
X179678571Y-80089286D01*
X179750000Y-80053571D01*
X179928571Y-80053571D01*
X180000000Y-80017857D01*
X180357142Y-79839286D02*
X180357142Y-80339286D01*
X180357142Y-79910714D02*
X180392857Y-79875000D01*
X180464285Y-79839286D01*
X180571428Y-79839286D01*
X180642857Y-79875000D01*
X180678571Y-79946429D01*
X180678571Y-80339286D01*
X181357142Y-80339286D02*
X181357142Y-79946429D01*
X181321428Y-79875000D01*
X181249999Y-79839286D01*
X181107142Y-79839286D01*
X181035713Y-79875000D01*
X181357142Y-80303571D02*
X181285713Y-80339286D01*
X181107142Y-80339286D01*
X181035713Y-80303571D01*
X180999999Y-80232143D01*
X180999999Y-80160714D01*
X181035713Y-80089286D01*
X181107142Y-80053571D01*
X181285713Y-80053571D01*
X181357142Y-80017857D01*
X182035713Y-79839286D02*
X182035713Y-80446429D01*
X181999999Y-80517857D01*
X181964284Y-80553571D01*
X181892856Y-80589286D01*
X181785713Y-80589286D01*
X181714284Y-80553571D01*
X182035713Y-80303571D02*
X181964284Y-80339286D01*
X181821427Y-80339286D01*
X181749999Y-80303571D01*
X181714284Y-80267857D01*
X181678570Y-80196429D01*
X181678570Y-79982143D01*
X181714284Y-79910714D01*
X181749999Y-79875000D01*
X181821427Y-79839286D01*
X181964284Y-79839286D01*
X182035713Y-79875000D01*
X182678570Y-80303571D02*
X182607141Y-80339286D01*
X182464284Y-80339286D01*
X182392855Y-80303571D01*
X182357141Y-80232143D01*
X182357141Y-79946429D01*
X182392855Y-79875000D01*
X182464284Y-79839286D01*
X182607141Y-79839286D01*
X182678570Y-79875000D01*
X182714284Y-79946429D01*
X182714284Y-80017857D01*
X182357141Y-80089286D01*
X183035712Y-80339286D02*
X183035712Y-79839286D01*
X183035712Y-79910714D02*
X183071427Y-79875000D01*
X183142855Y-79839286D01*
X183249998Y-79839286D01*
X183321427Y-79875000D01*
X183357141Y-79946429D01*
X183357141Y-80339286D01*
X183357141Y-79946429D02*
X183392855Y-79875000D01*
X183464284Y-79839286D01*
X183571427Y-79839286D01*
X183642855Y-79875000D01*
X183678570Y-79946429D01*
X183678570Y-80339286D01*
X184321427Y-80303571D02*
X184249998Y-80339286D01*
X184107141Y-80339286D01*
X184035712Y-80303571D01*
X183999998Y-80232143D01*
X183999998Y-79946429D01*
X184035712Y-79875000D01*
X184107141Y-79839286D01*
X184249998Y-79839286D01*
X184321427Y-79875000D01*
X184357141Y-79946429D01*
X184357141Y-80017857D01*
X183999998Y-80089286D01*
X184678569Y-79839286D02*
X184678569Y-80339286D01*
X184678569Y-79910714D02*
X184714284Y-79875000D01*
X184785712Y-79839286D01*
X184892855Y-79839286D01*
X184964284Y-79875000D01*
X184999998Y-79946429D01*
X184999998Y-80339286D01*
X185249998Y-79839286D02*
X185535712Y-79839286D01*
X185357140Y-79589286D02*
X185357140Y-80232143D01*
X185392855Y-80303571D01*
X185464283Y-80339286D01*
X185535712Y-80339286D01*
X196376429Y-72042857D02*
X196805000Y-72042857D01*
X196890714Y-72071429D01*
X196947857Y-72128572D01*
X196976429Y-72214286D01*
X196976429Y-72271429D01*
X196976429Y-71757143D02*
X196376429Y-71757143D01*
X196805000Y-71557143D01*
X196376429Y-71357143D01*
X196976429Y-71357143D01*
X196976429Y-71071429D02*
X196376429Y-71071429D01*
X196376429Y-70842857D01*
X196405000Y-70785715D01*
X196433571Y-70757143D01*
X196490714Y-70728572D01*
X196576429Y-70728572D01*
X196633571Y-70757143D01*
X196662143Y-70785715D01*
X196690714Y-70842857D01*
X196690714Y-71071429D01*
X196576429Y-70100000D02*
X196576429Y-69871429D01*
X196976429Y-70014286D02*
X196462143Y-70014286D01*
X196405000Y-69985714D01*
X196376429Y-69928572D01*
X196376429Y-69871429D01*
X196976429Y-69585715D02*
X196947857Y-69642857D01*
X196919286Y-69671429D01*
X196862143Y-69700000D01*
X196690714Y-69700000D01*
X196633571Y-69671429D01*
X196605000Y-69642857D01*
X196576429Y-69585715D01*
X196576429Y-69500000D01*
X196605000Y-69442857D01*
X196633571Y-69414286D01*
X196690714Y-69385715D01*
X196862143Y-69385715D01*
X196919286Y-69414286D01*
X196947857Y-69442857D01*
X196976429Y-69500000D01*
X196976429Y-69585715D01*
X196976429Y-69128572D02*
X196576429Y-69128572D01*
X196690714Y-69128572D02*
X196633571Y-69100000D01*
X196605000Y-69071429D01*
X196576429Y-69014286D01*
X196576429Y-68957143D01*
X197366429Y-72714286D02*
X197852143Y-72714286D01*
X197909286Y-72685714D01*
X197937857Y-72657143D01*
X197966429Y-72600000D01*
X197966429Y-72485714D01*
X197937857Y-72428572D01*
X197909286Y-72400000D01*
X197852143Y-72371429D01*
X197366429Y-72371429D01*
X197937857Y-72114286D02*
X197966429Y-72028572D01*
X197966429Y-71885715D01*
X197937857Y-71828572D01*
X197909286Y-71800001D01*
X197852143Y-71771429D01*
X197795000Y-71771429D01*
X197737857Y-71800001D01*
X197709286Y-71828572D01*
X197680714Y-71885715D01*
X197652143Y-72000001D01*
X197623571Y-72057143D01*
X197595000Y-72085715D01*
X197537857Y-72114286D01*
X197480714Y-72114286D01*
X197423571Y-72085715D01*
X197395000Y-72057143D01*
X197366429Y-72000001D01*
X197366429Y-71857143D01*
X197395000Y-71771429D01*
X197652143Y-71314286D02*
X197680714Y-71228572D01*
X197709286Y-71200000D01*
X197766429Y-71171429D01*
X197852143Y-71171429D01*
X197909286Y-71200000D01*
X197937857Y-71228572D01*
X197966429Y-71285714D01*
X197966429Y-71514286D01*
X197366429Y-71514286D01*
X197366429Y-71314286D01*
X197395000Y-71257143D01*
X197423571Y-71228572D01*
X197480714Y-71200000D01*
X197537857Y-71200000D01*
X197595000Y-71228572D01*
X197623571Y-71257143D01*
X197652143Y-71314286D01*
X197652143Y-71514286D01*
X197966429Y-70457143D02*
X197366429Y-70457143D01*
X197366429Y-70228571D01*
X197395000Y-70171429D01*
X197423571Y-70142857D01*
X197480714Y-70114286D01*
X197566429Y-70114286D01*
X197623571Y-70142857D01*
X197652143Y-70171429D01*
X197680714Y-70228571D01*
X197680714Y-70457143D01*
X197966429Y-69771429D02*
X197937857Y-69828571D01*
X197909286Y-69857143D01*
X197852143Y-69885714D01*
X197680714Y-69885714D01*
X197623571Y-69857143D01*
X197595000Y-69828571D01*
X197566429Y-69771429D01*
X197566429Y-69685714D01*
X197595000Y-69628571D01*
X197623571Y-69600000D01*
X197680714Y-69571429D01*
X197852143Y-69571429D01*
X197909286Y-69600000D01*
X197937857Y-69628571D01*
X197966429Y-69685714D01*
X197966429Y-69771429D01*
X197566429Y-69371429D02*
X197966429Y-69257143D01*
X197680714Y-69142857D01*
X197966429Y-69028572D01*
X197566429Y-68914286D01*
X197937857Y-68457143D02*
X197966429Y-68514286D01*
X197966429Y-68628572D01*
X197937857Y-68685715D01*
X197880714Y-68714286D01*
X197652143Y-68714286D01*
X197595000Y-68685715D01*
X197566429Y-68628572D01*
X197566429Y-68514286D01*
X197595000Y-68457143D01*
X197652143Y-68428572D01*
X197709286Y-68428572D01*
X197766429Y-68714286D01*
X197966429Y-68171429D02*
X197566429Y-68171429D01*
X197680714Y-68171429D02*
X197623571Y-68142857D01*
X197595000Y-68114286D01*
X197566429Y-68057143D01*
X197566429Y-68000000D01*
D12*
X196000000Y-67800000D02*
X198200000Y-67800000D01*
X196000000Y-73000000D02*
X196000000Y-67800000D01*
X198200000Y-73000000D02*
X196000000Y-73000000D01*
D11*
X166785714Y-91103571D02*
X166892857Y-91139286D01*
X167071428Y-91139286D01*
X167142857Y-91103571D01*
X167178571Y-91067857D01*
X167214286Y-90996429D01*
X167214286Y-90925000D01*
X167178571Y-90853571D01*
X167142857Y-90817857D01*
X167071428Y-90782143D01*
X166928571Y-90746429D01*
X166857143Y-90710714D01*
X166821428Y-90675000D01*
X166785714Y-90603571D01*
X166785714Y-90532143D01*
X166821428Y-90460714D01*
X166857143Y-90425000D01*
X166928571Y-90389286D01*
X167107143Y-90389286D01*
X167214286Y-90425000D01*
X167821429Y-91103571D02*
X167750000Y-91139286D01*
X167607143Y-91139286D01*
X167535714Y-91103571D01*
X167500000Y-91032143D01*
X167500000Y-90746429D01*
X167535714Y-90675000D01*
X167607143Y-90639286D01*
X167750000Y-90639286D01*
X167821429Y-90675000D01*
X167857143Y-90746429D01*
X167857143Y-90817857D01*
X167500000Y-90889286D01*
X168178571Y-90639286D02*
X168178571Y-91139286D01*
X168178571Y-90710714D02*
X168214286Y-90675000D01*
X168285714Y-90639286D01*
X168392857Y-90639286D01*
X168464286Y-90675000D01*
X168500000Y-90746429D01*
X168500000Y-91139286D01*
X168821428Y-91103571D02*
X168892857Y-91139286D01*
X169035714Y-91139286D01*
X169107142Y-91103571D01*
X169142857Y-91032143D01*
X169142857Y-90996429D01*
X169107142Y-90925000D01*
X169035714Y-90889286D01*
X168928571Y-90889286D01*
X168857142Y-90853571D01*
X168821428Y-90782143D01*
X168821428Y-90746429D01*
X168857142Y-90675000D01*
X168928571Y-90639286D01*
X169035714Y-90639286D01*
X169107142Y-90675000D01*
X169571428Y-91139286D02*
X169500000Y-91103571D01*
X169464285Y-91067857D01*
X169428571Y-90996429D01*
X169428571Y-90782143D01*
X169464285Y-90710714D01*
X169500000Y-90675000D01*
X169571428Y-90639286D01*
X169678571Y-90639286D01*
X169750000Y-90675000D01*
X169785714Y-90710714D01*
X169821428Y-90782143D01*
X169821428Y-90996429D01*
X169785714Y-91067857D01*
X169750000Y-91103571D01*
X169678571Y-91139286D01*
X169571428Y-91139286D01*
X170142856Y-91139286D02*
X170142856Y-90639286D01*
X170142856Y-90782143D02*
X170178571Y-90710714D01*
X170214285Y-90675000D01*
X170285714Y-90639286D01*
X170357142Y-90639286D01*
X171178571Y-91139286D02*
X171178571Y-90389286D01*
X171428571Y-90925000D01*
X171678571Y-90389286D01*
X171678571Y-91139286D01*
X172035714Y-90389286D02*
X172035714Y-90996429D01*
X172071429Y-91067857D01*
X172107143Y-91103571D01*
X172178572Y-91139286D01*
X172321429Y-91139286D01*
X172392857Y-91103571D01*
X172428572Y-91067857D01*
X172464286Y-90996429D01*
X172464286Y-90389286D01*
X172750000Y-90389286D02*
X173250000Y-91139286D01*
X173250000Y-90389286D02*
X172750000Y-91139286D01*
D12*
X164000000Y-85000000D02*
X165000000Y-85000000D01*
X164000000Y-92000000D02*
X164000000Y-85000000D01*
X177000000Y-92000000D02*
X164000000Y-92000000D01*
X177000000Y-85000000D02*
X177000000Y-92000000D01*
X165000000Y-85000000D02*
X177000000Y-85000000D01*
D11*
X168002381Y-83497619D02*
X167635715Y-82973810D01*
X167373810Y-83497619D02*
X167373810Y-82397619D01*
X167792857Y-82397619D01*
X167897619Y-82450000D01*
X167950000Y-82502381D01*
X168002381Y-82607143D01*
X168002381Y-82764286D01*
X167950000Y-82869048D01*
X167897619Y-82921429D01*
X167792857Y-82973810D01*
X167373810Y-82973810D01*
X168473810Y-82921429D02*
X168840476Y-82921429D01*
X168997619Y-83497619D02*
X168473810Y-83497619D01*
X168473810Y-82397619D01*
X168997619Y-82397619D01*
X169416667Y-83445238D02*
X169573810Y-83497619D01*
X169835714Y-83497619D01*
X169940476Y-83445238D01*
X169992857Y-83392857D01*
X170045238Y-83288095D01*
X170045238Y-83183333D01*
X169992857Y-83078571D01*
X169940476Y-83026190D01*
X169835714Y-82973810D01*
X169626191Y-82921429D01*
X169521429Y-82869048D01*
X169469048Y-82816667D01*
X169416667Y-82711905D01*
X169416667Y-82607143D01*
X169469048Y-82502381D01*
X169521429Y-82450000D01*
X169626191Y-82397619D01*
X169888095Y-82397619D01*
X170045238Y-82450000D01*
X170516667Y-82921429D02*
X170883333Y-82921429D01*
X171040476Y-83497619D02*
X170516667Y-83497619D01*
X170516667Y-82397619D01*
X171040476Y-82397619D01*
X171354762Y-82397619D02*
X171983333Y-82397619D01*
X171669048Y-83497619D02*
X171669048Y-82397619D01*
D12*
X155021429Y-62242857D02*
X153807143Y-62242857D01*
X153664286Y-62314285D01*
X153592857Y-62385714D01*
X153521429Y-62528571D01*
X153521429Y-62814285D01*
X153592857Y-62957143D01*
X153664286Y-63028571D01*
X153807143Y-63100000D01*
X155021429Y-63100000D01*
X153592857Y-63742857D02*
X153521429Y-63885714D01*
X153521429Y-64171429D01*
X153592857Y-64314286D01*
X153735714Y-64385714D01*
X153807143Y-64385714D01*
X153950000Y-64314286D01*
X154021429Y-64171429D01*
X154021429Y-63957143D01*
X154092857Y-63814286D01*
X154235714Y-63742857D01*
X154307143Y-63742857D01*
X154450000Y-63814286D01*
X154521429Y-63957143D01*
X154521429Y-64171429D01*
X154450000Y-64314286D01*
X153592857Y-65600000D02*
X153521429Y-65457143D01*
X153521429Y-65171429D01*
X153592857Y-65028572D01*
X153735714Y-64957143D01*
X154307143Y-64957143D01*
X154450000Y-65028572D01*
X154521429Y-65171429D01*
X154521429Y-65457143D01*
X154450000Y-65600000D01*
X154307143Y-65671429D01*
X154164286Y-65671429D01*
X154021429Y-64957143D01*
X153521429Y-66314286D02*
X154521429Y-66314286D01*
X154235714Y-66314286D02*
X154378571Y-66385714D01*
X154450000Y-66457143D01*
X154521429Y-66600000D01*
X154521429Y-66742857D01*
X154950000Y-69171428D02*
X155021429Y-69028571D01*
X155021429Y-68814285D01*
X154950000Y-68600000D01*
X154807143Y-68457142D01*
X154664286Y-68385714D01*
X154378571Y-68314285D01*
X154164286Y-68314285D01*
X153878571Y-68385714D01*
X153735714Y-68457142D01*
X153592857Y-68600000D01*
X153521429Y-68814285D01*
X153521429Y-68957142D01*
X153592857Y-69171428D01*
X153664286Y-69242857D01*
X154164286Y-69242857D01*
X154164286Y-68957142D01*
X153521429Y-69885714D02*
X155021429Y-69885714D01*
X155021429Y-70457142D01*
X154950000Y-70600000D01*
X154878571Y-70671428D01*
X154735714Y-70742857D01*
X154521429Y-70742857D01*
X154378571Y-70671428D01*
X154307143Y-70600000D01*
X154235714Y-70457142D01*
X154235714Y-69885714D01*
X153521429Y-71385714D02*
X155021429Y-71385714D01*
X155021429Y-72385714D02*
X155021429Y-72671428D01*
X154950000Y-72814286D01*
X154807143Y-72957143D01*
X154521429Y-73028571D01*
X154021429Y-73028571D01*
X153735714Y-72957143D01*
X153592857Y-72814286D01*
X153521429Y-72671428D01*
X153521429Y-72385714D01*
X153592857Y-72242857D01*
X153735714Y-72100000D01*
X154021429Y-72028571D01*
X154521429Y-72028571D01*
X154807143Y-72100000D01*
X154950000Y-72242857D01*
X155021429Y-72385714D01*
D11*
X173542857Y-51703571D02*
X173650000Y-51739286D01*
X173828571Y-51739286D01*
X173900000Y-51703571D01*
X173935714Y-51667857D01*
X173971429Y-51596429D01*
X173971429Y-51525000D01*
X173935714Y-51453571D01*
X173900000Y-51417857D01*
X173828571Y-51382143D01*
X173685714Y-51346429D01*
X173614286Y-51310714D01*
X173578571Y-51275000D01*
X173542857Y-51203571D01*
X173542857Y-51132143D01*
X173578571Y-51060714D01*
X173614286Y-51025000D01*
X173685714Y-50989286D01*
X173864286Y-50989286D01*
X173971429Y-51025000D01*
X174578572Y-51703571D02*
X174507143Y-51739286D01*
X174364286Y-51739286D01*
X174292857Y-51703571D01*
X174257143Y-51632143D01*
X174257143Y-51346429D01*
X174292857Y-51275000D01*
X174364286Y-51239286D01*
X174507143Y-51239286D01*
X174578572Y-51275000D01*
X174614286Y-51346429D01*
X174614286Y-51417857D01*
X174257143Y-51489286D01*
X174935714Y-51739286D02*
X174935714Y-51239286D01*
X174935714Y-51382143D02*
X174971429Y-51310714D01*
X175007143Y-51275000D01*
X175078572Y-51239286D01*
X175150000Y-51239286D01*
X175400000Y-51739286D02*
X175400000Y-51239286D01*
X175400000Y-50989286D02*
X175364286Y-51025000D01*
X175400000Y-51060714D01*
X175435715Y-51025000D01*
X175400000Y-50989286D01*
X175400000Y-51060714D01*
X176078572Y-51739286D02*
X176078572Y-51346429D01*
X176042858Y-51275000D01*
X175971429Y-51239286D01*
X175828572Y-51239286D01*
X175757143Y-51275000D01*
X176078572Y-51703571D02*
X176007143Y-51739286D01*
X175828572Y-51739286D01*
X175757143Y-51703571D01*
X175721429Y-51632143D01*
X175721429Y-51560714D01*
X175757143Y-51489286D01*
X175828572Y-51453571D01*
X176007143Y-51453571D01*
X176078572Y-51417857D01*
X176542857Y-51739286D02*
X176471429Y-51703571D01*
X176435714Y-51632143D01*
X176435714Y-50989286D01*
X173935714Y-52939286D02*
X173578571Y-52939286D01*
X173578571Y-52189286D01*
X174185714Y-52546429D02*
X174435714Y-52546429D01*
X174542857Y-52939286D02*
X174185714Y-52939286D01*
X174185714Y-52189286D01*
X174542857Y-52189286D01*
X174864285Y-52939286D02*
X174864285Y-52189286D01*
X175042857Y-52189286D01*
X175150000Y-52225000D01*
X175221428Y-52296429D01*
X175257143Y-52367857D01*
X175292857Y-52510714D01*
X175292857Y-52617857D01*
X175257143Y-52760714D01*
X175221428Y-52832143D01*
X175150000Y-52903571D01*
X175042857Y-52939286D01*
X174864285Y-52939286D01*
D12*
X173000000Y-50600000D02*
X173000000Y-55100000D01*
X185100000Y-50600000D02*
X173000000Y-50600000D01*
X185100000Y-55200000D02*
X185100000Y-50600000D01*
X173000000Y-55100000D02*
X185100000Y-55200000D01*
X160100000Y-80400000D02*
X160100000Y-82500000D01*
X159200000Y-82500000D02*
X160100000Y-82500000D01*
X160100000Y-80400000D02*
X159200000Y-80400000D01*
D10*
X157980952Y-80952381D02*
X158171429Y-80952381D01*
X158266667Y-81000000D01*
X158361905Y-81095238D01*
X158409524Y-81285714D01*
X158409524Y-81619048D01*
X158361905Y-81809524D01*
X158266667Y-81904762D01*
X158171429Y-81952381D01*
X157980952Y-81952381D01*
X157885714Y-81904762D01*
X157790476Y-81809524D01*
X157742857Y-81619048D01*
X157742857Y-81285714D01*
X157790476Y-81095238D01*
X157885714Y-81000000D01*
X157980952Y-80952381D01*
X158838095Y-81952381D02*
X158838095Y-80952381D01*
X159409524Y-81952381D01*
X159409524Y-80952381D01*
D12*
X157100000Y-82500000D02*
X158000000Y-82500000D01*
X157100000Y-80400000D02*
X157100000Y-82500000D01*
X158000000Y-80400000D02*
X157100000Y-80400000D01*
X173500000Y-83750000D02*
X173500000Y-82250000D01*
X165750000Y-83750000D02*
X173500000Y-83750000D01*
X165750000Y-82250000D02*
X165750000Y-83750000D01*
X189666667Y-92952381D02*
X190238096Y-92952381D01*
X189952381Y-93952381D02*
X189952381Y-92952381D01*
X190952382Y-93904762D02*
X190857144Y-93952381D01*
X190666667Y-93952381D01*
X190571429Y-93904762D01*
X190523810Y-93809524D01*
X190523810Y-93428571D01*
X190571429Y-93333333D01*
X190666667Y-93285714D01*
X190857144Y-93285714D01*
X190952382Y-93333333D01*
X191000001Y-93428571D01*
X191000001Y-93523810D01*
X190523810Y-93619048D01*
X191428572Y-93952381D02*
X191428572Y-93285714D01*
X191428572Y-93380952D02*
X191476191Y-93333333D01*
X191571429Y-93285714D01*
X191714287Y-93285714D01*
X191809525Y-93333333D01*
X191857144Y-93428571D01*
X191857144Y-93952381D01*
X191857144Y-93428571D02*
X191904763Y-93333333D01*
X192000001Y-93285714D01*
X192142858Y-93285714D01*
X192238096Y-93333333D01*
X192285715Y-93428571D01*
X192285715Y-93952381D01*
X192761905Y-93285714D02*
X192761905Y-94285714D01*
X192761905Y-93333333D02*
X192857143Y-93285714D01*
X193047620Y-93285714D01*
X193142858Y-93333333D01*
X193190477Y-93380952D01*
X193238096Y-93476190D01*
X193238096Y-93761905D01*
X193190477Y-93857143D01*
X193142858Y-93904762D01*
X193047620Y-93952381D01*
X192857143Y-93952381D01*
X192761905Y-93904762D01*
X155964286Y-98952381D02*
X155964286Y-97952381D01*
X155964286Y-98428571D02*
X156535715Y-98428571D01*
X156535715Y-98952381D02*
X156535715Y-97952381D01*
X156964286Y-98047619D02*
X157011905Y-98000000D01*
X157107143Y-97952381D01*
X157345239Y-97952381D01*
X157440477Y-98000000D01*
X157488096Y-98047619D01*
X157535715Y-98142857D01*
X157535715Y-98238095D01*
X157488096Y-98380952D01*
X156916667Y-98952381D01*
X157535715Y-98952381D01*
X158154762Y-97952381D02*
X158345239Y-97952381D01*
X158440477Y-98000000D01*
X158535715Y-98095238D01*
X158583334Y-98285714D01*
X158583334Y-98619048D01*
X158535715Y-98809524D01*
X158440477Y-98904762D01*
X158345239Y-98952381D01*
X158154762Y-98952381D01*
X158059524Y-98904762D01*
X157964286Y-98809524D01*
X157916667Y-98619048D01*
X157916667Y-98285714D01*
X157964286Y-98095238D01*
X158059524Y-98000000D01*
X158154762Y-97952381D01*
X151000000Y-99500000D02*
X151000000Y-85500000D01*
X163000000Y-99500000D02*
X151000000Y-99500000D01*
X163000000Y-85500000D02*
X163000000Y-99500000D01*
X151000000Y-85500000D02*
X163000000Y-85500000D01*
D11*
X177273808Y-96627381D02*
X177464285Y-96627381D01*
X177559523Y-96675000D01*
X177654761Y-96770238D01*
X177702380Y-96960714D01*
X177702380Y-97294048D01*
X177654761Y-97484524D01*
X177559523Y-97579762D01*
X177464285Y-97627381D01*
X177273808Y-97627381D01*
X177178570Y-97579762D01*
X177083332Y-97484524D01*
X177035713Y-97294048D01*
X177035713Y-96960714D01*
X177083332Y-96770238D01*
X177178570Y-96675000D01*
X177273808Y-96627381D01*
X178130951Y-96960714D02*
X178130951Y-97960714D01*
X178130951Y-97008333D02*
X178226189Y-96960714D01*
X178416666Y-96960714D01*
X178511904Y-97008333D01*
X178559523Y-97055952D01*
X178607142Y-97151190D01*
X178607142Y-97436905D01*
X178559523Y-97532143D01*
X178511904Y-97579762D01*
X178416666Y-97627381D01*
X178226189Y-97627381D01*
X178130951Y-97579762D01*
X179416666Y-97579762D02*
X179321428Y-97627381D01*
X179130951Y-97627381D01*
X179035713Y-97579762D01*
X178988094Y-97484524D01*
X178988094Y-97103571D01*
X179035713Y-97008333D01*
X179130951Y-96960714D01*
X179321428Y-96960714D01*
X179416666Y-97008333D01*
X179464285Y-97103571D01*
X179464285Y-97198810D01*
X178988094Y-97294048D01*
X179892856Y-96960714D02*
X179892856Y-97627381D01*
X179892856Y-97055952D02*
X179940475Y-97008333D01*
X180035713Y-96960714D01*
X180178571Y-96960714D01*
X180273809Y-97008333D01*
X180321428Y-97103571D01*
X180321428Y-97627381D01*
X181559523Y-97627381D02*
X181559523Y-96627381D01*
X181940476Y-96627381D01*
X182035714Y-96675000D01*
X182083333Y-96722619D01*
X182130952Y-96817857D01*
X182130952Y-96960714D01*
X182083333Y-97055952D01*
X182035714Y-97103571D01*
X181940476Y-97151190D01*
X181559523Y-97151190D01*
X182702380Y-97627381D02*
X182607142Y-97579762D01*
X182559523Y-97484524D01*
X182559523Y-96627381D01*
X183511905Y-97627381D02*
X183511905Y-97103571D01*
X183464286Y-97008333D01*
X183369048Y-96960714D01*
X183178571Y-96960714D01*
X183083333Y-97008333D01*
X183511905Y-97579762D02*
X183416667Y-97627381D01*
X183178571Y-97627381D01*
X183083333Y-97579762D01*
X183035714Y-97484524D01*
X183035714Y-97389286D01*
X183083333Y-97294048D01*
X183178571Y-97246429D01*
X183416667Y-97246429D01*
X183511905Y-97198810D01*
X183988095Y-96960714D02*
X183988095Y-97627381D01*
X183988095Y-97055952D02*
X184035714Y-97008333D01*
X184130952Y-96960714D01*
X184273810Y-96960714D01*
X184369048Y-97008333D01*
X184416667Y-97103571D01*
X184416667Y-97627381D01*
X184750000Y-96960714D02*
X185130952Y-96960714D01*
X184892857Y-96627381D02*
X184892857Y-97484524D01*
X184940476Y-97579762D01*
X185035714Y-97627381D01*
X185130952Y-97627381D01*
X185464286Y-97627381D02*
X185464286Y-96627381D01*
X185464286Y-97008333D02*
X185559524Y-96960714D01*
X185750001Y-96960714D01*
X185845239Y-97008333D01*
X185892858Y-97055952D01*
X185940477Y-97151190D01*
X185940477Y-97436905D01*
X185892858Y-97532143D01*
X185845239Y-97579762D01*
X185750001Y-97627381D01*
X185559524Y-97627381D01*
X185464286Y-97579762D01*
X186559524Y-96627381D02*
X186654763Y-96627381D01*
X186750001Y-96675000D01*
X186797620Y-96722619D01*
X186845239Y-96817857D01*
X186892858Y-97008333D01*
X186892858Y-97246429D01*
X186845239Y-97436905D01*
X186797620Y-97532143D01*
X186750001Y-97579762D01*
X186654763Y-97627381D01*
X186559524Y-97627381D01*
X186464286Y-97579762D01*
X186416667Y-97532143D01*
X186369048Y-97436905D01*
X186321429Y-97246429D01*
X186321429Y-97008333D01*
X186369048Y-96817857D01*
X186416667Y-96722619D01*
X186464286Y-96675000D01*
X186559524Y-96627381D01*
X187178572Y-96960714D02*
X187559524Y-96960714D01*
X187321429Y-96627381D02*
X187321429Y-97484524D01*
X187369048Y-97579762D01*
X187464286Y-97627381D01*
X187559524Y-97627381D01*
X188654763Y-97246429D02*
X189416668Y-97246429D01*
X191226192Y-97627381D02*
X190892858Y-97151190D01*
X190654763Y-97627381D02*
X190654763Y-96627381D01*
X191035716Y-96627381D01*
X191130954Y-96675000D01*
X191178573Y-96722619D01*
X191226192Y-96817857D01*
X191226192Y-96960714D01*
X191178573Y-97055952D01*
X191130954Y-97103571D01*
X191035716Y-97151190D01*
X190654763Y-97151190D01*
X192035716Y-97579762D02*
X191940478Y-97627381D01*
X191750001Y-97627381D01*
X191654763Y-97579762D01*
X191607144Y-97484524D01*
X191607144Y-97103571D01*
X191654763Y-97008333D01*
X191750001Y-96960714D01*
X191940478Y-96960714D01*
X192035716Y-97008333D01*
X192083335Y-97103571D01*
X192083335Y-97198810D01*
X191607144Y-97294048D01*
X192416668Y-96960714D02*
X192654763Y-97627381D01*
X192892859Y-96960714D01*
X193988097Y-97341667D02*
X194464288Y-97341667D01*
X193892859Y-97627381D02*
X194226192Y-96627381D01*
X194559526Y-97627381D01*
X177630952Y-99129762D02*
X177726190Y-99177381D01*
X177916666Y-99177381D01*
X178011905Y-99129762D01*
X178059524Y-99034524D01*
X178059524Y-98986905D01*
X178011905Y-98891667D01*
X177916666Y-98844048D01*
X177773809Y-98844048D01*
X177678571Y-98796429D01*
X177630952Y-98701190D01*
X177630952Y-98653571D01*
X177678571Y-98558333D01*
X177773809Y-98510714D01*
X177916666Y-98510714D01*
X178011905Y-98558333D01*
X178488095Y-98510714D02*
X178488095Y-99510714D01*
X178488095Y-98558333D02*
X178583333Y-98510714D01*
X178773810Y-98510714D01*
X178869048Y-98558333D01*
X178916667Y-98605952D01*
X178964286Y-98701190D01*
X178964286Y-98986905D01*
X178916667Y-99082143D01*
X178869048Y-99129762D01*
X178773810Y-99177381D01*
X178583333Y-99177381D01*
X178488095Y-99129762D01*
X179821429Y-99177381D02*
X179821429Y-98653571D01*
X179773810Y-98558333D01*
X179678572Y-98510714D01*
X179488095Y-98510714D01*
X179392857Y-98558333D01*
X179821429Y-99129762D02*
X179726191Y-99177381D01*
X179488095Y-99177381D01*
X179392857Y-99129762D01*
X179345238Y-99034524D01*
X179345238Y-98939286D01*
X179392857Y-98844048D01*
X179488095Y-98796429D01*
X179726191Y-98796429D01*
X179821429Y-98748810D01*
X180726191Y-99129762D02*
X180630953Y-99177381D01*
X180440476Y-99177381D01*
X180345238Y-99129762D01*
X180297619Y-99082143D01*
X180250000Y-98986905D01*
X180250000Y-98701190D01*
X180297619Y-98605952D01*
X180345238Y-98558333D01*
X180440476Y-98510714D01*
X180630953Y-98510714D01*
X180726191Y-98558333D01*
X181535715Y-99129762D02*
X181440477Y-99177381D01*
X181250000Y-99177381D01*
X181154762Y-99129762D01*
X181107143Y-99034524D01*
X181107143Y-98653571D01*
X181154762Y-98558333D01*
X181250000Y-98510714D01*
X181440477Y-98510714D01*
X181535715Y-98558333D01*
X181583334Y-98653571D01*
X181583334Y-98748810D01*
X181107143Y-98844048D01*
X182011905Y-99177381D02*
X182011905Y-98177381D01*
X182107143Y-98796429D02*
X182392858Y-99177381D01*
X182392858Y-98510714D02*
X182011905Y-98891667D01*
X182964286Y-99177381D02*
X182869048Y-99129762D01*
X182821429Y-99082143D01*
X182773810Y-98986905D01*
X182773810Y-98701190D01*
X182821429Y-98605952D01*
X182869048Y-98558333D01*
X182964286Y-98510714D01*
X183107144Y-98510714D01*
X183202382Y-98558333D01*
X183250001Y-98605952D01*
X183297620Y-98701190D01*
X183297620Y-98986905D01*
X183250001Y-99082143D01*
X183202382Y-99129762D01*
X183107144Y-99177381D01*
X182964286Y-99177381D01*
X183869048Y-99177381D02*
X183773810Y-99129762D01*
X183726191Y-99082143D01*
X183678572Y-98986905D01*
X183678572Y-98701190D01*
X183726191Y-98605952D01*
X183773810Y-98558333D01*
X183869048Y-98510714D01*
X184011906Y-98510714D01*
X184107144Y-98558333D01*
X184154763Y-98605952D01*
X184202382Y-98701190D01*
X184202382Y-98986905D01*
X184154763Y-99082143D01*
X184107144Y-99129762D01*
X184011906Y-99177381D01*
X183869048Y-99177381D01*
X184630953Y-99177381D02*
X184630953Y-98177381D01*
X184726191Y-98796429D02*
X185011906Y-99177381D01*
X185011906Y-98510714D02*
X184630953Y-98891667D01*
X185440477Y-99177381D02*
X185440477Y-98510714D01*
X185440477Y-98177381D02*
X185392858Y-98225000D01*
X185440477Y-98272619D01*
X185488096Y-98225000D01*
X185440477Y-98177381D01*
X185440477Y-98272619D01*
X186297620Y-99129762D02*
X186202382Y-99177381D01*
X186011905Y-99177381D01*
X185916667Y-99129762D01*
X185869048Y-99034524D01*
X185869048Y-98653571D01*
X185916667Y-98558333D01*
X186011905Y-98510714D01*
X186202382Y-98510714D01*
X186297620Y-98558333D01*
X186345239Y-98653571D01*
X186345239Y-98748810D01*
X185869048Y-98844048D01*
X187726191Y-98177381D02*
X187821430Y-98177381D01*
X187916668Y-98225000D01*
X187964287Y-98272619D01*
X188011906Y-98367857D01*
X188059525Y-98558333D01*
X188059525Y-98796429D01*
X188011906Y-98986905D01*
X187964287Y-99082143D01*
X187916668Y-99129762D01*
X187821430Y-99177381D01*
X187726191Y-99177381D01*
X187630953Y-99129762D01*
X187583334Y-99082143D01*
X187535715Y-98986905D01*
X187488096Y-98796429D01*
X187488096Y-98558333D01*
X187535715Y-98367857D01*
X187583334Y-98272619D01*
X187630953Y-98225000D01*
X187726191Y-98177381D01*
X188392858Y-98177381D02*
X189011906Y-98177381D01*
X188678572Y-98558333D01*
X188821430Y-98558333D01*
X188916668Y-98605952D01*
X188964287Y-98653571D01*
X189011906Y-98748810D01*
X189011906Y-98986905D01*
X188964287Y-99082143D01*
X188916668Y-99129762D01*
X188821430Y-99177381D01*
X188535715Y-99177381D01*
X188440477Y-99129762D01*
X188392858Y-99082143D01*
X190154763Y-98129762D02*
X189297620Y-99415476D01*
X190440477Y-98272619D02*
X190488096Y-98225000D01*
X190583334Y-98177381D01*
X190821430Y-98177381D01*
X190916668Y-98225000D01*
X190964287Y-98272619D01*
X191011906Y-98367857D01*
X191011906Y-98463095D01*
X190964287Y-98605952D01*
X190392858Y-99177381D01*
X191011906Y-99177381D01*
X191630953Y-98177381D02*
X191726192Y-98177381D01*
X191821430Y-98225000D01*
X191869049Y-98272619D01*
X191916668Y-98367857D01*
X191964287Y-98558333D01*
X191964287Y-98796429D01*
X191916668Y-98986905D01*
X191869049Y-99082143D01*
X191821430Y-99129762D01*
X191726192Y-99177381D01*
X191630953Y-99177381D01*
X191535715Y-99129762D01*
X191488096Y-99082143D01*
X191440477Y-98986905D01*
X191392858Y-98796429D01*
X191392858Y-98558333D01*
X191440477Y-98367857D01*
X191488096Y-98272619D01*
X191535715Y-98225000D01*
X191630953Y-98177381D01*
X192916668Y-99177381D02*
X192345239Y-99177381D01*
X192630953Y-99177381D02*
X192630953Y-98177381D01*
X192535715Y-98320238D01*
X192440477Y-98415476D01*
X192345239Y-98463095D01*
X193773811Y-98177381D02*
X193583334Y-98177381D01*
X193488096Y-98225000D01*
X193440477Y-98272619D01*
X193345239Y-98415476D01*
X193297620Y-98605952D01*
X193297620Y-98986905D01*
X193345239Y-99082143D01*
X193392858Y-99129762D01*
X193488096Y-99177381D01*
X193678573Y-99177381D01*
X193773811Y-99129762D01*
X193821430Y-99082143D01*
X193869049Y-98986905D01*
X193869049Y-98748810D01*
X193821430Y-98653571D01*
X193773811Y-98605952D01*
X193678573Y-98558333D01*
X193488096Y-98558333D01*
X193392858Y-98605952D01*
X193345239Y-98653571D01*
X193297620Y-98748810D01*
D12*
X177750000Y-96250000D02*
X177750000Y-82000000D01*
X193750000Y-96250000D02*
X177750000Y-96250000D01*
X193750000Y-82000000D02*
X193750000Y-96250000D01*
X177750000Y-82000000D02*
X193750000Y-82000000D01*
D11*
X151117857Y-51649286D02*
X151117857Y-50899286D01*
X151403572Y-50899286D01*
X151475000Y-50935000D01*
X151510715Y-50970714D01*
X151546429Y-51042143D01*
X151546429Y-51149286D01*
X151510715Y-51220714D01*
X151475000Y-51256429D01*
X151403572Y-51292143D01*
X151117857Y-51292143D01*
X152010715Y-50899286D02*
X152153572Y-50899286D01*
X152225000Y-50935000D01*
X152296429Y-51006429D01*
X152332143Y-51149286D01*
X152332143Y-51399286D01*
X152296429Y-51542143D01*
X152225000Y-51613571D01*
X152153572Y-51649286D01*
X152010715Y-51649286D01*
X151939286Y-51613571D01*
X151867857Y-51542143D01*
X151832143Y-51399286D01*
X151832143Y-51149286D01*
X151867857Y-51006429D01*
X151939286Y-50935000D01*
X152010715Y-50899286D01*
X152582143Y-50899286D02*
X152760714Y-51649286D01*
X152903571Y-51113571D01*
X153046429Y-51649286D01*
X153225000Y-50899286D01*
X153510714Y-51256429D02*
X153760714Y-51256429D01*
X153867857Y-51649286D02*
X153510714Y-51649286D01*
X153510714Y-50899286D01*
X153867857Y-50899286D01*
X154617857Y-51649286D02*
X154367857Y-51292143D01*
X154189285Y-51649286D02*
X154189285Y-50899286D01*
X154475000Y-50899286D01*
X154546428Y-50935000D01*
X154582143Y-50970714D01*
X154617857Y-51042143D01*
X154617857Y-51149286D01*
X154582143Y-51220714D01*
X154546428Y-51256429D01*
X154475000Y-51292143D01*
X154189285Y-51292143D01*
D12*
X150500000Y-57500000D02*
X150500000Y-50500000D01*
X155000000Y-57500000D02*
X150500000Y-57500000D01*
X155000000Y-50500000D02*
X155000000Y-57500000D01*
X150500000Y-50500000D02*
X155000000Y-50500000D01*
X174500000Y-80750000D02*
X174500000Y-66500000D01*
X198250000Y-80750000D02*
X174500000Y-80750000D01*
X198250000Y-66500000D02*
X198250000Y-80750000D01*
X174500000Y-66500000D02*
X198250000Y-66500000D01*
X163000000Y-76000000D02*
X151000000Y-76000000D01*
X163000000Y-83000000D02*
X163000000Y-76000000D01*
X151000000Y-83000000D02*
X163000000Y-83000000D01*
X151000000Y-76000000D02*
X151000000Y-83000000D01*
D13*
X151886905Y-81310714D02*
X151470238Y-81310714D01*
X151470238Y-81965476D02*
X151470238Y-80715476D01*
X152065476Y-80715476D01*
X153136905Y-81965476D02*
X152541667Y-81965476D01*
X152541667Y-80715476D01*
X153494048Y-81608333D02*
X154089286Y-81608333D01*
X153375001Y-81965476D02*
X153791667Y-80715476D01*
X154208334Y-81965476D01*
X154565477Y-81905952D02*
X154744049Y-81965476D01*
X155041668Y-81965476D01*
X155160715Y-81905952D01*
X155220239Y-81846429D01*
X155279763Y-81727381D01*
X155279763Y-81608333D01*
X155220239Y-81489286D01*
X155160715Y-81429762D01*
X155041668Y-81370238D01*
X154803572Y-81310714D01*
X154684525Y-81251190D01*
X154625001Y-81191667D01*
X154565477Y-81072619D01*
X154565477Y-80953571D01*
X154625001Y-80834524D01*
X154684525Y-80775000D01*
X154803572Y-80715476D01*
X155101192Y-80715476D01*
X155279763Y-80775000D01*
X155815477Y-81965476D02*
X155815477Y-80715476D01*
X155815477Y-81310714D02*
X156529763Y-81310714D01*
X156529763Y-81965476D02*
X156529763Y-80715476D01*
D11*
X177715000Y-55835000D02*
X178465000Y-55835000D01*
X182965000Y-61085000D02*
X182215000Y-61085000D01*
X182965000Y-55835000D02*
X182215000Y-55835000D01*
X177715000Y-61085000D02*
X177715000Y-60335000D01*
X182965000Y-61085000D02*
X182965000Y-60335000D01*
X182965000Y-55835000D02*
X182965000Y-56585000D01*
X177715000Y-55835000D02*
X177715000Y-56585000D01*
X184600000Y-85830000D02*
X185600000Y-85830000D01*
X185600000Y-84130000D02*
X184600000Y-84130000D01*
X176350000Y-73000000D02*
X176350000Y-72000000D01*
X174650000Y-72000000D02*
X174650000Y-73000000D01*
X182500000Y-51460000D02*
X180600000Y-51460000D01*
X182500000Y-52560000D02*
X180600000Y-52560000D01*
X181600000Y-52010000D02*
X181150000Y-52010000D01*
X181650000Y-52260000D02*
X181650000Y-51760000D01*
X181650000Y-52010000D02*
X181400000Y-52260000D01*
X181400000Y-52260000D02*
X181400000Y-51760000D01*
X181400000Y-51760000D02*
X181650000Y-52010000D01*
X182460000Y-53390000D02*
X180560000Y-53390000D01*
X182460000Y-54490000D02*
X180560000Y-54490000D01*
X181560000Y-53940000D02*
X181110000Y-53940000D01*
X181610000Y-54190000D02*
X181610000Y-53690000D01*
X181610000Y-53940000D02*
X181360000Y-54190000D01*
X181360000Y-54190000D02*
X181360000Y-53690000D01*
X181360000Y-53690000D02*
X181610000Y-53940000D01*
X153900000Y-52450000D02*
X152000000Y-52450000D01*
X153900000Y-53550000D02*
X152000000Y-53550000D01*
X153000000Y-53000000D02*
X152550000Y-53000000D01*
X153050000Y-53250000D02*
X153050000Y-52750000D01*
X153050000Y-53000000D02*
X152800000Y-53250000D01*
X152800000Y-53250000D02*
X152800000Y-52750000D01*
X152800000Y-52750000D02*
X153050000Y-53000000D01*
X181330000Y-64990000D02*
X179430000Y-64990000D01*
X181330000Y-66090000D02*
X179430000Y-66090000D01*
X180430000Y-65540000D02*
X179980000Y-65540000D01*
X180480000Y-65790000D02*
X180480000Y-65290000D01*
X180480000Y-65540000D02*
X180230000Y-65790000D01*
X180230000Y-65790000D02*
X180230000Y-65290000D01*
X180230000Y-65290000D02*
X180480000Y-65540000D01*
X188910000Y-55762500D02*
X188910000Y-55381500D01*
X188910000Y-56778500D02*
X188910000Y-56397500D01*
X188910000Y-56397500D02*
X188529000Y-55762500D01*
X188529000Y-55762500D02*
X189291000Y-55762500D01*
X189291000Y-55762500D02*
X188910000Y-56397500D01*
X188402000Y-56397500D02*
X189418000Y-56397500D01*
X189810000Y-58080000D02*
X189810000Y-54540000D01*
X188010000Y-58080000D02*
X188010000Y-54540000D01*
X193430000Y-55722500D02*
X193430000Y-55341500D01*
X193430000Y-56738500D02*
X193430000Y-56357500D01*
X193430000Y-56357500D02*
X193049000Y-55722500D01*
X193049000Y-55722500D02*
X193811000Y-55722500D01*
X193811000Y-55722500D02*
X193430000Y-56357500D01*
X192922000Y-56357500D02*
X193938000Y-56357500D01*
X194330000Y-58040000D02*
X194330000Y-54500000D01*
X192530000Y-58040000D02*
X192530000Y-54500000D01*
X191150000Y-55707500D02*
X191150000Y-55326500D01*
X191150000Y-56723500D02*
X191150000Y-56342500D01*
X191150000Y-56342500D02*
X190769000Y-55707500D01*
X190769000Y-55707500D02*
X191531000Y-55707500D01*
X191531000Y-55707500D02*
X191150000Y-56342500D01*
X190642000Y-56342500D02*
X191658000Y-56342500D01*
X192050000Y-58025000D02*
X192050000Y-54485000D01*
X190250000Y-58025000D02*
X190250000Y-54485000D01*
X154900000Y-90350000D02*
X154900000Y-89650000D01*
X156100000Y-89650000D02*
X156100000Y-90350000D01*
X185490000Y-56810000D02*
X185490000Y-57510000D01*
X184290000Y-57510000D02*
X184290000Y-56810000D01*
X180150000Y-62770000D02*
X180850000Y-62770000D01*
X180850000Y-63970000D02*
X180150000Y-63970000D01*
X154270000Y-96270000D02*
X154270000Y-98810000D01*
X154550000Y-93450000D02*
X154550000Y-95000000D01*
X154270000Y-96270000D02*
X151730000Y-96270000D01*
X151450000Y-95000000D02*
X151450000Y-93450000D01*
X151450000Y-93450000D02*
X154550000Y-93450000D01*
X151730000Y-96270000D02*
X151730000Y-98810000D01*
X151730000Y-98810000D02*
X154270000Y-98810000D01*
X198270000Y-96270000D02*
X198270000Y-98810000D01*
X198550000Y-93450000D02*
X198550000Y-95000000D01*
X198270000Y-96270000D02*
X195730000Y-96270000D01*
X195450000Y-95000000D02*
X195450000Y-93450000D01*
X195450000Y-93450000D02*
X198550000Y-93450000D01*
X195730000Y-96270000D02*
X195730000Y-98810000D01*
X195730000Y-98810000D02*
X198270000Y-98810000D01*
X156900000Y-89550000D02*
G75*
G03X156900000Y-89550000I-100000J0D01*
G01*
X157050000Y-89000000D02*
X157050000Y-89500000D01*
X159950000Y-89000000D02*
X157050000Y-89000000D01*
X159950000Y-89500000D02*
X159950000Y-89000000D01*
X157050000Y-89500000D02*
X159950000Y-89500000D01*
X184840000Y-86660000D02*
G75*
G03X184840000Y-86660000I-100000J0D01*
G01*
X185290000Y-86910000D02*
X184790000Y-86910000D01*
X185290000Y-89810000D02*
X185290000Y-86910000D01*
X184790000Y-89810000D02*
X185290000Y-89810000D01*
X184790000Y-86910000D02*
X184790000Y-89810000D01*
X181710000Y-91700000D02*
X180160000Y-91700000D01*
X180160000Y-91700000D02*
X180160000Y-94800000D01*
X180160000Y-94800000D02*
X181710000Y-94800000D01*
X182980000Y-91980000D02*
X188060000Y-91980000D01*
X188060000Y-91980000D02*
X188060000Y-94520000D01*
X188060000Y-94520000D02*
X182980000Y-94520000D01*
X182980000Y-94520000D02*
X182980000Y-91980000D01*
X157410000Y-77180000D02*
X152330000Y-77180000D01*
X152330000Y-77180000D02*
X152330000Y-79720000D01*
X152330000Y-79720000D02*
X157410000Y-79720000D01*
X160230000Y-80000000D02*
X158680000Y-80000000D01*
X157410000Y-79720000D02*
X157410000Y-77180000D01*
X158680000Y-76900000D02*
X160230000Y-76900000D01*
X160230000Y-76900000D02*
X160230000Y-80000000D01*
X201627460Y-65790900D02*
X201627460Y-57090900D01*
X195222460Y-65790900D02*
X195222460Y-57090900D01*
X195222460Y-57090900D02*
X201627460Y-57090900D01*
X200397460Y-57090900D02*
X200397460Y-65790900D01*
X201627460Y-65790900D02*
X195222460Y-65790900D01*
X160575000Y-88500000D02*
X160575000Y-87500000D01*
X161925000Y-87500000D02*
X161925000Y-88500000D01*
X188335000Y-88880000D02*
X188335000Y-87880000D01*
X189685000Y-87880000D02*
X189685000Y-88880000D01*
X177940000Y-51335000D02*
X178940000Y-51335000D01*
X178940000Y-52685000D02*
X177940000Y-52685000D01*
X177940000Y-53295000D02*
X178940000Y-53295000D01*
X178940000Y-54645000D02*
X177940000Y-54645000D01*
X150995000Y-56440000D02*
X150995000Y-55440000D01*
X152345000Y-55440000D02*
X152345000Y-56440000D01*
X157250000Y-84925000D02*
X156250000Y-84925000D01*
X156250000Y-83575000D02*
X157250000Y-83575000D01*
X177710000Y-66275000D02*
X176710000Y-66275000D01*
X176710000Y-64925000D02*
X177710000Y-64925000D01*
X185365000Y-65260000D02*
X185365000Y-64260000D01*
X186715000Y-64260000D02*
X186715000Y-65260000D01*
X172220000Y-76960000D02*
X167220000Y-76960000D01*
X172220000Y-81460000D02*
X167220000Y-81460000D01*
X173720000Y-82210000D02*
X165720000Y-82210000D01*
X165720000Y-82210000D02*
X165720000Y-76210000D01*
X165720000Y-76210000D02*
X173720000Y-76210000D01*
X173720000Y-76210000D02*
X173720000Y-82210000D01*
X186499920Y-70921000D02*
X186251000Y-71220720D01*
X186251000Y-71220720D02*
X186149400Y-71370580D01*
X186149400Y-71370580D02*
X186149400Y-70522220D01*
X186850440Y-72422140D02*
X186850440Y-70621280D01*
X186850440Y-72422140D02*
X186200200Y-72422140D01*
X182349560Y-72422140D02*
X182349560Y-70621280D01*
X182349560Y-72422140D02*
X182999800Y-72422140D01*
X187350000Y-71150000D02*
X187350000Y-70450000D01*
X188550000Y-70450000D02*
X188550000Y-71150000D01*
X181920000Y-70630000D02*
X181920000Y-71330000D01*
X180720000Y-71330000D02*
X180720000Y-70630000D01*
X171743780Y-97714860D02*
X172104460Y-99185520D01*
X172104460Y-99185520D02*
X172383860Y-98123800D01*
X172383860Y-98123800D02*
X172693740Y-99195680D01*
X172693740Y-99195680D02*
X173034100Y-97745340D01*
X170323920Y-98405740D02*
X171113860Y-98395580D01*
X171113860Y-98395580D02*
X171124020Y-98405740D01*
X171124020Y-98405740D02*
X171124020Y-98395580D01*
X171164660Y-97684380D02*
X171164660Y-99226160D01*
X170275660Y-97674220D02*
X170275660Y-99243940D01*
X170275660Y-99243940D02*
X170285820Y-99233780D01*
X169724480Y-97775820D02*
X169373960Y-97694540D01*
X169373960Y-97694540D02*
X169053920Y-97684380D01*
X169053920Y-97684380D02*
X168815160Y-97885040D01*
X168815160Y-97885040D02*
X168784680Y-98154280D01*
X168784680Y-98154280D02*
X169025980Y-98395580D01*
X169025980Y-98395580D02*
X169414600Y-98525120D01*
X169414600Y-98525120D02*
X169594940Y-98685140D01*
X169594940Y-98685140D02*
X169635580Y-98984860D01*
X169635580Y-98984860D02*
X169404440Y-99205840D01*
X169404440Y-99205840D02*
X169084400Y-99233780D01*
X169084400Y-99233780D02*
X168733880Y-99124560D01*
X167695020Y-97674220D02*
X167446100Y-97694540D01*
X167446100Y-97694540D02*
X167204800Y-97935840D01*
X167204800Y-97935840D02*
X167115900Y-98426060D01*
X167115900Y-98426060D02*
X167143840Y-98774040D01*
X167143840Y-98774040D02*
X167344500Y-99094080D01*
X167344500Y-99094080D02*
X167595960Y-99216000D01*
X167595960Y-99216000D02*
X167905840Y-99144880D01*
X167905840Y-99144880D02*
X168124280Y-98964540D01*
X168124280Y-98964540D02*
X168195400Y-98504800D01*
X168195400Y-98504800D02*
X168144600Y-98095860D01*
X168144600Y-98095860D02*
X168035380Y-97813920D01*
X168035380Y-97813920D02*
X167674700Y-97684380D01*
X168294460Y-95954640D02*
X168035380Y-96515980D01*
X168035380Y-96515980D02*
X168573860Y-97034140D01*
X168573860Y-97034140D02*
X169094560Y-96764900D01*
X169094560Y-96764900D02*
X169373960Y-96924920D01*
X170814140Y-96904600D02*
X171144340Y-96714100D01*
X171144340Y-96714100D02*
X171583760Y-97044300D01*
X171583760Y-97044300D02*
X172056200Y-96554080D01*
X172056200Y-96554080D02*
X171774260Y-96074020D01*
X171774260Y-96074020D02*
X171964760Y-95604120D01*
X171964760Y-95604120D02*
X172574360Y-95416160D01*
X172574360Y-95416160D02*
X172574360Y-94735440D01*
X172574360Y-94735440D02*
X172015560Y-94595740D01*
X172015560Y-94595740D02*
X171814900Y-94024240D01*
X171814900Y-94024240D02*
X172084140Y-93554340D01*
X172084140Y-93554340D02*
X171614240Y-93043800D01*
X171614240Y-93043800D02*
X171096080Y-93305420D01*
X171096080Y-93305420D02*
X170626180Y-93104760D01*
X170626180Y-93104760D02*
X170456000Y-92563740D01*
X170456000Y-92563740D02*
X169765120Y-92545960D01*
X169765120Y-92545960D02*
X169554300Y-93094600D01*
X169554300Y-93094600D02*
X169135200Y-93264780D01*
X169135200Y-93264780D02*
X168584020Y-92995540D01*
X168584020Y-92995540D02*
X168065860Y-93523860D01*
X168065860Y-93523860D02*
X168314780Y-94064880D01*
X168314780Y-94064880D02*
X168144600Y-94544940D01*
X168144600Y-94544940D02*
X167595960Y-94644000D01*
X167595960Y-94644000D02*
X167585800Y-95345040D01*
X167585800Y-95345040D02*
X168144600Y-95545700D01*
X168144600Y-95545700D02*
X168284300Y-95944480D01*
X170425520Y-95924160D02*
X170725240Y-95774300D01*
X170725240Y-95774300D02*
X170925900Y-95576180D01*
X170925900Y-95576180D02*
X171075760Y-95174860D01*
X171075760Y-95174860D02*
X171075760Y-94776080D01*
X171075760Y-94776080D02*
X170925900Y-94425560D01*
X170925900Y-94425560D02*
X170473780Y-94075040D01*
X170473780Y-94075040D02*
X170024200Y-94024240D01*
X170024200Y-94024240D02*
X169625420Y-94125840D01*
X169625420Y-94125840D02*
X169224100Y-94473820D01*
X169224100Y-94473820D02*
X169074240Y-94925940D01*
X169074240Y-94925940D02*
X169125040Y-95423780D01*
X169125040Y-95423780D02*
X169373960Y-95726040D01*
X169373960Y-95726040D02*
X169724480Y-95924160D01*
X169724480Y-95924160D02*
X169373960Y-96924920D01*
X170425520Y-95924160D02*
X170824300Y-96924920D01*
D10*
X192100000Y-84600000D02*
X191900000Y-84600000D01*
X192100000Y-85200000D02*
X191900000Y-85200000D01*
X192100000Y-85800000D02*
X191900000Y-85800000D01*
X192100000Y-86400000D02*
X191900000Y-86400000D01*
X192100000Y-87000000D02*
X191900000Y-87000000D01*
X192100000Y-87600000D02*
X191900000Y-87600000D01*
X192100000Y-88200000D02*
X191900000Y-88200000D01*
X191900000Y-88800000D02*
X192100000Y-88800000D01*
D14*
X191500000Y-89800000D02*
X191500000Y-84600000D01*
D15*
X192009902Y-91000000D02*
G75*
G03X192009902Y-91000000I-509902J0D01*
G01*
X192600000Y-91000000D02*
G75*
G03X192600000Y-91000000I-1100000J0D01*
G01*
D12*
X191100000Y-89200000D02*
G75*
G03X191900000Y-89200000I400000J-1800000D01*
G01*
X191900000Y-84600000D02*
G75*
G03X191100000Y-84600000I-400000J0D01*
G01*
X191100000Y-89200000D02*
X191100000Y-84600000D01*
X191900000Y-89200000D02*
X191900000Y-84600000D01*
D16*
G36*
X160995593Y-92403914D02*
X160991480Y-92424281D01*
X160986569Y-92443927D01*
X160975427Y-92489845D01*
X160963018Y-92548059D01*
X160950182Y-92614064D01*
X160937761Y-92683356D01*
X160926597Y-92751431D01*
X160917657Y-92812837D01*
X160911831Y-92868828D01*
X160907422Y-92936830D01*
X160904429Y-93013319D01*
X160902853Y-93094773D01*
X160902696Y-93177671D01*
X160903957Y-93258489D01*
X160906638Y-93333706D01*
X160910739Y-93399799D01*
X160916260Y-93453246D01*
X160917536Y-93462117D01*
X160949516Y-93633000D01*
X160991510Y-93790988D01*
X161044077Y-93937231D01*
X161107776Y-94072881D01*
X161183165Y-94199090D01*
X161270803Y-94317009D01*
X161371249Y-94427791D01*
X161399546Y-94455580D01*
X161451267Y-94503089D01*
X161504211Y-94547002D01*
X161562019Y-94590046D01*
X161628330Y-94634944D01*
X161698033Y-94679034D01*
X161845987Y-94778648D01*
X161979446Y-94886170D01*
X162099409Y-95002667D01*
X162206872Y-95129211D01*
X162302832Y-95266870D01*
X162388288Y-95416713D01*
X162391199Y-95422384D01*
X162456417Y-95560615D01*
X162510794Y-95700071D01*
X162555500Y-95844484D01*
X162591708Y-95997584D01*
X162617625Y-96143467D01*
X162626284Y-96214903D01*
X162632597Y-96298574D01*
X162636531Y-96390142D01*
X162638055Y-96485272D01*
X162637138Y-96579627D01*
X162633748Y-96668870D01*
X162627853Y-96748666D01*
X162622385Y-96795400D01*
X162587146Y-96993314D01*
X162538531Y-97181419D01*
X162476642Y-97359509D01*
X162401580Y-97527375D01*
X162313444Y-97684809D01*
X162212336Y-97831603D01*
X162098355Y-97967549D01*
X162014296Y-98052976D01*
X161886422Y-98163266D01*
X161747817Y-98260877D01*
X161599433Y-98345388D01*
X161442221Y-98416380D01*
X161277129Y-98473433D01*
X161105110Y-98516129D01*
X160927113Y-98544046D01*
X160894346Y-98547485D01*
X160845285Y-98550966D01*
X160783630Y-98553385D01*
X160713689Y-98554745D01*
X160639769Y-98555050D01*
X160566177Y-98554304D01*
X160497219Y-98552510D01*
X160437201Y-98549673D01*
X160402633Y-98547051D01*
X160255837Y-98529273D01*
X160101434Y-98503136D01*
X159944157Y-98469758D01*
X159788738Y-98430255D01*
X159639910Y-98385745D01*
X159502405Y-98337345D01*
X159484000Y-98330194D01*
X159312685Y-98255451D01*
X159154695Y-98171402D01*
X159010294Y-98078249D01*
X158879740Y-97976193D01*
X158763295Y-97865435D01*
X158661221Y-97746177D01*
X158584718Y-97636317D01*
X158510997Y-97503156D01*
X158451770Y-97361497D01*
X158407071Y-97211654D01*
X158376932Y-97053936D01*
X158361386Y-96888656D01*
X158360466Y-96716125D01*
X158374204Y-96536654D01*
X158402634Y-96350555D01*
X158434134Y-96204681D01*
X158485415Y-96019919D01*
X158550936Y-95829054D01*
X158629875Y-95633719D01*
X158721411Y-95435545D01*
X158824720Y-95236166D01*
X158938981Y-95037214D01*
X159063371Y-94840323D01*
X159197068Y-94647124D01*
X159264468Y-94555967D01*
X159305992Y-94501393D01*
X159354730Y-94438018D01*
X159410024Y-94366665D01*
X159471216Y-94288157D01*
X159537647Y-94203316D01*
X159608657Y-94112963D01*
X159683588Y-94017921D01*
X159761781Y-93919013D01*
X159842578Y-93817060D01*
X159925319Y-93712885D01*
X160009346Y-93607311D01*
X160093999Y-93501159D01*
X160178621Y-93395251D01*
X160262551Y-93290410D01*
X160345132Y-93187459D01*
X160425704Y-93087219D01*
X160503609Y-92990513D01*
X160578188Y-92898163D01*
X160648782Y-92810991D01*
X160714732Y-92729820D01*
X160775379Y-92655471D01*
X160830065Y-92588768D01*
X160878131Y-92530532D01*
X160918917Y-92481585D01*
X160951766Y-92442750D01*
X160976018Y-92414850D01*
X160991014Y-92398706D01*
X160996019Y-92394864D01*
X160995593Y-92403914D01*
X160995593Y-92403914D01*
G37*
X160995593Y-92403914D02*
X160991480Y-92424281D01*
X160986569Y-92443927D01*
X160975427Y-92489845D01*
X160963018Y-92548059D01*
X160950182Y-92614064D01*
X160937761Y-92683356D01*
X160926597Y-92751431D01*
X160917657Y-92812837D01*
X160911831Y-92868828D01*
X160907422Y-92936830D01*
X160904429Y-93013319D01*
X160902853Y-93094773D01*
X160902696Y-93177671D01*
X160903957Y-93258489D01*
X160906638Y-93333706D01*
X160910739Y-93399799D01*
X160916260Y-93453246D01*
X160917536Y-93462117D01*
X160949516Y-93633000D01*
X160991510Y-93790988D01*
X161044077Y-93937231D01*
X161107776Y-94072881D01*
X161183165Y-94199090D01*
X161270803Y-94317009D01*
X161371249Y-94427791D01*
X161399546Y-94455580D01*
X161451267Y-94503089D01*
X161504211Y-94547002D01*
X161562019Y-94590046D01*
X161628330Y-94634944D01*
X161698033Y-94679034D01*
X161845987Y-94778648D01*
X161979446Y-94886170D01*
X162099409Y-95002667D01*
X162206872Y-95129211D01*
X162302832Y-95266870D01*
X162388288Y-95416713D01*
X162391199Y-95422384D01*
X162456417Y-95560615D01*
X162510794Y-95700071D01*
X162555500Y-95844484D01*
X162591708Y-95997584D01*
X162617625Y-96143467D01*
X162626284Y-96214903D01*
X162632597Y-96298574D01*
X162636531Y-96390142D01*
X162638055Y-96485272D01*
X162637138Y-96579627D01*
X162633748Y-96668870D01*
X162627853Y-96748666D01*
X162622385Y-96795400D01*
X162587146Y-96993314D01*
X162538531Y-97181419D01*
X162476642Y-97359509D01*
X162401580Y-97527375D01*
X162313444Y-97684809D01*
X162212336Y-97831603D01*
X162098355Y-97967549D01*
X162014296Y-98052976D01*
X161886422Y-98163266D01*
X161747817Y-98260877D01*
X161599433Y-98345388D01*
X161442221Y-98416380D01*
X161277129Y-98473433D01*
X161105110Y-98516129D01*
X160927113Y-98544046D01*
X160894346Y-98547485D01*
X160845285Y-98550966D01*
X160783630Y-98553385D01*
X160713689Y-98554745D01*
X160639769Y-98555050D01*
X160566177Y-98554304D01*
X160497219Y-98552510D01*
X160437201Y-98549673D01*
X160402633Y-98547051D01*
X160255837Y-98529273D01*
X160101434Y-98503136D01*
X159944157Y-98469758D01*
X159788738Y-98430255D01*
X159639910Y-98385745D01*
X159502405Y-98337345D01*
X159484000Y-98330194D01*
X159312685Y-98255451D01*
X159154695Y-98171402D01*
X159010294Y-98078249D01*
X158879740Y-97976193D01*
X158763295Y-97865435D01*
X158661221Y-97746177D01*
X158584718Y-97636317D01*
X158510997Y-97503156D01*
X158451770Y-97361497D01*
X158407071Y-97211654D01*
X158376932Y-97053936D01*
X158361386Y-96888656D01*
X158360466Y-96716125D01*
X158374204Y-96536654D01*
X158402634Y-96350555D01*
X158434134Y-96204681D01*
X158485415Y-96019919D01*
X158550936Y-95829054D01*
X158629875Y-95633719D01*
X158721411Y-95435545D01*
X158824720Y-95236166D01*
X158938981Y-95037214D01*
X159063371Y-94840323D01*
X159197068Y-94647124D01*
X159264468Y-94555967D01*
X159305992Y-94501393D01*
X159354730Y-94438018D01*
X159410024Y-94366665D01*
X159471216Y-94288157D01*
X159537647Y-94203316D01*
X159608657Y-94112963D01*
X159683588Y-94017921D01*
X159761781Y-93919013D01*
X159842578Y-93817060D01*
X159925319Y-93712885D01*
X160009346Y-93607311D01*
X160093999Y-93501159D01*
X160178621Y-93395251D01*
X160262551Y-93290410D01*
X160345132Y-93187459D01*
X160425704Y-93087219D01*
X160503609Y-92990513D01*
X160578188Y-92898163D01*
X160648782Y-92810991D01*
X160714732Y-92729820D01*
X160775379Y-92655471D01*
X160830065Y-92588768D01*
X160878131Y-92530532D01*
X160918917Y-92481585D01*
X160951766Y-92442750D01*
X160976018Y-92414850D01*
X160991014Y-92398706D01*
X160996019Y-92394864D01*
X160995593Y-92403914D01*
D11*
X196050000Y-78840000D02*
X196050000Y-77290000D01*
X195770000Y-73480000D02*
X195770000Y-76020000D01*
X195770000Y-76020000D02*
X193230000Y-76020000D01*
X192950000Y-77290000D02*
X192950000Y-78840000D01*
X192950000Y-78840000D02*
X196050000Y-78840000D01*
X193230000Y-76020000D02*
X193230000Y-73480000D01*
X193230000Y-73480000D02*
X195770000Y-73480000D01*
X193230000Y-70480000D02*
X193230000Y-67940000D01*
X192950000Y-73300000D02*
X192950000Y-71750000D01*
X193230000Y-70480000D02*
X195770000Y-70480000D01*
X196050000Y-71750000D02*
X196050000Y-73300000D01*
X196050000Y-73300000D02*
X192950000Y-73300000D01*
X195770000Y-70480000D02*
X195770000Y-67940000D01*
X195770000Y-67940000D02*
X193230000Y-67940000D01*
D17*
X156190000Y-53300000D02*
X172190000Y-53300000D01*
X172190000Y-53300000D02*
X172190000Y-58700000D01*
X156190000Y-53300000D02*
X156190000Y-58700000D01*
X156190000Y-74500000D02*
X156190000Y-75300000D01*
X156190000Y-75300000D02*
X172190000Y-75300000D01*
X172190000Y-75300000D02*
X172190000Y-74500000D01*
X172190000Y-53300000D02*
X156190000Y-57100000D01*
X156190000Y-53300000D02*
X172190000Y-57100000D01*
X156182000Y-57100000D02*
X172182000Y-57100000D01*
D11*
X168400000Y-86275000D02*
X168400000Y-86525000D01*
X171750000Y-86275000D02*
X171750000Y-86525000D01*
X171750000Y-89625000D02*
X171750000Y-89375000D01*
X168400000Y-89625000D02*
X168400000Y-89375000D01*
X168400000Y-86275000D02*
X171750000Y-86275000D01*
X168400000Y-89625000D02*
X171750000Y-89625000D01*
X168400000Y-86525000D02*
X167150000Y-86525000D01*
X150525000Y-62425000D02*
X150525000Y-60875000D01*
X150525000Y-60875000D02*
X153625000Y-60875000D01*
X153625000Y-60875000D02*
X153625000Y-62425000D01*
X153345000Y-63695000D02*
X153345000Y-73855000D01*
X153345000Y-73855000D02*
X150805000Y-73855000D01*
X150805000Y-73855000D02*
X150805000Y-63695000D01*
X153345000Y-63695000D02*
X150805000Y-63695000D01*
X175917381Y-59221905D02*
X176726905Y-59221905D01*
X176822143Y-59174286D01*
X176869762Y-59126667D01*
X176917381Y-59031429D01*
X176917381Y-58840952D01*
X176869762Y-58745714D01*
X176822143Y-58698095D01*
X176726905Y-58650476D01*
X175917381Y-58650476D01*
X175917381Y-58269524D02*
X175917381Y-57650476D01*
X176298333Y-57983810D01*
X176298333Y-57840952D01*
X176345952Y-57745714D01*
X176393571Y-57698095D01*
X176488810Y-57650476D01*
X176726905Y-57650476D01*
X176822143Y-57698095D01*
X176869762Y-57745714D01*
X176917381Y-57840952D01*
X176917381Y-58126667D01*
X176869762Y-58221905D01*
X176822143Y-58269524D01*
X185003334Y-83527143D02*
X184955715Y-83574762D01*
X184812858Y-83622381D01*
X184717620Y-83622381D01*
X184574762Y-83574762D01*
X184479524Y-83479524D01*
X184431905Y-83384286D01*
X184384286Y-83193810D01*
X184384286Y-83050952D01*
X184431905Y-82860476D01*
X184479524Y-82765238D01*
X184574762Y-82670000D01*
X184717620Y-82622381D01*
X184812858Y-82622381D01*
X184955715Y-82670000D01*
X185003334Y-82717619D01*
X185955715Y-83622381D02*
X185384286Y-83622381D01*
X185670000Y-83622381D02*
X185670000Y-82622381D01*
X185574762Y-82765238D01*
X185479524Y-82860476D01*
X185384286Y-82908095D01*
X177357143Y-72696666D02*
X177404762Y-72744285D01*
X177452381Y-72887142D01*
X177452381Y-72982380D01*
X177404762Y-73125238D01*
X177309524Y-73220476D01*
X177214286Y-73268095D01*
X177023810Y-73315714D01*
X176880952Y-73315714D01*
X176690476Y-73268095D01*
X176595238Y-73220476D01*
X176500000Y-73125238D01*
X176452381Y-72982380D01*
X176452381Y-72887142D01*
X176500000Y-72744285D01*
X176547619Y-72696666D01*
X176547619Y-72315714D02*
X176500000Y-72268095D01*
X176452381Y-72172857D01*
X176452381Y-71934761D01*
X176500000Y-71839523D01*
X176547619Y-71791904D01*
X176642857Y-71744285D01*
X176738095Y-71744285D01*
X176880952Y-71791904D01*
X177452381Y-72363333D01*
X177452381Y-71744285D01*
X182951905Y-52452381D02*
X182951905Y-51452381D01*
X183190000Y-51452381D01*
X183332858Y-51500000D01*
X183428096Y-51595238D01*
X183475715Y-51690476D01*
X183523334Y-51880952D01*
X183523334Y-52023810D01*
X183475715Y-52214286D01*
X183428096Y-52309524D01*
X183332858Y-52404762D01*
X183190000Y-52452381D01*
X182951905Y-52452381D01*
X184475715Y-52452381D02*
X183904286Y-52452381D01*
X184190000Y-52452381D02*
X184190000Y-51452381D01*
X184094762Y-51595238D01*
X183999524Y-51690476D01*
X183904286Y-51738095D01*
X182921905Y-54412381D02*
X182921905Y-53412381D01*
X183160000Y-53412381D01*
X183302858Y-53460000D01*
X183398096Y-53555238D01*
X183445715Y-53650476D01*
X183493334Y-53840952D01*
X183493334Y-53983810D01*
X183445715Y-54174286D01*
X183398096Y-54269524D01*
X183302858Y-54364762D01*
X183160000Y-54412381D01*
X182921905Y-54412381D01*
X183874286Y-53507619D02*
X183921905Y-53460000D01*
X184017143Y-53412381D01*
X184255239Y-53412381D01*
X184350477Y-53460000D01*
X184398096Y-53507619D01*
X184445715Y-53602857D01*
X184445715Y-53698095D01*
X184398096Y-53840952D01*
X183826667Y-54412381D01*
X184445715Y-54412381D01*
X152283334Y-54506667D02*
X152283334Y-53806667D01*
X152450000Y-53806667D01*
X152550000Y-53840000D01*
X152616667Y-53906667D01*
X152650000Y-53973333D01*
X152683334Y-54106667D01*
X152683334Y-54206667D01*
X152650000Y-54340000D01*
X152616667Y-54406667D01*
X152550000Y-54473333D01*
X152450000Y-54506667D01*
X152283334Y-54506667D01*
X152916667Y-53806667D02*
X153350000Y-53806667D01*
X153116667Y-54073333D01*
X153216667Y-54073333D01*
X153283334Y-54106667D01*
X153316667Y-54140000D01*
X153350000Y-54206667D01*
X153350000Y-54373333D01*
X153316667Y-54440000D01*
X153283334Y-54473333D01*
X153216667Y-54506667D01*
X153016667Y-54506667D01*
X152950000Y-54473333D01*
X152916667Y-54440000D01*
X182041905Y-66102381D02*
X182041905Y-65102381D01*
X182280000Y-65102381D01*
X182422858Y-65150000D01*
X182518096Y-65245238D01*
X182565715Y-65340476D01*
X182613334Y-65530952D01*
X182613334Y-65673810D01*
X182565715Y-65864286D01*
X182518096Y-65959524D01*
X182422858Y-66054762D01*
X182280000Y-66102381D01*
X182041905Y-66102381D01*
X183470477Y-65435714D02*
X183470477Y-66102381D01*
X183232381Y-65054762D02*
X182994286Y-65769048D01*
X183613334Y-65769048D01*
X189422381Y-53648095D02*
X188422381Y-53648095D01*
X188422381Y-53410000D01*
X188470000Y-53267142D01*
X188565238Y-53171904D01*
X188660476Y-53124285D01*
X188850952Y-53076666D01*
X188993810Y-53076666D01*
X189184286Y-53124285D01*
X189279524Y-53171904D01*
X189374762Y-53267142D01*
X189422381Y-53410000D01*
X189422381Y-53648095D01*
X188422381Y-52171904D02*
X188422381Y-52648095D01*
X188898571Y-52695714D01*
X188850952Y-52648095D01*
X188803333Y-52552857D01*
X188803333Y-52314761D01*
X188850952Y-52219523D01*
X188898571Y-52171904D01*
X188993810Y-52124285D01*
X189231905Y-52124285D01*
X189327143Y-52171904D01*
X189374762Y-52219523D01*
X189422381Y-52314761D01*
X189422381Y-52552857D01*
X189374762Y-52648095D01*
X189327143Y-52695714D01*
X193982381Y-53478095D02*
X192982381Y-53478095D01*
X192982381Y-53240000D01*
X193030000Y-53097142D01*
X193125238Y-53001904D01*
X193220476Y-52954285D01*
X193410952Y-52906666D01*
X193553810Y-52906666D01*
X193744286Y-52954285D01*
X193839524Y-53001904D01*
X193934762Y-53097142D01*
X193982381Y-53240000D01*
X193982381Y-53478095D01*
X192982381Y-52049523D02*
X192982381Y-52240000D01*
X193030000Y-52335238D01*
X193077619Y-52382857D01*
X193220476Y-52478095D01*
X193410952Y-52525714D01*
X193791905Y-52525714D01*
X193887143Y-52478095D01*
X193934762Y-52430476D01*
X193982381Y-52335238D01*
X193982381Y-52144761D01*
X193934762Y-52049523D01*
X193887143Y-52001904D01*
X193791905Y-51954285D01*
X193553810Y-51954285D01*
X193458571Y-52001904D01*
X193410952Y-52049523D01*
X193363333Y-52144761D01*
X193363333Y-52335238D01*
X193410952Y-52430476D01*
X193458571Y-52478095D01*
X193553810Y-52525714D01*
X191682381Y-53548095D02*
X190682381Y-53548095D01*
X190682381Y-53310000D01*
X190730000Y-53167142D01*
X190825238Y-53071904D01*
X190920476Y-53024285D01*
X191110952Y-52976666D01*
X191253810Y-52976666D01*
X191444286Y-53024285D01*
X191539524Y-53071904D01*
X191634762Y-53167142D01*
X191682381Y-53310000D01*
X191682381Y-53548095D01*
X190682381Y-52643333D02*
X190682381Y-51976666D01*
X191682381Y-52405238D01*
X155857143Y-87416666D02*
X155904762Y-87464285D01*
X155952381Y-87607142D01*
X155952381Y-87702380D01*
X155904762Y-87845238D01*
X155809524Y-87940476D01*
X155714286Y-87988095D01*
X155523810Y-88035714D01*
X155380952Y-88035714D01*
X155190476Y-87988095D01*
X155095238Y-87940476D01*
X155000000Y-87845238D01*
X154952381Y-87702380D01*
X154952381Y-87607142D01*
X155000000Y-87464285D01*
X155047619Y-87416666D01*
X154952381Y-86511904D02*
X154952381Y-86988095D01*
X155428571Y-87035714D01*
X155380952Y-86988095D01*
X155333333Y-86892857D01*
X155333333Y-86654761D01*
X155380952Y-86559523D01*
X155428571Y-86511904D01*
X155523810Y-86464285D01*
X155761905Y-86464285D01*
X155857143Y-86511904D01*
X155904762Y-86559523D01*
X155952381Y-86654761D01*
X155952381Y-86892857D01*
X155904762Y-86988095D01*
X155857143Y-87035714D01*
X187147143Y-57326666D02*
X187194762Y-57374285D01*
X187242381Y-57517142D01*
X187242381Y-57612380D01*
X187194762Y-57755238D01*
X187099524Y-57850476D01*
X187004286Y-57898095D01*
X186813810Y-57945714D01*
X186670952Y-57945714D01*
X186480476Y-57898095D01*
X186385238Y-57850476D01*
X186290000Y-57755238D01*
X186242381Y-57612380D01*
X186242381Y-57517142D01*
X186290000Y-57374285D01*
X186337619Y-57326666D01*
X186242381Y-56469523D02*
X186242381Y-56660000D01*
X186290000Y-56755238D01*
X186337619Y-56802857D01*
X186480476Y-56898095D01*
X186670952Y-56945714D01*
X187051905Y-56945714D01*
X187147143Y-56898095D01*
X187194762Y-56850476D01*
X187242381Y-56755238D01*
X187242381Y-56564761D01*
X187194762Y-56469523D01*
X187147143Y-56421904D01*
X187051905Y-56374285D01*
X186813810Y-56374285D01*
X186718571Y-56421904D01*
X186670952Y-56469523D01*
X186623333Y-56564761D01*
X186623333Y-56755238D01*
X186670952Y-56850476D01*
X186718571Y-56898095D01*
X186813810Y-56945714D01*
X183113334Y-63807143D02*
X183065715Y-63854762D01*
X182922858Y-63902381D01*
X182827620Y-63902381D01*
X182684762Y-63854762D01*
X182589524Y-63759524D01*
X182541905Y-63664286D01*
X182494286Y-63473810D01*
X182494286Y-63330952D01*
X182541905Y-63140476D01*
X182589524Y-63045238D01*
X182684762Y-62950000D01*
X182827620Y-62902381D01*
X182922858Y-62902381D01*
X183065715Y-62950000D01*
X183113334Y-62997619D01*
X183446667Y-62902381D02*
X184113334Y-62902381D01*
X183684762Y-63902381D01*
X151464286Y-93089286D02*
X151464286Y-92339286D01*
X151750001Y-92339286D01*
X151821429Y-92375000D01*
X151857144Y-92410714D01*
X151892858Y-92482143D01*
X151892858Y-92589286D01*
X151857144Y-92660714D01*
X151821429Y-92696429D01*
X151750001Y-92732143D01*
X151464286Y-92732143D01*
X152642858Y-93089286D02*
X152392858Y-92732143D01*
X152214286Y-93089286D02*
X152214286Y-92339286D01*
X152500001Y-92339286D01*
X152571429Y-92375000D01*
X152607144Y-92410714D01*
X152642858Y-92482143D01*
X152642858Y-92589286D01*
X152607144Y-92660714D01*
X152571429Y-92696429D01*
X152500001Y-92732143D01*
X152214286Y-92732143D01*
X153107144Y-92339286D02*
X153250001Y-92339286D01*
X153321429Y-92375000D01*
X153392858Y-92446429D01*
X153428572Y-92589286D01*
X153428572Y-92839286D01*
X153392858Y-92982143D01*
X153321429Y-93053571D01*
X153250001Y-93089286D01*
X153107144Y-93089286D01*
X153035715Y-93053571D01*
X152964286Y-92982143D01*
X152928572Y-92839286D01*
X152928572Y-92589286D01*
X152964286Y-92446429D01*
X153035715Y-92375000D01*
X153107144Y-92339286D01*
X154000000Y-92696429D02*
X154107143Y-92732143D01*
X154142858Y-92767857D01*
X154178572Y-92839286D01*
X154178572Y-92946429D01*
X154142858Y-93017857D01*
X154107143Y-93053571D01*
X154035715Y-93089286D01*
X153750000Y-93089286D01*
X153750000Y-92339286D01*
X154000000Y-92339286D01*
X154071429Y-92375000D01*
X154107143Y-92410714D01*
X154142858Y-92482143D01*
X154142858Y-92553571D01*
X154107143Y-92625000D01*
X154071429Y-92660714D01*
X154000000Y-92696429D01*
X153750000Y-92696429D01*
X154500000Y-92696429D02*
X154750000Y-92696429D01*
X154857143Y-93089286D02*
X154500000Y-93089286D01*
X154500000Y-92339286D01*
X154857143Y-92339286D01*
X155571429Y-93089286D02*
X155142857Y-93089286D01*
X155357143Y-93089286D02*
X155357143Y-92339286D01*
X155285714Y-92446429D01*
X155214286Y-92517857D01*
X155142857Y-92553571D01*
X194714286Y-93089286D02*
X194714286Y-92339286D01*
X195000001Y-92339286D01*
X195071429Y-92375000D01*
X195107144Y-92410714D01*
X195142858Y-92482143D01*
X195142858Y-92589286D01*
X195107144Y-92660714D01*
X195071429Y-92696429D01*
X195000001Y-92732143D01*
X194714286Y-92732143D01*
X195892858Y-93089286D02*
X195642858Y-92732143D01*
X195464286Y-93089286D02*
X195464286Y-92339286D01*
X195750001Y-92339286D01*
X195821429Y-92375000D01*
X195857144Y-92410714D01*
X195892858Y-92482143D01*
X195892858Y-92589286D01*
X195857144Y-92660714D01*
X195821429Y-92696429D01*
X195750001Y-92732143D01*
X195464286Y-92732143D01*
X196357144Y-92339286D02*
X196500001Y-92339286D01*
X196571429Y-92375000D01*
X196642858Y-92446429D01*
X196678572Y-92589286D01*
X196678572Y-92839286D01*
X196642858Y-92982143D01*
X196571429Y-93053571D01*
X196500001Y-93089286D01*
X196357144Y-93089286D01*
X196285715Y-93053571D01*
X196214286Y-92982143D01*
X196178572Y-92839286D01*
X196178572Y-92589286D01*
X196214286Y-92446429D01*
X196285715Y-92375000D01*
X196357144Y-92339286D01*
X197250000Y-92696429D02*
X197357143Y-92732143D01*
X197392858Y-92767857D01*
X197428572Y-92839286D01*
X197428572Y-92946429D01*
X197392858Y-93017857D01*
X197357143Y-93053571D01*
X197285715Y-93089286D01*
X197000000Y-93089286D01*
X197000000Y-92339286D01*
X197250000Y-92339286D01*
X197321429Y-92375000D01*
X197357143Y-92410714D01*
X197392858Y-92482143D01*
X197392858Y-92553571D01*
X197357143Y-92625000D01*
X197321429Y-92660714D01*
X197250000Y-92696429D01*
X197000000Y-92696429D01*
X197750000Y-92696429D02*
X198000000Y-92696429D01*
X198107143Y-93089286D02*
X197750000Y-93089286D01*
X197750000Y-92339286D01*
X198107143Y-92339286D01*
X198392857Y-92410714D02*
X198428571Y-92375000D01*
X198500000Y-92339286D01*
X198678571Y-92339286D01*
X198750000Y-92375000D01*
X198785714Y-92410714D01*
X198821429Y-92482143D01*
X198821429Y-92553571D01*
X198785714Y-92660714D01*
X198357143Y-93089286D01*
X198821429Y-93089286D01*
X158023810Y-88702381D02*
X158023810Y-87702381D01*
X159023810Y-88702381D02*
X158452381Y-88702381D01*
X158738095Y-88702381D02*
X158738095Y-87702381D01*
X158642857Y-87845238D01*
X158547619Y-87940476D01*
X158452381Y-87988095D01*
X181833810Y-88772381D02*
X181833810Y-87772381D01*
X182262381Y-87867619D02*
X182310000Y-87820000D01*
X182405238Y-87772381D01*
X182643334Y-87772381D01*
X182738572Y-87820000D01*
X182786191Y-87867619D01*
X182833810Y-87962857D01*
X182833810Y-88058095D01*
X182786191Y-88200952D01*
X182214762Y-88772381D01*
X182833810Y-88772381D01*
X180932144Y-90889286D02*
X181360715Y-90889286D01*
X181146429Y-91639286D02*
X181146429Y-90889286D01*
X181896430Y-91603571D02*
X181825001Y-91639286D01*
X181682144Y-91639286D01*
X181610715Y-91603571D01*
X181575001Y-91532143D01*
X181575001Y-91246429D01*
X181610715Y-91175000D01*
X181682144Y-91139286D01*
X181825001Y-91139286D01*
X181896430Y-91175000D01*
X181932144Y-91246429D01*
X181932144Y-91317857D01*
X181575001Y-91389286D01*
X182253572Y-91639286D02*
X182253572Y-91139286D01*
X182253572Y-91210714D02*
X182289287Y-91175000D01*
X182360715Y-91139286D01*
X182467858Y-91139286D01*
X182539287Y-91175000D01*
X182575001Y-91246429D01*
X182575001Y-91639286D01*
X182575001Y-91246429D02*
X182610715Y-91175000D01*
X182682144Y-91139286D01*
X182789287Y-91139286D01*
X182860715Y-91175000D01*
X182896430Y-91246429D01*
X182896430Y-91639286D01*
X183253572Y-91139286D02*
X183253572Y-91889286D01*
X183253572Y-91175000D02*
X183325001Y-91139286D01*
X183467858Y-91139286D01*
X183539287Y-91175000D01*
X183575001Y-91210714D01*
X183610715Y-91282143D01*
X183610715Y-91496429D01*
X183575001Y-91567857D01*
X183539287Y-91603571D01*
X183467858Y-91639286D01*
X183325001Y-91639286D01*
X183253572Y-91603571D01*
X184503572Y-91639286D02*
X184503572Y-90889286D01*
X184789287Y-90889286D01*
X184860715Y-90925000D01*
X184896430Y-90960714D01*
X184932144Y-91032143D01*
X184932144Y-91139286D01*
X184896430Y-91210714D01*
X184860715Y-91246429D01*
X184789287Y-91282143D01*
X184503572Y-91282143D01*
X185253572Y-91639286D02*
X185253572Y-91139286D01*
X185253572Y-91282143D02*
X185289287Y-91210714D01*
X185325001Y-91175000D01*
X185396430Y-91139286D01*
X185467858Y-91139286D01*
X185825001Y-91639286D02*
X185753573Y-91603571D01*
X185717858Y-91567857D01*
X185682144Y-91496429D01*
X185682144Y-91282143D01*
X185717858Y-91210714D01*
X185753573Y-91175000D01*
X185825001Y-91139286D01*
X185932144Y-91139286D01*
X186003573Y-91175000D01*
X186039287Y-91210714D01*
X186075001Y-91282143D01*
X186075001Y-91496429D01*
X186039287Y-91567857D01*
X186003573Y-91603571D01*
X185932144Y-91639286D01*
X185825001Y-91639286D01*
X186396429Y-91639286D02*
X186396429Y-90889286D01*
X186396429Y-91175000D02*
X186467858Y-91139286D01*
X186610715Y-91139286D01*
X186682144Y-91175000D01*
X186717858Y-91210714D01*
X186753572Y-91282143D01*
X186753572Y-91496429D01*
X186717858Y-91567857D01*
X186682144Y-91603571D01*
X186610715Y-91639286D01*
X186467858Y-91639286D01*
X186396429Y-91603571D01*
X187360715Y-91603571D02*
X187289286Y-91639286D01*
X187146429Y-91639286D01*
X187075000Y-91603571D01*
X187039286Y-91532143D01*
X187039286Y-91246429D01*
X187075000Y-91175000D01*
X187146429Y-91139286D01*
X187289286Y-91139286D01*
X187360715Y-91175000D01*
X187396429Y-91246429D01*
X187396429Y-91317857D01*
X187039286Y-91389286D01*
X161692381Y-79118095D02*
X160692381Y-79118095D01*
X160692381Y-78737142D01*
X160740000Y-78641904D01*
X160787619Y-78594285D01*
X160882857Y-78546666D01*
X161025714Y-78546666D01*
X161120952Y-78594285D01*
X161168571Y-78641904D01*
X161216190Y-78737142D01*
X161216190Y-79118095D01*
X160692381Y-78213333D02*
X160692381Y-77594285D01*
X161073333Y-77927619D01*
X161073333Y-77784761D01*
X161120952Y-77689523D01*
X161168571Y-77641904D01*
X161263810Y-77594285D01*
X161501905Y-77594285D01*
X161597143Y-77641904D01*
X161644762Y-77689523D01*
X161692381Y-77784761D01*
X161692381Y-78070476D01*
X161644762Y-78165714D01*
X161597143Y-78213333D01*
X194812381Y-62178095D02*
X193812381Y-62178095D01*
X193812381Y-61797142D01*
X193860000Y-61701904D01*
X193907619Y-61654285D01*
X194002857Y-61606666D01*
X194145714Y-61606666D01*
X194240952Y-61654285D01*
X194288571Y-61701904D01*
X194336190Y-61797142D01*
X194336190Y-62178095D01*
X193812381Y-60701904D02*
X193812381Y-61178095D01*
X194288571Y-61225714D01*
X194240952Y-61178095D01*
X194193333Y-61082857D01*
X194193333Y-60844761D01*
X194240952Y-60749523D01*
X194288571Y-60701904D01*
X194383810Y-60654285D01*
X194621905Y-60654285D01*
X194717143Y-60701904D01*
X194764762Y-60749523D01*
X194812381Y-60844761D01*
X194812381Y-61082857D01*
X194764762Y-61178095D01*
X194717143Y-61225714D01*
X161702381Y-90166666D02*
X161226190Y-90500000D01*
X161702381Y-90738095D02*
X160702381Y-90738095D01*
X160702381Y-90357142D01*
X160750000Y-90261904D01*
X160797619Y-90214285D01*
X160892857Y-90166666D01*
X161035714Y-90166666D01*
X161130952Y-90214285D01*
X161178571Y-90261904D01*
X161226190Y-90357142D01*
X161226190Y-90738095D01*
X161702381Y-89214285D02*
X161702381Y-89785714D01*
X161702381Y-89500000D02*
X160702381Y-89500000D01*
X160845238Y-89595238D01*
X160940476Y-89690476D01*
X160988095Y-89785714D01*
X189452381Y-86166666D02*
X188976190Y-86500000D01*
X189452381Y-86738095D02*
X188452381Y-86738095D01*
X188452381Y-86357142D01*
X188500000Y-86261904D01*
X188547619Y-86214285D01*
X188642857Y-86166666D01*
X188785714Y-86166666D01*
X188880952Y-86214285D01*
X188928571Y-86261904D01*
X188976190Y-86357142D01*
X188976190Y-86738095D01*
X188547619Y-85785714D02*
X188500000Y-85738095D01*
X188452381Y-85642857D01*
X188452381Y-85404761D01*
X188500000Y-85309523D01*
X188547619Y-85261904D01*
X188642857Y-85214285D01*
X188738095Y-85214285D01*
X188880952Y-85261904D01*
X189452381Y-85833333D01*
X189452381Y-85214285D01*
D18*
X178316667Y-52226190D02*
X178150000Y-51988095D01*
X178030953Y-52226190D02*
X178030953Y-51726190D01*
X178221429Y-51726190D01*
X178269048Y-51750000D01*
X178292857Y-51773810D01*
X178316667Y-51821429D01*
X178316667Y-51892857D01*
X178292857Y-51940476D01*
X178269048Y-51964286D01*
X178221429Y-51988095D01*
X178030953Y-51988095D01*
X178483334Y-51726190D02*
X178792857Y-51726190D01*
X178626191Y-51916667D01*
X178697619Y-51916667D01*
X178745238Y-51940476D01*
X178769048Y-51964286D01*
X178792857Y-52011905D01*
X178792857Y-52130952D01*
X178769048Y-52178571D01*
X178745238Y-52202381D01*
X178697619Y-52226190D01*
X178554762Y-52226190D01*
X178507143Y-52202381D01*
X178483334Y-52178571D01*
X178316667Y-54226190D02*
X178150000Y-53988095D01*
X178030953Y-54226190D02*
X178030953Y-53726190D01*
X178221429Y-53726190D01*
X178269048Y-53750000D01*
X178292857Y-53773810D01*
X178316667Y-53821429D01*
X178316667Y-53892857D01*
X178292857Y-53940476D01*
X178269048Y-53964286D01*
X178221429Y-53988095D01*
X178030953Y-53988095D01*
X178745238Y-53892857D02*
X178745238Y-54226190D01*
X178626191Y-53702381D02*
X178507143Y-54059524D01*
X178816667Y-54059524D01*
D11*
X153742381Y-56256666D02*
X153266190Y-56590000D01*
X153742381Y-56828095D02*
X152742381Y-56828095D01*
X152742381Y-56447142D01*
X152790000Y-56351904D01*
X152837619Y-56304285D01*
X152932857Y-56256666D01*
X153075714Y-56256666D01*
X153170952Y-56304285D01*
X153218571Y-56351904D01*
X153266190Y-56447142D01*
X153266190Y-56828095D01*
X152742381Y-55351904D02*
X152742381Y-55828095D01*
X153218571Y-55875714D01*
X153170952Y-55828095D01*
X153123333Y-55732857D01*
X153123333Y-55494761D01*
X153170952Y-55399523D01*
X153218571Y-55351904D01*
X153313810Y-55304285D01*
X153551905Y-55304285D01*
X153647143Y-55351904D01*
X153694762Y-55399523D01*
X153742381Y-55494761D01*
X153742381Y-55732857D01*
X153694762Y-55828095D01*
X153647143Y-55875714D01*
X154383334Y-84566667D02*
X154150000Y-84233333D01*
X153983334Y-84566667D02*
X153983334Y-83866667D01*
X154250000Y-83866667D01*
X154316667Y-83900000D01*
X154350000Y-83933333D01*
X154383334Y-84000000D01*
X154383334Y-84100000D01*
X154350000Y-84166667D01*
X154316667Y-84200000D01*
X154250000Y-84233333D01*
X153983334Y-84233333D01*
X154983334Y-83866667D02*
X154850000Y-83866667D01*
X154783334Y-83900000D01*
X154750000Y-83933333D01*
X154683334Y-84033333D01*
X154650000Y-84166667D01*
X154650000Y-84433333D01*
X154683334Y-84500000D01*
X154716667Y-84533333D01*
X154783334Y-84566667D01*
X154916667Y-84566667D01*
X154983334Y-84533333D01*
X155016667Y-84500000D01*
X155050000Y-84433333D01*
X155050000Y-84266667D01*
X155016667Y-84200000D01*
X154983334Y-84166667D01*
X154916667Y-84133333D01*
X154783334Y-84133333D01*
X154716667Y-84166667D01*
X154683334Y-84200000D01*
X154650000Y-84266667D01*
X174633334Y-66112381D02*
X174300000Y-65636190D01*
X174061905Y-66112381D02*
X174061905Y-65112381D01*
X174442858Y-65112381D01*
X174538096Y-65160000D01*
X174585715Y-65207619D01*
X174633334Y-65302857D01*
X174633334Y-65445714D01*
X174585715Y-65540952D01*
X174538096Y-65588571D01*
X174442858Y-65636190D01*
X174061905Y-65636190D01*
X174966667Y-65112381D02*
X175633334Y-65112381D01*
X175204762Y-66112381D01*
X187992381Y-64886666D02*
X187516190Y-65220000D01*
X187992381Y-65458095D02*
X186992381Y-65458095D01*
X186992381Y-65077142D01*
X187040000Y-64981904D01*
X187087619Y-64934285D01*
X187182857Y-64886666D01*
X187325714Y-64886666D01*
X187420952Y-64934285D01*
X187468571Y-64981904D01*
X187516190Y-65077142D01*
X187516190Y-65458095D01*
X187420952Y-64315238D02*
X187373333Y-64410476D01*
X187325714Y-64458095D01*
X187230476Y-64505714D01*
X187182857Y-64505714D01*
X187087619Y-64458095D01*
X187040000Y-64410476D01*
X186992381Y-64315238D01*
X186992381Y-64124761D01*
X187040000Y-64029523D01*
X187087619Y-63981904D01*
X187182857Y-63934285D01*
X187230476Y-63934285D01*
X187325714Y-63981904D01*
X187373333Y-64029523D01*
X187420952Y-64124761D01*
X187420952Y-64315238D01*
X187468571Y-64410476D01*
X187516190Y-64458095D01*
X187611429Y-64505714D01*
X187801905Y-64505714D01*
X187897143Y-64458095D01*
X187944762Y-64410476D01*
X187992381Y-64315238D01*
X187992381Y-64124761D01*
X187944762Y-64029523D01*
X187897143Y-63981904D01*
X187801905Y-63934285D01*
X187611429Y-63934285D01*
X187516190Y-63981904D01*
X187468571Y-64029523D01*
X187420952Y-64124761D01*
X167771429Y-79652381D02*
X167438095Y-79176190D01*
X167200000Y-79652381D02*
X167200000Y-78652381D01*
X167580953Y-78652381D01*
X167676191Y-78700000D01*
X167723810Y-78747619D01*
X167771429Y-78842857D01*
X167771429Y-78985714D01*
X167723810Y-79080952D01*
X167676191Y-79128571D01*
X167580953Y-79176190D01*
X167200000Y-79176190D01*
X168200000Y-79128571D02*
X168533334Y-79128571D01*
X168676191Y-79652381D02*
X168200000Y-79652381D01*
X168200000Y-78652381D01*
X168676191Y-78652381D01*
X169057143Y-79604762D02*
X169200000Y-79652381D01*
X169438096Y-79652381D01*
X169533334Y-79604762D01*
X169580953Y-79557143D01*
X169628572Y-79461905D01*
X169628572Y-79366667D01*
X169580953Y-79271429D01*
X169533334Y-79223810D01*
X169438096Y-79176190D01*
X169247619Y-79128571D01*
X169152381Y-79080952D01*
X169104762Y-79033333D01*
X169057143Y-78938095D01*
X169057143Y-78842857D01*
X169104762Y-78747619D01*
X169152381Y-78700000D01*
X169247619Y-78652381D01*
X169485715Y-78652381D01*
X169628572Y-78700000D01*
X170057143Y-79128571D02*
X170390477Y-79128571D01*
X170533334Y-79652381D02*
X170057143Y-79652381D01*
X170057143Y-78652381D01*
X170533334Y-78652381D01*
X170819048Y-78652381D02*
X171390477Y-78652381D01*
X171104762Y-79652381D02*
X171104762Y-78652381D01*
X172247620Y-79652381D02*
X171676191Y-79652381D01*
X171961905Y-79652381D02*
X171961905Y-78652381D01*
X171866667Y-78795238D01*
X171771429Y-78890476D01*
X171676191Y-78938095D01*
X183988095Y-73932381D02*
X183988095Y-74741905D01*
X184035714Y-74837143D01*
X184083333Y-74884762D01*
X184178571Y-74932381D01*
X184369048Y-74932381D01*
X184464286Y-74884762D01*
X184511905Y-74837143D01*
X184559524Y-74741905D01*
X184559524Y-73932381D01*
X185559524Y-74932381D02*
X184988095Y-74932381D01*
X185273809Y-74932381D02*
X185273809Y-73932381D01*
X185178571Y-74075238D01*
X185083333Y-74170476D01*
X184988095Y-74218095D01*
X189757143Y-71036666D02*
X189804762Y-71084285D01*
X189852381Y-71227142D01*
X189852381Y-71322380D01*
X189804762Y-71465238D01*
X189709524Y-71560476D01*
X189614286Y-71608095D01*
X189423810Y-71655714D01*
X189280952Y-71655714D01*
X189090476Y-71608095D01*
X188995238Y-71560476D01*
X188900000Y-71465238D01*
X188852381Y-71322380D01*
X188852381Y-71227142D01*
X188900000Y-71084285D01*
X188947619Y-71036666D01*
X188852381Y-70703333D02*
X188852381Y-70084285D01*
X189233333Y-70417619D01*
X189233333Y-70274761D01*
X189280952Y-70179523D01*
X189328571Y-70131904D01*
X189423810Y-70084285D01*
X189661905Y-70084285D01*
X189757143Y-70131904D01*
X189804762Y-70179523D01*
X189852381Y-70274761D01*
X189852381Y-70560476D01*
X189804762Y-70655714D01*
X189757143Y-70703333D01*
X180257143Y-71116666D02*
X180304762Y-71164285D01*
X180352381Y-71307142D01*
X180352381Y-71402380D01*
X180304762Y-71545238D01*
X180209524Y-71640476D01*
X180114286Y-71688095D01*
X179923810Y-71735714D01*
X179780952Y-71735714D01*
X179590476Y-71688095D01*
X179495238Y-71640476D01*
X179400000Y-71545238D01*
X179352381Y-71402380D01*
X179352381Y-71307142D01*
X179400000Y-71164285D01*
X179447619Y-71116666D01*
X179685714Y-70259523D02*
X180352381Y-70259523D01*
X179304762Y-70497619D02*
X180019048Y-70735714D01*
X180019048Y-70116666D01*
X193761905Y-80202381D02*
X193761905Y-79202381D01*
X194142858Y-79202381D01*
X194238096Y-79250000D01*
X194285715Y-79297619D01*
X194333334Y-79392857D01*
X194333334Y-79535714D01*
X194285715Y-79630952D01*
X194238096Y-79678571D01*
X194142858Y-79726190D01*
X193761905Y-79726190D01*
X194666667Y-79202381D02*
X195333334Y-79202381D01*
X194904762Y-80202381D01*
X193761905Y-77302381D02*
X193761905Y-76302381D01*
X194142858Y-76302381D01*
X194238096Y-76350000D01*
X194285715Y-76397619D01*
X194333334Y-76492857D01*
X194333334Y-76635714D01*
X194285715Y-76730952D01*
X194238096Y-76778571D01*
X194142858Y-76826190D01*
X193761905Y-76826190D01*
X194714286Y-76397619D02*
X194761905Y-76350000D01*
X194857143Y-76302381D01*
X195095239Y-76302381D01*
X195190477Y-76350000D01*
X195238096Y-76397619D01*
X195285715Y-76492857D01*
X195285715Y-76588095D01*
X195238096Y-76730952D01*
X194666667Y-77302381D01*
X195285715Y-77302381D01*
X163338095Y-50952381D02*
X163338095Y-51761905D01*
X163385714Y-51857143D01*
X163433333Y-51904762D01*
X163528571Y-51952381D01*
X163719048Y-51952381D01*
X163814286Y-51904762D01*
X163861905Y-51857143D01*
X163909524Y-51761905D01*
X163909524Y-50952381D01*
X164338095Y-51047619D02*
X164385714Y-51000000D01*
X164480952Y-50952381D01*
X164719048Y-50952381D01*
X164814286Y-51000000D01*
X164861905Y-51047619D01*
X164909524Y-51142857D01*
X164909524Y-51238095D01*
X164861905Y-51380952D01*
X164290476Y-51952381D01*
X164909524Y-51952381D01*
X160367714Y-54752381D02*
X160367714Y-53752381D01*
X160939143Y-54752381D01*
X160939143Y-53752381D01*
X161558190Y-54752381D02*
X161462952Y-54704762D01*
X161415333Y-54657143D01*
X161367714Y-54561905D01*
X161367714Y-54276190D01*
X161415333Y-54180952D01*
X161462952Y-54133333D01*
X161558190Y-54085714D01*
X161701048Y-54085714D01*
X161796286Y-54133333D01*
X161843905Y-54180952D01*
X161891524Y-54276190D01*
X161891524Y-54561905D01*
X161843905Y-54657143D01*
X161796286Y-54704762D01*
X161701048Y-54752381D01*
X161558190Y-54752381D01*
X163653429Y-54657143D02*
X163605810Y-54704762D01*
X163462953Y-54752381D01*
X163367715Y-54752381D01*
X163224857Y-54704762D01*
X163129619Y-54609524D01*
X163082000Y-54514286D01*
X163034381Y-54323810D01*
X163034381Y-54180952D01*
X163082000Y-53990476D01*
X163129619Y-53895238D01*
X163224857Y-53800000D01*
X163367715Y-53752381D01*
X163462953Y-53752381D01*
X163605810Y-53800000D01*
X163653429Y-53847619D01*
X164224857Y-54752381D02*
X164129619Y-54704762D01*
X164082000Y-54657143D01*
X164034381Y-54561905D01*
X164034381Y-54276190D01*
X164082000Y-54180952D01*
X164129619Y-54133333D01*
X164224857Y-54085714D01*
X164367715Y-54085714D01*
X164462953Y-54133333D01*
X164510572Y-54180952D01*
X164558191Y-54276190D01*
X164558191Y-54561905D01*
X164510572Y-54657143D01*
X164462953Y-54704762D01*
X164367715Y-54752381D01*
X164224857Y-54752381D01*
X164986762Y-54085714D02*
X164986762Y-55085714D01*
X164986762Y-54133333D02*
X165082000Y-54085714D01*
X165272477Y-54085714D01*
X165367715Y-54133333D01*
X165415334Y-54180952D01*
X165462953Y-54276190D01*
X165462953Y-54561905D01*
X165415334Y-54657143D01*
X165367715Y-54704762D01*
X165272477Y-54752381D01*
X165082000Y-54752381D01*
X164986762Y-54704762D01*
X165891524Y-54085714D02*
X165891524Y-55085714D01*
X165891524Y-54133333D02*
X165986762Y-54085714D01*
X166177239Y-54085714D01*
X166272477Y-54133333D01*
X166320096Y-54180952D01*
X166367715Y-54276190D01*
X166367715Y-54561905D01*
X166320096Y-54657143D01*
X166272477Y-54704762D01*
X166177239Y-54752381D01*
X165986762Y-54752381D01*
X165891524Y-54704762D01*
X167177239Y-54704762D02*
X167082001Y-54752381D01*
X166891524Y-54752381D01*
X166796286Y-54704762D01*
X166748667Y-54609524D01*
X166748667Y-54228571D01*
X166796286Y-54133333D01*
X166891524Y-54085714D01*
X167082001Y-54085714D01*
X167177239Y-54133333D01*
X167224858Y-54228571D01*
X167224858Y-54323810D01*
X166748667Y-54419048D01*
X167653429Y-54752381D02*
X167653429Y-54085714D01*
X167653429Y-54276190D02*
X167701048Y-54180952D01*
X167748667Y-54133333D01*
X167843905Y-54085714D01*
X167939144Y-54085714D01*
X169542857Y-87671429D02*
X169542857Y-88157143D01*
X169571429Y-88214286D01*
X169600000Y-88242857D01*
X169657143Y-88271429D01*
X169771429Y-88271429D01*
X169828571Y-88242857D01*
X169857143Y-88214286D01*
X169885714Y-88157143D01*
X169885714Y-87671429D01*
X170428571Y-87871429D02*
X170428571Y-88271429D01*
X170285714Y-87642857D02*
X170142857Y-88071429D01*
X170514285Y-88071429D01*
X151461905Y-60452381D02*
X151461905Y-59452381D01*
X151842858Y-59452381D01*
X151938096Y-59500000D01*
X151985715Y-59547619D01*
X152033334Y-59642857D01*
X152033334Y-59785714D01*
X151985715Y-59880952D01*
X151938096Y-59928571D01*
X151842858Y-59976190D01*
X151461905Y-59976190D01*
X152890477Y-59785714D02*
X152890477Y-60452381D01*
X152652381Y-59404762D02*
X152414286Y-60119048D01*
X153033334Y-60119048D01*
M02*
