G04 #@! TF.FileFunction,Profile,NP*
%FSLAX46Y46*%
G04 Gerber Fmt 4.6, Leading zero omitted, Abs format (unit mm)*
G04 Created by KiCad (PCBNEW 4.0.2-1.fc23-product) date Tue 29 Mar 2016 21:37:23 CEST*
%MOMM*%
G01*
G04 APERTURE LIST*
%ADD10C,0.100000*%
%ADD11C,0.150000*%
G04 APERTURE END LIST*
D10*
D11*
X199000000Y-100000000D02*
X197500000Y-100000000D01*
X200000000Y-97500000D02*
X200000000Y-99000000D01*
X200000000Y-51000000D02*
X200000000Y-52500000D01*
X197500000Y-50000000D02*
X199000000Y-50000000D01*
X150000000Y-51000000D02*
X150000000Y-52500000D01*
X152500000Y-50000000D02*
X151000000Y-50000000D01*
X150000000Y-99000000D02*
X150000000Y-97500000D01*
X152500000Y-100000000D02*
X151000000Y-100000000D01*
X199000000Y-100000000D02*
G75*
G03X200000000Y-99000000I0J1000000D01*
G01*
X150000000Y-99000000D02*
G75*
G03X151000000Y-100000000I1000000J0D01*
G01*
X151000000Y-50000000D02*
G75*
G03X150000000Y-51000000I0J-1000000D01*
G01*
X200000000Y-51000000D02*
G75*
G03X199000000Y-50000000I-1000000J0D01*
G01*
X152500000Y-50000000D02*
X197500000Y-50000000D01*
X150000000Y-97500000D02*
X150000000Y-52500000D01*
X197500000Y-100000000D02*
X152500000Y-100000000D01*
X200000000Y-52500000D02*
X200000000Y-97500000D01*
X155500000Y-52500000D02*
X172500000Y-52500000D01*
X172500000Y-57500000D02*
X155500000Y-57500000D01*
X155500000Y-57500000D02*
X155500000Y-52500000D01*
X172500000Y-52500000D02*
X172500000Y-57500000D01*
M02*
