M48
;DRILL file {KiCad 4.0.2-1.fc23-product} date Tue 29 Mar 2016 21:37:41 CEST
;FORMAT={-:-/ absolute / inch / decimal}
FMAT,2
INCH,TZ
T1C0.016
T2C0.020
T3C0.022
T4C0.026
T5C0.039
T6C0.040
T7C0.089
%
G90
G05
M72
T1
X6.0754Y-3.0045
X6.1886Y-2.9016
X6.3563Y-2.3228
X6.5374Y-2.5955
X6.8642Y-3.502
X7.0925Y-2.6551
X7.0941Y-2.4567
X7.1187Y-2.4443
X7.2484Y-2.3622
X7.2791Y-2.415
X7.5267Y-2.2153
X7.6173Y-2.215
T4
X6.1886Y-2.3504
X6.1886Y-2.4291
X6.1886Y-2.5079
X6.1886Y-2.5866
X6.1886Y-2.6654
X6.1886Y-2.7441
X6.1886Y-2.8228
X6.1886Y-2.9016
X6.7398Y-2.3504
X6.7398Y-2.4291
X6.7398Y-2.5079
X6.7398Y-2.5866
X6.7398Y-2.6654
X6.7398Y-2.7441
X6.7398Y-2.8228
X6.7398Y-2.9016
T5
X6.5539Y-3.0299
X6.5539Y-3.2071
X6.8098Y-3.0299
X6.8098Y-3.2071
T6
X5.9872Y-2.4577
X5.9872Y-2.5577
X5.9872Y-2.6577
X5.9872Y-2.7577
X5.9872Y-2.8577
X6.0236Y-3.7402
X6.0236Y-3.8402
X6.0472Y-3.0886
X6.1472Y-3.0886
X6.2472Y-3.0886
X7.1539Y-3.6713
X7.2539Y-3.6713
X7.3539Y-3.6713
X7.6575Y-2.7248
X7.6575Y-2.8248
X7.6575Y-2.9429
X7.6575Y-3.0429
X7.7559Y-3.7402
X7.7559Y-3.8402
T7
X6.0236Y-3.5531
X7.7559Y-3.5531
X7.7953Y-2.0472
T2
X7.8454Y-2.2811G85X7.8198Y-2.2811
G05
X7.8454Y-2.5567G85X7.8198Y-2.5567
G05
T3
X7.7263Y-2.3264G85X7.7263Y-2.3146
G05
X7.7263Y-2.5233G85X7.7263Y-2.5115
G05
T0
M30
