G04 #@! TF.FileFunction,Copper,L1,Top,Signal*
%FSLAX46Y46*%
G04 Gerber Fmt 4.6, Leading zero omitted, Abs format (unit mm)*
G04 Created by KiCad (PCBNEW 4.0.2-1.fc23-product) date Tue 29 Mar 2016 21:37:23 CEST*
%MOMM*%
G01*
G04 APERTURE LIST*
%ADD10C,0.100000*%
%ADD11O,0.300000X0.850000*%
%ADD12O,0.850000X0.300000*%
%ADD13R,1.675000X1.675000*%
%ADD14C,2.400000*%
%ADD15R,1.500000X1.250000*%
%ADD16R,1.250000X1.500000*%
%ADD17R,0.797560X0.797560*%
%ADD18R,1.220000X0.910000*%
%ADD19R,0.750000X1.200000*%
%ADD20R,1.200000X0.750000*%
%ADD21R,2.032000X2.032000*%
%ADD22O,2.032000X2.032000*%
%ADD23R,0.650000X1.060000*%
%ADD24R,1.060000X0.650000*%
%ADD25R,1.727200X2.032000*%
%ADD26O,1.727200X2.032000*%
%ADD27R,1.350000X0.400000*%
%ADD28O,0.950000X1.250000*%
%ADD29O,1.550000X1.000000*%
%ADD30R,0.900000X0.500000*%
%ADD31R,0.500000X0.900000*%
%ADD32C,1.500000*%
%ADD33R,1.000760X1.501140*%
%ADD34R,1.998980X2.999740*%
%ADD35R,2.500000X1.100000*%
%ADD36O,2.500000X1.100000*%
%ADD37R,1.450000X0.450000*%
%ADD38R,2.032000X1.727200*%
%ADD39O,2.032000X1.727200*%
%ADD40C,0.600000*%
%ADD41C,0.250000*%
%ADD42C,0.500000*%
%ADD43C,0.254000*%
G04 APERTURE END LIST*
D10*
D11*
X178840000Y-60910000D03*
X179340000Y-60910000D03*
X179840000Y-60910000D03*
X180340000Y-60910000D03*
X180840000Y-60910000D03*
X181340000Y-60910000D03*
X181840000Y-60910000D03*
D12*
X182790000Y-59960000D03*
X182790000Y-59460000D03*
X182790000Y-58960000D03*
X182790000Y-58460000D03*
X182790000Y-57960000D03*
X182790000Y-57460000D03*
X182790000Y-56960000D03*
D11*
X181840000Y-56010000D03*
X181340000Y-56010000D03*
X180840000Y-56010000D03*
X180340000Y-56010000D03*
X179840000Y-56010000D03*
X179340000Y-56010000D03*
X178840000Y-56010000D03*
D12*
X177890000Y-56960000D03*
X177890000Y-57460000D03*
X177890000Y-57960000D03*
X177890000Y-58460000D03*
X177890000Y-58960000D03*
X177890000Y-59460000D03*
X177890000Y-59960000D03*
D13*
X181177500Y-57622500D03*
X179502500Y-57622500D03*
X181177500Y-59297500D03*
X179502500Y-59297500D03*
D14*
X153000000Y-90250000D03*
X197000000Y-90250000D03*
D15*
X186350000Y-84980000D03*
X183850000Y-84980000D03*
D16*
X175500000Y-71250000D03*
X175500000Y-73750000D03*
D17*
X180650700Y-52010000D03*
X182149300Y-52010000D03*
X180610700Y-53940000D03*
X182109300Y-53940000D03*
X152050700Y-53000000D03*
X153549300Y-53000000D03*
X179480700Y-65540000D03*
X180979300Y-65540000D03*
D18*
X188910000Y-57715000D03*
X188910000Y-54445000D03*
X193430000Y-57675000D03*
X193430000Y-54405000D03*
X191150000Y-57660000D03*
X191150000Y-54390000D03*
D19*
X155500000Y-90950000D03*
X155500000Y-89050000D03*
X184890000Y-56210000D03*
X184890000Y-58110000D03*
D20*
X179550000Y-63370000D03*
X181450000Y-63370000D03*
D21*
X153000000Y-95000000D03*
D22*
X153000000Y-97540000D03*
D21*
X197000000Y-95000000D03*
D22*
X197000000Y-97540000D03*
D23*
X157550000Y-90350000D03*
X158500000Y-90350000D03*
X159450000Y-90350000D03*
X159450000Y-88150000D03*
X157550000Y-88150000D03*
D24*
X183940000Y-87410000D03*
X183940000Y-88360000D03*
X183940000Y-89310000D03*
X186140000Y-89310000D03*
X186140000Y-87410000D03*
D25*
X181710000Y-93250000D03*
D26*
X184250000Y-93250000D03*
X186790000Y-93250000D03*
D25*
X158680000Y-78450000D03*
D26*
X156140000Y-78450000D03*
X153600000Y-78450000D03*
D27*
X196247460Y-62740900D03*
X196247460Y-62090900D03*
X196247460Y-61440900D03*
X196247460Y-60790900D03*
X196247460Y-60140900D03*
D28*
X196247460Y-63940900D03*
X196247460Y-58940900D03*
D29*
X198947460Y-64940900D03*
X198947460Y-57940900D03*
D30*
X161250000Y-87250000D03*
X161250000Y-88750000D03*
X189010000Y-87630000D03*
X189010000Y-89130000D03*
D31*
X179190000Y-52010000D03*
X177690000Y-52010000D03*
X179190000Y-53970000D03*
X177690000Y-53970000D03*
D30*
X151670000Y-55190000D03*
X151670000Y-56690000D03*
D31*
X156000000Y-84250000D03*
X157500000Y-84250000D03*
X176460000Y-65600000D03*
X177960000Y-65600000D03*
D30*
X186040000Y-64010000D03*
X186040000Y-65510000D03*
D32*
X172970000Y-81460000D03*
X166470000Y-81460000D03*
X166470000Y-76960000D03*
X172970000Y-76960000D03*
D33*
X186101140Y-69270000D03*
X184600000Y-69270000D03*
X183098860Y-69270000D03*
D34*
X184600000Y-72221480D03*
D10*
G36*
X183599240Y-70747010D02*
X184099620Y-69997710D01*
X185100380Y-69997710D01*
X185600760Y-70747010D01*
X183599240Y-70747010D01*
X183599240Y-70747010D01*
G37*
D19*
X187950000Y-71750000D03*
X187950000Y-69850000D03*
X181320000Y-70030000D03*
X181320000Y-71930000D03*
D21*
X194500000Y-77290000D03*
D22*
X194500000Y-74750000D03*
D21*
X194500000Y-71750000D03*
D22*
X194500000Y-69210000D03*
D35*
X156490000Y-59700000D03*
D36*
X156490000Y-61700000D03*
X156490000Y-63700000D03*
X156490000Y-65700000D03*
X156490000Y-67700000D03*
X156490000Y-69700000D03*
X156490000Y-71700000D03*
X156490000Y-73700000D03*
X171890000Y-73700000D03*
X171790000Y-71700000D03*
X171890000Y-69700000D03*
X171890000Y-67700000D03*
X171890000Y-65700000D03*
X171890000Y-63700000D03*
X171890000Y-61700000D03*
X171890000Y-59700000D03*
D37*
X167875000Y-86975000D03*
X167875000Y-87625000D03*
X167875000Y-88275000D03*
X167875000Y-88925000D03*
X172275000Y-88925000D03*
X172275000Y-88275000D03*
X172275000Y-87625000D03*
X172275000Y-86975000D03*
D38*
X152075000Y-62425000D03*
D39*
X152075000Y-64965000D03*
X152075000Y-67505000D03*
X152075000Y-70045000D03*
X152075000Y-72585000D03*
D14*
X198000000Y-52000000D03*
D40*
X161450000Y-59000000D03*
X157190000Y-73700000D03*
X180150000Y-67440000D03*
X180190298Y-62400873D03*
X193480000Y-56260000D03*
X180814980Y-62084979D03*
X191178755Y-56268755D03*
X184890000Y-61340000D03*
X184110000Y-60000000D03*
X166050000Y-65925000D03*
X174350000Y-88950000D03*
X154314887Y-76315215D03*
D41*
X161150001Y-58700001D02*
X161450000Y-59000000D01*
X153022131Y-58042131D02*
X160492131Y-58042131D01*
X151670000Y-56690000D02*
X153022131Y-58042131D01*
X160492131Y-58042131D02*
X161150001Y-58700001D01*
D42*
X175500000Y-71250000D02*
X175500000Y-69940000D01*
X175500000Y-69940000D02*
X175270000Y-69710000D01*
X175270000Y-69710000D02*
X178155000Y-69710000D01*
X178155000Y-69710000D02*
X179460000Y-71015000D01*
X155500000Y-89050000D02*
X156400000Y-88150000D01*
X156400000Y-88150000D02*
X157550000Y-88150000D01*
X186350000Y-84980000D02*
X186350000Y-81090246D01*
X186350000Y-81090246D02*
X181879877Y-76620123D01*
X180500000Y-78000000D02*
X181879877Y-76620123D01*
X181879877Y-76620123D02*
X181879877Y-75495123D01*
X180500000Y-78025000D02*
X180500000Y-78000000D01*
X181879877Y-75495123D02*
X181879877Y-74750000D01*
X185420000Y-67290000D02*
X186040000Y-66670000D01*
X186040000Y-66670000D02*
X186040000Y-65510000D01*
X183828290Y-67290000D02*
X185420000Y-67290000D01*
X183098860Y-69270000D02*
X183098860Y-68019430D01*
X183098860Y-68019430D02*
X183828290Y-67290000D01*
X181320000Y-70030000D02*
X182338860Y-70030000D01*
X182338860Y-70030000D02*
X183098860Y-69270000D01*
X179451388Y-72344102D02*
X179451388Y-72123612D01*
X179451388Y-72123612D02*
X179460000Y-72115000D01*
X179460000Y-72115000D02*
X179460000Y-71015000D01*
X179460000Y-71015000D02*
X180445000Y-70030000D01*
X180445000Y-70030000D02*
X181320000Y-70030000D01*
X179451388Y-72344102D02*
X179473979Y-72344102D01*
X179473979Y-72344102D02*
X181879877Y-74750000D01*
X181879877Y-74750000D02*
X194500000Y-74750000D01*
X158680000Y-85680000D02*
X160250000Y-87250000D01*
X160250000Y-87250000D02*
X161250000Y-87250000D01*
X158680000Y-85621010D02*
X158680000Y-85680000D01*
X158680000Y-85621010D02*
X157550000Y-86751010D01*
X157550000Y-86751010D02*
X157550000Y-88150000D01*
X158680000Y-85621010D02*
X158680000Y-83180000D01*
X172275000Y-86975000D02*
X172275000Y-86250000D01*
X172275000Y-86250000D02*
X180500000Y-78025000D01*
D41*
X186140000Y-87410000D02*
X188790000Y-87410000D01*
X188790000Y-87410000D02*
X189010000Y-87630000D01*
D42*
X186140000Y-87410000D02*
X186140000Y-85190000D01*
X186140000Y-85190000D02*
X186350000Y-84980000D01*
D41*
X158680000Y-83460000D02*
X158680000Y-83180000D01*
D42*
X158680000Y-83180000D02*
X158680000Y-78450000D01*
X175270000Y-69700000D02*
X171190000Y-69700000D01*
X175270000Y-69710000D02*
X175270000Y-69700000D01*
X171190000Y-67700000D02*
X171190000Y-69700000D01*
X160490000Y-73700000D02*
X164490000Y-69700000D01*
X164490000Y-69700000D02*
X171190000Y-69700000D01*
X157190000Y-73700000D02*
X160490000Y-73700000D01*
X153549300Y-53000000D02*
X153549300Y-55090358D01*
X152688817Y-55950841D02*
X150809159Y-55950841D01*
X153549300Y-55090358D02*
X152688817Y-55950841D01*
X150809159Y-55950841D02*
X150610000Y-56150000D01*
X150610000Y-56150000D02*
X150610000Y-57510000D01*
X150610000Y-57510000D02*
X151617142Y-58517142D01*
X151617142Y-58517142D02*
X159975709Y-58517142D01*
X159975709Y-58517142D02*
X164156156Y-62697589D01*
X164156156Y-62697589D02*
X177777589Y-62697589D01*
X177777589Y-62697589D02*
X178450000Y-63370000D01*
X178450000Y-63370000D02*
X179550000Y-63370000D01*
X167875000Y-88925000D02*
X168375000Y-88925000D01*
X168375000Y-88925000D02*
X169300000Y-88000000D01*
X169300000Y-88000000D02*
X169375000Y-88000000D01*
X167875000Y-88275000D02*
X169100000Y-88275000D01*
X169100000Y-88275000D02*
X169375000Y-88000000D01*
X169375000Y-88000000D02*
X169375000Y-87625000D01*
X167875000Y-87625000D02*
X169375000Y-87625000D01*
X155500000Y-90950000D02*
X155500000Y-90725000D01*
X155500000Y-90725000D02*
X156755001Y-89469999D01*
X156755001Y-89469999D02*
X159105001Y-89469999D01*
X159105001Y-89469999D02*
X159450000Y-89814998D01*
X159450000Y-89814998D02*
X159450000Y-90350000D01*
X180979300Y-65540000D02*
X180979300Y-66610700D01*
X180979300Y-66610700D02*
X180150000Y-67440000D01*
X197571682Y-74748318D02*
X198947460Y-73372540D01*
X198947460Y-73372540D02*
X198947460Y-64940900D01*
X196520000Y-74748318D02*
X197571682Y-74748318D01*
X187950000Y-71750000D02*
X187950000Y-71975000D01*
X187950000Y-71975000D02*
X189188036Y-73213036D01*
X189188036Y-73213036D02*
X194984718Y-73213036D01*
X194984718Y-73213036D02*
X196520000Y-74748318D01*
X196520000Y-74748318D02*
X196520000Y-76786000D01*
X196520000Y-76786000D02*
X196016000Y-77290000D01*
X196016000Y-77290000D02*
X194500000Y-77290000D01*
X184600000Y-72221480D02*
X187478520Y-72221480D01*
X187478520Y-72221480D02*
X187950000Y-71750000D01*
X184348860Y-69270000D02*
X184348860Y-69019810D01*
X197000000Y-94460000D02*
X188000000Y-94460000D01*
X188000000Y-94460000D02*
X186790000Y-93250000D01*
X196247460Y-63940900D02*
X197222460Y-63940900D01*
X197222460Y-63940900D02*
X198947460Y-62215900D01*
X198947460Y-62215900D02*
X198947460Y-62147460D01*
X197590900Y-60790900D02*
X198947460Y-62147460D01*
X198947460Y-62147460D02*
X198947460Y-64940900D01*
X196247460Y-60790900D02*
X197590900Y-60790900D01*
X196247460Y-60140900D02*
X196747460Y-60140900D01*
X196747460Y-60140900D02*
X198947460Y-57940900D01*
X196247460Y-60140900D02*
X195072460Y-60140900D01*
X195072460Y-60140900D02*
X194800000Y-59868440D01*
X196247460Y-60140900D02*
X196247460Y-60790900D01*
X166650000Y-88750000D02*
X166825000Y-88925000D01*
X166825000Y-88925000D02*
X167875000Y-88925000D01*
X166650000Y-88275000D02*
X166650000Y-88750000D01*
X166125000Y-87625000D02*
X166125000Y-87750000D01*
X166125000Y-87750000D02*
X166650000Y-88275000D01*
X166650000Y-88275000D02*
X167875000Y-88275000D01*
X167875000Y-87625000D02*
X166125000Y-87625000D01*
X198500000Y-65388360D02*
X198947460Y-64940900D01*
X167875000Y-88925000D02*
X167375000Y-88925000D01*
X180979300Y-65540000D02*
X180979300Y-65620700D01*
D41*
X185120000Y-90630000D02*
X184250000Y-91500000D01*
X184250000Y-91500000D02*
X184250000Y-93250000D01*
X185120000Y-88864781D02*
X185120000Y-90630000D01*
X184250000Y-93250000D02*
X185363600Y-93250000D01*
X185363600Y-93250000D02*
X186790000Y-93250000D01*
D42*
X183850000Y-84980000D02*
X184010000Y-84980000D01*
X184010000Y-84980000D02*
X185120000Y-86090000D01*
X185120000Y-86090000D02*
X185120000Y-88864781D01*
X185120000Y-88864781D02*
X184674781Y-89310000D01*
X184674781Y-89310000D02*
X183940000Y-89310000D01*
X171190000Y-71700000D02*
X171190000Y-73700000D01*
X175530000Y-73720000D02*
X171210000Y-73720000D01*
X171210000Y-73720000D02*
X171190000Y-73700000D01*
D41*
X179840000Y-60910000D02*
X179840000Y-61215344D01*
X179550000Y-61505344D02*
X179550000Y-63370000D01*
X179840000Y-61215344D02*
X179550000Y-61505344D01*
D42*
X184890000Y-56210000D02*
X184890000Y-55110000D01*
X184890000Y-55110000D02*
X185555000Y-54445000D01*
X185555000Y-54445000D02*
X188910000Y-54445000D01*
D41*
X179190000Y-52010000D02*
X180650700Y-52010000D01*
X179190000Y-53970000D02*
X180580700Y-53970000D01*
X180580700Y-53970000D02*
X180610700Y-53940000D01*
X151670000Y-55190000D02*
X151670000Y-53383708D01*
X151670000Y-53383708D02*
X152045465Y-53008243D01*
X179480700Y-65540000D02*
X178020000Y-65540000D01*
X178020000Y-65540000D02*
X177960000Y-65600000D01*
D42*
X194500000Y-69210000D02*
X194500000Y-67773160D01*
X194500000Y-67773160D02*
X193010900Y-66284060D01*
X193010900Y-66284060D02*
X193010900Y-62770900D01*
X185619999Y-60689999D02*
X185890000Y-60960000D01*
X183660001Y-60689999D02*
X185619999Y-60689999D01*
X183440000Y-60910000D02*
X183660001Y-60689999D01*
X196722460Y-62740900D02*
X196247460Y-62740900D01*
X193010900Y-62770900D02*
X193040900Y-62740900D01*
X193040900Y-62740900D02*
X196247460Y-62740900D01*
X187700900Y-62770900D02*
X185890000Y-60960000D01*
X185890000Y-60960000D02*
X184890000Y-59960000D01*
X183690000Y-60910000D02*
X183440000Y-60910000D01*
X182790000Y-59960000D02*
X182790000Y-60610000D01*
X183440000Y-60910000D02*
X181940010Y-60910000D01*
X182790000Y-60610000D02*
X183090000Y-60910000D01*
X183090000Y-60910000D02*
X183440000Y-60910000D01*
X184890000Y-58110000D02*
X184890000Y-59430000D01*
X184890000Y-59430000D02*
X184890000Y-59960000D01*
X193010900Y-62770900D02*
X187700900Y-62770900D01*
X188910000Y-57715000D02*
X188910000Y-58670000D01*
X188910000Y-58670000D02*
X193010900Y-62770900D01*
D41*
X193430000Y-57675000D02*
X193430000Y-59548440D01*
X193430000Y-59548440D02*
X195322460Y-61440900D01*
X195322460Y-61440900D02*
X196247460Y-61440900D01*
X180190298Y-61976609D02*
X180190298Y-62400873D01*
X180340000Y-61585000D02*
X180190298Y-61734702D01*
X180190298Y-61734702D02*
X180190298Y-61976609D01*
X180340000Y-60910000D02*
X180340000Y-61585000D01*
X193480000Y-56260000D02*
X193480000Y-57625000D01*
X193480000Y-57625000D02*
X193430000Y-57675000D01*
X196247460Y-62090900D02*
X194875900Y-62090900D01*
X194875900Y-62090900D02*
X191150000Y-58365000D01*
X191150000Y-58365000D02*
X191150000Y-57660000D01*
X180840000Y-60910000D02*
X180840000Y-62059959D01*
X180840000Y-62059959D02*
X180814980Y-62084979D01*
X191150000Y-56297510D02*
X191178755Y-56268755D01*
X191150000Y-57660000D02*
X191150000Y-56297510D01*
X158216000Y-91596000D02*
X158500000Y-91312000D01*
X158500000Y-91312000D02*
X158500000Y-90350000D01*
X157470000Y-91596000D02*
X158216000Y-91596000D01*
X153000000Y-95000000D02*
X153000000Y-97540000D01*
X154550000Y-93250000D02*
X153484000Y-93250000D01*
X153484000Y-93250000D02*
X153000000Y-93734000D01*
X153000000Y-93734000D02*
X153000000Y-95000000D01*
X165675000Y-93250000D02*
X171300000Y-87625000D01*
X171300000Y-87625000D02*
X172275000Y-87625000D01*
X165675000Y-93250000D02*
X154550000Y-93250000D01*
X154550000Y-93250000D02*
X155816000Y-93250000D01*
X155816000Y-93250000D02*
X157470000Y-91596000D01*
X159450000Y-88150000D02*
X160650000Y-88150000D01*
X160650000Y-88150000D02*
X161250000Y-88750000D01*
X172275000Y-88275000D02*
X180405000Y-88275000D01*
X180405000Y-88275000D02*
X181250000Y-89120000D01*
X181950000Y-88360000D02*
X182010000Y-88360000D01*
X183940000Y-88360000D02*
X182010000Y-88360000D01*
X182010000Y-88360000D02*
X181250000Y-89120000D01*
X181250000Y-89120000D02*
X181250000Y-92790000D01*
X181250000Y-92790000D02*
X181710000Y-93250000D01*
X189010000Y-89130000D02*
X186320000Y-89130000D01*
X186320000Y-89130000D02*
X186140000Y-89310000D01*
X153600000Y-79716000D02*
X156000000Y-82116000D01*
X156000000Y-82116000D02*
X156000000Y-84250000D01*
X153600000Y-78450000D02*
X153600000Y-79716000D01*
X152075000Y-62425000D02*
X153341000Y-62425000D01*
X153341000Y-62425000D02*
X153564072Y-62648072D01*
X153564072Y-62648072D02*
X163378569Y-62648072D01*
X163378569Y-62648072D02*
X164430497Y-63700000D01*
X164430497Y-63700000D02*
X171190000Y-63700000D01*
X157190000Y-65700000D02*
X156455000Y-64965000D01*
X156455000Y-64965000D02*
X152075000Y-64965000D01*
X154152400Y-67700000D02*
X153957400Y-67505000D01*
X153957400Y-67505000D02*
X152075000Y-67505000D01*
X157190000Y-67700000D02*
X154152400Y-67700000D01*
X152075000Y-70045000D02*
X153341000Y-70045000D01*
X153341000Y-70045000D02*
X153686000Y-69700000D01*
X153686000Y-69700000D02*
X154726000Y-69700000D01*
X157190000Y-69700000D02*
X154726000Y-69700000D01*
X154201000Y-71675000D02*
X154201000Y-71725000D01*
X154201000Y-71725000D02*
X153341000Y-72585000D01*
X153341000Y-72585000D02*
X152075000Y-72585000D01*
X157190000Y-71700000D02*
X154226000Y-71700000D01*
X154226000Y-71700000D02*
X154201000Y-71675000D01*
X157190000Y-71700000D02*
X156886400Y-72003600D01*
X176460000Y-65600000D02*
X175960000Y-65600000D01*
X175960000Y-65600000D02*
X174920000Y-66640000D01*
X174920000Y-66640000D02*
X162250000Y-66640000D01*
X162250000Y-66640000D02*
X157190000Y-71700000D01*
X176990000Y-52010000D02*
X177690000Y-52010000D01*
X177052292Y-58460000D02*
X177052292Y-56107048D01*
X177052292Y-56107048D02*
X178510392Y-54648948D01*
X178510392Y-54648948D02*
X178510392Y-53379969D01*
X177324113Y-53003676D02*
X176990000Y-52669563D01*
X178510392Y-53379969D02*
X178357323Y-53226900D01*
X178357323Y-53226900D02*
X178188100Y-53226900D01*
X178188100Y-53226900D02*
X177964876Y-53003676D01*
X177964876Y-53003676D02*
X177324113Y-53003676D01*
X176990000Y-52669563D02*
X176990000Y-52010000D01*
X171190000Y-59700000D02*
X175812292Y-59700000D01*
X175812292Y-59700000D02*
X177052292Y-58460000D01*
X177052292Y-58460000D02*
X177890000Y-58460000D01*
X171190000Y-61700000D02*
X170720000Y-61700000D01*
X170720000Y-61700000D02*
X169500000Y-60480000D01*
X175420000Y-56700000D02*
X175420000Y-55040000D01*
X169500000Y-60480000D02*
X169500000Y-59160000D01*
X169500000Y-59160000D02*
X170420000Y-58240000D01*
X170420000Y-58240000D02*
X173880000Y-58240000D01*
X175420000Y-55040000D02*
X176455003Y-54004997D01*
X173880000Y-58240000D02*
X175420000Y-56700000D01*
X176455003Y-54004997D02*
X177668517Y-54004997D01*
X177215000Y-58960000D02*
X174475000Y-61700000D01*
X174475000Y-61700000D02*
X171190000Y-61700000D01*
X177215000Y-58960000D02*
X177890000Y-58960000D01*
X184890000Y-61340000D02*
X186040000Y-62490000D01*
X186040000Y-62490000D02*
X186040000Y-64010000D01*
X182790000Y-59460000D02*
X183570000Y-59460000D01*
X183570000Y-59460000D02*
X184110000Y-60000000D01*
X158420688Y-74490688D02*
X155474797Y-74490688D01*
X159250000Y-75320000D02*
X158420688Y-74490688D01*
X150566333Y-59989065D02*
X150855398Y-59700000D01*
X154728887Y-73744778D02*
X154728887Y-72788660D01*
X154728887Y-72788660D02*
X154437386Y-72497159D01*
X154437386Y-72497159D02*
X153933384Y-72497159D01*
X153660384Y-72770159D02*
X153660384Y-73583254D01*
X153660384Y-73583254D02*
X152674444Y-74569194D01*
X152674444Y-74569194D02*
X150890244Y-74569194D01*
X150890244Y-74569194D02*
X150566333Y-74245283D01*
X155474797Y-74490688D02*
X154728887Y-73744778D01*
X150566333Y-74245283D02*
X150566333Y-59989065D01*
X153933384Y-72497159D02*
X153660384Y-72770159D01*
X150855398Y-59700000D02*
X157190000Y-59700000D01*
X159269340Y-75320000D02*
X159250000Y-75320000D01*
X166470000Y-81460000D02*
X165390000Y-81460000D01*
X165390000Y-81460000D02*
X159250000Y-75320000D01*
X172970000Y-81460000D02*
X172220001Y-80710001D01*
X172220001Y-80710001D02*
X167219999Y-80710001D01*
X167219999Y-80710001D02*
X166470000Y-81460000D01*
X181340000Y-63675000D02*
X181340000Y-61585000D01*
X181340000Y-61585000D02*
X181340000Y-60910000D01*
X166050000Y-65925000D02*
X167236283Y-64738717D01*
X167236283Y-64738717D02*
X170228717Y-64738717D01*
X170228717Y-64738717D02*
X171190000Y-65700000D01*
X172275000Y-88925000D02*
X174325000Y-88925000D01*
X174325000Y-88925000D02*
X174350000Y-88950000D01*
X171686029Y-65700000D02*
X171190000Y-65700000D01*
D42*
X189635000Y-71760000D02*
X189645000Y-71750000D01*
X189645000Y-71750000D02*
X194500000Y-71750000D01*
X187950000Y-69850000D02*
X187950000Y-70075000D01*
X187950000Y-70075000D02*
X189635000Y-71760000D01*
X186101140Y-69270000D02*
X187370000Y-69270000D01*
X187370000Y-69270000D02*
X187950000Y-69850000D01*
X194410000Y-71840000D02*
X194500000Y-71750000D01*
X194820000Y-71670000D02*
X194667600Y-71670000D01*
D41*
X167875000Y-85375000D02*
X167875000Y-86975000D01*
X167875000Y-85375000D02*
X164949603Y-82449603D01*
X164949603Y-82449603D02*
X164949603Y-82435001D01*
X164949603Y-82435001D02*
X158829817Y-76315215D01*
X158829817Y-76315215D02*
X154314887Y-76315215D01*
D43*
G36*
X196445270Y-50959199D02*
X196165319Y-51633395D01*
X196164682Y-52363403D01*
X196443455Y-53038086D01*
X196959199Y-53554730D01*
X197633395Y-53834681D01*
X198363403Y-53835318D01*
X199038086Y-53556545D01*
X199290000Y-53305070D01*
X199290000Y-56805900D01*
X199074460Y-56805900D01*
X199074460Y-57813900D01*
X199094460Y-57813900D01*
X199094460Y-58067900D01*
X199074460Y-58067900D01*
X199074460Y-59075900D01*
X199290000Y-59075900D01*
X199290000Y-63805900D01*
X199074460Y-63805900D01*
X199074460Y-64813900D01*
X199094460Y-64813900D01*
X199094460Y-65067900D01*
X199074460Y-65067900D01*
X199074460Y-66075900D01*
X199290000Y-66075900D01*
X199290000Y-98930070D01*
X199255074Y-99105655D01*
X199195225Y-99195226D01*
X199105655Y-99255074D01*
X198930070Y-99290000D01*
X151069930Y-99290000D01*
X150894345Y-99255074D01*
X150804774Y-99195225D01*
X150744926Y-99105655D01*
X150710000Y-98930070D01*
X150710000Y-75293341D01*
X150890244Y-75329194D01*
X152674444Y-75329194D01*
X152965283Y-75271342D01*
X153211845Y-75106595D01*
X154129312Y-74189128D01*
X154191486Y-74282179D01*
X154937396Y-75028089D01*
X155183958Y-75192836D01*
X155474797Y-75250688D01*
X158105886Y-75250688D01*
X158410413Y-75555215D01*
X154877350Y-75555215D01*
X154845214Y-75523023D01*
X154501686Y-75380377D01*
X154129720Y-75380053D01*
X153785944Y-75522098D01*
X153522695Y-75784888D01*
X153380049Y-76128416D01*
X153379725Y-76500382D01*
X153498120Y-76786920D01*
X153026511Y-76880729D01*
X152540330Y-77205585D01*
X152215474Y-77691766D01*
X152101400Y-78265255D01*
X152101400Y-78634745D01*
X152215474Y-79208234D01*
X152540330Y-79694415D01*
X152880983Y-79922032D01*
X152897852Y-80006839D01*
X153062599Y-80253401D01*
X155240000Y-82430802D01*
X155240000Y-83421614D01*
X155153569Y-83548110D01*
X155102560Y-83800000D01*
X155102560Y-84700000D01*
X155146838Y-84935317D01*
X155285910Y-85151441D01*
X155498110Y-85296431D01*
X155750000Y-85347440D01*
X156250000Y-85347440D01*
X156485317Y-85303162D01*
X156701441Y-85164090D01*
X156747969Y-85095994D01*
X156890302Y-85238327D01*
X157123691Y-85335000D01*
X157216250Y-85335000D01*
X157375000Y-85176250D01*
X157375000Y-84377000D01*
X157353000Y-84377000D01*
X157353000Y-84123000D01*
X157375000Y-84123000D01*
X157375000Y-83323750D01*
X157216250Y-83165000D01*
X157123691Y-83165000D01*
X156890302Y-83261673D01*
X156760000Y-83391974D01*
X156760000Y-82116000D01*
X156702148Y-81825161D01*
X156537401Y-81578599D01*
X154655802Y-79697000D01*
X154659670Y-79694415D01*
X154870000Y-79379634D01*
X155080330Y-79694415D01*
X155566511Y-80019271D01*
X156140000Y-80133345D01*
X156713489Y-80019271D01*
X157199670Y-79694415D01*
X157209243Y-79680087D01*
X157213238Y-79701317D01*
X157352310Y-79917441D01*
X157564510Y-80062431D01*
X157795000Y-80109106D01*
X157795000Y-83165000D01*
X157783750Y-83165000D01*
X157625000Y-83323750D01*
X157625000Y-84123000D01*
X157647000Y-84123000D01*
X157647000Y-84377000D01*
X157625000Y-84377000D01*
X157625000Y-85176250D01*
X157749090Y-85300340D01*
X156924210Y-86125220D01*
X156732367Y-86412335D01*
X156727134Y-86438643D01*
X156664999Y-86751010D01*
X156665000Y-86751015D01*
X156665000Y-87265000D01*
X156400005Y-87265000D01*
X156400000Y-87264999D01*
X156061325Y-87332367D01*
X155774210Y-87524210D01*
X155774208Y-87524213D01*
X155495861Y-87802560D01*
X155125000Y-87802560D01*
X154889683Y-87846838D01*
X154673559Y-87985910D01*
X154528569Y-88198110D01*
X154477560Y-88450000D01*
X154477560Y-89132791D01*
X154040801Y-88695270D01*
X153366605Y-88415319D01*
X152636597Y-88414682D01*
X151961914Y-88693455D01*
X151445270Y-89209199D01*
X151165319Y-89883395D01*
X151164682Y-90613403D01*
X151443455Y-91288086D01*
X151959199Y-91804730D01*
X152633395Y-92084681D01*
X153363403Y-92085318D01*
X154038086Y-91806545D01*
X154490000Y-91355418D01*
X154490000Y-91676309D01*
X154586673Y-91909698D01*
X154765301Y-92088327D01*
X154998690Y-92185000D01*
X155214250Y-92185000D01*
X155373000Y-92026250D01*
X155373000Y-91077000D01*
X155353000Y-91077000D01*
X155353000Y-90823000D01*
X155373000Y-90823000D01*
X155373000Y-90803000D01*
X155627000Y-90803000D01*
X155627000Y-90823000D01*
X156351250Y-90823000D01*
X156510000Y-90664250D01*
X156510000Y-90223691D01*
X156413327Y-89990302D01*
X156411957Y-89988932D01*
X156471431Y-89901890D01*
X156522440Y-89650000D01*
X156522440Y-89279140D01*
X156725370Y-89076210D01*
X156760910Y-89131441D01*
X156936232Y-89251233D01*
X156773559Y-89355910D01*
X156628569Y-89568110D01*
X156577560Y-89820000D01*
X156577560Y-90880000D01*
X156621838Y-91115317D01*
X156721305Y-91269893D01*
X156510000Y-91481198D01*
X156510000Y-91235750D01*
X156351250Y-91077000D01*
X155627000Y-91077000D01*
X155627000Y-92026250D01*
X155785750Y-92185000D01*
X155806198Y-92185000D01*
X155501198Y-92490000D01*
X153484000Y-92490000D01*
X153193160Y-92547852D01*
X152946599Y-92712599D01*
X152462599Y-93196599D01*
X152369080Y-93336560D01*
X151984000Y-93336560D01*
X151748683Y-93380838D01*
X151532559Y-93519910D01*
X151387569Y-93732110D01*
X151336560Y-93984000D01*
X151336560Y-96016000D01*
X151380838Y-96251317D01*
X151519910Y-96467441D01*
X151668837Y-96569198D01*
X151442330Y-96908190D01*
X151316655Y-97540000D01*
X151442330Y-98171810D01*
X151800222Y-98707433D01*
X152335845Y-99065325D01*
X152967655Y-99191000D01*
X153032345Y-99191000D01*
X153664155Y-99065325D01*
X154199778Y-98707433D01*
X154557670Y-98171810D01*
X154607172Y-97922944D01*
X195394025Y-97922944D01*
X195593615Y-98404818D01*
X196031621Y-98877188D01*
X196617054Y-99145983D01*
X196873000Y-99027367D01*
X196873000Y-97667000D01*
X197127000Y-97667000D01*
X197127000Y-99027367D01*
X197382946Y-99145983D01*
X197968379Y-98877188D01*
X198406385Y-98404818D01*
X198605975Y-97922944D01*
X198486836Y-97667000D01*
X197127000Y-97667000D01*
X196873000Y-97667000D01*
X195513164Y-97667000D01*
X195394025Y-97922944D01*
X154607172Y-97922944D01*
X154683345Y-97540000D01*
X154557670Y-96908190D01*
X154330501Y-96568208D01*
X154467441Y-96480090D01*
X154612431Y-96267890D01*
X154663440Y-96016000D01*
X154663440Y-95285750D01*
X195349000Y-95285750D01*
X195349000Y-96142310D01*
X195445673Y-96375699D01*
X195624302Y-96554327D01*
X195683096Y-96578680D01*
X195593615Y-96675182D01*
X195394025Y-97157056D01*
X195513164Y-97413000D01*
X196873000Y-97413000D01*
X196873000Y-95127000D01*
X197127000Y-95127000D01*
X197127000Y-97413000D01*
X198486836Y-97413000D01*
X198605975Y-97157056D01*
X198406385Y-96675182D01*
X198316904Y-96578680D01*
X198375698Y-96554327D01*
X198554327Y-96375699D01*
X198651000Y-96142310D01*
X198651000Y-95285750D01*
X198492250Y-95127000D01*
X197127000Y-95127000D01*
X196873000Y-95127000D01*
X195507750Y-95127000D01*
X195349000Y-95285750D01*
X154663440Y-95285750D01*
X154663440Y-94010000D01*
X165675000Y-94010000D01*
X165965839Y-93952148D01*
X166212401Y-93787401D01*
X170902560Y-89097242D01*
X170902560Y-89150000D01*
X170946838Y-89385317D01*
X171085910Y-89601441D01*
X171298110Y-89746431D01*
X171550000Y-89797440D01*
X173000000Y-89797440D01*
X173235317Y-89753162D01*
X173341244Y-89685000D01*
X173762581Y-89685000D01*
X173819673Y-89742192D01*
X174163201Y-89884838D01*
X174535167Y-89885162D01*
X174878943Y-89743117D01*
X175142192Y-89480327D01*
X175284838Y-89136799D01*
X175284927Y-89035000D01*
X180090198Y-89035000D01*
X180490000Y-89434802D01*
X180490000Y-91708753D01*
X180394959Y-91769910D01*
X180249969Y-91982110D01*
X180198960Y-92234000D01*
X180198960Y-94266000D01*
X180243238Y-94501317D01*
X180382310Y-94717441D01*
X180594510Y-94862431D01*
X180846400Y-94913440D01*
X182573600Y-94913440D01*
X182808917Y-94869162D01*
X183025041Y-94730090D01*
X183170031Y-94517890D01*
X183189232Y-94423073D01*
X183347964Y-94600732D01*
X183875209Y-94854709D01*
X183890974Y-94857358D01*
X184123000Y-94736217D01*
X184123000Y-93377000D01*
X184377000Y-93377000D01*
X184377000Y-94736217D01*
X184609026Y-94857358D01*
X184624791Y-94854709D01*
X185152036Y-94600732D01*
X185520000Y-94188892D01*
X185887964Y-94600732D01*
X186415209Y-94854709D01*
X186430974Y-94857358D01*
X186663000Y-94736217D01*
X186663000Y-93377000D01*
X186917000Y-93377000D01*
X186917000Y-94736217D01*
X187149026Y-94857358D01*
X187164791Y-94854709D01*
X187692036Y-94600732D01*
X188081954Y-94164320D01*
X188189212Y-93857690D01*
X195349000Y-93857690D01*
X195349000Y-94714250D01*
X195507750Y-94873000D01*
X196873000Y-94873000D01*
X196873000Y-93507750D01*
X197127000Y-93507750D01*
X197127000Y-94873000D01*
X198492250Y-94873000D01*
X198651000Y-94714250D01*
X198651000Y-93857690D01*
X198554327Y-93624301D01*
X198375698Y-93445673D01*
X198142309Y-93349000D01*
X197285750Y-93349000D01*
X197127000Y-93507750D01*
X196873000Y-93507750D01*
X196714250Y-93349000D01*
X195857691Y-93349000D01*
X195624302Y-93445673D01*
X195445673Y-93624301D01*
X195349000Y-93857690D01*
X188189212Y-93857690D01*
X188275184Y-93611913D01*
X188130924Y-93377000D01*
X186917000Y-93377000D01*
X186663000Y-93377000D01*
X184377000Y-93377000D01*
X184123000Y-93377000D01*
X184103000Y-93377000D01*
X184103000Y-93123000D01*
X184123000Y-93123000D01*
X184123000Y-91763783D01*
X184377000Y-91763783D01*
X184377000Y-93123000D01*
X186663000Y-93123000D01*
X186663000Y-91763783D01*
X186917000Y-91763783D01*
X186917000Y-93123000D01*
X188130924Y-93123000D01*
X188275184Y-92888087D01*
X188081954Y-92335680D01*
X187692036Y-91899268D01*
X187164791Y-91645291D01*
X187149026Y-91642642D01*
X186917000Y-91763783D01*
X186663000Y-91763783D01*
X186430974Y-91642642D01*
X186415209Y-91645291D01*
X185887964Y-91899268D01*
X185520000Y-92311108D01*
X185152036Y-91899268D01*
X184624791Y-91645291D01*
X184609026Y-91642642D01*
X184377000Y-91763783D01*
X184123000Y-91763783D01*
X183890974Y-91642642D01*
X183875209Y-91645291D01*
X183347964Y-91899268D01*
X183191093Y-92074845D01*
X183176762Y-91998683D01*
X183037690Y-91782559D01*
X182825490Y-91637569D01*
X182573600Y-91586560D01*
X182010000Y-91586560D01*
X182010000Y-90613403D01*
X195164682Y-90613403D01*
X195443455Y-91288086D01*
X195959199Y-91804730D01*
X196633395Y-92084681D01*
X197363403Y-92085318D01*
X198038086Y-91806545D01*
X198554730Y-91290801D01*
X198834681Y-90616605D01*
X198835318Y-89886597D01*
X198556545Y-89211914D01*
X198040801Y-88695270D01*
X197366605Y-88415319D01*
X196636597Y-88414682D01*
X195961914Y-88693455D01*
X195445270Y-89209199D01*
X195165319Y-89883395D01*
X195164682Y-90613403D01*
X182010000Y-90613403D01*
X182010000Y-89595750D01*
X182775000Y-89595750D01*
X182775000Y-89761310D01*
X182871673Y-89994699D01*
X183050302Y-90173327D01*
X183283691Y-90270000D01*
X183654250Y-90270000D01*
X183813000Y-90111250D01*
X183813000Y-89437000D01*
X182933750Y-89437000D01*
X182775000Y-89595750D01*
X182010000Y-89595750D01*
X182010000Y-89434802D01*
X182324802Y-89120000D01*
X182870750Y-89120000D01*
X182933750Y-89183000D01*
X183014051Y-89183000D01*
X183158110Y-89281431D01*
X183410000Y-89332440D01*
X184087000Y-89332440D01*
X184087000Y-89437000D01*
X184067000Y-89437000D01*
X184067000Y-90111250D01*
X184225750Y-90270000D01*
X184596309Y-90270000D01*
X184829698Y-90173327D01*
X185008327Y-89994699D01*
X185039088Y-89920435D01*
X185145910Y-90086441D01*
X185358110Y-90231431D01*
X185610000Y-90282440D01*
X186670000Y-90282440D01*
X186905317Y-90238162D01*
X187121441Y-90099090D01*
X187264306Y-89890000D01*
X188181614Y-89890000D01*
X188308110Y-89976431D01*
X188560000Y-90027440D01*
X189460000Y-90027440D01*
X189695317Y-89983162D01*
X189911441Y-89844090D01*
X190056431Y-89631890D01*
X190107440Y-89380000D01*
X190107440Y-88880000D01*
X190063162Y-88644683D01*
X189924090Y-88428559D01*
X189854289Y-88380866D01*
X189911441Y-88344090D01*
X190056431Y-88131890D01*
X190107440Y-87880000D01*
X190107440Y-87380000D01*
X190063162Y-87144683D01*
X189924090Y-86928559D01*
X189711890Y-86783569D01*
X189460000Y-86732560D01*
X189117817Y-86732560D01*
X189080839Y-86707852D01*
X188790000Y-86650000D01*
X187144669Y-86650000D01*
X187134090Y-86633559D01*
X187025000Y-86559021D01*
X187025000Y-86252440D01*
X187100000Y-86252440D01*
X187335317Y-86208162D01*
X187551441Y-86069090D01*
X187696431Y-85856890D01*
X187747440Y-85605000D01*
X187747440Y-84355000D01*
X187703162Y-84119683D01*
X187564090Y-83903559D01*
X187351890Y-83758569D01*
X187235000Y-83734898D01*
X187235000Y-81090251D01*
X187235001Y-81090246D01*
X187167634Y-80751572D01*
X186983503Y-80476000D01*
X186975790Y-80464456D01*
X186975787Y-80464454D01*
X184087084Y-77575750D01*
X192849000Y-77575750D01*
X192849000Y-78432309D01*
X192945673Y-78665698D01*
X193124301Y-78844327D01*
X193357690Y-78941000D01*
X194214250Y-78941000D01*
X194373000Y-78782250D01*
X194373000Y-77417000D01*
X194627000Y-77417000D01*
X194627000Y-78782250D01*
X194785750Y-78941000D01*
X195642310Y-78941000D01*
X195875699Y-78844327D01*
X196054327Y-78665698D01*
X196151000Y-78432309D01*
X196151000Y-77575750D01*
X195992250Y-77417000D01*
X194627000Y-77417000D01*
X194373000Y-77417000D01*
X193007750Y-77417000D01*
X192849000Y-77575750D01*
X184087084Y-77575750D01*
X182764877Y-76253543D01*
X182764877Y-75635000D01*
X193122239Y-75635000D01*
X193175372Y-75714519D01*
X193124301Y-75735673D01*
X192945673Y-75914302D01*
X192849000Y-76147691D01*
X192849000Y-77004250D01*
X193007750Y-77163000D01*
X194373000Y-77163000D01*
X194373000Y-77143000D01*
X194627000Y-77143000D01*
X194627000Y-77163000D01*
X195992250Y-77163000D01*
X196151000Y-77004250D01*
X196151000Y-76147691D01*
X196054327Y-75914302D01*
X195875699Y-75735673D01*
X195824628Y-75714519D01*
X196025325Y-75414155D01*
X196151000Y-74782345D01*
X196151000Y-74717655D01*
X196025325Y-74085845D01*
X195667433Y-73550222D01*
X195462724Y-73413440D01*
X195516000Y-73413440D01*
X195751317Y-73369162D01*
X195967441Y-73230090D01*
X196112431Y-73017890D01*
X196163440Y-72766000D01*
X196163440Y-70734000D01*
X196119162Y-70498683D01*
X195980090Y-70282559D01*
X195831163Y-70180802D01*
X196057670Y-69841810D01*
X196183345Y-69210000D01*
X196057670Y-68578190D01*
X195699778Y-68042567D01*
X195385000Y-67832239D01*
X195385000Y-67773160D01*
X195317633Y-67434485D01*
X195125790Y-67147370D01*
X195125787Y-67147368D01*
X193895900Y-65917480D01*
X193895900Y-65242774D01*
X197578341Y-65242774D01*
X197780092Y-65653663D01*
X198120782Y-65940902D01*
X198545460Y-66075900D01*
X198820460Y-66075900D01*
X198820460Y-65067900D01*
X197704506Y-65067900D01*
X197578341Y-65242774D01*
X193895900Y-65242774D01*
X193895900Y-64242031D01*
X195146231Y-64242031D01*
X195287892Y-64651949D01*
X195575639Y-64976452D01*
X195949522Y-65160168D01*
X196120460Y-65033634D01*
X196120460Y-64067900D01*
X196374460Y-64067900D01*
X196374460Y-65033634D01*
X196545398Y-65160168D01*
X196919281Y-64976452D01*
X197207028Y-64651949D01*
X197211493Y-64639026D01*
X197578341Y-64639026D01*
X197704506Y-64813900D01*
X198820460Y-64813900D01*
X198820460Y-63805900D01*
X198545460Y-63805900D01*
X198120782Y-63940898D01*
X197780092Y-64228137D01*
X197578341Y-64639026D01*
X197211493Y-64639026D01*
X197348689Y-64242031D01*
X197200023Y-64067900D01*
X196374460Y-64067900D01*
X196120460Y-64067900D01*
X195294897Y-64067900D01*
X195146231Y-64242031D01*
X193895900Y-64242031D01*
X193895900Y-63625900D01*
X195151024Y-63625900D01*
X195146231Y-63639769D01*
X195294897Y-63813900D01*
X196120460Y-63813900D01*
X196120460Y-63793900D01*
X196374460Y-63793900D01*
X196374460Y-63813900D01*
X197200023Y-63813900D01*
X197348689Y-63639769D01*
X197286900Y-63460974D01*
X197373901Y-63404990D01*
X197518891Y-63192790D01*
X197569900Y-62940900D01*
X197569900Y-62929726D01*
X197607460Y-62740900D01*
X197569900Y-62552074D01*
X197569900Y-62540900D01*
X197545516Y-62411311D01*
X197569900Y-62290900D01*
X197569900Y-61890900D01*
X197545516Y-61761311D01*
X197569900Y-61640900D01*
X197569900Y-61240900D01*
X197550010Y-61135195D01*
X197557460Y-61117210D01*
X197557460Y-61049650D01*
X197528456Y-61020646D01*
X197525622Y-61005583D01*
X197386550Y-60789459D01*
X197377862Y-60783523D01*
X197460787Y-60700599D01*
X197511540Y-60578070D01*
X197557460Y-60532150D01*
X197557460Y-60399650D01*
X197511540Y-60353730D01*
X197460787Y-60231201D01*
X197282158Y-60052573D01*
X197253977Y-60040900D01*
X197398710Y-60040900D01*
X197557460Y-59882150D01*
X197557460Y-59814590D01*
X197460787Y-59581201D01*
X197290370Y-59410785D01*
X197348689Y-59242031D01*
X197200023Y-59067900D01*
X196374460Y-59067900D01*
X196374460Y-60040900D01*
X196384276Y-60040900D01*
X196421015Y-60068095D01*
X196374460Y-60114650D01*
X196374460Y-60287900D01*
X196120460Y-60287900D01*
X196120460Y-60114650D01*
X196100460Y-60094650D01*
X196100460Y-60048438D01*
X196110644Y-60040900D01*
X196120460Y-60040900D01*
X196120460Y-59067900D01*
X195294897Y-59067900D01*
X195146231Y-59242031D01*
X195204550Y-59410785D01*
X195034133Y-59581201D01*
X194937460Y-59814590D01*
X194937460Y-59882150D01*
X195069208Y-60013898D01*
X194970260Y-60013898D01*
X194190000Y-59233638D01*
X194190000Y-58749216D01*
X194275317Y-58733162D01*
X194420453Y-58639769D01*
X195146231Y-58639769D01*
X195294897Y-58813900D01*
X196120460Y-58813900D01*
X196120460Y-57848166D01*
X196374460Y-57848166D01*
X196374460Y-58813900D01*
X197200023Y-58813900D01*
X197348689Y-58639769D01*
X197211494Y-58242774D01*
X197578341Y-58242774D01*
X197780092Y-58653663D01*
X198120782Y-58940902D01*
X198545460Y-59075900D01*
X198820460Y-59075900D01*
X198820460Y-58067900D01*
X197704506Y-58067900D01*
X197578341Y-58242774D01*
X197211494Y-58242774D01*
X197207028Y-58229851D01*
X196919281Y-57905348D01*
X196545398Y-57721632D01*
X196374460Y-57848166D01*
X196120460Y-57848166D01*
X195949522Y-57721632D01*
X195575639Y-57905348D01*
X195287892Y-58229851D01*
X195146231Y-58639769D01*
X194420453Y-58639769D01*
X194491441Y-58594090D01*
X194636431Y-58381890D01*
X194687440Y-58130000D01*
X194687440Y-57639026D01*
X197578341Y-57639026D01*
X197704506Y-57813900D01*
X198820460Y-57813900D01*
X198820460Y-56805900D01*
X198545460Y-56805900D01*
X198120782Y-56940898D01*
X197780092Y-57228137D01*
X197578341Y-57639026D01*
X194687440Y-57639026D01*
X194687440Y-57220000D01*
X194643162Y-56984683D01*
X194504090Y-56768559D01*
X194330486Y-56649940D01*
X194414838Y-56446799D01*
X194415162Y-56074833D01*
X194273117Y-55731057D01*
X194037472Y-55495000D01*
X194166310Y-55495000D01*
X194399699Y-55398327D01*
X194578327Y-55219698D01*
X194675000Y-54986309D01*
X194675000Y-54690750D01*
X194516250Y-54532000D01*
X193557000Y-54532000D01*
X193557000Y-54552000D01*
X193303000Y-54552000D01*
X193303000Y-54532000D01*
X192343750Y-54532000D01*
X192297500Y-54578250D01*
X192236250Y-54517000D01*
X191277000Y-54517000D01*
X191277000Y-54537000D01*
X191023000Y-54537000D01*
X191023000Y-54517000D01*
X190063750Y-54517000D01*
X190002500Y-54578250D01*
X189996250Y-54572000D01*
X189037000Y-54572000D01*
X189037000Y-55376250D01*
X189195750Y-55535000D01*
X189646310Y-55535000D01*
X189879699Y-55438327D01*
X190057500Y-55260525D01*
X190180301Y-55383327D01*
X190413690Y-55480000D01*
X190645442Y-55480000D01*
X190386563Y-55738428D01*
X190243917Y-56081956D01*
X190243593Y-56453922D01*
X190304709Y-56601833D01*
X190304683Y-56601838D01*
X190088559Y-56740910D01*
X190012340Y-56852460D01*
X189984090Y-56808559D01*
X189771890Y-56663569D01*
X189520000Y-56612560D01*
X188300000Y-56612560D01*
X188064683Y-56656838D01*
X187848559Y-56795910D01*
X187703569Y-57008110D01*
X187652560Y-57260000D01*
X187652560Y-58170000D01*
X187696838Y-58405317D01*
X187835910Y-58621441D01*
X188043563Y-58763324D01*
X188071729Y-58904921D01*
X188092367Y-59008675D01*
X188251289Y-59246520D01*
X188284210Y-59295790D01*
X190874321Y-61885900D01*
X188067479Y-61885900D01*
X186515790Y-60334210D01*
X186515787Y-60334208D01*
X186389431Y-60207852D01*
X186245789Y-60064209D01*
X186245787Y-60064208D01*
X185775000Y-59593420D01*
X185775000Y-59088386D01*
X185861431Y-58961890D01*
X185912440Y-58710000D01*
X185912440Y-57510000D01*
X185868162Y-57274683D01*
X185801671Y-57171354D01*
X185803327Y-57169698D01*
X185900000Y-56936309D01*
X185900000Y-56495750D01*
X185741250Y-56337000D01*
X185017000Y-56337000D01*
X185017000Y-56357000D01*
X184763000Y-56357000D01*
X184763000Y-56337000D01*
X184038750Y-56337000D01*
X183880000Y-56495750D01*
X183880000Y-56936309D01*
X183976673Y-57169698D01*
X183978043Y-57171068D01*
X183918569Y-57258110D01*
X183867560Y-57510000D01*
X183867560Y-57943877D01*
X183821038Y-57710000D01*
X183870767Y-57460000D01*
X183821038Y-57210000D01*
X183870767Y-56960000D01*
X183811012Y-56659594D01*
X183640846Y-56404921D01*
X183386173Y-56234755D01*
X183085767Y-56175000D01*
X182625000Y-56175000D01*
X182625000Y-55714233D01*
X182579142Y-55483691D01*
X183880000Y-55483691D01*
X183880000Y-55924250D01*
X184038750Y-56083000D01*
X184763000Y-56083000D01*
X184763000Y-55133750D01*
X185017000Y-55133750D01*
X185017000Y-56083000D01*
X185741250Y-56083000D01*
X185900000Y-55924250D01*
X185900000Y-55483691D01*
X185803327Y-55250302D01*
X185624699Y-55071673D01*
X185391310Y-54975000D01*
X185175750Y-54975000D01*
X185017000Y-55133750D01*
X184763000Y-55133750D01*
X184604250Y-54975000D01*
X184388690Y-54975000D01*
X184155301Y-55071673D01*
X183976673Y-55250302D01*
X183880000Y-55483691D01*
X182579142Y-55483691D01*
X182565245Y-55413827D01*
X182395079Y-55159154D01*
X182140406Y-54988988D01*
X181863435Y-54933895D01*
X181982300Y-54815030D01*
X181982300Y-54067000D01*
X182236300Y-54067000D01*
X182236300Y-54815030D01*
X182395050Y-54973780D01*
X182634389Y-54973780D01*
X182867778Y-54877107D01*
X183014135Y-54730750D01*
X187665000Y-54730750D01*
X187665000Y-55026309D01*
X187761673Y-55259698D01*
X187940301Y-55438327D01*
X188173690Y-55535000D01*
X188624250Y-55535000D01*
X188783000Y-55376250D01*
X188783000Y-54572000D01*
X187823750Y-54572000D01*
X187665000Y-54730750D01*
X183014135Y-54730750D01*
X183046407Y-54698479D01*
X183143080Y-54465090D01*
X183143080Y-54225750D01*
X182984330Y-54067000D01*
X182236300Y-54067000D01*
X181982300Y-54067000D01*
X181962300Y-54067000D01*
X181962300Y-53863691D01*
X187665000Y-53863691D01*
X187665000Y-54159250D01*
X187823750Y-54318000D01*
X188783000Y-54318000D01*
X188783000Y-53513750D01*
X189037000Y-53513750D01*
X189037000Y-54318000D01*
X189996250Y-54318000D01*
X190057500Y-54256750D01*
X190063750Y-54263000D01*
X191023000Y-54263000D01*
X191023000Y-53458750D01*
X191277000Y-53458750D01*
X191277000Y-54263000D01*
X192236250Y-54263000D01*
X192282500Y-54216750D01*
X192343750Y-54278000D01*
X193303000Y-54278000D01*
X193303000Y-53473750D01*
X193557000Y-53473750D01*
X193557000Y-54278000D01*
X194516250Y-54278000D01*
X194675000Y-54119250D01*
X194675000Y-53823691D01*
X194578327Y-53590302D01*
X194399699Y-53411673D01*
X194166310Y-53315000D01*
X193715750Y-53315000D01*
X193557000Y-53473750D01*
X193303000Y-53473750D01*
X193144250Y-53315000D01*
X192693690Y-53315000D01*
X192460301Y-53411673D01*
X192297500Y-53574475D01*
X192119699Y-53396673D01*
X191886310Y-53300000D01*
X191435750Y-53300000D01*
X191277000Y-53458750D01*
X191023000Y-53458750D01*
X190864250Y-53300000D01*
X190413690Y-53300000D01*
X190180301Y-53396673D01*
X190002500Y-53574475D01*
X189879699Y-53451673D01*
X189646310Y-53355000D01*
X189195750Y-53355000D01*
X189037000Y-53513750D01*
X188783000Y-53513750D01*
X188624250Y-53355000D01*
X188173690Y-53355000D01*
X187940301Y-53451673D01*
X187761673Y-53630302D01*
X187665000Y-53863691D01*
X181962300Y-53863691D01*
X181962300Y-53813000D01*
X181982300Y-53813000D01*
X181982300Y-53064970D01*
X182236300Y-53064970D01*
X182236300Y-53813000D01*
X182984330Y-53813000D01*
X183143080Y-53654250D01*
X183143080Y-53414910D01*
X183046407Y-53181521D01*
X182867778Y-53002893D01*
X182820438Y-52983284D01*
X182907778Y-52947107D01*
X183086407Y-52768479D01*
X183183080Y-52535090D01*
X183183080Y-52295750D01*
X183024330Y-52137000D01*
X182276300Y-52137000D01*
X182276300Y-52885030D01*
X182346270Y-52955000D01*
X182236300Y-53064970D01*
X181982300Y-53064970D01*
X181912330Y-52995000D01*
X182022300Y-52885030D01*
X182022300Y-52137000D01*
X182002300Y-52137000D01*
X182002300Y-51883000D01*
X182022300Y-51883000D01*
X182022300Y-51134970D01*
X182276300Y-51134970D01*
X182276300Y-51883000D01*
X183024330Y-51883000D01*
X183183080Y-51724250D01*
X183183080Y-51484910D01*
X183086407Y-51251521D01*
X182907778Y-51072893D01*
X182674389Y-50976220D01*
X182435050Y-50976220D01*
X182276300Y-51134970D01*
X182022300Y-51134970D01*
X181863550Y-50976220D01*
X181624211Y-50976220D01*
X181390822Y-51072893D01*
X181389030Y-51074685D01*
X181301370Y-51014789D01*
X181049480Y-50963780D01*
X180251920Y-50963780D01*
X180016603Y-51008058D01*
X179882910Y-51094087D01*
X179691890Y-50963569D01*
X179440000Y-50912560D01*
X178940000Y-50912560D01*
X178704683Y-50956838D01*
X178488559Y-51095910D01*
X178440866Y-51165711D01*
X178404090Y-51108559D01*
X178191890Y-50963569D01*
X177940000Y-50912560D01*
X177440000Y-50912560D01*
X177204683Y-50956838D01*
X176988559Y-51095910D01*
X176866487Y-51274569D01*
X176699161Y-51307852D01*
X176452599Y-51472599D01*
X176287852Y-51719161D01*
X176230000Y-52010000D01*
X176230000Y-52669563D01*
X176287852Y-52960402D01*
X176452599Y-53206964D01*
X176490632Y-53244997D01*
X176455003Y-53244997D01*
X176164163Y-53302849D01*
X175917602Y-53467596D01*
X174882599Y-54502599D01*
X174717852Y-54749161D01*
X174660000Y-55040000D01*
X174660000Y-56385198D01*
X173727000Y-57318198D01*
X173727000Y-50710000D01*
X196694904Y-50710000D01*
X196445270Y-50959199D01*
X196445270Y-50959199D01*
G37*
X196445270Y-50959199D02*
X196165319Y-51633395D01*
X196164682Y-52363403D01*
X196443455Y-53038086D01*
X196959199Y-53554730D01*
X197633395Y-53834681D01*
X198363403Y-53835318D01*
X199038086Y-53556545D01*
X199290000Y-53305070D01*
X199290000Y-56805900D01*
X199074460Y-56805900D01*
X199074460Y-57813900D01*
X199094460Y-57813900D01*
X199094460Y-58067900D01*
X199074460Y-58067900D01*
X199074460Y-59075900D01*
X199290000Y-59075900D01*
X199290000Y-63805900D01*
X199074460Y-63805900D01*
X199074460Y-64813900D01*
X199094460Y-64813900D01*
X199094460Y-65067900D01*
X199074460Y-65067900D01*
X199074460Y-66075900D01*
X199290000Y-66075900D01*
X199290000Y-98930070D01*
X199255074Y-99105655D01*
X199195225Y-99195226D01*
X199105655Y-99255074D01*
X198930070Y-99290000D01*
X151069930Y-99290000D01*
X150894345Y-99255074D01*
X150804774Y-99195225D01*
X150744926Y-99105655D01*
X150710000Y-98930070D01*
X150710000Y-75293341D01*
X150890244Y-75329194D01*
X152674444Y-75329194D01*
X152965283Y-75271342D01*
X153211845Y-75106595D01*
X154129312Y-74189128D01*
X154191486Y-74282179D01*
X154937396Y-75028089D01*
X155183958Y-75192836D01*
X155474797Y-75250688D01*
X158105886Y-75250688D01*
X158410413Y-75555215D01*
X154877350Y-75555215D01*
X154845214Y-75523023D01*
X154501686Y-75380377D01*
X154129720Y-75380053D01*
X153785944Y-75522098D01*
X153522695Y-75784888D01*
X153380049Y-76128416D01*
X153379725Y-76500382D01*
X153498120Y-76786920D01*
X153026511Y-76880729D01*
X152540330Y-77205585D01*
X152215474Y-77691766D01*
X152101400Y-78265255D01*
X152101400Y-78634745D01*
X152215474Y-79208234D01*
X152540330Y-79694415D01*
X152880983Y-79922032D01*
X152897852Y-80006839D01*
X153062599Y-80253401D01*
X155240000Y-82430802D01*
X155240000Y-83421614D01*
X155153569Y-83548110D01*
X155102560Y-83800000D01*
X155102560Y-84700000D01*
X155146838Y-84935317D01*
X155285910Y-85151441D01*
X155498110Y-85296431D01*
X155750000Y-85347440D01*
X156250000Y-85347440D01*
X156485317Y-85303162D01*
X156701441Y-85164090D01*
X156747969Y-85095994D01*
X156890302Y-85238327D01*
X157123691Y-85335000D01*
X157216250Y-85335000D01*
X157375000Y-85176250D01*
X157375000Y-84377000D01*
X157353000Y-84377000D01*
X157353000Y-84123000D01*
X157375000Y-84123000D01*
X157375000Y-83323750D01*
X157216250Y-83165000D01*
X157123691Y-83165000D01*
X156890302Y-83261673D01*
X156760000Y-83391974D01*
X156760000Y-82116000D01*
X156702148Y-81825161D01*
X156537401Y-81578599D01*
X154655802Y-79697000D01*
X154659670Y-79694415D01*
X154870000Y-79379634D01*
X155080330Y-79694415D01*
X155566511Y-80019271D01*
X156140000Y-80133345D01*
X156713489Y-80019271D01*
X157199670Y-79694415D01*
X157209243Y-79680087D01*
X157213238Y-79701317D01*
X157352310Y-79917441D01*
X157564510Y-80062431D01*
X157795000Y-80109106D01*
X157795000Y-83165000D01*
X157783750Y-83165000D01*
X157625000Y-83323750D01*
X157625000Y-84123000D01*
X157647000Y-84123000D01*
X157647000Y-84377000D01*
X157625000Y-84377000D01*
X157625000Y-85176250D01*
X157749090Y-85300340D01*
X156924210Y-86125220D01*
X156732367Y-86412335D01*
X156727134Y-86438643D01*
X156664999Y-86751010D01*
X156665000Y-86751015D01*
X156665000Y-87265000D01*
X156400005Y-87265000D01*
X156400000Y-87264999D01*
X156061325Y-87332367D01*
X155774210Y-87524210D01*
X155774208Y-87524213D01*
X155495861Y-87802560D01*
X155125000Y-87802560D01*
X154889683Y-87846838D01*
X154673559Y-87985910D01*
X154528569Y-88198110D01*
X154477560Y-88450000D01*
X154477560Y-89132791D01*
X154040801Y-88695270D01*
X153366605Y-88415319D01*
X152636597Y-88414682D01*
X151961914Y-88693455D01*
X151445270Y-89209199D01*
X151165319Y-89883395D01*
X151164682Y-90613403D01*
X151443455Y-91288086D01*
X151959199Y-91804730D01*
X152633395Y-92084681D01*
X153363403Y-92085318D01*
X154038086Y-91806545D01*
X154490000Y-91355418D01*
X154490000Y-91676309D01*
X154586673Y-91909698D01*
X154765301Y-92088327D01*
X154998690Y-92185000D01*
X155214250Y-92185000D01*
X155373000Y-92026250D01*
X155373000Y-91077000D01*
X155353000Y-91077000D01*
X155353000Y-90823000D01*
X155373000Y-90823000D01*
X155373000Y-90803000D01*
X155627000Y-90803000D01*
X155627000Y-90823000D01*
X156351250Y-90823000D01*
X156510000Y-90664250D01*
X156510000Y-90223691D01*
X156413327Y-89990302D01*
X156411957Y-89988932D01*
X156471431Y-89901890D01*
X156522440Y-89650000D01*
X156522440Y-89279140D01*
X156725370Y-89076210D01*
X156760910Y-89131441D01*
X156936232Y-89251233D01*
X156773559Y-89355910D01*
X156628569Y-89568110D01*
X156577560Y-89820000D01*
X156577560Y-90880000D01*
X156621838Y-91115317D01*
X156721305Y-91269893D01*
X156510000Y-91481198D01*
X156510000Y-91235750D01*
X156351250Y-91077000D01*
X155627000Y-91077000D01*
X155627000Y-92026250D01*
X155785750Y-92185000D01*
X155806198Y-92185000D01*
X155501198Y-92490000D01*
X153484000Y-92490000D01*
X153193160Y-92547852D01*
X152946599Y-92712599D01*
X152462599Y-93196599D01*
X152369080Y-93336560D01*
X151984000Y-93336560D01*
X151748683Y-93380838D01*
X151532559Y-93519910D01*
X151387569Y-93732110D01*
X151336560Y-93984000D01*
X151336560Y-96016000D01*
X151380838Y-96251317D01*
X151519910Y-96467441D01*
X151668837Y-96569198D01*
X151442330Y-96908190D01*
X151316655Y-97540000D01*
X151442330Y-98171810D01*
X151800222Y-98707433D01*
X152335845Y-99065325D01*
X152967655Y-99191000D01*
X153032345Y-99191000D01*
X153664155Y-99065325D01*
X154199778Y-98707433D01*
X154557670Y-98171810D01*
X154607172Y-97922944D01*
X195394025Y-97922944D01*
X195593615Y-98404818D01*
X196031621Y-98877188D01*
X196617054Y-99145983D01*
X196873000Y-99027367D01*
X196873000Y-97667000D01*
X197127000Y-97667000D01*
X197127000Y-99027367D01*
X197382946Y-99145983D01*
X197968379Y-98877188D01*
X198406385Y-98404818D01*
X198605975Y-97922944D01*
X198486836Y-97667000D01*
X197127000Y-97667000D01*
X196873000Y-97667000D01*
X195513164Y-97667000D01*
X195394025Y-97922944D01*
X154607172Y-97922944D01*
X154683345Y-97540000D01*
X154557670Y-96908190D01*
X154330501Y-96568208D01*
X154467441Y-96480090D01*
X154612431Y-96267890D01*
X154663440Y-96016000D01*
X154663440Y-95285750D01*
X195349000Y-95285750D01*
X195349000Y-96142310D01*
X195445673Y-96375699D01*
X195624302Y-96554327D01*
X195683096Y-96578680D01*
X195593615Y-96675182D01*
X195394025Y-97157056D01*
X195513164Y-97413000D01*
X196873000Y-97413000D01*
X196873000Y-95127000D01*
X197127000Y-95127000D01*
X197127000Y-97413000D01*
X198486836Y-97413000D01*
X198605975Y-97157056D01*
X198406385Y-96675182D01*
X198316904Y-96578680D01*
X198375698Y-96554327D01*
X198554327Y-96375699D01*
X198651000Y-96142310D01*
X198651000Y-95285750D01*
X198492250Y-95127000D01*
X197127000Y-95127000D01*
X196873000Y-95127000D01*
X195507750Y-95127000D01*
X195349000Y-95285750D01*
X154663440Y-95285750D01*
X154663440Y-94010000D01*
X165675000Y-94010000D01*
X165965839Y-93952148D01*
X166212401Y-93787401D01*
X170902560Y-89097242D01*
X170902560Y-89150000D01*
X170946838Y-89385317D01*
X171085910Y-89601441D01*
X171298110Y-89746431D01*
X171550000Y-89797440D01*
X173000000Y-89797440D01*
X173235317Y-89753162D01*
X173341244Y-89685000D01*
X173762581Y-89685000D01*
X173819673Y-89742192D01*
X174163201Y-89884838D01*
X174535167Y-89885162D01*
X174878943Y-89743117D01*
X175142192Y-89480327D01*
X175284838Y-89136799D01*
X175284927Y-89035000D01*
X180090198Y-89035000D01*
X180490000Y-89434802D01*
X180490000Y-91708753D01*
X180394959Y-91769910D01*
X180249969Y-91982110D01*
X180198960Y-92234000D01*
X180198960Y-94266000D01*
X180243238Y-94501317D01*
X180382310Y-94717441D01*
X180594510Y-94862431D01*
X180846400Y-94913440D01*
X182573600Y-94913440D01*
X182808917Y-94869162D01*
X183025041Y-94730090D01*
X183170031Y-94517890D01*
X183189232Y-94423073D01*
X183347964Y-94600732D01*
X183875209Y-94854709D01*
X183890974Y-94857358D01*
X184123000Y-94736217D01*
X184123000Y-93377000D01*
X184377000Y-93377000D01*
X184377000Y-94736217D01*
X184609026Y-94857358D01*
X184624791Y-94854709D01*
X185152036Y-94600732D01*
X185520000Y-94188892D01*
X185887964Y-94600732D01*
X186415209Y-94854709D01*
X186430974Y-94857358D01*
X186663000Y-94736217D01*
X186663000Y-93377000D01*
X186917000Y-93377000D01*
X186917000Y-94736217D01*
X187149026Y-94857358D01*
X187164791Y-94854709D01*
X187692036Y-94600732D01*
X188081954Y-94164320D01*
X188189212Y-93857690D01*
X195349000Y-93857690D01*
X195349000Y-94714250D01*
X195507750Y-94873000D01*
X196873000Y-94873000D01*
X196873000Y-93507750D01*
X197127000Y-93507750D01*
X197127000Y-94873000D01*
X198492250Y-94873000D01*
X198651000Y-94714250D01*
X198651000Y-93857690D01*
X198554327Y-93624301D01*
X198375698Y-93445673D01*
X198142309Y-93349000D01*
X197285750Y-93349000D01*
X197127000Y-93507750D01*
X196873000Y-93507750D01*
X196714250Y-93349000D01*
X195857691Y-93349000D01*
X195624302Y-93445673D01*
X195445673Y-93624301D01*
X195349000Y-93857690D01*
X188189212Y-93857690D01*
X188275184Y-93611913D01*
X188130924Y-93377000D01*
X186917000Y-93377000D01*
X186663000Y-93377000D01*
X184377000Y-93377000D01*
X184123000Y-93377000D01*
X184103000Y-93377000D01*
X184103000Y-93123000D01*
X184123000Y-93123000D01*
X184123000Y-91763783D01*
X184377000Y-91763783D01*
X184377000Y-93123000D01*
X186663000Y-93123000D01*
X186663000Y-91763783D01*
X186917000Y-91763783D01*
X186917000Y-93123000D01*
X188130924Y-93123000D01*
X188275184Y-92888087D01*
X188081954Y-92335680D01*
X187692036Y-91899268D01*
X187164791Y-91645291D01*
X187149026Y-91642642D01*
X186917000Y-91763783D01*
X186663000Y-91763783D01*
X186430974Y-91642642D01*
X186415209Y-91645291D01*
X185887964Y-91899268D01*
X185520000Y-92311108D01*
X185152036Y-91899268D01*
X184624791Y-91645291D01*
X184609026Y-91642642D01*
X184377000Y-91763783D01*
X184123000Y-91763783D01*
X183890974Y-91642642D01*
X183875209Y-91645291D01*
X183347964Y-91899268D01*
X183191093Y-92074845D01*
X183176762Y-91998683D01*
X183037690Y-91782559D01*
X182825490Y-91637569D01*
X182573600Y-91586560D01*
X182010000Y-91586560D01*
X182010000Y-90613403D01*
X195164682Y-90613403D01*
X195443455Y-91288086D01*
X195959199Y-91804730D01*
X196633395Y-92084681D01*
X197363403Y-92085318D01*
X198038086Y-91806545D01*
X198554730Y-91290801D01*
X198834681Y-90616605D01*
X198835318Y-89886597D01*
X198556545Y-89211914D01*
X198040801Y-88695270D01*
X197366605Y-88415319D01*
X196636597Y-88414682D01*
X195961914Y-88693455D01*
X195445270Y-89209199D01*
X195165319Y-89883395D01*
X195164682Y-90613403D01*
X182010000Y-90613403D01*
X182010000Y-89595750D01*
X182775000Y-89595750D01*
X182775000Y-89761310D01*
X182871673Y-89994699D01*
X183050302Y-90173327D01*
X183283691Y-90270000D01*
X183654250Y-90270000D01*
X183813000Y-90111250D01*
X183813000Y-89437000D01*
X182933750Y-89437000D01*
X182775000Y-89595750D01*
X182010000Y-89595750D01*
X182010000Y-89434802D01*
X182324802Y-89120000D01*
X182870750Y-89120000D01*
X182933750Y-89183000D01*
X183014051Y-89183000D01*
X183158110Y-89281431D01*
X183410000Y-89332440D01*
X184087000Y-89332440D01*
X184087000Y-89437000D01*
X184067000Y-89437000D01*
X184067000Y-90111250D01*
X184225750Y-90270000D01*
X184596309Y-90270000D01*
X184829698Y-90173327D01*
X185008327Y-89994699D01*
X185039088Y-89920435D01*
X185145910Y-90086441D01*
X185358110Y-90231431D01*
X185610000Y-90282440D01*
X186670000Y-90282440D01*
X186905317Y-90238162D01*
X187121441Y-90099090D01*
X187264306Y-89890000D01*
X188181614Y-89890000D01*
X188308110Y-89976431D01*
X188560000Y-90027440D01*
X189460000Y-90027440D01*
X189695317Y-89983162D01*
X189911441Y-89844090D01*
X190056431Y-89631890D01*
X190107440Y-89380000D01*
X190107440Y-88880000D01*
X190063162Y-88644683D01*
X189924090Y-88428559D01*
X189854289Y-88380866D01*
X189911441Y-88344090D01*
X190056431Y-88131890D01*
X190107440Y-87880000D01*
X190107440Y-87380000D01*
X190063162Y-87144683D01*
X189924090Y-86928559D01*
X189711890Y-86783569D01*
X189460000Y-86732560D01*
X189117817Y-86732560D01*
X189080839Y-86707852D01*
X188790000Y-86650000D01*
X187144669Y-86650000D01*
X187134090Y-86633559D01*
X187025000Y-86559021D01*
X187025000Y-86252440D01*
X187100000Y-86252440D01*
X187335317Y-86208162D01*
X187551441Y-86069090D01*
X187696431Y-85856890D01*
X187747440Y-85605000D01*
X187747440Y-84355000D01*
X187703162Y-84119683D01*
X187564090Y-83903559D01*
X187351890Y-83758569D01*
X187235000Y-83734898D01*
X187235000Y-81090251D01*
X187235001Y-81090246D01*
X187167634Y-80751572D01*
X186983503Y-80476000D01*
X186975790Y-80464456D01*
X186975787Y-80464454D01*
X184087084Y-77575750D01*
X192849000Y-77575750D01*
X192849000Y-78432309D01*
X192945673Y-78665698D01*
X193124301Y-78844327D01*
X193357690Y-78941000D01*
X194214250Y-78941000D01*
X194373000Y-78782250D01*
X194373000Y-77417000D01*
X194627000Y-77417000D01*
X194627000Y-78782250D01*
X194785750Y-78941000D01*
X195642310Y-78941000D01*
X195875699Y-78844327D01*
X196054327Y-78665698D01*
X196151000Y-78432309D01*
X196151000Y-77575750D01*
X195992250Y-77417000D01*
X194627000Y-77417000D01*
X194373000Y-77417000D01*
X193007750Y-77417000D01*
X192849000Y-77575750D01*
X184087084Y-77575750D01*
X182764877Y-76253543D01*
X182764877Y-75635000D01*
X193122239Y-75635000D01*
X193175372Y-75714519D01*
X193124301Y-75735673D01*
X192945673Y-75914302D01*
X192849000Y-76147691D01*
X192849000Y-77004250D01*
X193007750Y-77163000D01*
X194373000Y-77163000D01*
X194373000Y-77143000D01*
X194627000Y-77143000D01*
X194627000Y-77163000D01*
X195992250Y-77163000D01*
X196151000Y-77004250D01*
X196151000Y-76147691D01*
X196054327Y-75914302D01*
X195875699Y-75735673D01*
X195824628Y-75714519D01*
X196025325Y-75414155D01*
X196151000Y-74782345D01*
X196151000Y-74717655D01*
X196025325Y-74085845D01*
X195667433Y-73550222D01*
X195462724Y-73413440D01*
X195516000Y-73413440D01*
X195751317Y-73369162D01*
X195967441Y-73230090D01*
X196112431Y-73017890D01*
X196163440Y-72766000D01*
X196163440Y-70734000D01*
X196119162Y-70498683D01*
X195980090Y-70282559D01*
X195831163Y-70180802D01*
X196057670Y-69841810D01*
X196183345Y-69210000D01*
X196057670Y-68578190D01*
X195699778Y-68042567D01*
X195385000Y-67832239D01*
X195385000Y-67773160D01*
X195317633Y-67434485D01*
X195125790Y-67147370D01*
X195125787Y-67147368D01*
X193895900Y-65917480D01*
X193895900Y-65242774D01*
X197578341Y-65242774D01*
X197780092Y-65653663D01*
X198120782Y-65940902D01*
X198545460Y-66075900D01*
X198820460Y-66075900D01*
X198820460Y-65067900D01*
X197704506Y-65067900D01*
X197578341Y-65242774D01*
X193895900Y-65242774D01*
X193895900Y-64242031D01*
X195146231Y-64242031D01*
X195287892Y-64651949D01*
X195575639Y-64976452D01*
X195949522Y-65160168D01*
X196120460Y-65033634D01*
X196120460Y-64067900D01*
X196374460Y-64067900D01*
X196374460Y-65033634D01*
X196545398Y-65160168D01*
X196919281Y-64976452D01*
X197207028Y-64651949D01*
X197211493Y-64639026D01*
X197578341Y-64639026D01*
X197704506Y-64813900D01*
X198820460Y-64813900D01*
X198820460Y-63805900D01*
X198545460Y-63805900D01*
X198120782Y-63940898D01*
X197780092Y-64228137D01*
X197578341Y-64639026D01*
X197211493Y-64639026D01*
X197348689Y-64242031D01*
X197200023Y-64067900D01*
X196374460Y-64067900D01*
X196120460Y-64067900D01*
X195294897Y-64067900D01*
X195146231Y-64242031D01*
X193895900Y-64242031D01*
X193895900Y-63625900D01*
X195151024Y-63625900D01*
X195146231Y-63639769D01*
X195294897Y-63813900D01*
X196120460Y-63813900D01*
X196120460Y-63793900D01*
X196374460Y-63793900D01*
X196374460Y-63813900D01*
X197200023Y-63813900D01*
X197348689Y-63639769D01*
X197286900Y-63460974D01*
X197373901Y-63404990D01*
X197518891Y-63192790D01*
X197569900Y-62940900D01*
X197569900Y-62929726D01*
X197607460Y-62740900D01*
X197569900Y-62552074D01*
X197569900Y-62540900D01*
X197545516Y-62411311D01*
X197569900Y-62290900D01*
X197569900Y-61890900D01*
X197545516Y-61761311D01*
X197569900Y-61640900D01*
X197569900Y-61240900D01*
X197550010Y-61135195D01*
X197557460Y-61117210D01*
X197557460Y-61049650D01*
X197528456Y-61020646D01*
X197525622Y-61005583D01*
X197386550Y-60789459D01*
X197377862Y-60783523D01*
X197460787Y-60700599D01*
X197511540Y-60578070D01*
X197557460Y-60532150D01*
X197557460Y-60399650D01*
X197511540Y-60353730D01*
X197460787Y-60231201D01*
X197282158Y-60052573D01*
X197253977Y-60040900D01*
X197398710Y-60040900D01*
X197557460Y-59882150D01*
X197557460Y-59814590D01*
X197460787Y-59581201D01*
X197290370Y-59410785D01*
X197348689Y-59242031D01*
X197200023Y-59067900D01*
X196374460Y-59067900D01*
X196374460Y-60040900D01*
X196384276Y-60040900D01*
X196421015Y-60068095D01*
X196374460Y-60114650D01*
X196374460Y-60287900D01*
X196120460Y-60287900D01*
X196120460Y-60114650D01*
X196100460Y-60094650D01*
X196100460Y-60048438D01*
X196110644Y-60040900D01*
X196120460Y-60040900D01*
X196120460Y-59067900D01*
X195294897Y-59067900D01*
X195146231Y-59242031D01*
X195204550Y-59410785D01*
X195034133Y-59581201D01*
X194937460Y-59814590D01*
X194937460Y-59882150D01*
X195069208Y-60013898D01*
X194970260Y-60013898D01*
X194190000Y-59233638D01*
X194190000Y-58749216D01*
X194275317Y-58733162D01*
X194420453Y-58639769D01*
X195146231Y-58639769D01*
X195294897Y-58813900D01*
X196120460Y-58813900D01*
X196120460Y-57848166D01*
X196374460Y-57848166D01*
X196374460Y-58813900D01*
X197200023Y-58813900D01*
X197348689Y-58639769D01*
X197211494Y-58242774D01*
X197578341Y-58242774D01*
X197780092Y-58653663D01*
X198120782Y-58940902D01*
X198545460Y-59075900D01*
X198820460Y-59075900D01*
X198820460Y-58067900D01*
X197704506Y-58067900D01*
X197578341Y-58242774D01*
X197211494Y-58242774D01*
X197207028Y-58229851D01*
X196919281Y-57905348D01*
X196545398Y-57721632D01*
X196374460Y-57848166D01*
X196120460Y-57848166D01*
X195949522Y-57721632D01*
X195575639Y-57905348D01*
X195287892Y-58229851D01*
X195146231Y-58639769D01*
X194420453Y-58639769D01*
X194491441Y-58594090D01*
X194636431Y-58381890D01*
X194687440Y-58130000D01*
X194687440Y-57639026D01*
X197578341Y-57639026D01*
X197704506Y-57813900D01*
X198820460Y-57813900D01*
X198820460Y-56805900D01*
X198545460Y-56805900D01*
X198120782Y-56940898D01*
X197780092Y-57228137D01*
X197578341Y-57639026D01*
X194687440Y-57639026D01*
X194687440Y-57220000D01*
X194643162Y-56984683D01*
X194504090Y-56768559D01*
X194330486Y-56649940D01*
X194414838Y-56446799D01*
X194415162Y-56074833D01*
X194273117Y-55731057D01*
X194037472Y-55495000D01*
X194166310Y-55495000D01*
X194399699Y-55398327D01*
X194578327Y-55219698D01*
X194675000Y-54986309D01*
X194675000Y-54690750D01*
X194516250Y-54532000D01*
X193557000Y-54532000D01*
X193557000Y-54552000D01*
X193303000Y-54552000D01*
X193303000Y-54532000D01*
X192343750Y-54532000D01*
X192297500Y-54578250D01*
X192236250Y-54517000D01*
X191277000Y-54517000D01*
X191277000Y-54537000D01*
X191023000Y-54537000D01*
X191023000Y-54517000D01*
X190063750Y-54517000D01*
X190002500Y-54578250D01*
X189996250Y-54572000D01*
X189037000Y-54572000D01*
X189037000Y-55376250D01*
X189195750Y-55535000D01*
X189646310Y-55535000D01*
X189879699Y-55438327D01*
X190057500Y-55260525D01*
X190180301Y-55383327D01*
X190413690Y-55480000D01*
X190645442Y-55480000D01*
X190386563Y-55738428D01*
X190243917Y-56081956D01*
X190243593Y-56453922D01*
X190304709Y-56601833D01*
X190304683Y-56601838D01*
X190088559Y-56740910D01*
X190012340Y-56852460D01*
X189984090Y-56808559D01*
X189771890Y-56663569D01*
X189520000Y-56612560D01*
X188300000Y-56612560D01*
X188064683Y-56656838D01*
X187848559Y-56795910D01*
X187703569Y-57008110D01*
X187652560Y-57260000D01*
X187652560Y-58170000D01*
X187696838Y-58405317D01*
X187835910Y-58621441D01*
X188043563Y-58763324D01*
X188071729Y-58904921D01*
X188092367Y-59008675D01*
X188251289Y-59246520D01*
X188284210Y-59295790D01*
X190874321Y-61885900D01*
X188067479Y-61885900D01*
X186515790Y-60334210D01*
X186515787Y-60334208D01*
X186389431Y-60207852D01*
X186245789Y-60064209D01*
X186245787Y-60064208D01*
X185775000Y-59593420D01*
X185775000Y-59088386D01*
X185861431Y-58961890D01*
X185912440Y-58710000D01*
X185912440Y-57510000D01*
X185868162Y-57274683D01*
X185801671Y-57171354D01*
X185803327Y-57169698D01*
X185900000Y-56936309D01*
X185900000Y-56495750D01*
X185741250Y-56337000D01*
X185017000Y-56337000D01*
X185017000Y-56357000D01*
X184763000Y-56357000D01*
X184763000Y-56337000D01*
X184038750Y-56337000D01*
X183880000Y-56495750D01*
X183880000Y-56936309D01*
X183976673Y-57169698D01*
X183978043Y-57171068D01*
X183918569Y-57258110D01*
X183867560Y-57510000D01*
X183867560Y-57943877D01*
X183821038Y-57710000D01*
X183870767Y-57460000D01*
X183821038Y-57210000D01*
X183870767Y-56960000D01*
X183811012Y-56659594D01*
X183640846Y-56404921D01*
X183386173Y-56234755D01*
X183085767Y-56175000D01*
X182625000Y-56175000D01*
X182625000Y-55714233D01*
X182579142Y-55483691D01*
X183880000Y-55483691D01*
X183880000Y-55924250D01*
X184038750Y-56083000D01*
X184763000Y-56083000D01*
X184763000Y-55133750D01*
X185017000Y-55133750D01*
X185017000Y-56083000D01*
X185741250Y-56083000D01*
X185900000Y-55924250D01*
X185900000Y-55483691D01*
X185803327Y-55250302D01*
X185624699Y-55071673D01*
X185391310Y-54975000D01*
X185175750Y-54975000D01*
X185017000Y-55133750D01*
X184763000Y-55133750D01*
X184604250Y-54975000D01*
X184388690Y-54975000D01*
X184155301Y-55071673D01*
X183976673Y-55250302D01*
X183880000Y-55483691D01*
X182579142Y-55483691D01*
X182565245Y-55413827D01*
X182395079Y-55159154D01*
X182140406Y-54988988D01*
X181863435Y-54933895D01*
X181982300Y-54815030D01*
X181982300Y-54067000D01*
X182236300Y-54067000D01*
X182236300Y-54815030D01*
X182395050Y-54973780D01*
X182634389Y-54973780D01*
X182867778Y-54877107D01*
X183014135Y-54730750D01*
X187665000Y-54730750D01*
X187665000Y-55026309D01*
X187761673Y-55259698D01*
X187940301Y-55438327D01*
X188173690Y-55535000D01*
X188624250Y-55535000D01*
X188783000Y-55376250D01*
X188783000Y-54572000D01*
X187823750Y-54572000D01*
X187665000Y-54730750D01*
X183014135Y-54730750D01*
X183046407Y-54698479D01*
X183143080Y-54465090D01*
X183143080Y-54225750D01*
X182984330Y-54067000D01*
X182236300Y-54067000D01*
X181982300Y-54067000D01*
X181962300Y-54067000D01*
X181962300Y-53863691D01*
X187665000Y-53863691D01*
X187665000Y-54159250D01*
X187823750Y-54318000D01*
X188783000Y-54318000D01*
X188783000Y-53513750D01*
X189037000Y-53513750D01*
X189037000Y-54318000D01*
X189996250Y-54318000D01*
X190057500Y-54256750D01*
X190063750Y-54263000D01*
X191023000Y-54263000D01*
X191023000Y-53458750D01*
X191277000Y-53458750D01*
X191277000Y-54263000D01*
X192236250Y-54263000D01*
X192282500Y-54216750D01*
X192343750Y-54278000D01*
X193303000Y-54278000D01*
X193303000Y-53473750D01*
X193557000Y-53473750D01*
X193557000Y-54278000D01*
X194516250Y-54278000D01*
X194675000Y-54119250D01*
X194675000Y-53823691D01*
X194578327Y-53590302D01*
X194399699Y-53411673D01*
X194166310Y-53315000D01*
X193715750Y-53315000D01*
X193557000Y-53473750D01*
X193303000Y-53473750D01*
X193144250Y-53315000D01*
X192693690Y-53315000D01*
X192460301Y-53411673D01*
X192297500Y-53574475D01*
X192119699Y-53396673D01*
X191886310Y-53300000D01*
X191435750Y-53300000D01*
X191277000Y-53458750D01*
X191023000Y-53458750D01*
X190864250Y-53300000D01*
X190413690Y-53300000D01*
X190180301Y-53396673D01*
X190002500Y-53574475D01*
X189879699Y-53451673D01*
X189646310Y-53355000D01*
X189195750Y-53355000D01*
X189037000Y-53513750D01*
X188783000Y-53513750D01*
X188624250Y-53355000D01*
X188173690Y-53355000D01*
X187940301Y-53451673D01*
X187761673Y-53630302D01*
X187665000Y-53863691D01*
X181962300Y-53863691D01*
X181962300Y-53813000D01*
X181982300Y-53813000D01*
X181982300Y-53064970D01*
X182236300Y-53064970D01*
X182236300Y-53813000D01*
X182984330Y-53813000D01*
X183143080Y-53654250D01*
X183143080Y-53414910D01*
X183046407Y-53181521D01*
X182867778Y-53002893D01*
X182820438Y-52983284D01*
X182907778Y-52947107D01*
X183086407Y-52768479D01*
X183183080Y-52535090D01*
X183183080Y-52295750D01*
X183024330Y-52137000D01*
X182276300Y-52137000D01*
X182276300Y-52885030D01*
X182346270Y-52955000D01*
X182236300Y-53064970D01*
X181982300Y-53064970D01*
X181912330Y-52995000D01*
X182022300Y-52885030D01*
X182022300Y-52137000D01*
X182002300Y-52137000D01*
X182002300Y-51883000D01*
X182022300Y-51883000D01*
X182022300Y-51134970D01*
X182276300Y-51134970D01*
X182276300Y-51883000D01*
X183024330Y-51883000D01*
X183183080Y-51724250D01*
X183183080Y-51484910D01*
X183086407Y-51251521D01*
X182907778Y-51072893D01*
X182674389Y-50976220D01*
X182435050Y-50976220D01*
X182276300Y-51134970D01*
X182022300Y-51134970D01*
X181863550Y-50976220D01*
X181624211Y-50976220D01*
X181390822Y-51072893D01*
X181389030Y-51074685D01*
X181301370Y-51014789D01*
X181049480Y-50963780D01*
X180251920Y-50963780D01*
X180016603Y-51008058D01*
X179882910Y-51094087D01*
X179691890Y-50963569D01*
X179440000Y-50912560D01*
X178940000Y-50912560D01*
X178704683Y-50956838D01*
X178488559Y-51095910D01*
X178440866Y-51165711D01*
X178404090Y-51108559D01*
X178191890Y-50963569D01*
X177940000Y-50912560D01*
X177440000Y-50912560D01*
X177204683Y-50956838D01*
X176988559Y-51095910D01*
X176866487Y-51274569D01*
X176699161Y-51307852D01*
X176452599Y-51472599D01*
X176287852Y-51719161D01*
X176230000Y-52010000D01*
X176230000Y-52669563D01*
X176287852Y-52960402D01*
X176452599Y-53206964D01*
X176490632Y-53244997D01*
X176455003Y-53244997D01*
X176164163Y-53302849D01*
X175917602Y-53467596D01*
X174882599Y-54502599D01*
X174717852Y-54749161D01*
X174660000Y-55040000D01*
X174660000Y-56385198D01*
X173727000Y-57318198D01*
X173727000Y-50710000D01*
X196694904Y-50710000D01*
X196445270Y-50959199D01*
G36*
X164382799Y-82942999D02*
X164412202Y-82987004D01*
X167115000Y-85689802D01*
X167115000Y-86109146D01*
X166914683Y-86146838D01*
X166698559Y-86285910D01*
X166553569Y-86498110D01*
X166502560Y-86750000D01*
X166502560Y-87200000D01*
X166515980Y-87271323D01*
X166515000Y-87273690D01*
X166515000Y-87353750D01*
X166535312Y-87374062D01*
X166546838Y-87435317D01*
X166672059Y-87629916D01*
X166611673Y-87690301D01*
X166534403Y-87876847D01*
X166515000Y-87896250D01*
X166515000Y-88003750D01*
X166534403Y-88023153D01*
X166611673Y-88209699D01*
X166676974Y-88275000D01*
X166611673Y-88340301D01*
X166534403Y-88526847D01*
X166515000Y-88546250D01*
X166515000Y-88653750D01*
X166534403Y-88673153D01*
X166611673Y-88859699D01*
X166789475Y-89037500D01*
X166673750Y-89037500D01*
X166515000Y-89196250D01*
X166515000Y-89276310D01*
X166611673Y-89509699D01*
X166790302Y-89688327D01*
X167023691Y-89785000D01*
X167589250Y-89785000D01*
X167748000Y-89626250D01*
X167748000Y-89037500D01*
X167686750Y-89037500D01*
X167748000Y-88976250D01*
X167748000Y-88128000D01*
X168002000Y-88128000D01*
X168002000Y-88976250D01*
X168022000Y-88996250D01*
X168022000Y-89037500D01*
X168002000Y-89037500D01*
X168002000Y-89626250D01*
X168112974Y-89737224D01*
X165360198Y-92490000D01*
X157650802Y-92490000D01*
X157784802Y-92356000D01*
X158216000Y-92356000D01*
X158506839Y-92298148D01*
X158753401Y-92133401D01*
X159037401Y-91849401D01*
X159202148Y-91602839D01*
X159233369Y-91445881D01*
X159323000Y-91356250D01*
X159323000Y-91275949D01*
X159421431Y-91131890D01*
X159472440Y-90880000D01*
X159472440Y-90477000D01*
X159577000Y-90477000D01*
X159577000Y-91356250D01*
X159735750Y-91515000D01*
X159901310Y-91515000D01*
X160134699Y-91418327D01*
X160313327Y-91239698D01*
X160410000Y-91006309D01*
X160410000Y-90635750D01*
X160251250Y-90477000D01*
X159577000Y-90477000D01*
X159472440Y-90477000D01*
X159472440Y-90203000D01*
X159577000Y-90203000D01*
X159577000Y-90223000D01*
X160251250Y-90223000D01*
X160410000Y-90064250D01*
X160410000Y-89693691D01*
X160313327Y-89460302D01*
X160134699Y-89281673D01*
X160060435Y-89250912D01*
X160184724Y-89170934D01*
X160196838Y-89235317D01*
X160335910Y-89451441D01*
X160548110Y-89596431D01*
X160800000Y-89647440D01*
X161700000Y-89647440D01*
X161935317Y-89603162D01*
X162151441Y-89464090D01*
X162296431Y-89251890D01*
X162347440Y-89000000D01*
X162347440Y-88500000D01*
X162303162Y-88264683D01*
X162164090Y-88048559D01*
X162094289Y-88000866D01*
X162151441Y-87964090D01*
X162296431Y-87751890D01*
X162347440Y-87500000D01*
X162347440Y-87000000D01*
X162303162Y-86764683D01*
X162164090Y-86548559D01*
X161951890Y-86403569D01*
X161700000Y-86352560D01*
X160800000Y-86352560D01*
X160733887Y-86365000D01*
X160616579Y-86365000D01*
X159565000Y-85313420D01*
X159565000Y-80109413D01*
X159778917Y-80069162D01*
X159995041Y-79930090D01*
X160140031Y-79717890D01*
X160191040Y-79466000D01*
X160191040Y-78751240D01*
X164382799Y-82942999D01*
X164382799Y-82942999D01*
G37*
X164382799Y-82942999D02*
X164412202Y-82987004D01*
X167115000Y-85689802D01*
X167115000Y-86109146D01*
X166914683Y-86146838D01*
X166698559Y-86285910D01*
X166553569Y-86498110D01*
X166502560Y-86750000D01*
X166502560Y-87200000D01*
X166515980Y-87271323D01*
X166515000Y-87273690D01*
X166515000Y-87353750D01*
X166535312Y-87374062D01*
X166546838Y-87435317D01*
X166672059Y-87629916D01*
X166611673Y-87690301D01*
X166534403Y-87876847D01*
X166515000Y-87896250D01*
X166515000Y-88003750D01*
X166534403Y-88023153D01*
X166611673Y-88209699D01*
X166676974Y-88275000D01*
X166611673Y-88340301D01*
X166534403Y-88526847D01*
X166515000Y-88546250D01*
X166515000Y-88653750D01*
X166534403Y-88673153D01*
X166611673Y-88859699D01*
X166789475Y-89037500D01*
X166673750Y-89037500D01*
X166515000Y-89196250D01*
X166515000Y-89276310D01*
X166611673Y-89509699D01*
X166790302Y-89688327D01*
X167023691Y-89785000D01*
X167589250Y-89785000D01*
X167748000Y-89626250D01*
X167748000Y-89037500D01*
X167686750Y-89037500D01*
X167748000Y-88976250D01*
X167748000Y-88128000D01*
X168002000Y-88128000D01*
X168002000Y-88976250D01*
X168022000Y-88996250D01*
X168022000Y-89037500D01*
X168002000Y-89037500D01*
X168002000Y-89626250D01*
X168112974Y-89737224D01*
X165360198Y-92490000D01*
X157650802Y-92490000D01*
X157784802Y-92356000D01*
X158216000Y-92356000D01*
X158506839Y-92298148D01*
X158753401Y-92133401D01*
X159037401Y-91849401D01*
X159202148Y-91602839D01*
X159233369Y-91445881D01*
X159323000Y-91356250D01*
X159323000Y-91275949D01*
X159421431Y-91131890D01*
X159472440Y-90880000D01*
X159472440Y-90477000D01*
X159577000Y-90477000D01*
X159577000Y-91356250D01*
X159735750Y-91515000D01*
X159901310Y-91515000D01*
X160134699Y-91418327D01*
X160313327Y-91239698D01*
X160410000Y-91006309D01*
X160410000Y-90635750D01*
X160251250Y-90477000D01*
X159577000Y-90477000D01*
X159472440Y-90477000D01*
X159472440Y-90203000D01*
X159577000Y-90203000D01*
X159577000Y-90223000D01*
X160251250Y-90223000D01*
X160410000Y-90064250D01*
X160410000Y-89693691D01*
X160313327Y-89460302D01*
X160134699Y-89281673D01*
X160060435Y-89250912D01*
X160184724Y-89170934D01*
X160196838Y-89235317D01*
X160335910Y-89451441D01*
X160548110Y-89596431D01*
X160800000Y-89647440D01*
X161700000Y-89647440D01*
X161935317Y-89603162D01*
X162151441Y-89464090D01*
X162296431Y-89251890D01*
X162347440Y-89000000D01*
X162347440Y-88500000D01*
X162303162Y-88264683D01*
X162164090Y-88048559D01*
X162094289Y-88000866D01*
X162151441Y-87964090D01*
X162296431Y-87751890D01*
X162347440Y-87500000D01*
X162347440Y-87000000D01*
X162303162Y-86764683D01*
X162164090Y-86548559D01*
X161951890Y-86403569D01*
X161700000Y-86352560D01*
X160800000Y-86352560D01*
X160733887Y-86365000D01*
X160616579Y-86365000D01*
X159565000Y-85313420D01*
X159565000Y-80109413D01*
X159778917Y-80069162D01*
X159995041Y-79930090D01*
X160140031Y-79717890D01*
X160191040Y-79466000D01*
X160191040Y-78751240D01*
X164382799Y-82942999D01*
G36*
X170505583Y-70665165D02*
X170162276Y-70951882D01*
X169946602Y-71363854D01*
X169946197Y-71390256D01*
X170071639Y-71573000D01*
X171663000Y-71573000D01*
X171663000Y-71553000D01*
X171917000Y-71553000D01*
X171917000Y-71573000D01*
X173508361Y-71573000D01*
X173633803Y-71390256D01*
X173633398Y-71363854D01*
X173417724Y-70951882D01*
X173163309Y-70739405D01*
X173394394Y-70585000D01*
X174227560Y-70585000D01*
X174227560Y-72000000D01*
X174271838Y-72235317D01*
X174410910Y-72451441D01*
X174479006Y-72497969D01*
X174336673Y-72640302D01*
X174240000Y-72873691D01*
X174240000Y-73464250D01*
X174398750Y-73623000D01*
X175373000Y-73623000D01*
X175373000Y-73603000D01*
X175627000Y-73603000D01*
X175627000Y-73623000D01*
X176601250Y-73623000D01*
X176760000Y-73464250D01*
X176760000Y-72873691D01*
X176663327Y-72640302D01*
X176522090Y-72499064D01*
X176576441Y-72464090D01*
X176721431Y-72251890D01*
X176772440Y-72000000D01*
X176772440Y-70595000D01*
X177788420Y-70595000D01*
X178575000Y-71381579D01*
X178575000Y-72080313D01*
X178566387Y-72123612D01*
X178566388Y-72123617D01*
X178566388Y-72344102D01*
X178633755Y-72682777D01*
X178825598Y-72969892D01*
X178893679Y-73015382D01*
X180994877Y-75116579D01*
X180994877Y-76253544D01*
X179874210Y-77374210D01*
X179823867Y-77449554D01*
X171649210Y-85624210D01*
X171457367Y-85911325D01*
X171457367Y-85911326D01*
X171414246Y-86128104D01*
X171314683Y-86146838D01*
X171098559Y-86285910D01*
X170953569Y-86498110D01*
X170902560Y-86750000D01*
X170902560Y-86994080D01*
X170762599Y-87087599D01*
X169235000Y-88615198D01*
X169235000Y-88546250D01*
X169215597Y-88526847D01*
X169138327Y-88340301D01*
X169073026Y-88275000D01*
X169138327Y-88209699D01*
X169215597Y-88023153D01*
X169235000Y-88003750D01*
X169235000Y-87896250D01*
X169215597Y-87876847D01*
X169138327Y-87690301D01*
X169076070Y-87628044D01*
X169196431Y-87451890D01*
X169211558Y-87377192D01*
X169235000Y-87353750D01*
X169235000Y-87273690D01*
X169233333Y-87269665D01*
X169247440Y-87200000D01*
X169247440Y-86750000D01*
X169203162Y-86514683D01*
X169064090Y-86298559D01*
X168851890Y-86153569D01*
X168635000Y-86109648D01*
X168635000Y-85375000D01*
X168577148Y-85084161D01*
X168412401Y-84837599D01*
X166419759Y-82844957D01*
X166744285Y-82845240D01*
X167253515Y-82634831D01*
X167643461Y-82245564D01*
X167854759Y-81736702D01*
X167854992Y-81470001D01*
X171584991Y-81470001D01*
X171584760Y-81734285D01*
X171795169Y-82243515D01*
X172184436Y-82633461D01*
X172693298Y-82844759D01*
X173244285Y-82845240D01*
X173753515Y-82634831D01*
X174143461Y-82245564D01*
X174354759Y-81736702D01*
X174355240Y-81185715D01*
X174144831Y-80676485D01*
X173755564Y-80286539D01*
X173246702Y-80075241D01*
X172695715Y-80074760D01*
X172643353Y-80096395D01*
X172510840Y-80007853D01*
X172220001Y-79950001D01*
X167219999Y-79950001D01*
X166929160Y-80007853D01*
X166797030Y-80096139D01*
X166746702Y-80075241D01*
X166195715Y-80074760D01*
X165686485Y-80285169D01*
X165488055Y-80483253D01*
X162936319Y-77931517D01*
X165678088Y-77931517D01*
X165746077Y-78172460D01*
X166265171Y-78357201D01*
X166815448Y-78329230D01*
X167193923Y-78172460D01*
X167261912Y-77931517D01*
X172178088Y-77931517D01*
X172246077Y-78172460D01*
X172765171Y-78357201D01*
X173315448Y-78329230D01*
X173693923Y-78172460D01*
X173761912Y-77931517D01*
X172970000Y-77139605D01*
X172178088Y-77931517D01*
X167261912Y-77931517D01*
X166470000Y-77139605D01*
X165678088Y-77931517D01*
X162936319Y-77931517D01*
X161759973Y-76755171D01*
X165072799Y-76755171D01*
X165100770Y-77305448D01*
X165257540Y-77683923D01*
X165498483Y-77751912D01*
X166290395Y-76960000D01*
X166649605Y-76960000D01*
X167441517Y-77751912D01*
X167682460Y-77683923D01*
X167867201Y-77164829D01*
X167846378Y-76755171D01*
X171572799Y-76755171D01*
X171600770Y-77305448D01*
X171757540Y-77683923D01*
X171998483Y-77751912D01*
X172790395Y-76960000D01*
X173149605Y-76960000D01*
X173941517Y-77751912D01*
X174182460Y-77683923D01*
X174367201Y-77164829D01*
X174339230Y-76614552D01*
X174182460Y-76236077D01*
X173941517Y-76168088D01*
X173149605Y-76960000D01*
X172790395Y-76960000D01*
X171998483Y-76168088D01*
X171757540Y-76236077D01*
X171572799Y-76755171D01*
X167846378Y-76755171D01*
X167839230Y-76614552D01*
X167682460Y-76236077D01*
X167441517Y-76168088D01*
X166649605Y-76960000D01*
X166290395Y-76960000D01*
X165498483Y-76168088D01*
X165257540Y-76236077D01*
X165072799Y-76755171D01*
X161759973Y-76755171D01*
X160993285Y-75988483D01*
X165678088Y-75988483D01*
X166470000Y-76780395D01*
X167261912Y-75988483D01*
X172178088Y-75988483D01*
X172970000Y-76780395D01*
X173761912Y-75988483D01*
X173693923Y-75747540D01*
X173174829Y-75562799D01*
X172624552Y-75590770D01*
X172246077Y-75747540D01*
X172178088Y-75988483D01*
X167261912Y-75988483D01*
X167193923Y-75747540D01*
X166674829Y-75562799D01*
X166124552Y-75590770D01*
X165746077Y-75747540D01*
X165678088Y-75988483D01*
X160993285Y-75988483D01*
X159845685Y-74840883D01*
X159806741Y-74782599D01*
X159748457Y-74743655D01*
X159589802Y-74585000D01*
X160489995Y-74585000D01*
X160490000Y-74585001D01*
X160772484Y-74528810D01*
X160828675Y-74517633D01*
X161115790Y-74325790D01*
X161431835Y-74009744D01*
X170046197Y-74009744D01*
X170046602Y-74036146D01*
X170262276Y-74448118D01*
X170619187Y-74746196D01*
X171063000Y-74885000D01*
X171763000Y-74885000D01*
X171763000Y-73827000D01*
X172017000Y-73827000D01*
X172017000Y-74885000D01*
X172717000Y-74885000D01*
X173160813Y-74746196D01*
X173517724Y-74448118D01*
X173733398Y-74036146D01*
X173733404Y-74035750D01*
X174240000Y-74035750D01*
X174240000Y-74626309D01*
X174336673Y-74859698D01*
X174515301Y-75038327D01*
X174748690Y-75135000D01*
X175214250Y-75135000D01*
X175373000Y-74976250D01*
X175373000Y-73877000D01*
X175627000Y-73877000D01*
X175627000Y-74976250D01*
X175785750Y-75135000D01*
X176251310Y-75135000D01*
X176484699Y-75038327D01*
X176663327Y-74859698D01*
X176760000Y-74626309D01*
X176760000Y-74035750D01*
X176601250Y-73877000D01*
X175627000Y-73877000D01*
X175373000Y-73877000D01*
X174398750Y-73877000D01*
X174240000Y-74035750D01*
X173733404Y-74035750D01*
X173733803Y-74009744D01*
X173608361Y-73827000D01*
X172017000Y-73827000D01*
X171763000Y-73827000D01*
X170171639Y-73827000D01*
X170046197Y-74009744D01*
X161431835Y-74009744D01*
X163431835Y-72009744D01*
X169946197Y-72009744D01*
X169946602Y-72036146D01*
X170162276Y-72448118D01*
X170513873Y-72741758D01*
X170262276Y-72951882D01*
X170046602Y-73363854D01*
X170046197Y-73390256D01*
X170171639Y-73573000D01*
X171763000Y-73573000D01*
X171763000Y-72515000D01*
X171663000Y-72515000D01*
X171663000Y-71827000D01*
X171917000Y-71827000D01*
X171917000Y-72885000D01*
X172017000Y-72885000D01*
X172017000Y-73573000D01*
X173608361Y-73573000D01*
X173733803Y-73390256D01*
X173733398Y-73363854D01*
X173517724Y-72951882D01*
X173166127Y-72658242D01*
X173417724Y-72448118D01*
X173633398Y-72036146D01*
X173633803Y-72009744D01*
X173508361Y-71827000D01*
X171917000Y-71827000D01*
X171663000Y-71827000D01*
X170071639Y-71827000D01*
X169946197Y-72009744D01*
X163431835Y-72009744D01*
X164856579Y-70585000D01*
X170385606Y-70585000D01*
X170505583Y-70665165D01*
X170505583Y-70665165D01*
G37*
X170505583Y-70665165D02*
X170162276Y-70951882D01*
X169946602Y-71363854D01*
X169946197Y-71390256D01*
X170071639Y-71573000D01*
X171663000Y-71573000D01*
X171663000Y-71553000D01*
X171917000Y-71553000D01*
X171917000Y-71573000D01*
X173508361Y-71573000D01*
X173633803Y-71390256D01*
X173633398Y-71363854D01*
X173417724Y-70951882D01*
X173163309Y-70739405D01*
X173394394Y-70585000D01*
X174227560Y-70585000D01*
X174227560Y-72000000D01*
X174271838Y-72235317D01*
X174410910Y-72451441D01*
X174479006Y-72497969D01*
X174336673Y-72640302D01*
X174240000Y-72873691D01*
X174240000Y-73464250D01*
X174398750Y-73623000D01*
X175373000Y-73623000D01*
X175373000Y-73603000D01*
X175627000Y-73603000D01*
X175627000Y-73623000D01*
X176601250Y-73623000D01*
X176760000Y-73464250D01*
X176760000Y-72873691D01*
X176663327Y-72640302D01*
X176522090Y-72499064D01*
X176576441Y-72464090D01*
X176721431Y-72251890D01*
X176772440Y-72000000D01*
X176772440Y-70595000D01*
X177788420Y-70595000D01*
X178575000Y-71381579D01*
X178575000Y-72080313D01*
X178566387Y-72123612D01*
X178566388Y-72123617D01*
X178566388Y-72344102D01*
X178633755Y-72682777D01*
X178825598Y-72969892D01*
X178893679Y-73015382D01*
X180994877Y-75116579D01*
X180994877Y-76253544D01*
X179874210Y-77374210D01*
X179823867Y-77449554D01*
X171649210Y-85624210D01*
X171457367Y-85911325D01*
X171457367Y-85911326D01*
X171414246Y-86128104D01*
X171314683Y-86146838D01*
X171098559Y-86285910D01*
X170953569Y-86498110D01*
X170902560Y-86750000D01*
X170902560Y-86994080D01*
X170762599Y-87087599D01*
X169235000Y-88615198D01*
X169235000Y-88546250D01*
X169215597Y-88526847D01*
X169138327Y-88340301D01*
X169073026Y-88275000D01*
X169138327Y-88209699D01*
X169215597Y-88023153D01*
X169235000Y-88003750D01*
X169235000Y-87896250D01*
X169215597Y-87876847D01*
X169138327Y-87690301D01*
X169076070Y-87628044D01*
X169196431Y-87451890D01*
X169211558Y-87377192D01*
X169235000Y-87353750D01*
X169235000Y-87273690D01*
X169233333Y-87269665D01*
X169247440Y-87200000D01*
X169247440Y-86750000D01*
X169203162Y-86514683D01*
X169064090Y-86298559D01*
X168851890Y-86153569D01*
X168635000Y-86109648D01*
X168635000Y-85375000D01*
X168577148Y-85084161D01*
X168412401Y-84837599D01*
X166419759Y-82844957D01*
X166744285Y-82845240D01*
X167253515Y-82634831D01*
X167643461Y-82245564D01*
X167854759Y-81736702D01*
X167854992Y-81470001D01*
X171584991Y-81470001D01*
X171584760Y-81734285D01*
X171795169Y-82243515D01*
X172184436Y-82633461D01*
X172693298Y-82844759D01*
X173244285Y-82845240D01*
X173753515Y-82634831D01*
X174143461Y-82245564D01*
X174354759Y-81736702D01*
X174355240Y-81185715D01*
X174144831Y-80676485D01*
X173755564Y-80286539D01*
X173246702Y-80075241D01*
X172695715Y-80074760D01*
X172643353Y-80096395D01*
X172510840Y-80007853D01*
X172220001Y-79950001D01*
X167219999Y-79950001D01*
X166929160Y-80007853D01*
X166797030Y-80096139D01*
X166746702Y-80075241D01*
X166195715Y-80074760D01*
X165686485Y-80285169D01*
X165488055Y-80483253D01*
X162936319Y-77931517D01*
X165678088Y-77931517D01*
X165746077Y-78172460D01*
X166265171Y-78357201D01*
X166815448Y-78329230D01*
X167193923Y-78172460D01*
X167261912Y-77931517D01*
X172178088Y-77931517D01*
X172246077Y-78172460D01*
X172765171Y-78357201D01*
X173315448Y-78329230D01*
X173693923Y-78172460D01*
X173761912Y-77931517D01*
X172970000Y-77139605D01*
X172178088Y-77931517D01*
X167261912Y-77931517D01*
X166470000Y-77139605D01*
X165678088Y-77931517D01*
X162936319Y-77931517D01*
X161759973Y-76755171D01*
X165072799Y-76755171D01*
X165100770Y-77305448D01*
X165257540Y-77683923D01*
X165498483Y-77751912D01*
X166290395Y-76960000D01*
X166649605Y-76960000D01*
X167441517Y-77751912D01*
X167682460Y-77683923D01*
X167867201Y-77164829D01*
X167846378Y-76755171D01*
X171572799Y-76755171D01*
X171600770Y-77305448D01*
X171757540Y-77683923D01*
X171998483Y-77751912D01*
X172790395Y-76960000D01*
X173149605Y-76960000D01*
X173941517Y-77751912D01*
X174182460Y-77683923D01*
X174367201Y-77164829D01*
X174339230Y-76614552D01*
X174182460Y-76236077D01*
X173941517Y-76168088D01*
X173149605Y-76960000D01*
X172790395Y-76960000D01*
X171998483Y-76168088D01*
X171757540Y-76236077D01*
X171572799Y-76755171D01*
X167846378Y-76755171D01*
X167839230Y-76614552D01*
X167682460Y-76236077D01*
X167441517Y-76168088D01*
X166649605Y-76960000D01*
X166290395Y-76960000D01*
X165498483Y-76168088D01*
X165257540Y-76236077D01*
X165072799Y-76755171D01*
X161759973Y-76755171D01*
X160993285Y-75988483D01*
X165678088Y-75988483D01*
X166470000Y-76780395D01*
X167261912Y-75988483D01*
X172178088Y-75988483D01*
X172970000Y-76780395D01*
X173761912Y-75988483D01*
X173693923Y-75747540D01*
X173174829Y-75562799D01*
X172624552Y-75590770D01*
X172246077Y-75747540D01*
X172178088Y-75988483D01*
X167261912Y-75988483D01*
X167193923Y-75747540D01*
X166674829Y-75562799D01*
X166124552Y-75590770D01*
X165746077Y-75747540D01*
X165678088Y-75988483D01*
X160993285Y-75988483D01*
X159845685Y-74840883D01*
X159806741Y-74782599D01*
X159748457Y-74743655D01*
X159589802Y-74585000D01*
X160489995Y-74585000D01*
X160490000Y-74585001D01*
X160772484Y-74528810D01*
X160828675Y-74517633D01*
X161115790Y-74325790D01*
X161431835Y-74009744D01*
X170046197Y-74009744D01*
X170046602Y-74036146D01*
X170262276Y-74448118D01*
X170619187Y-74746196D01*
X171063000Y-74885000D01*
X171763000Y-74885000D01*
X171763000Y-73827000D01*
X172017000Y-73827000D01*
X172017000Y-74885000D01*
X172717000Y-74885000D01*
X173160813Y-74746196D01*
X173517724Y-74448118D01*
X173733398Y-74036146D01*
X173733404Y-74035750D01*
X174240000Y-74035750D01*
X174240000Y-74626309D01*
X174336673Y-74859698D01*
X174515301Y-75038327D01*
X174748690Y-75135000D01*
X175214250Y-75135000D01*
X175373000Y-74976250D01*
X175373000Y-73877000D01*
X175627000Y-73877000D01*
X175627000Y-74976250D01*
X175785750Y-75135000D01*
X176251310Y-75135000D01*
X176484699Y-75038327D01*
X176663327Y-74859698D01*
X176760000Y-74626309D01*
X176760000Y-74035750D01*
X176601250Y-73877000D01*
X175627000Y-73877000D01*
X175373000Y-73877000D01*
X174398750Y-73877000D01*
X174240000Y-74035750D01*
X173733404Y-74035750D01*
X173733803Y-74009744D01*
X173608361Y-73827000D01*
X172017000Y-73827000D01*
X171763000Y-73827000D01*
X170171639Y-73827000D01*
X170046197Y-74009744D01*
X161431835Y-74009744D01*
X163431835Y-72009744D01*
X169946197Y-72009744D01*
X169946602Y-72036146D01*
X170162276Y-72448118D01*
X170513873Y-72741758D01*
X170262276Y-72951882D01*
X170046602Y-73363854D01*
X170046197Y-73390256D01*
X170171639Y-73573000D01*
X171763000Y-73573000D01*
X171763000Y-72515000D01*
X171663000Y-72515000D01*
X171663000Y-71827000D01*
X171917000Y-71827000D01*
X171917000Y-72885000D01*
X172017000Y-72885000D01*
X172017000Y-73573000D01*
X173608361Y-73573000D01*
X173733803Y-73390256D01*
X173733398Y-73363854D01*
X173517724Y-72951882D01*
X173166127Y-72658242D01*
X173417724Y-72448118D01*
X173633398Y-72036146D01*
X173633803Y-72009744D01*
X173508361Y-71827000D01*
X171917000Y-71827000D01*
X171663000Y-71827000D01*
X170071639Y-71827000D01*
X169946197Y-72009744D01*
X163431835Y-72009744D01*
X164856579Y-70585000D01*
X170385606Y-70585000D01*
X170505583Y-70665165D01*
G36*
X185465000Y-81456825D02*
X185465000Y-83732962D01*
X185364683Y-83751838D01*
X185148559Y-83890910D01*
X185102031Y-83959006D01*
X184959698Y-83816673D01*
X184726309Y-83720000D01*
X184135750Y-83720000D01*
X183977000Y-83878750D01*
X183977000Y-84853000D01*
X183997000Y-84853000D01*
X183997000Y-85107000D01*
X183977000Y-85107000D01*
X183977000Y-86081250D01*
X184135750Y-86240000D01*
X184726309Y-86240000D01*
X184959698Y-86143327D01*
X185100936Y-86002090D01*
X185135910Y-86056441D01*
X185255000Y-86137812D01*
X185255000Y-86558852D01*
X185158559Y-86620910D01*
X185038767Y-86796232D01*
X184934090Y-86633559D01*
X184721890Y-86488569D01*
X184470000Y-86437560D01*
X183410000Y-86437560D01*
X183174683Y-86481838D01*
X182958559Y-86620910D01*
X182813569Y-86833110D01*
X182762560Y-87085000D01*
X182762560Y-87600000D01*
X181950000Y-87600000D01*
X181659161Y-87657852D01*
X181412599Y-87822599D01*
X181291780Y-88003418D01*
X181250000Y-88045198D01*
X180942401Y-87737599D01*
X180695839Y-87572852D01*
X180405000Y-87515000D01*
X173647440Y-87515000D01*
X173647440Y-87400000D01*
X173627933Y-87296329D01*
X173647440Y-87200000D01*
X173647440Y-86750000D01*
X173603162Y-86514683D01*
X173469544Y-86307035D01*
X174510829Y-85265750D01*
X182465000Y-85265750D01*
X182465000Y-85731310D01*
X182561673Y-85964699D01*
X182740302Y-86143327D01*
X182973691Y-86240000D01*
X183564250Y-86240000D01*
X183723000Y-86081250D01*
X183723000Y-85107000D01*
X182623750Y-85107000D01*
X182465000Y-85265750D01*
X174510829Y-85265750D01*
X175547889Y-84228690D01*
X182465000Y-84228690D01*
X182465000Y-84694250D01*
X182623750Y-84853000D01*
X183723000Y-84853000D01*
X183723000Y-83878750D01*
X183564250Y-83720000D01*
X182973691Y-83720000D01*
X182740302Y-83816673D01*
X182561673Y-83995301D01*
X182465000Y-84228690D01*
X175547889Y-84228690D01*
X181125787Y-78650792D01*
X181125790Y-78650790D01*
X181176131Y-78575449D01*
X181879877Y-77871703D01*
X185465000Y-81456825D01*
X185465000Y-81456825D01*
G37*
X185465000Y-81456825D02*
X185465000Y-83732962D01*
X185364683Y-83751838D01*
X185148559Y-83890910D01*
X185102031Y-83959006D01*
X184959698Y-83816673D01*
X184726309Y-83720000D01*
X184135750Y-83720000D01*
X183977000Y-83878750D01*
X183977000Y-84853000D01*
X183997000Y-84853000D01*
X183997000Y-85107000D01*
X183977000Y-85107000D01*
X183977000Y-86081250D01*
X184135750Y-86240000D01*
X184726309Y-86240000D01*
X184959698Y-86143327D01*
X185100936Y-86002090D01*
X185135910Y-86056441D01*
X185255000Y-86137812D01*
X185255000Y-86558852D01*
X185158559Y-86620910D01*
X185038767Y-86796232D01*
X184934090Y-86633559D01*
X184721890Y-86488569D01*
X184470000Y-86437560D01*
X183410000Y-86437560D01*
X183174683Y-86481838D01*
X182958559Y-86620910D01*
X182813569Y-86833110D01*
X182762560Y-87085000D01*
X182762560Y-87600000D01*
X181950000Y-87600000D01*
X181659161Y-87657852D01*
X181412599Y-87822599D01*
X181291780Y-88003418D01*
X181250000Y-88045198D01*
X180942401Y-87737599D01*
X180695839Y-87572852D01*
X180405000Y-87515000D01*
X173647440Y-87515000D01*
X173647440Y-87400000D01*
X173627933Y-87296329D01*
X173647440Y-87200000D01*
X173647440Y-86750000D01*
X173603162Y-86514683D01*
X173469544Y-86307035D01*
X174510829Y-85265750D01*
X182465000Y-85265750D01*
X182465000Y-85731310D01*
X182561673Y-85964699D01*
X182740302Y-86143327D01*
X182973691Y-86240000D01*
X183564250Y-86240000D01*
X183723000Y-86081250D01*
X183723000Y-85107000D01*
X182623750Y-85107000D01*
X182465000Y-85265750D01*
X174510829Y-85265750D01*
X175547889Y-84228690D01*
X182465000Y-84228690D01*
X182465000Y-84694250D01*
X182623750Y-84853000D01*
X183723000Y-84853000D01*
X183723000Y-83878750D01*
X183564250Y-83720000D01*
X182973691Y-83720000D01*
X182740302Y-83816673D01*
X182561673Y-83995301D01*
X182465000Y-84228690D01*
X175547889Y-84228690D01*
X181125787Y-78650792D01*
X181125790Y-78650790D01*
X181176131Y-78575449D01*
X181879877Y-77871703D01*
X185465000Y-81456825D01*
G36*
X184727000Y-69143000D02*
X184747000Y-69143000D01*
X184747000Y-69350270D01*
X184727000Y-69350270D01*
X184727000Y-72094480D01*
X186075740Y-72094480D01*
X186134470Y-72035750D01*
X186940000Y-72035750D01*
X186940000Y-72476309D01*
X187036673Y-72709698D01*
X187215301Y-72888327D01*
X187448690Y-72985000D01*
X187664250Y-72985000D01*
X187823000Y-72826250D01*
X187823000Y-71877000D01*
X187098750Y-71877000D01*
X186940000Y-72035750D01*
X186134470Y-72035750D01*
X186234490Y-71935730D01*
X186234490Y-70828421D01*
X186236195Y-70668010D01*
X186601520Y-70668010D01*
X186836837Y-70623732D01*
X186946921Y-70552895D01*
X186971838Y-70685317D01*
X187038329Y-70788646D01*
X187036673Y-70790302D01*
X186940000Y-71023691D01*
X186940000Y-71464250D01*
X187098750Y-71623000D01*
X187823000Y-71623000D01*
X187823000Y-71603000D01*
X188077000Y-71603000D01*
X188077000Y-71623000D01*
X188097000Y-71623000D01*
X188097000Y-71877000D01*
X188077000Y-71877000D01*
X188077000Y-72826250D01*
X188235750Y-72985000D01*
X188451310Y-72985000D01*
X188684699Y-72888327D01*
X188863327Y-72709698D01*
X188960000Y-72476309D01*
X188960000Y-72336579D01*
X189009208Y-72385787D01*
X189009210Y-72385790D01*
X189296326Y-72577633D01*
X189635000Y-72645001D01*
X189685277Y-72635000D01*
X192836560Y-72635000D01*
X192836560Y-72766000D01*
X192880838Y-73001317D01*
X193019910Y-73217441D01*
X193232110Y-73362431D01*
X193484000Y-73413440D01*
X193537276Y-73413440D01*
X193332567Y-73550222D01*
X193122239Y-73865000D01*
X186227308Y-73865000D01*
X186234490Y-73847660D01*
X186234490Y-72507230D01*
X186075740Y-72348480D01*
X184727000Y-72348480D01*
X184727000Y-72368480D01*
X184473000Y-72368480D01*
X184473000Y-72348480D01*
X183124260Y-72348480D01*
X182965510Y-72507230D01*
X182965510Y-73847660D01*
X182972692Y-73865000D01*
X182246456Y-73865000D01*
X181447002Y-73065545D01*
X181447002Y-73006252D01*
X181605750Y-73165000D01*
X181821310Y-73165000D01*
X182054699Y-73068327D01*
X182233327Y-72889698D01*
X182330000Y-72656309D01*
X182330000Y-72215750D01*
X182171250Y-72057000D01*
X181447000Y-72057000D01*
X181447000Y-72077000D01*
X181193000Y-72077000D01*
X181193000Y-72057000D01*
X181173000Y-72057000D01*
X181173000Y-71803000D01*
X181193000Y-71803000D01*
X181193000Y-71783000D01*
X181447000Y-71783000D01*
X181447000Y-71803000D01*
X182171250Y-71803000D01*
X182330000Y-71644250D01*
X182330000Y-71203691D01*
X182233327Y-70970302D01*
X182231957Y-70968932D01*
X182268808Y-70915000D01*
X182338855Y-70915000D01*
X182338860Y-70915001D01*
X182621344Y-70858810D01*
X182677535Y-70847633D01*
X182946361Y-70668010D01*
X182965510Y-70668010D01*
X182965510Y-70686834D01*
X182952047Y-70729123D01*
X182965510Y-70806543D01*
X182965510Y-71935730D01*
X183124260Y-72094480D01*
X184473000Y-72094480D01*
X184473000Y-69350270D01*
X184453000Y-69350270D01*
X184453000Y-69143000D01*
X184473000Y-69143000D01*
X184473000Y-69123000D01*
X184727000Y-69123000D01*
X184727000Y-69143000D01*
X184727000Y-69143000D01*
G37*
X184727000Y-69143000D02*
X184747000Y-69143000D01*
X184747000Y-69350270D01*
X184727000Y-69350270D01*
X184727000Y-72094480D01*
X186075740Y-72094480D01*
X186134470Y-72035750D01*
X186940000Y-72035750D01*
X186940000Y-72476309D01*
X187036673Y-72709698D01*
X187215301Y-72888327D01*
X187448690Y-72985000D01*
X187664250Y-72985000D01*
X187823000Y-72826250D01*
X187823000Y-71877000D01*
X187098750Y-71877000D01*
X186940000Y-72035750D01*
X186134470Y-72035750D01*
X186234490Y-71935730D01*
X186234490Y-70828421D01*
X186236195Y-70668010D01*
X186601520Y-70668010D01*
X186836837Y-70623732D01*
X186946921Y-70552895D01*
X186971838Y-70685317D01*
X187038329Y-70788646D01*
X187036673Y-70790302D01*
X186940000Y-71023691D01*
X186940000Y-71464250D01*
X187098750Y-71623000D01*
X187823000Y-71623000D01*
X187823000Y-71603000D01*
X188077000Y-71603000D01*
X188077000Y-71623000D01*
X188097000Y-71623000D01*
X188097000Y-71877000D01*
X188077000Y-71877000D01*
X188077000Y-72826250D01*
X188235750Y-72985000D01*
X188451310Y-72985000D01*
X188684699Y-72888327D01*
X188863327Y-72709698D01*
X188960000Y-72476309D01*
X188960000Y-72336579D01*
X189009208Y-72385787D01*
X189009210Y-72385790D01*
X189296326Y-72577633D01*
X189635000Y-72645001D01*
X189685277Y-72635000D01*
X192836560Y-72635000D01*
X192836560Y-72766000D01*
X192880838Y-73001317D01*
X193019910Y-73217441D01*
X193232110Y-73362431D01*
X193484000Y-73413440D01*
X193537276Y-73413440D01*
X193332567Y-73550222D01*
X193122239Y-73865000D01*
X186227308Y-73865000D01*
X186234490Y-73847660D01*
X186234490Y-72507230D01*
X186075740Y-72348480D01*
X184727000Y-72348480D01*
X184727000Y-72368480D01*
X184473000Y-72368480D01*
X184473000Y-72348480D01*
X183124260Y-72348480D01*
X182965510Y-72507230D01*
X182965510Y-73847660D01*
X182972692Y-73865000D01*
X182246456Y-73865000D01*
X181447002Y-73065545D01*
X181447002Y-73006252D01*
X181605750Y-73165000D01*
X181821310Y-73165000D01*
X182054699Y-73068327D01*
X182233327Y-72889698D01*
X182330000Y-72656309D01*
X182330000Y-72215750D01*
X182171250Y-72057000D01*
X181447000Y-72057000D01*
X181447000Y-72077000D01*
X181193000Y-72077000D01*
X181193000Y-72057000D01*
X181173000Y-72057000D01*
X181173000Y-71803000D01*
X181193000Y-71803000D01*
X181193000Y-71783000D01*
X181447000Y-71783000D01*
X181447000Y-71803000D01*
X182171250Y-71803000D01*
X182330000Y-71644250D01*
X182330000Y-71203691D01*
X182233327Y-70970302D01*
X182231957Y-70968932D01*
X182268808Y-70915000D01*
X182338855Y-70915000D01*
X182338860Y-70915001D01*
X182621344Y-70858810D01*
X182677535Y-70847633D01*
X182946361Y-70668010D01*
X182965510Y-70668010D01*
X182965510Y-70686834D01*
X182952047Y-70729123D01*
X182965510Y-70806543D01*
X182965510Y-71935730D01*
X183124260Y-72094480D01*
X184473000Y-72094480D01*
X184473000Y-69350270D01*
X184453000Y-69350270D01*
X184453000Y-69143000D01*
X184473000Y-69143000D01*
X184473000Y-69123000D01*
X184727000Y-69123000D01*
X184727000Y-69143000D01*
G36*
X177039154Y-60515079D02*
X177293827Y-60685245D01*
X177594233Y-60745000D01*
X178055000Y-60745000D01*
X178055000Y-61205767D01*
X178114755Y-61506173D01*
X178284921Y-61760846D01*
X178539594Y-61931012D01*
X178840000Y-61990767D01*
X179090000Y-61941038D01*
X179340000Y-61990767D01*
X179348923Y-61988992D01*
X179255460Y-62214074D01*
X179255333Y-62360000D01*
X178823691Y-62360000D01*
X178590302Y-62456673D01*
X178411673Y-62635301D01*
X178315000Y-62868690D01*
X178315000Y-63084250D01*
X178473750Y-63243000D01*
X179423000Y-63243000D01*
X179423000Y-63223000D01*
X179677000Y-63223000D01*
X179677000Y-63243000D01*
X179697000Y-63243000D01*
X179697000Y-63497000D01*
X179677000Y-63497000D01*
X179677000Y-64221250D01*
X179835750Y-64380000D01*
X180276309Y-64380000D01*
X180509698Y-64283327D01*
X180511068Y-64281957D01*
X180598110Y-64341431D01*
X180850000Y-64392440D01*
X181126038Y-64392440D01*
X181340000Y-64435000D01*
X181553962Y-64392440D01*
X182050000Y-64392440D01*
X182285317Y-64348162D01*
X182501441Y-64209090D01*
X182646431Y-63996890D01*
X182697440Y-63745000D01*
X182697440Y-62995000D01*
X182653162Y-62759683D01*
X182514090Y-62543559D01*
X182301890Y-62398569D01*
X182100000Y-62357685D01*
X182100000Y-61939049D01*
X182140406Y-61931012D01*
X182343964Y-61795000D01*
X183089995Y-61795000D01*
X183090000Y-61795001D01*
X183090005Y-61795000D01*
X183439995Y-61795000D01*
X183440000Y-61795001D01*
X183440005Y-61795000D01*
X183690000Y-61795000D01*
X184028675Y-61727633D01*
X184036370Y-61722491D01*
X184096883Y-61868943D01*
X184359673Y-62132192D01*
X184703201Y-62274838D01*
X184750077Y-62274879D01*
X185280000Y-62804802D01*
X185280000Y-63204895D01*
X185138559Y-63295910D01*
X184993569Y-63508110D01*
X184942560Y-63760000D01*
X184942560Y-64260000D01*
X184986838Y-64495317D01*
X185125910Y-64711441D01*
X185195711Y-64759134D01*
X185138559Y-64795910D01*
X184993569Y-65008110D01*
X184942560Y-65260000D01*
X184942560Y-65760000D01*
X184986838Y-65995317D01*
X185125910Y-66211441D01*
X185155000Y-66231317D01*
X185155000Y-66303421D01*
X185053420Y-66405000D01*
X183828295Y-66405000D01*
X183828290Y-66404999D01*
X183582238Y-66453943D01*
X183489615Y-66472367D01*
X183202500Y-66664210D01*
X183202498Y-66664213D01*
X182473070Y-67393640D01*
X182281227Y-67680755D01*
X182281227Y-67680756D01*
X182215476Y-68011302D01*
X182147039Y-68055340D01*
X182002049Y-68267540D01*
X181951040Y-68519430D01*
X181951040Y-68836405D01*
X181946890Y-68833569D01*
X181695000Y-68782560D01*
X180945000Y-68782560D01*
X180709683Y-68826838D01*
X180493559Y-68965910D01*
X180359583Y-69161991D01*
X180106325Y-69212367D01*
X179819210Y-69404210D01*
X179819208Y-69404213D01*
X179460000Y-69763421D01*
X178780790Y-69084210D01*
X178676735Y-69014683D01*
X178493675Y-68892367D01*
X178437484Y-68881190D01*
X178155000Y-68824999D01*
X178154995Y-68825000D01*
X175320273Y-68825000D01*
X175270000Y-68815000D01*
X173394394Y-68815000D01*
X173222283Y-68700000D01*
X173464851Y-68537922D01*
X173721726Y-68153480D01*
X173811929Y-67700000D01*
X173752255Y-67400000D01*
X174920000Y-67400000D01*
X175210839Y-67342148D01*
X175457401Y-67177401D01*
X175983275Y-66651527D01*
X176210000Y-66697440D01*
X176710000Y-66697440D01*
X176945317Y-66653162D01*
X177161441Y-66514090D01*
X177209134Y-66444289D01*
X177245910Y-66501441D01*
X177458110Y-66646431D01*
X177710000Y-66697440D01*
X178210000Y-66697440D01*
X178445317Y-66653162D01*
X178661441Y-66514090D01*
X178705260Y-66449959D01*
X178830030Y-66535211D01*
X179081920Y-66586220D01*
X179879480Y-66586220D01*
X180114797Y-66541942D01*
X180218759Y-66475044D01*
X180220822Y-66477107D01*
X180454211Y-66573780D01*
X180693550Y-66573780D01*
X180852300Y-66415030D01*
X180852300Y-65667000D01*
X181106300Y-65667000D01*
X181106300Y-66415030D01*
X181265050Y-66573780D01*
X181504389Y-66573780D01*
X181737778Y-66477107D01*
X181916407Y-66298479D01*
X182013080Y-66065090D01*
X182013080Y-65825750D01*
X181854330Y-65667000D01*
X181106300Y-65667000D01*
X180852300Y-65667000D01*
X180832300Y-65667000D01*
X180832300Y-65413000D01*
X180852300Y-65413000D01*
X180852300Y-64664970D01*
X181106300Y-64664970D01*
X181106300Y-65413000D01*
X181854330Y-65413000D01*
X182013080Y-65254250D01*
X182013080Y-65014910D01*
X181916407Y-64781521D01*
X181737778Y-64602893D01*
X181504389Y-64506220D01*
X181265050Y-64506220D01*
X181106300Y-64664970D01*
X180852300Y-64664970D01*
X180693550Y-64506220D01*
X180454211Y-64506220D01*
X180220822Y-64602893D01*
X180219030Y-64604685D01*
X180131370Y-64544789D01*
X179879480Y-64493780D01*
X179081920Y-64493780D01*
X178846603Y-64538058D01*
X178636787Y-64673071D01*
X178461890Y-64553569D01*
X178210000Y-64502560D01*
X177710000Y-64502560D01*
X177474683Y-64546838D01*
X177258559Y-64685910D01*
X177210866Y-64755711D01*
X177174090Y-64698559D01*
X176961890Y-64553569D01*
X176710000Y-64502560D01*
X176210000Y-64502560D01*
X175974683Y-64546838D01*
X175758559Y-64685910D01*
X175613569Y-64898110D01*
X175604930Y-64940770D01*
X175422599Y-65062599D01*
X174605198Y-65880000D01*
X173776125Y-65880000D01*
X173811929Y-65700000D01*
X173721726Y-65246520D01*
X173464851Y-64862078D01*
X173222283Y-64700000D01*
X173464851Y-64537922D01*
X173721726Y-64153480D01*
X173811929Y-63700000D01*
X173803128Y-63655750D01*
X178315000Y-63655750D01*
X178315000Y-63871310D01*
X178411673Y-64104699D01*
X178590302Y-64283327D01*
X178823691Y-64380000D01*
X179264250Y-64380000D01*
X179423000Y-64221250D01*
X179423000Y-63497000D01*
X178473750Y-63497000D01*
X178315000Y-63655750D01*
X173803128Y-63655750D01*
X173721726Y-63246520D01*
X173464851Y-62862078D01*
X173222283Y-62700000D01*
X173464851Y-62537922D01*
X173516917Y-62460000D01*
X174475000Y-62460000D01*
X174765839Y-62402148D01*
X175012401Y-62237401D01*
X176917217Y-60332585D01*
X177039154Y-60515079D01*
X177039154Y-60515079D01*
G37*
X177039154Y-60515079D02*
X177293827Y-60685245D01*
X177594233Y-60745000D01*
X178055000Y-60745000D01*
X178055000Y-61205767D01*
X178114755Y-61506173D01*
X178284921Y-61760846D01*
X178539594Y-61931012D01*
X178840000Y-61990767D01*
X179090000Y-61941038D01*
X179340000Y-61990767D01*
X179348923Y-61988992D01*
X179255460Y-62214074D01*
X179255333Y-62360000D01*
X178823691Y-62360000D01*
X178590302Y-62456673D01*
X178411673Y-62635301D01*
X178315000Y-62868690D01*
X178315000Y-63084250D01*
X178473750Y-63243000D01*
X179423000Y-63243000D01*
X179423000Y-63223000D01*
X179677000Y-63223000D01*
X179677000Y-63243000D01*
X179697000Y-63243000D01*
X179697000Y-63497000D01*
X179677000Y-63497000D01*
X179677000Y-64221250D01*
X179835750Y-64380000D01*
X180276309Y-64380000D01*
X180509698Y-64283327D01*
X180511068Y-64281957D01*
X180598110Y-64341431D01*
X180850000Y-64392440D01*
X181126038Y-64392440D01*
X181340000Y-64435000D01*
X181553962Y-64392440D01*
X182050000Y-64392440D01*
X182285317Y-64348162D01*
X182501441Y-64209090D01*
X182646431Y-63996890D01*
X182697440Y-63745000D01*
X182697440Y-62995000D01*
X182653162Y-62759683D01*
X182514090Y-62543559D01*
X182301890Y-62398569D01*
X182100000Y-62357685D01*
X182100000Y-61939049D01*
X182140406Y-61931012D01*
X182343964Y-61795000D01*
X183089995Y-61795000D01*
X183090000Y-61795001D01*
X183090005Y-61795000D01*
X183439995Y-61795000D01*
X183440000Y-61795001D01*
X183440005Y-61795000D01*
X183690000Y-61795000D01*
X184028675Y-61727633D01*
X184036370Y-61722491D01*
X184096883Y-61868943D01*
X184359673Y-62132192D01*
X184703201Y-62274838D01*
X184750077Y-62274879D01*
X185280000Y-62804802D01*
X185280000Y-63204895D01*
X185138559Y-63295910D01*
X184993569Y-63508110D01*
X184942560Y-63760000D01*
X184942560Y-64260000D01*
X184986838Y-64495317D01*
X185125910Y-64711441D01*
X185195711Y-64759134D01*
X185138559Y-64795910D01*
X184993569Y-65008110D01*
X184942560Y-65260000D01*
X184942560Y-65760000D01*
X184986838Y-65995317D01*
X185125910Y-66211441D01*
X185155000Y-66231317D01*
X185155000Y-66303421D01*
X185053420Y-66405000D01*
X183828295Y-66405000D01*
X183828290Y-66404999D01*
X183582238Y-66453943D01*
X183489615Y-66472367D01*
X183202500Y-66664210D01*
X183202498Y-66664213D01*
X182473070Y-67393640D01*
X182281227Y-67680755D01*
X182281227Y-67680756D01*
X182215476Y-68011302D01*
X182147039Y-68055340D01*
X182002049Y-68267540D01*
X181951040Y-68519430D01*
X181951040Y-68836405D01*
X181946890Y-68833569D01*
X181695000Y-68782560D01*
X180945000Y-68782560D01*
X180709683Y-68826838D01*
X180493559Y-68965910D01*
X180359583Y-69161991D01*
X180106325Y-69212367D01*
X179819210Y-69404210D01*
X179819208Y-69404213D01*
X179460000Y-69763421D01*
X178780790Y-69084210D01*
X178676735Y-69014683D01*
X178493675Y-68892367D01*
X178437484Y-68881190D01*
X178155000Y-68824999D01*
X178154995Y-68825000D01*
X175320273Y-68825000D01*
X175270000Y-68815000D01*
X173394394Y-68815000D01*
X173222283Y-68700000D01*
X173464851Y-68537922D01*
X173721726Y-68153480D01*
X173811929Y-67700000D01*
X173752255Y-67400000D01*
X174920000Y-67400000D01*
X175210839Y-67342148D01*
X175457401Y-67177401D01*
X175983275Y-66651527D01*
X176210000Y-66697440D01*
X176710000Y-66697440D01*
X176945317Y-66653162D01*
X177161441Y-66514090D01*
X177209134Y-66444289D01*
X177245910Y-66501441D01*
X177458110Y-66646431D01*
X177710000Y-66697440D01*
X178210000Y-66697440D01*
X178445317Y-66653162D01*
X178661441Y-66514090D01*
X178705260Y-66449959D01*
X178830030Y-66535211D01*
X179081920Y-66586220D01*
X179879480Y-66586220D01*
X180114797Y-66541942D01*
X180218759Y-66475044D01*
X180220822Y-66477107D01*
X180454211Y-66573780D01*
X180693550Y-66573780D01*
X180852300Y-66415030D01*
X180852300Y-65667000D01*
X181106300Y-65667000D01*
X181106300Y-66415030D01*
X181265050Y-66573780D01*
X181504389Y-66573780D01*
X181737778Y-66477107D01*
X181916407Y-66298479D01*
X182013080Y-66065090D01*
X182013080Y-65825750D01*
X181854330Y-65667000D01*
X181106300Y-65667000D01*
X180852300Y-65667000D01*
X180832300Y-65667000D01*
X180832300Y-65413000D01*
X180852300Y-65413000D01*
X180852300Y-64664970D01*
X181106300Y-64664970D01*
X181106300Y-65413000D01*
X181854330Y-65413000D01*
X182013080Y-65254250D01*
X182013080Y-65014910D01*
X181916407Y-64781521D01*
X181737778Y-64602893D01*
X181504389Y-64506220D01*
X181265050Y-64506220D01*
X181106300Y-64664970D01*
X180852300Y-64664970D01*
X180693550Y-64506220D01*
X180454211Y-64506220D01*
X180220822Y-64602893D01*
X180219030Y-64604685D01*
X180131370Y-64544789D01*
X179879480Y-64493780D01*
X179081920Y-64493780D01*
X178846603Y-64538058D01*
X178636787Y-64673071D01*
X178461890Y-64553569D01*
X178210000Y-64502560D01*
X177710000Y-64502560D01*
X177474683Y-64546838D01*
X177258559Y-64685910D01*
X177210866Y-64755711D01*
X177174090Y-64698559D01*
X176961890Y-64553569D01*
X176710000Y-64502560D01*
X176210000Y-64502560D01*
X175974683Y-64546838D01*
X175758559Y-64685910D01*
X175613569Y-64898110D01*
X175604930Y-64940770D01*
X175422599Y-65062599D01*
X174605198Y-65880000D01*
X173776125Y-65880000D01*
X173811929Y-65700000D01*
X173721726Y-65246520D01*
X173464851Y-64862078D01*
X173222283Y-64700000D01*
X173464851Y-64537922D01*
X173721726Y-64153480D01*
X173811929Y-63700000D01*
X173803128Y-63655750D01*
X178315000Y-63655750D01*
X178315000Y-63871310D01*
X178411673Y-64104699D01*
X178590302Y-64283327D01*
X178823691Y-64380000D01*
X179264250Y-64380000D01*
X179423000Y-64221250D01*
X179423000Y-63497000D01*
X178473750Y-63497000D01*
X178315000Y-63655750D01*
X173803128Y-63655750D01*
X173721726Y-63246520D01*
X173464851Y-62862078D01*
X173222283Y-62700000D01*
X173464851Y-62537922D01*
X173516917Y-62460000D01*
X174475000Y-62460000D01*
X174765839Y-62402148D01*
X175012401Y-62237401D01*
X176917217Y-60332585D01*
X177039154Y-60515079D01*
G36*
X150755910Y-57391441D02*
X150968110Y-57536431D01*
X151220000Y-57587440D01*
X151492638Y-57587440D01*
X152484730Y-58579532D01*
X152731292Y-58744279D01*
X153022131Y-58802131D01*
X154709149Y-58802131D01*
X154643569Y-58898110D01*
X154635086Y-58940000D01*
X150855398Y-58940000D01*
X150710000Y-58968922D01*
X150710000Y-57320095D01*
X150755910Y-57391441D01*
X150755910Y-57391441D01*
G37*
X150755910Y-57391441D02*
X150968110Y-57536431D01*
X151220000Y-57587440D01*
X151492638Y-57587440D01*
X152484730Y-58579532D01*
X152731292Y-58744279D01*
X153022131Y-58802131D01*
X154709149Y-58802131D01*
X154643569Y-58898110D01*
X154635086Y-58940000D01*
X150855398Y-58940000D01*
X150710000Y-58968922D01*
X150710000Y-57320095D01*
X150755910Y-57391441D01*
G36*
X154973000Y-52035301D02*
X154844046Y-52228295D01*
X154790000Y-52500000D01*
X154790000Y-57282131D01*
X153336933Y-57282131D01*
X152767440Y-56712638D01*
X152767440Y-56440000D01*
X152723162Y-56204683D01*
X152584090Y-55988559D01*
X152514289Y-55940866D01*
X152571441Y-55904090D01*
X152716431Y-55691890D01*
X152767440Y-55440000D01*
X152767440Y-54940000D01*
X152723162Y-54704683D01*
X152584090Y-54488559D01*
X152430000Y-54383274D01*
X152430000Y-54046220D01*
X152449480Y-54046220D01*
X152684797Y-54001942D01*
X152788759Y-53935044D01*
X152790822Y-53937107D01*
X153024211Y-54033780D01*
X153263550Y-54033780D01*
X153422300Y-53875030D01*
X153422300Y-53127000D01*
X153676300Y-53127000D01*
X153676300Y-53875030D01*
X153835050Y-54033780D01*
X154074389Y-54033780D01*
X154307778Y-53937107D01*
X154486407Y-53758479D01*
X154583080Y-53525090D01*
X154583080Y-53285750D01*
X154424330Y-53127000D01*
X153676300Y-53127000D01*
X153422300Y-53127000D01*
X153402300Y-53127000D01*
X153402300Y-52873000D01*
X153422300Y-52873000D01*
X153422300Y-52124970D01*
X153676300Y-52124970D01*
X153676300Y-52873000D01*
X154424330Y-52873000D01*
X154583080Y-52714250D01*
X154583080Y-52474910D01*
X154486407Y-52241521D01*
X154307778Y-52062893D01*
X154074389Y-51966220D01*
X153835050Y-51966220D01*
X153676300Y-52124970D01*
X153422300Y-52124970D01*
X153263550Y-51966220D01*
X153024211Y-51966220D01*
X152790822Y-52062893D01*
X152789030Y-52064685D01*
X152701370Y-52004789D01*
X152449480Y-51953780D01*
X151651920Y-51953780D01*
X151416603Y-51998058D01*
X151200479Y-52137130D01*
X151055489Y-52349330D01*
X151004480Y-52601220D01*
X151004480Y-53038051D01*
X150967852Y-53092869D01*
X150910000Y-53383708D01*
X150910000Y-54384895D01*
X150768559Y-54475910D01*
X150710000Y-54561614D01*
X150710000Y-51069930D01*
X150744926Y-50894345D01*
X150804774Y-50804775D01*
X150894345Y-50744926D01*
X151069930Y-50710000D01*
X154973000Y-50710000D01*
X154973000Y-52035301D01*
X154973000Y-52035301D01*
G37*
X154973000Y-52035301D02*
X154844046Y-52228295D01*
X154790000Y-52500000D01*
X154790000Y-57282131D01*
X153336933Y-57282131D01*
X152767440Y-56712638D01*
X152767440Y-56440000D01*
X152723162Y-56204683D01*
X152584090Y-55988559D01*
X152514289Y-55940866D01*
X152571441Y-55904090D01*
X152716431Y-55691890D01*
X152767440Y-55440000D01*
X152767440Y-54940000D01*
X152723162Y-54704683D01*
X152584090Y-54488559D01*
X152430000Y-54383274D01*
X152430000Y-54046220D01*
X152449480Y-54046220D01*
X152684797Y-54001942D01*
X152788759Y-53935044D01*
X152790822Y-53937107D01*
X153024211Y-54033780D01*
X153263550Y-54033780D01*
X153422300Y-53875030D01*
X153422300Y-53127000D01*
X153676300Y-53127000D01*
X153676300Y-53875030D01*
X153835050Y-54033780D01*
X154074389Y-54033780D01*
X154307778Y-53937107D01*
X154486407Y-53758479D01*
X154583080Y-53525090D01*
X154583080Y-53285750D01*
X154424330Y-53127000D01*
X153676300Y-53127000D01*
X153422300Y-53127000D01*
X153402300Y-53127000D01*
X153402300Y-52873000D01*
X153422300Y-52873000D01*
X153422300Y-52124970D01*
X153676300Y-52124970D01*
X153676300Y-52873000D01*
X154424330Y-52873000D01*
X154583080Y-52714250D01*
X154583080Y-52474910D01*
X154486407Y-52241521D01*
X154307778Y-52062893D01*
X154074389Y-51966220D01*
X153835050Y-51966220D01*
X153676300Y-52124970D01*
X153422300Y-52124970D01*
X153263550Y-51966220D01*
X153024211Y-51966220D01*
X152790822Y-52062893D01*
X152789030Y-52064685D01*
X152701370Y-52004789D01*
X152449480Y-51953780D01*
X151651920Y-51953780D01*
X151416603Y-51998058D01*
X151200479Y-52137130D01*
X151055489Y-52349330D01*
X151004480Y-52601220D01*
X151004480Y-53038051D01*
X150967852Y-53092869D01*
X150910000Y-53383708D01*
X150910000Y-54384895D01*
X150768559Y-54475910D01*
X150710000Y-54561614D01*
X150710000Y-51069930D01*
X150744926Y-50894345D01*
X150804774Y-50804775D01*
X150894345Y-50744926D01*
X151069930Y-50710000D01*
X154973000Y-50710000D01*
X154973000Y-52035301D01*
M02*
