<?xml version="1.0" encoding="UTF-8" standalone="no"?>
<!-- Created with Inkscape (http://www.inkscape.org/) -->

<svg
   xmlns:dc="http://purl.org/dc/elements/1.1/"
   xmlns:cc="http://creativecommons.org/ns#"
   xmlns:rdf="http://www.w3.org/1999/02/22-rdf-syntax-ns#"
   xmlns:svg="http://www.w3.org/2000/svg"
   xmlns="http://www.w3.org/2000/svg"
   xmlns:sodipodi="http://sodipodi.sourceforge.net/DTD/sodipodi-0.dtd"
   xmlns:inkscape="http://www.inkscape.org/namespaces/inkscape"
   width="203.18433mm"
   height="184.2843mm"
   viewBox="0 0 719.94446 652.97587"
   id="svg2"
   version="1.1"
   inkscape:version="0.91 r"
   sodipodi:docname="plantbot.svg">
  <defs
     id="defs4" />
  <sodipodi:namedview
     id="base"
     pagecolor="#ffffff"
     bordercolor="#666666"
     borderopacity="1.0"
     inkscape:pageopacity="0.0"
     inkscape:pageshadow="2"
     inkscape:zoom="0.98994949"
     inkscape:cx="98.45551"
     inkscape:cy="323.86083"
     inkscape:document-units="px"
     inkscape:current-layer="layer1"
     showgrid="false"
     showguides="true"
     inkscape:guide-bbox="true"
     inkscape:window-width="1920"
     inkscape:window-height="1027"
     inkscape:window-x="0"
     inkscape:window-y="0"
     inkscape:window-maximized="1"
     fit-margin-top="7"
     fit-margin-left="7"
     fit-margin-right="7"
     fit-margin-bottom="7" />
  <metadata
     id="metadata7">
    <rdf:RDF>
      <cc:Work
         rdf:about="">
        <dc:format>image/svg+xml</dc:format>
        <dc:type
           rdf:resource="http://purl.org/dc/dcmitype/StillImage" />
        <dc:title></dc:title>
      </cc:Work>
    </rdf:RDF>
  </metadata>
  <g
     inkscape:label="Ebene 1"
     inkscape:groupmode="layer"
     id="layer1"
     transform="translate(6.4008056,-179.4449)">
    <g
       id="g4372">
      <path
         id="path3"
         d="m 311.21875,204.24805 c -2.03773,0 -4.01428,1.6427 -4.38477,3.65039 l -15.84179,85.1289 c -0.38051,2.00769 -2.26248,4.17555 -4.20508,4.81641 l -57.0625,23.35742 c -1.83246,0.90121 -4.71533,0.69561 -6.39258,-0.46094 L 152.2168,271.93555 c -1.68726,-1.15655 -4.24557,-0.92155 -5.6875,0.52539 l -59.900394,59.89453 c -1.441932,1.44694 -1.681939,4.00525 -0.52539,5.6875 L 134.0625,407.9375 c 1.15154,1.69227 1.33078,4.54585 0.39453,6.36328 l -25.23242,58.85938 c -0.6709,1.93259 -2.86035,3.81394 -4.87305,4.18945 l -82.298826,15.30664 c -2.0127,0.38051 -3.65039,2.3518 -3.65039,4.39453 l 0.0059,84.70899 c 0,2.04273 1.640748,4.03099 3.648438,4.39648 l 80.283198,14.93945 c 2.00769,0.36549 4.15481,2.2731 4.76563,4.22071 l 25.06445,62.60937 c 0.8962,1.83747 0.685,4.71033 -0.47656,6.39258 l -45.599609,66.45508 c -1.151543,1.68225 -0.916541,4.24447 0.525391,5.6914 l 59.904298,59.89649 c 1.44194,1.43693 4.00024,1.67192 5.6875,0.52539 l 65.27734,-44.80469 c 1.68226,-1.15155 4.50241,-1.24318 6.25977,-0.2168 l 28.78711,15.3711 c 1.82244,0.93125 3.95138,0.14534 4.73242,-1.74219 l 15.94726,-38.5332 A 210.61742,210.61742 0 0 1 142.95312,542.36133 210.61742,210.61742 0 0 1 353.57227,331.74414 210.61742,210.61742 0 0 1 564.18945,542.36133 210.61742,210.61742 0 0 1 433.89258,736.875 L 449.875,775.5 c 0.78104,1.88753 2.90497,2.66843 4.73242,1.74219 l 28.78711,-15.3711 c 1.76236,-1.02637 4.57752,-0.9417 6.25977,0.21485 l 65.28125,44.80468 c 1.68225,1.14654 4.24667,0.91154 5.68359,-0.52539 l 59.9043,-59.89453 c 1.44693,-1.44694 1.68194,-4.0111 0.52539,-5.69336 l -45.60547,-66.45312 c -1.15155,-1.68226 -1.36691,-4.55707 -0.4707,-6.39453 l 25.06445,-62.60742 c 0.61582,-1.94761 2.74902,-3.85522 4.76172,-4.22071 l 80.28125,-14.9414 c 2.00268,-0.36549 3.65039,-2.3518 3.65039,-4.39454 l 0.01,-84.70898 c 0.005,-2.04774 -1.63599,-4.01988 -3.63867,-4.40039 l -82.30664,-15.30664 c -2.00268,-0.37551 -4.19519,-2.25686 -4.87109,-4.18945 l -25.22852,-58.85938 c -0.94126,-1.81743 -0.76117,-4.67101 0.40039,-6.36328 l 47.95313,-69.89453 c 1.14654,-1.68225 0.92154,-4.24056 -0.52539,-5.6875 l -59.89453,-59.89453 c -1.44694,-1.44694 -4.00134,-1.68194 -5.6836,-0.52539 l -71.11914,48.80468 c -1.68225,1.15655 -4.56708,1.36215 -6.39453,0.46094 L 420.375,297.84375 c -1.93759,-0.64086 -3.82457,-2.80872 -4.20508,-4.81641 l -15.8457,-85.1289 c -0.3705,-2.00769 -2.34789,-3.65039 -4.39063,-3.65039 l -84.71484,0 z"
         style="fill:#00951d;fill-opacity:1"
         inkscape:connector-curvature="0" />
      <g
         style="fill:#00951d;fill-opacity:1"
         transform="translate(4.1997177,34.285714)"
         id="g4296">
        <path
           style="fill:#00951d;fill-opacity:1;fill-rule:evenodd;stroke:none;stroke-width:1px;stroke-linecap:butt;stroke-linejoin:miter;stroke-opacity:1"
           d="m 351.5957,379.50586 c -37.71903,37.71904 -100.3903,128.50916 -8.90429,157.50195 l 4.16601,-60.35937 4.14258,0 4.16211,60.25195 c 93.93085,-29.72018 34.14273,-119.51616 -3.56641,-157.39453 z"
           id="path4294"
           inkscape:connector-curvature="0"
           sodipodi:nodetypes="cccccc" />
        <path
           style="fill:#00951d;fill-opacity:1;fill-rule:evenodd;stroke:none;stroke-width:1px;stroke-linecap:butt;stroke-linejoin:miter;stroke-opacity:1"
           d="m 355.16211,556.90039 c -2.07455,0.6564 -4.19544,1.29405 -6.42188,1.89063 -2.09631,-0.56171 -4.09491,-1.16399 -6.04882,-1.78321 l -5.83399,106.78321 24.14258,0 z"
           id="path4282"
           inkscape:connector-curvature="0"
           sodipodi:nodetypes="cccccc" />
        <path
           sodipodi:nodetypes="cccccc"
           inkscape:connector-curvature="0"
           id="path4300"
           d="m 466.62348,548.61185 c -38.3543,1.36873 -115.86712,18.44929 -81.90832,78.56939 l 31.7865,-29.74061 2.18134,2.03101 -27.34855,33.76714 c 64.0318,30.40257 76.57442,-46.19358 75.28903,-84.62693 z"
           style="fill:#00951d;fill-opacity:1;fill-rule:evenodd;stroke:none;stroke-width:1px;stroke-linecap:butt;stroke-linejoin:miter;stroke-opacity:1" />
        <path
           style="fill:#00951d;fill-opacity:1;fill-rule:evenodd;stroke:none;stroke-width:1px;stroke-linecap:butt;stroke-linejoin:miter;stroke-opacity:1"
           d="m 232.11967,548.61185 c 38.3543,1.36873 115.86712,18.44929 81.90832,78.56939 l -31.7865,-29.74061 -2.18134,2.03101 27.34855,33.76714 c -64.0318,30.40257 -76.57442,-46.19358 -75.28903,-84.62693 z"
           id="path4302"
           inkscape:connector-curvature="0"
           sodipodi:nodetypes="cccccc" />
      </g>
      <g
         transform="translate(18.571429,51.428571)"
         style="stroke:#00951d;stroke-opacity:1"
         id="g4308">
        <circle
           style="opacity:1;fill:none;fill-opacity:1;stroke:#00951d;stroke-width:6;stroke-miterlimit:4;stroke-dasharray:none;stroke-opacity:1"
           id="path4304"
           cx="272.23608"
           cy="511.42554"
           r="10.101525" />
        <path
           sodipodi:nodetypes="ccc"
           style="fill:none;fill-rule:evenodd;stroke:#00951d;stroke-width:6;stroke-linecap:butt;stroke-linejoin:miter;stroke-miterlimit:4;stroke-dasharray:none;stroke-opacity:1"
           d="m 268.70058,503.84937 -16.66752,-27.27412 -89.17442,0"
           id="path4306"
           inkscape:connector-curvature="0" />
      </g>
      <g
         style="stroke:#00951d;stroke-opacity:1"
         transform="matrix(-1,0,0,1,689.42942,-48.475004)"
         id="g4312">
        <circle
           r="10.101525"
           cy="511.42554"
           cx="272.23608"
           id="circle4314"
           style="opacity:1;fill:none;fill-opacity:1;stroke:#00951d;stroke-width:6;stroke-miterlimit:4;stroke-dasharray:none;stroke-opacity:1" />
        <path
           inkscape:connector-curvature="0"
           id="path4316"
           d="m 268.70058,503.84937 -16.66752,-27.27412 -81.31728,0"
           style="fill:none;fill-rule:evenodd;stroke:#00951d;stroke-width:6;stroke-linecap:butt;stroke-linejoin:miter;stroke-miterlimit:4;stroke-dasharray:none;stroke-opacity:1" />
      </g>
      <g
         style="stroke:#00951d;stroke-opacity:1"
         id="g4318"
         transform="matrix(-1,0,0,-1,723.08644,974.69803)">
        <circle
           style="opacity:1;fill:none;fill-opacity:1;stroke:#00951d;stroke-width:6;stroke-miterlimit:4;stroke-dasharray:none;stroke-opacity:1"
           id="circle4320"
           cx="272.23608"
           cy="511.42554"
           r="10.101525" />
        <path
           style="fill:none;fill-rule:evenodd;stroke:#00951d;stroke-width:6;stroke-linecap:butt;stroke-linejoin:miter;stroke-miterlimit:4;stroke-dasharray:none;stroke-opacity:1"
           d="m 268.70058,503.84937 -16.66752,-27.27412 -81.31728,0"
           id="path4322"
           inkscape:connector-curvature="0" />
      </g>
    </g>
  </g>
</svg>
